<?xml version="1.0" encoding="utf-8"?>
<!-- Generator: Adobe Illustrator 22.1.0, SVG Export Plug-In . SVG Version: 6.00 Build 0)  -->
<svg version="1.1" id="Capa_1" xmlns="http://www.w3.org/2000/svg" xmlns:xlink="http://www.w3.org/1999/xlink" x="0px" y="0px"
	 viewBox="0 0 512 512" style="enable-background:new 0 0 512 512;" xml:space="preserve">
<style type="text/css">
	.st0{fill:#FFFFFF;}
	.st1{fill:#351B5D;}
</style>
<g>
	<g id="XMLID_1_">
		<g>
			<path class="st0" d="M422,186.7c4,4,6,9.1,6,15.3c0,6-2,11-6,15L241,398c-4.2,4.2-9.3,6.3-15.3,6.3c-5.8,0-10.8-2.1-15-6.3
				L90,277.3c-4-4-6-9-6-15c0-6.2,2-11.3,6-15.3l30.3-30c4.2-4.2,9.2-6.3,15-6.3s10.8,2.1,15,6.3l75.3,75.3l136-135.7
				c4.2-4.2,9.2-6.3,15-6.3c5.8,0,10.8,2.1,15,6.3L422,186.7z"/>
			<path class="st1" d="M477.7,127.5C500.6,166.7,512,209.6,512,256c0,46.4-11.4,89.3-34.3,128.5c-22.9,39.2-53.9,70.3-93.2,93.2
				C345.3,500.6,302.5,512,256,512c-46.4,0-89.3-11.4-128.5-34.3c-39.2-22.9-70.3-54-93.2-93.2C11.4,345.3,0,302.4,0,256
				s11.4-89.3,34.3-128.5c22.9-39.2,53.9-70.3,93.2-93.2C166.7,11.4,209.6,0,256,0s89.3,11.4,128.5,34.3
				C423.7,57.2,454.8,88.3,477.7,127.5z M428,202c0-6.2-2-11.3-6-15.3l-30.3-30c-4.2-4.2-9.2-6.3-15-6.3c-5.8,0-10.8,2.1-15,6.3
				l-136,135.7L150.3,217c-4.2-4.2-9.2-6.3-15-6.3s-10.8,2.1-15,6.3L90,247c-4,4-6,9.1-6,15.3c0,6,2,11,6,15L210.7,398
				c4.2,4.2,9.2,6.3,15,6.3c6,0,11.1-2.1,15.3-6.3l181-181C426,213,428,208,428,202z"/>
		</g>
		<g>
		</g>
	</g>
</g>
</svg>
