<?xml version="1.0" encoding="utf-8"?>
<!-- Generator: Adobe Illustrator 16.0.0, SVG Export Plug-In . SVG Version: 6.00 Build 0)  -->
<!DOCTYPE svg PUBLIC "-//W3C//DTD SVG 1.1//EN" "http://www.w3.org/Graphics/SVG/1.1/DTD/svg11.dtd">
<svg version="1.1" id="Layer_1" xmlns="http://www.w3.org/2000/svg" xmlns:xlink="http://www.w3.org/1999/xlink" x="0px" y="0px"
	 width="216px" height="216px" viewBox="0 0 216 216" enable-background="new 0 0 216 216" xml:space="preserve">
<g>
	<circle fill="#DDC353" cx="108" cy="108" r="108"/>
	<g>
		<circle fill="#BA2626" cx="107.999" cy="110.684" r="57.382"/>
		<path fill="#E25252" d="M128.475,57.062l-1-0.341l-1.031-0.392l-1.271-0.415V44.279h-0.006c-0.131-2.646-7.764-4.777-17.166-4.777
			s-17.035,2.132-17.168,4.777h-0.006v11.625l-0.012,0.01l-1.271,0.415l-1.031,0.392l-0.998,0.341l-1.84,0.739
			c0.828,2.029,5.141,2.926,5.141,2.926l0.012-0.112v0.174c0.014-1.344,1.104-2.431,2.451-2.431c1.355,0,2.453,1.099,2.453,2.453
			c0-1.354,1.1-2.453,2.455-2.453c1.354,0,2.453,1.099,2.453,2.453c0-1.354,1.098-2.453,2.453-2.453s2.453,1.099,2.453,2.453
			c0-1.354,1.1-2.453,2.455-2.453s2.453,1.099,2.453,2.453c0-1.354,1.1-2.453,2.453-2.453c1.355,0,2.453,1.099,2.453,2.453
			c0-1.354,1.1-2.453,2.455-2.453s2.453,1.099,2.453,2.453c0-1.354,1.098-2.453,2.455-2.453c1.346,0,2.438,1.087,2.449,2.431v-0.062
			c0,0,4.314-0.896,5.141-2.926L128.475,57.062z"/>
		<path fill="#BA2626" d="M101.27,39.889c0.137-3.595,3.096-6.479,6.725-6.479c3.627,0,6.586,2.884,6.723,6.478
			c0.475,0.059,0.941,0.12,1.395,0.188c-0.039-4.451-3.656-8.051-8.117-8.051c-4.463,0-8.08,3.6-8.117,8.053
			C100.328,40.009,100.795,39.946,101.27,39.889z"/>
		<path fill="#EAEAEA" d="M141.934,109.721h-5.838l1.375-2.447c0.084-0.147,0.029-0.335-0.117-0.418
			c-0.148-0.082-0.336-0.03-0.418,0.117l-1.545,2.748h-2.963l2.773-4.935c0.082-0.148,0.029-0.335-0.117-0.418
			c-0.148-0.083-0.336-0.03-0.418,0.118l-2.943,5.234h-2.994l1.375-2.447c0.084-0.147,0.031-0.335-0.117-0.418
			c-0.146-0.082-0.334-0.03-0.418,0.117l-1.543,2.748h-3.166l-2.973-2.651l1.193-4.275c0.021-0.08,0.012-0.163-0.029-0.234
			c-0.041-0.07-0.107-0.123-0.186-0.145l-3.674-1.026l4.225-3.479l2.941,1.139c0.035,0.014,0.074,0.021,0.109,0.021
			c0.125,0,0.24-0.074,0.287-0.195c0.061-0.159-0.016-0.337-0.176-0.398l-2.617-1.015l2.283-1.881
			c0.131-0.107,0.15-0.303,0.043-0.434c-0.109-0.13-0.303-0.148-0.434-0.042l-2.283,1.883l-0.496-2.764
			c-0.027-0.167-0.188-0.279-0.355-0.249c-0.166,0.03-0.277,0.189-0.248,0.357l0.555,3.103l-4.197,3.459l-0.736-3.947
			c-0.016-0.08-0.063-0.15-0.129-0.196c-0.066-0.047-0.15-0.063-0.229-0.049l-4.02,0.75l-1.813-3.142
			c-0.08-0.138-0.252-0.192-0.396-0.124l-3.199,1.51v-5.036l2.748-1.545c0.148-0.083,0.201-0.27,0.117-0.418
			c-0.084-0.147-0.271-0.201-0.418-0.118l-2.447,1.377v-2.996l5.236-2.94c0.146-0.084,0.199-0.271,0.117-0.419
			c-0.084-0.147-0.271-0.199-0.418-0.117l-4.936,2.772v-2.962l2.748-1.545c0.148-0.082,0.201-0.27,0.117-0.418
			c-0.084-0.147-0.271-0.2-0.418-0.116l-2.447,1.374v-5.839c0-0.169-0.139-0.307-0.307-0.307c-0.17,0-0.309,0.138-0.309,0.307v5.839
			l-2.447-1.374c-0.148-0.084-0.334-0.031-0.418,0.116c-0.084,0.148-0.031,0.336,0.117,0.418l2.748,1.545v2.962l-4.936-2.772
			c-0.146-0.082-0.334-0.03-0.418,0.117c-0.082,0.148-0.029,0.335,0.117,0.419l5.236,2.94v2.996l-2.447-1.377
			c-0.148-0.082-0.334-0.03-0.418,0.118s-0.031,0.335,0.117,0.418l2.748,1.545v5.036l-3.199-1.51
			c-0.145-0.068-0.316-0.015-0.396,0.124l-1.813,3.142l-3.953-0.737l-2.094-2.719l1.236-2.9c0.064-0.155-0.008-0.337-0.164-0.403
			s-0.336,0.006-0.402,0.162l-1.102,2.583l-1.707-2.217c-0.104-0.136-0.297-0.16-0.43-0.057c-0.135,0.103-0.16,0.296-0.057,0.431
			l1.707,2.218l-2.777,0.403c-0.166,0.025-0.283,0.181-0.26,0.349c0.023,0.153,0.154,0.264,0.305,0.264
			c0.014,0,0.029-0.002,0.043-0.004l3.121-0.453l2.123,2.758l-0.781,4.183l-3.959,1.105c-0.08,0.021-0.146,0.074-0.186,0.145
			c-0.041,0.071-0.051,0.154-0.029,0.234l1.193,4.275l-2.973,2.652h-3.164l-1.545-2.749c-0.082-0.146-0.271-0.199-0.418-0.117
			c-0.148,0.083-0.201,0.271-0.117,0.418l1.375,2.448h-2.996l-2.941-5.236c-0.082-0.147-0.27-0.2-0.418-0.117
			c-0.146,0.082-0.199,0.27-0.117,0.418l2.773,4.936h-2.963l-1.545-2.749c-0.082-0.146-0.27-0.199-0.418-0.117
			c-0.146,0.083-0.199,0.271-0.115,0.418l1.373,2.448h-5.84c-0.168,0-0.307,0.138-0.307,0.308c0,0.169,0.139,0.307,0.307,0.307h5.84
			l-1.373,2.447c-0.084,0.148-0.031,0.336,0.115,0.419c0.049,0.027,0.1,0.039,0.15,0.039c0.107,0,0.213-0.057,0.268-0.156
			l1.545-2.749h2.963l-2.773,4.936c-0.082,0.147-0.029,0.336,0.117,0.419c0.047,0.025,0.1,0.038,0.15,0.038
			c0.107,0,0.213-0.055,0.268-0.155l2.941-5.237h2.996l-1.375,2.447c-0.084,0.148-0.031,0.336,0.117,0.419
			c0.047,0.027,0.1,0.039,0.15,0.039c0.107,0,0.211-0.057,0.268-0.156l1.545-2.749h3.131l2.869,3.216l-1.549,3.811
			c-0.029,0.075-0.029,0.16,0.002,0.234c0.033,0.075,0.094,0.135,0.168,0.166l3.854,1.563l-4.336,3.572l-2.939-1.14
			c-0.158-0.062-0.336,0.017-0.398,0.176c-0.061,0.158,0.018,0.336,0.176,0.397l2.617,1.015l-2.16,1.779
			c-0.131,0.107-0.148,0.302-0.041,0.434c0.059,0.073,0.148,0.11,0.236,0.11c0.068,0,0.139-0.022,0.195-0.069l2.162-1.78
			l0.494,2.764c0.027,0.148,0.154,0.254,0.303,0.254c0.018,0,0.035-0.003,0.053-0.005c0.168-0.031,0.277-0.19,0.248-0.356
			l-0.555-3.104l4.236-3.49l0.26,3.652c0.012,0.169,0.16,0.297,0.328,0.283l4.426-0.313l2.07,3.553
			c0.086,0.148,0.273,0.197,0.42,0.111l3.449-2.007v5.546l-2.75,1.543c-0.148,0.084-0.201,0.271-0.117,0.419
			c0.055,0.101,0.16,0.157,0.268,0.157c0.051,0,0.104-0.014,0.15-0.04l2.449-1.375v2.994l-5.238,2.942
			c-0.146,0.082-0.199,0.27-0.117,0.418c0.057,0.1,0.16,0.156,0.27,0.156c0.049,0,0.102-0.013,0.148-0.039l4.938-2.772v2.962
			l-2.75,1.545c-0.148,0.083-0.201,0.271-0.117,0.418c0.055,0.101,0.16,0.156,0.268,0.156c0.051,0,0.104-0.012,0.15-0.039
			l2.449-1.374v5.838c0,0.169,0.137,0.307,0.307,0.307c0.168,0,0.307-0.138,0.307-0.307v-5.838l2.447,1.374
			c0.047,0.027,0.1,0.039,0.15,0.039c0.107,0,0.211-0.056,0.268-0.156c0.084-0.147,0.031-0.335-0.117-0.418l-2.748-1.544v-2.963
			l4.936,2.772c0.047,0.026,0.098,0.039,0.148,0.039c0.107,0,0.213-0.057,0.27-0.156c0.082-0.148,0.029-0.336-0.117-0.418
			l-5.236-2.941v-2.995l2.447,1.375c0.047,0.026,0.1,0.04,0.15,0.04c0.107,0,0.211-0.057,0.268-0.157
			c0.084-0.147,0.031-0.335-0.117-0.418l-2.748-1.544v-5.546l3.447,2.007c0.049,0.028,0.102,0.042,0.154,0.042
			c0.105,0,0.209-0.055,0.266-0.153l2.07-3.553l4.172,0.295l1.771,2.299l-1.236,2.901c-0.066,0.155,0.006,0.337,0.162,0.402
			c0.039,0.019,0.08,0.024,0.121,0.024c0.119,0,0.232-0.069,0.281-0.186l1.102-2.584l1.805,2.345
			c0.061,0.078,0.152,0.119,0.244,0.119c0.064,0,0.131-0.02,0.186-0.063c0.135-0.104,0.162-0.297,0.059-0.432l-1.807-2.343
			l2.777-0.404c0.168-0.024,0.285-0.18,0.26-0.349c-0.023-0.168-0.18-0.283-0.348-0.26l-3.119,0.453l-1.678-2.179
			c0-0.005,0.002-0.007,0.002-0.011l0.291-4.103l4.113-1.67c0.076-0.031,0.135-0.091,0.168-0.166c0.031-0.074,0.031-0.159,0-0.234
			l-1.547-3.811l2.869-3.216h3.133l1.543,2.749c0.057,0.1,0.162,0.156,0.27,0.156c0.049,0,0.102-0.012,0.148-0.039
			c0.148-0.083,0.201-0.271,0.117-0.418l-1.375-2.448h2.994l2.943,5.237c0.057,0.101,0.16,0.155,0.268,0.155
			c0.051,0,0.102-0.013,0.15-0.038c0.146-0.083,0.199-0.271,0.117-0.419l-2.773-4.936h2.963l1.545,2.749
			c0.055,0.1,0.16,0.156,0.268,0.156c0.051,0,0.102-0.012,0.15-0.039c0.146-0.083,0.201-0.271,0.117-0.418l-1.375-2.448h5.838
			c0.17,0,0.309-0.139,0.309-0.307C142.242,109.859,142.104,109.721,141.934,109.721z M122.404,102.924l-1.162,4.163
			c-0.031,0.113,0.006,0.234,0.092,0.312l2.604,2.322h-6.27l-1.352-1.207l0.68-2.439c0.023-0.079,0.012-0.163-0.027-0.234
			c-0.039-0.07-0.107-0.124-0.186-0.146l-2.105-0.587l3.934-3.241L122.404,102.924z M115.76,112.451l0.838,2.062l-2.242,0.91
			c-0.107,0.044-0.182,0.146-0.189,0.263l-0.104,1.456l-3.377-4.387c0.637-0.627,1.053-1.476,1.129-2.419h5.602l-1.602,1.795
			C115.736,112.218,115.715,112.342,115.76,112.451z M100.184,112.131l-1.602-1.795h5.602c0.061,0.745,0.334,1.429,0.76,1.994
			l-3.605,2.97l-1.938-0.787l0.838-2.062C100.283,112.342,100.262,112.218,100.184,112.131z M100.326,108.533l-0.65-2.329
			l2.145-0.599c0.111-0.031,0.197-0.124,0.219-0.239l0.426-2.279l3.08,4.002c-0.766,0.643-1.277,1.578-1.361,2.633h-4.932
			l0.982-0.878C100.32,108.766,100.357,108.646,100.326,108.533z M114.178,105.605l2.145,0.599l-0.65,2.329
			c-0.031,0.112,0.004,0.233,0.092,0.311l0.982,0.877l-4.932,0.001c-0.053-0.646-0.264-1.247-0.598-1.765l2.893-2.382
			C114.131,105.588,114.154,105.6,114.178,105.605z M105.92,107.576l1.652,2.146h-2.773
			C104.881,108.864,105.299,108.105,105.92,107.576z M108.307,106.828c0.814,0.076,1.539,0.461,2.063,1.032l-2.063,1.698V106.828z
			 M107.693,108.869l-1.268-1.645c0.383-0.213,0.811-0.354,1.268-0.396V108.869z M107.363,110.336l-1.945,1.604
			c-0.34-0.458-0.563-1.007-0.619-1.604H107.363z M107.693,110.861v2.368c-0.717-0.067-1.363-0.374-1.865-0.834L107.693,110.861z
			 M108.307,110.673l1.533,1.99c-0.443,0.311-0.967,0.514-1.533,0.566V110.673z M108.822,110.336h2.379
			c-0.072,0.746-0.4,1.418-0.895,1.929L108.822,110.336z M109.074,109.722l1.664-1.37c0.25,0.406,0.414,0.871,0.463,1.37H109.074z
			 M110.842,107.471c-0.637-0.708-1.531-1.177-2.535-1.257v-3.874l1.709-0.806l0.99,1.715c0.064,0.112,0.193,0.173,0.322,0.148
			l2.189-0.409l0.367,1.977L110.842,107.471z M107.693,106.214c-0.598,0.048-1.154,0.233-1.643,0.522l-2.773-3.599l1.393,0.26
			c0.131,0.024,0.258-0.036,0.322-0.148l0.99-1.715l1.711,0.807V106.214z M105.35,112.789c0.621,0.595,1.438,0.982,2.344,1.055v4.87
			l-1.885,1.097l-1.119-1.923c-0.061-0.101-0.17-0.16-0.287-0.152l-2.414,0.171l-0.156-2.219L105.35,112.789z M108.307,113.844
			c0.707-0.056,1.359-0.305,1.906-0.694l3.656,4.746l-2.273-0.16c-0.119-0.008-0.227,0.052-0.287,0.152l-1.119,1.923l-1.883-1.095
			V113.844z M111.512,94.86l1.781,3.084c0.064,0.112,0.193,0.173,0.322,0.148l3.93-0.732l0.742,3.978l-3.861,3.18l-0.363-1.943
			c-0.014-0.08-0.061-0.15-0.127-0.196s-0.148-0.064-0.23-0.05l-2.277,0.425l-1.021-1.771c-0.08-0.139-0.254-0.192-0.396-0.124
			l-1.703,0.803v-5.289L111.512,94.86z M102.383,98.093c0.129,0.024,0.258-0.035,0.322-0.148l1.781-3.084l3.205,1.512l0.002,5.289
			l-1.705-0.803c-0.145-0.068-0.316-0.015-0.396,0.124l-1.023,1.771l-1.852-0.345l-3.826-4.966L102.383,98.093z M94.664,107.398
			c0.086-0.077,0.123-0.198,0.092-0.312l-1.164-4.163l3.852-1.074c0.113-0.032,0.197-0.125,0.219-0.24l0.713-3.83l3.607,4.681
			c-0.023,0.034-0.041,0.074-0.047,0.114l-0.465,2.491l-2.256,0.629c-0.078,0.021-0.145,0.075-0.186,0.146
			c-0.041,0.071-0.051,0.155-0.027,0.234l0.682,2.438l-1.354,1.209h-6.268L94.664,107.398z M93.111,117.309l1.504-3.703
			c0.045-0.108,0.023-0.232-0.055-0.319l-2.633-2.95h5.912c0.006,0.062,0.027,0.121,0.07,0.17l1.688,1.891l-0.881,2.171
			c-0.031,0.074-0.031,0.159,0,0.233c0.033,0.075,0.094,0.135,0.168,0.165l1.914,0.778l-3.811,3.138L93.111,117.309z
			 M104.199,126.485l-2.01-3.455c-0.059-0.101-0.17-0.159-0.287-0.152l-4.313,0.307l-0.268-3.782l3.928-3.235l0.148,2.09
			c0.012,0.169,0.154,0.294,0.328,0.283l2.527-0.178l1.178,2.023c0.057,0.098,0.16,0.152,0.266,0.152
			c0.053,0,0.105-0.014,0.154-0.042l1.842-1.071v5.027L104.199,126.485z M114.096,122.878c-0.119-0.007-0.229,0.052-0.287,0.152
			l-2.012,3.455l-3.49-2.033v-5.027l1.84,1.071c0.145,0.085,0.334,0.036,0.418-0.11l1.18-2.023l2.527,0.178
			c0.029,0.003,0.057-0.005,0.086-0.01l3.557,4.619L114.096,122.878z M121.438,113.286c-0.078,0.087-0.098,0.211-0.055,0.319
			l1.504,3.703l-4.006,1.627c-0.107,0.043-0.182,0.146-0.191,0.262l-0.256,3.62l-3.807-4.943l0.139-1.954l2.348-0.954
			c0.074-0.03,0.135-0.09,0.168-0.165c0.031-0.074,0.031-0.159,0-0.233l-0.881-2.171l1.688-1.891c0.043-0.049,0.064-0.108,0.07-0.17
			h5.912L121.438,113.286z"/>
		<path fill="#E25252" d="M149.604,88.046l-0.531,1.403c-0.02,0.051-0.008,0.106,0.023,0.146c0.016,0.019,0.035,0.034,0.061,0.043
			c0.076,0.028,0.16-0.009,0.188-0.085l0.475-1.249l0.914,1.093l-1.014,2.673c-0.02,0.051-0.008,0.106,0.025,0.146
			c0.016,0.02,0.035,0.034,0.061,0.043c0.074,0.029,0.16-0.009,0.188-0.085l0.955-2.52l0.906,1.082l-0.533,1.403
			c-0.018,0.051-0.008,0.106,0.025,0.146c0.016,0.02,0.035,0.034,0.061,0.043c0.074,0.028,0.16-0.009,0.188-0.084l0.475-1.25
			l1.783,2.131c0.051,0.063,0.145,0.07,0.205,0.02c0.063-0.052,0.07-0.145,0.02-0.206l-1.783-2.132l1.313-0.245
			c0.08-0.016,0.133-0.092,0.117-0.171s-0.092-0.132-0.17-0.117l-1.475,0.275l-0.904-1.082l2.648-0.494
			c0.078-0.015,0.129-0.091,0.117-0.171c-0.016-0.079-0.092-0.132-0.172-0.116l-2.811,0.524l-0.914-1.094l1.314-0.245
			c0.078-0.014,0.131-0.091,0.115-0.171c-0.014-0.079-0.09-0.131-0.17-0.116l-1.475,0.275l-0.967-1.155l0.061-1.896l1.926-0.869
			c0.035-0.017,0.063-0.046,0.076-0.082c0.014-0.037,0.012-0.076-0.004-0.112l-0.746-1.655l2.561,0.48l0.48,1.422
			c0.008,0.018,0.016,0.033,0.027,0.046c0.037,0.046,0.1,0.064,0.158,0.045c0.078-0.025,0.119-0.108,0.094-0.185l-0.43-1.266
			l1.383,0.259c0.08,0.016,0.156-0.037,0.172-0.116c0.014-0.08-0.037-0.156-0.117-0.171l-1.385-0.26l0.857-1.024
			c0.053-0.062,0.045-0.153-0.016-0.205c-0.063-0.052-0.154-0.045-0.207,0.018l-0.965,1.15l-2.545-0.477l1.217-1.475
			c0.025-0.029,0.037-0.068,0.033-0.106c-0.004-0.039-0.023-0.074-0.051-0.099l-1.502-1.238l0.592-1.621
			c0.027-0.072-0.006-0.151-0.074-0.183l-1.527-0.708l1.838-1.537l1.402,0.53c0.076,0.03,0.16-0.009,0.189-0.084
			c0.027-0.075-0.01-0.161-0.086-0.188l-1.248-0.474l0.947-0.793c-0.064-0.074-0.129-0.146-0.191-0.222l-0.943,0.791l-0.246-1.314
			c-0.016-0.079-0.092-0.131-0.17-0.116c-0.08,0.015-0.133,0.091-0.117,0.17l0.275,1.476l-1.84,1.538l-0.426-1.63
			c-0.018-0.074-0.092-0.12-0.166-0.106l-1.701,0.297l-0.938-1.668l0.354-1.595l1.436-0.435c0.078-0.023,0.121-0.105,0.098-0.183
			s-0.105-0.121-0.182-0.099l-1.279,0.388l0.287-1.301c0.02-0.078-0.031-0.156-0.109-0.174c-0.078-0.019-0.158,0.031-0.174,0.111
			l-0.289,1.301l-0.996-0.891c-0.061-0.055-0.152-0.049-0.207,0.011c-0.049,0.055-0.049,0.137-0.002,0.191
			c0.004,0.005,0.008,0.01,0.014,0.015l1.119,1.001l-0.359,1.617l-1.766,0.992l-1.613-1.108c-0.031-0.021-0.07-0.03-0.109-0.023
			c-0.037,0.007-0.07,0.029-0.094,0.062l-1.197,1.742l-1.875-0.276l-0.967-1.155l0.531-1.404c0.029-0.075-0.01-0.159-0.084-0.188
			c-0.076-0.028-0.16,0.01-0.189,0.085l-0.473,1.25l-0.916-1.094l1.016-2.673c0.027-0.075-0.01-0.16-0.086-0.188
			c-0.074-0.029-0.158,0.009-0.189,0.085l-0.955,2.519l-0.904-1.081l0.533-1.403c0.027-0.075-0.01-0.159-0.086-0.188
			c-0.074-0.027-0.16,0.01-0.188,0.085l-0.475,1.25l-1.783-2.132c-0.051-0.063-0.145-0.07-0.207-0.02
			c-0.061,0.053-0.068,0.145-0.018,0.207l1.783,2.132l-1.313,0.245c-0.08,0.016-0.133,0.092-0.117,0.171
			c0.004,0.025,0.016,0.048,0.031,0.066c0.033,0.04,0.086,0.061,0.139,0.051l1.477-0.276l0.904,1.082l-2.65,0.495
			c-0.078,0.015-0.131,0.091-0.117,0.17c0.006,0.025,0.018,0.048,0.033,0.067c0.031,0.038,0.084,0.06,0.139,0.05l2.809-0.525
			l0.916,1.094l-1.314,0.245c-0.078,0.015-0.131,0.092-0.117,0.171c0.006,0.025,0.016,0.048,0.033,0.066
			c0.031,0.04,0.084,0.061,0.139,0.05l1.475-0.275l0.957,1.144l-0.299,2.03l-1.863,0.598c-0.037,0.013-0.068,0.039-0.086,0.073
			s-0.021,0.074-0.01,0.111l0.605,1.884l-2.627-0.492l-0.482-1.421c-0.025-0.076-0.109-0.117-0.186-0.092
			c-0.076,0.026-0.117,0.109-0.092,0.186l0.43,1.266l-1.311-0.246c-0.08-0.015-0.154,0.038-0.17,0.117
			c-0.008,0.045,0.004,0.089,0.031,0.121c0.021,0.025,0.051,0.043,0.084,0.05l1.313,0.245l-0.859,1.024
			c-0.047,0.056-0.045,0.135,0,0.188c0.004,0.006,0.012,0.012,0.018,0.019c0.063,0.051,0.154,0.043,0.205-0.019l0.965-1.151
			l2.568,0.481l-1.254,1.21c-0.059,0.056-0.059,0.15-0.004,0.207l1.465,1.52l-0.664,1.842c-0.027,0.076,0.012,0.159,0.088,0.188
			l1.785,0.646l-2.025,1.694l-1.402-0.533c-0.074-0.028-0.16,0.01-0.189,0.086c-0.02,0.051-0.008,0.106,0.025,0.146
			c0.016,0.019,0.035,0.033,0.061,0.042l1.248,0.474l-1.092,0.914l-2.674-1.014c-0.074-0.027-0.16,0.011-0.189,0.085
			c-0.018,0.052-0.008,0.107,0.025,0.146c0.016,0.019,0.037,0.033,0.061,0.043l2.52,0.956l-1.082,0.903l-1.402-0.532
			c-0.076-0.027-0.16,0.011-0.189,0.086c-0.02,0.051-0.008,0.106,0.025,0.146c0.016,0.019,0.035,0.034,0.059,0.043l1.25,0.474
			l-2.131,1.783c-0.063,0.052-0.07,0.144-0.018,0.206c0.051,0.062,0.143,0.069,0.205,0.019l2.131-1.783l0.246,1.313
			c0.004,0.026,0.016,0.049,0.031,0.067c0.033,0.04,0.086,0.06,0.139,0.05c0.08-0.015,0.133-0.091,0.117-0.171l-0.275-1.474
			l1.082-0.905l0.494,2.649c0.006,0.025,0.016,0.047,0.031,0.065c0.033,0.039,0.086,0.062,0.141,0.051
			c0.078-0.015,0.131-0.091,0.117-0.171l-0.527-2.81l1.096-0.915l0.244,1.314c0.004,0.024,0.016,0.047,0.031,0.066
			c0.033,0.038,0.086,0.06,0.139,0.05c0.08-0.015,0.133-0.091,0.117-0.171l-0.275-1.475l2.025-1.693l0.32,1.872
			c0.004,0.026,0.016,0.049,0.031,0.068c0.033,0.039,0.084,0.06,0.137,0.051l1.932-0.329l1.166,1.613l-0.301,1.349l-1.436,0.435
			c-0.078,0.023-0.121,0.105-0.098,0.183c0.006,0.02,0.016,0.036,0.027,0.051c0.037,0.044,0.098,0.063,0.154,0.047l1.279-0.388
			l-0.305,1.375c-0.01,0.047,0.002,0.093,0.031,0.126c0.02,0.024,0.047,0.041,0.08,0.049c0.08,0.018,0.158-0.032,0.176-0.111
			l0.303-1.375l0.996,0.891c0.061,0.055,0.152,0.049,0.207-0.011c0.053-0.061,0.049-0.153-0.012-0.207l-1.119-1.001l0.285-1.277
			c0.002-0.001,0.002-0.001,0.004-0.002l1.588-1.147l1.865,0.992c0.033,0.018,0.074,0.022,0.111,0.011s0.068-0.037,0.086-0.071
			l0.92-1.729l2.049,0.065L149.604,88.046z M150.211,77.292l-0.58,1.592c-0.023,0.057-0.006,0.122,0.043,0.162l1.467,1.211
			l-1.225,1.486l-2.342-0.438l0.6-0.727c0.025-0.03,0.037-0.068,0.033-0.106s-0.023-0.074-0.053-0.1l-0.85-0.7l0.334-0.915
			c0.025-0.071-0.008-0.151-0.076-0.183l-0.813-0.377l1.932-1.615L150.211,77.292z M139.688,81.68l-0.799-0.828l0.762-0.735
			l2.133,0.4c-0.027,0.407,0.08,0.823,0.33,1.177l-1.777,1.487l-0.977-0.354l0.359-0.995
			C139.738,81.778,139.727,81.721,139.688,81.68z M143.203,80.782l-0.865,0.724c-0.193-0.282-0.279-0.611-0.264-0.936
			L143.203,80.782z M142.115,80.281c0.063-0.264,0.195-0.513,0.395-0.717l0.785,0.938L142.115,80.281z M143.459,80.949l-0.26,1.168
			c-0.248-0.066-0.48-0.197-0.674-0.388L143.459,80.949z M142.734,79.378c0.338-0.232,0.744-0.311,1.127-0.245l-0.279,1.259
			L142.734,79.378z M143.74,81.034l0.725,0.869c-0.293,0.201-0.639,0.287-0.977,0.263L143.74,81.034z M144.041,80.939l1.008,0.189
			c-0.072,0.215-0.191,0.416-0.359,0.587L144.041,80.939z M143.865,80.609l0.998-0.834c0.221,0.32,0.301,0.702,0.252,1.068
			L143.865,80.609z M143.93,80.175l0.215-0.965c0.193,0.074,0.375,0.188,0.531,0.341L143.93,80.175z M144.207,78.924l0.467-2.112
			l0.332,0.588c0.031,0.055,0.092,0.084,0.152,0.073l0.928-0.162l0.229,0.87l-1.414,1.183
			C144.699,79.16,144.463,79.013,144.207,78.924z M143.926,78.847c-0.471-0.084-0.969,0.015-1.379,0.308l-1.506-1.802l0.621,0.091
			c0.055,0.008,0.109-0.016,0.143-0.062l0.65-0.949l0.873,0.601c0.047,0.031,0.105,0.034,0.154,0.007l0.963-0.541L143.926,78.847z
			 M142.324,79.341c-0.256,0.249-0.42,0.559-0.498,0.886l-2.184-0.409l-0.305-0.947l1.008-0.323
			c0.055-0.019,0.092-0.063,0.102-0.118l0.166-1.134L142.324,79.341z M142.301,81.918c0.236,0.24,0.527,0.403,0.836,0.484
			l-0.617,2.784l-0.635-0.879c-0.033-0.047-0.088-0.068-0.145-0.059l-1.043,0.178l-0.174-1.021L142.301,81.918z M143.424,82.453
			c0.426,0.041,0.863-0.065,1.23-0.326l1.711,2.045l-1.146-0.036c-0.055-0.002-0.107,0.028-0.133,0.078l-0.498,0.936l-1.016-0.541
			c-0.049-0.025-0.109-0.021-0.154,0.011l-0.563,0.407L143.424,82.453z M144.879,81.939c0.219-0.216,0.373-0.478,0.461-0.757
			l1.752,0.328c0.002,0.013,0.004,0.024,0.01,0.035l0.438,0.966l-1.049,0.474c-0.051,0.023-0.084,0.073-0.086,0.129l-0.021,0.626
			L144.879,81.939z M145.402,80.897c0.064-0.448-0.037-0.918-0.316-1.31l1.416-1.184l0.816,0.379l-0.324,0.885
			c-0.021,0.059-0.004,0.123,0.043,0.163l0.818,0.674l-0.609,0.737L145.402,80.897z M145.416,73.472l0.828,1.474
			c0.029,0.054,0.09,0.083,0.152,0.072l1.67-0.291l0.426,1.631l-1.93,1.615l-0.227-0.866c-0.02-0.074-0.092-0.12-0.168-0.107
			l-0.959,0.168l-0.439-0.783L145.416,73.472z M140.488,74.969c0.055,0.008,0.109-0.016,0.143-0.063l1.164-1.695l1.568,1.077
			c0.047,0.031,0.105,0.035,0.154,0.007l1.617-0.908l-0.607,2.745c-0.02,0.002-0.039,0.008-0.057,0.019l-1.051,0.591l-0.92-0.632
			c-0.031-0.022-0.07-0.03-0.109-0.022c-0.037,0.006-0.072,0.028-0.094,0.061l-0.682,0.993l-0.855-0.125l-1.914-2.288
			L140.488,74.969z M136.396,77.428l1.813-0.582c0.051-0.017,0.092-0.063,0.1-0.117l0.271-1.863l1.807,2.159
			c-0.021,0.021-0.037,0.048-0.041,0.078l-0.176,1.193l-1.061,0.341c-0.037,0.012-0.068,0.038-0.086,0.072s-0.021,0.075-0.01,0.111
			l0.301,0.937l-2.309-0.434L136.396,77.428z M136.432,84.278l0.648-1.789c0.018-0.052,0.006-0.111-0.033-0.15l-1.43-1.482
			l1.301-1.252l2.381,0.446l-0.719,0.692c-0.057,0.056-0.061,0.146-0.002,0.206l0.836,0.869l-0.379,1.047
			c-0.018,0.051-0.006,0.105,0.025,0.144c0.016,0.02,0.037,0.035,0.063,0.044l0.951,0.345l-1.834,1.534L136.432,84.278z
			 M141.838,88.269l-1.068-1.479c-0.033-0.046-0.088-0.067-0.143-0.058l-1.875,0.319l-0.324-1.896l1.836-1.534l0.17,0.998
			c0.014,0.08,0.09,0.134,0.17,0.12l1.098-0.188l0.707,0.977c0.008,0.012,0.02,0.02,0.029,0.028L141.838,88.269z M146.516,86.542
			c-0.057-0.003-0.107,0.028-0.135,0.077l-0.893,1.68l-1.816-0.966c-0.049-0.025-0.109-0.022-0.154,0.01l-1.4,1.012l0.643-2.898
			l0.756-0.546l1.064,0.565c0.035,0.019,0.074,0.021,0.111,0.011c0.037-0.012,0.068-0.036,0.086-0.071l0.523-0.983l1.205,0.038
			c0.031,0.001,0.061-0.01,0.084-0.026l1.807,2.158L146.516,86.542z M148.58,86.366l-1.914-2.29l0.027-0.861l1.098-0.497
			c0.037-0.017,0.064-0.045,0.078-0.081c0.014-0.037,0.012-0.077-0.004-0.113l-0.428-0.948l2.385,0.448l0.771,1.707l-1.875,0.847
			c-0.051,0.024-0.084,0.073-0.086,0.13L148.58,86.366z"/>
		<path fill="#E25252" d="M148.455,138.814c0.049,0.019,0.105,0.008,0.145-0.024c0.02-0.016,0.035-0.036,0.043-0.061
			c0.029-0.075-0.008-0.161-0.084-0.189l-1.25-0.474l2.131-1.783c0.063-0.052,0.07-0.144,0.02-0.205
			c-0.053-0.062-0.145-0.07-0.207-0.019l-2.131,1.782l-0.246-1.313c-0.014-0.08-0.09-0.132-0.17-0.117s-0.133,0.091-0.117,0.17
			l0.275,1.476l-1.082,0.904l-0.494-2.648c-0.016-0.079-0.092-0.131-0.17-0.117c-0.08,0.016-0.133,0.091-0.117,0.171l0.525,2.81
			l-1.094,0.915l-0.246-1.313c-0.014-0.08-0.092-0.131-0.17-0.117c-0.08,0.016-0.133,0.091-0.117,0.171l0.275,1.475l-1.156,0.967
			l-1.896-0.061l-0.867-1.927c-0.018-0.034-0.047-0.062-0.082-0.075c-0.039-0.014-0.078-0.013-0.113,0.003l-1.654,0.748l0.48-2.562
			l1.42-0.481c0.018-0.006,0.035-0.016,0.047-0.026c0.045-0.038,0.064-0.101,0.045-0.159c-0.025-0.076-0.107-0.118-0.186-0.093
			l-1.266,0.43l0.26-1.384c0.016-0.079-0.037-0.156-0.117-0.171s-0.156,0.038-0.17,0.117l-0.26,1.384l-1.025-0.857
			c-0.061-0.052-0.152-0.044-0.205,0.018c-0.051,0.062-0.045,0.154,0.018,0.207l1.15,0.963l-0.477,2.545l-1.475-1.217
			c-0.029-0.024-0.068-0.035-0.105-0.032c-0.039,0.003-0.074,0.022-0.1,0.052l-1.238,1.501l-1.619-0.593
			c-0.072-0.026-0.152,0.007-0.184,0.076l-0.709,1.527l-1.537-1.839l0.531-1.403c0.029-0.075-0.008-0.159-0.084-0.188
			c-0.076-0.029-0.16,0.009-0.188,0.084l-0.475,1.25l-0.916-1.094l1.016-2.672c0.027-0.076-0.01-0.16-0.086-0.189
			c-0.074-0.028-0.16,0.01-0.188,0.085l-0.955,2.52l-0.904-1.082l0.531-1.403c0.027-0.075-0.01-0.16-0.086-0.188
			c-0.074-0.028-0.16,0.01-0.188,0.085l-0.473,1.249l-1.783-2.131c-0.053-0.063-0.145-0.07-0.207-0.02
			c-0.063,0.053-0.07,0.145-0.018,0.206l1.781,2.132l-1.313,0.246c-0.08,0.015-0.131,0.091-0.117,0.17
			c0.016,0.079,0.092,0.133,0.17,0.117l1.475-0.275l0.906,1.082l-2.648,0.495c-0.08,0.015-0.133,0.091-0.117,0.17
			c0.014,0.08,0.092,0.132,0.17,0.117l2.811-0.524l0.914,1.093l-1.313,0.245c-0.08,0.015-0.133,0.091-0.117,0.171
			c0.014,0.079,0.092,0.131,0.17,0.116l1.475-0.274l1.539,1.839l-1.629,0.425c-0.074,0.02-0.121,0.092-0.107,0.167l0.297,1.701
			l-1.668,0.938l-1.594-0.354l-0.436-1.437c-0.023-0.077-0.105-0.12-0.182-0.098c-0.078,0.023-0.123,0.105-0.1,0.183l0.387,1.279
			l-1.299-0.288c-0.08-0.019-0.158,0.032-0.176,0.111c-0.018,0.077,0.033,0.156,0.111,0.174l1.301,0.288l-0.891,0.996
			c-0.053,0.06-0.049,0.152,0.012,0.207c0.055,0.049,0.137,0.049,0.191,0.002c0.004-0.003,0.01-0.009,0.016-0.015l1-1.117
			l1.617,0.358l0.992,1.765l-1.109,1.613c-0.02,0.032-0.029,0.071-0.021,0.109c0.006,0.038,0.027,0.071,0.061,0.094l1.742,1.197
			l-0.277,1.876l-1.154,0.967l-1.404-0.532c-0.074-0.028-0.158,0.011-0.188,0.085c-0.029,0.076,0.01,0.16,0.084,0.188l1.25,0.475
			l-1.094,0.914l-2.674-1.015c-0.074-0.027-0.16,0.01-0.188,0.086c-0.029,0.075,0.01,0.159,0.084,0.188l2.52,0.956l-1.08,0.904
			l-1.404-0.532c-0.074-0.028-0.158,0.009-0.188,0.084c-0.029,0.076,0.008,0.161,0.084,0.189l1.25,0.474l-2.131,1.783
			c-0.064,0.052-0.072,0.145-0.02,0.206s0.145,0.069,0.205,0.019l2.133-1.784l0.246,1.314c0.014,0.079,0.092,0.131,0.17,0.117
			c0.025-0.005,0.049-0.016,0.066-0.032c0.039-0.032,0.061-0.085,0.051-0.139l-0.275-1.477l1.08-0.903l0.496,2.648
			c0.014,0.079,0.09,0.132,0.17,0.117c0.025-0.005,0.049-0.017,0.066-0.031c0.039-0.033,0.061-0.086,0.051-0.139l-0.525-2.811
			l1.094-0.915l0.246,1.313c0.014,0.08,0.09,0.132,0.17,0.117c0.025-0.004,0.049-0.016,0.066-0.032
			c0.039-0.031,0.061-0.085,0.051-0.138l-0.275-1.477l1.143-0.955l2.031,0.298l0.596,1.863c0.014,0.037,0.039,0.068,0.074,0.086
			s0.074,0.021,0.111,0.01l1.885-0.605l-0.492,2.628l-1.422,0.48c-0.076,0.027-0.117,0.109-0.092,0.187
			c0.025,0.076,0.109,0.117,0.186,0.092l1.266-0.429l-0.246,1.309c-0.014,0.08,0.039,0.156,0.117,0.171
			c0.045,0.009,0.088-0.005,0.121-0.031c0.025-0.021,0.043-0.051,0.049-0.085l0.246-1.311l1.025,0.859
			c0.055,0.045,0.133,0.044,0.188,0c0.006-0.006,0.012-0.012,0.018-0.019c0.051-0.063,0.043-0.154-0.018-0.206l-1.15-0.964
			l0.48-2.568l1.211,1.255c0.055,0.058,0.148,0.059,0.205,0.003l1.521-1.466l1.84,0.665c0.076,0.027,0.16-0.012,0.188-0.087
			l0.646-1.786l1.693,2.024l-0.531,1.403c-0.029,0.075,0.01,0.161,0.084,0.189c0.051,0.019,0.107,0.008,0.146-0.025
			c0.02-0.016,0.033-0.036,0.041-0.061l0.475-1.249l0.713,0.852c0.074-0.062,0.154-0.119,0.229-0.181l-0.717-0.858l1.314-0.245
			c0.025-0.005,0.047-0.017,0.066-0.032c0.039-0.032,0.061-0.085,0.049-0.139c-0.014-0.079-0.09-0.132-0.17-0.116l-1.475,0.275
			l-1.693-2.025l1.871-0.32c0.027-0.005,0.051-0.016,0.07-0.032c0.037-0.032,0.059-0.084,0.049-0.137l-0.328-1.93l1.613-1.166
			l1.348,0.3l0.436,1.436c0.023,0.077,0.105,0.121,0.182,0.098c0.02-0.006,0.037-0.016,0.051-0.027
			c0.045-0.037,0.064-0.098,0.047-0.155l-0.387-1.278l1.375,0.304c0.047,0.011,0.092-0.002,0.127-0.03
			c0.023-0.02,0.041-0.047,0.047-0.08c0.018-0.079-0.031-0.158-0.111-0.175l-1.375-0.305l0.893-0.995
			c0.053-0.061,0.047-0.153-0.012-0.208c-0.061-0.053-0.152-0.048-0.207,0.012l-1,1.119l-1.279-0.283c0-0.002,0-0.004-0.002-0.005
			l-1.146-1.587l0.992-1.865c0.018-0.034,0.023-0.074,0.01-0.112c-0.01-0.036-0.035-0.067-0.07-0.087l-1.729-0.918l0.064-2.051
			l1.145-0.956l1.402,0.532c0.051,0.019,0.107,0.008,0.146-0.024c0.018-0.016,0.033-0.036,0.043-0.061
			c0.027-0.075-0.01-0.16-0.084-0.188l-1.25-0.474l1.092-0.915l2.674,1.015c0.051,0.02,0.105,0.007,0.145-0.025
			c0.02-0.016,0.035-0.036,0.043-0.061c0.029-0.075-0.008-0.159-0.084-0.188l-2.52-0.955l1.082-0.905L148.455,138.814z
			 M138.338,140.313l1.709-0.773l0.846,1.876c0.023,0.052,0.074,0.084,0.129,0.086l1.66,0.054l-2.289,1.913l-0.863-0.027
			l-0.496-1.099c-0.016-0.036-0.045-0.063-0.082-0.076c-0.035-0.015-0.076-0.014-0.111,0.003l-0.949,0.429L138.338,140.313z
			 M140.934,146.717l0.408,0.563l-2.572-0.57c0.039-0.424-0.066-0.861-0.326-1.229l2.045-1.711l-0.037,1.145
			c-0.002,0.056,0.029,0.108,0.078,0.134l0.936,0.497l-0.541,1.017C140.898,146.612,140.902,146.672,140.934,146.717z
			 M140.742,149.438l-1.021,0.174l-1.488-1.777c0.24-0.236,0.404-0.526,0.484-0.837l2.785,0.618l-0.879,0.635
			c-0.047,0.033-0.068,0.088-0.059,0.144L140.742,149.438z M132.814,145.689l2.348,0.521c-0.084,0.469,0.016,0.967,0.307,1.378
			l-1.801,1.506l0.092-0.622c0.008-0.054-0.018-0.108-0.063-0.141l-0.949-0.652l0.602-0.872c0.031-0.046,0.033-0.105,0.006-0.155
			L132.814,145.689z M133.625,144.049l0.871-0.228l1.184,1.414c-0.205,0.199-0.352,0.438-0.441,0.692l-2.111-0.468l0.588-0.331
			c0.055-0.03,0.084-0.091,0.074-0.152L133.625,144.049z M136.707,146.553l-1.014,0.847c-0.232-0.338-0.311-0.743-0.246-1.126
			L136.707,146.553z M135.525,145.991c0.074-0.194,0.188-0.376,0.34-0.531l0.625,0.745L135.525,145.991z M136.816,146.841
			l-0.221,1.18c-0.262-0.063-0.512-0.195-0.715-0.396L136.816,146.841z M136.09,145.271c0.32-0.221,0.703-0.301,1.068-0.252
			l-0.234,1.25L136.09,145.271z M137.098,146.932l0.725,0.865c-0.283,0.194-0.611,0.279-0.936,0.265L137.098,146.932z
			 M137.264,146.676l1.168,0.26c-0.066,0.247-0.197,0.48-0.387,0.674L137.264,146.676z M137.254,146.094l0.189-1.009
			c0.217,0.072,0.418,0.191,0.588,0.359L137.254,146.094z M137.35,146.396l0.869-0.727c0.201,0.295,0.287,0.64,0.262,0.978
			L137.35,146.396z M137.498,144.795l0.328-1.753c0.014-0.002,0.023-0.004,0.035-0.01l0.967-0.437l0.473,1.049
			c0.023,0.051,0.072,0.084,0.129,0.086l0.625,0.021l-1.799,1.506C138.039,145.037,137.777,144.882,137.498,144.795z
			 M137.213,144.731c-0.449-0.063-0.918,0.038-1.311,0.316l-1.184-1.415l0.379-0.815l0.885,0.323
			c0.059,0.021,0.123,0.004,0.164-0.044l0.674-0.817l0.738,0.608L137.213,144.731z M135.656,147.811
			c0.25,0.255,0.559,0.421,0.887,0.497l-0.41,2.186l-0.947,0.304l-0.324-1.009c-0.018-0.053-0.063-0.092-0.117-0.1l-1.133-0.166
			L135.656,147.811z M136.832,148.352c0.408,0.027,0.824-0.081,1.178-0.33l1.486,1.777l-0.354,0.977l-0.996-0.36
			c-0.053-0.02-0.111-0.007-0.15,0.032l-0.83,0.799l-0.734-0.763L136.832,148.352z M133.607,139.923l1.592,0.582
			c0.057,0.021,0.121,0.005,0.162-0.044l1.211-1.467l1.486,1.226l-0.438,2.341l-0.729-0.6c-0.029-0.025-0.066-0.036-0.105-0.032
			c-0.039,0.003-0.074,0.021-0.1,0.052l-0.701,0.851l-0.914-0.335c-0.072-0.026-0.152,0.007-0.182,0.076l-0.377,0.813l-1.615-1.932
			L133.607,139.923z M131.26,143.891c0.055-0.03,0.084-0.091,0.072-0.151l-0.291-1.671l1.631-0.427l1.617,1.932l-0.867,0.227
			c-0.074,0.019-0.121,0.091-0.107,0.166l0.168,0.959l-0.783,0.439l-2.912-0.646L131.26,143.891z M131.223,149.504l-1.697-1.165
			l1.078-1.567c0.031-0.046,0.035-0.105,0.006-0.154l-0.908-1.616l2.746,0.606c0.002,0.021,0.008,0.04,0.018,0.057l0.592,1.051
			l-0.631,0.92c-0.023,0.031-0.031,0.071-0.023,0.109c0.006,0.038,0.029,0.071,0.061,0.094l0.994,0.683l-0.125,0.854l-2.289,1.914
			l0.242-1.643C131.291,149.591,131.268,149.536,131.223,149.504z M135.639,153.13l-1.896,0.609l-0.582-1.813
			c-0.016-0.052-0.063-0.091-0.117-0.099l-1.861-0.273l2.158-1.806c0.021,0.021,0.047,0.037,0.078,0.041l1.193,0.175l0.34,1.063
			c0.014,0.036,0.039,0.067,0.074,0.085c0.033,0.018,0.074,0.021,0.109,0.009l0.938-0.3L135.639,153.13z M140.594,153.703
			l-1.789-0.647c-0.053-0.018-0.111-0.007-0.15,0.032l-1.482,1.429l-1.252-1.3l0.445-2.381l0.693,0.719
			c0.055,0.058,0.146,0.06,0.207,0.002l0.867-0.836l1.049,0.379c0.051,0.019,0.104,0.006,0.143-0.025
			c0.02-0.016,0.035-0.037,0.043-0.062l0.346-0.953l1.535,1.834L140.594,153.703z M143.105,149.365
			c-0.045,0.033-0.066,0.088-0.059,0.143l0.32,1.875l-1.895,0.323l-1.535-1.834l0.998-0.171c0.08-0.014,0.133-0.089,0.119-0.169
			l-0.188-1.099l0.979-0.707c0.012-0.008,0.02-0.019,0.027-0.029l2.711,0.6L143.105,149.365z M144.613,144.646l-0.965,1.816
			c-0.025,0.049-0.021,0.109,0.01,0.154l1.012,1.4l-2.898-0.643l-0.547-0.755l0.566-1.066c0.018-0.033,0.021-0.073,0.01-0.11
			c-0.01-0.037-0.035-0.069-0.07-0.086l-0.984-0.524l0.039-1.205c0-0.031-0.01-0.06-0.025-0.084l2.158-1.806l-0.061,1.881
			c-0.002,0.056,0.029,0.108,0.078,0.135L144.613,144.646z"/>
		<path fill="#E25252" d="M84.646,129.649l-2.133,1.782l-0.246-1.313c-0.014-0.079-0.09-0.132-0.17-0.116
			c-0.078,0.015-0.133,0.091-0.117,0.17l0.275,1.475l-1.082,0.905l-0.494-2.649c-0.014-0.078-0.092-0.131-0.17-0.116
			c-0.08,0.015-0.133,0.091-0.117,0.171l0.525,2.81l-1.094,0.915l-0.246-1.313c-0.014-0.079-0.09-0.132-0.17-0.117
			s-0.131,0.091-0.117,0.17l0.275,1.476l-1.838,1.538l-0.426-1.629c-0.02-0.074-0.092-0.121-0.168-0.107l-1.699,0.298l-0.938-1.668
			l0.354-1.596l1.436-0.435c0.076-0.022,0.121-0.105,0.098-0.182c-0.023-0.078-0.105-0.122-0.184-0.099l-1.277,0.387l0.287-1.3
			c0.018-0.079-0.031-0.157-0.111-0.175c-0.078-0.018-0.156,0.032-0.174,0.111l-0.289,1.301l-0.994-0.891
			c-0.061-0.054-0.152-0.049-0.207,0.011c-0.049,0.055-0.051,0.137-0.004,0.191c0.004,0.005,0.01,0.011,0.016,0.015l1.117,1.001
			l-0.357,1.617l-1.766,0.992l-1.613-1.108c-0.031-0.021-0.072-0.03-0.109-0.022c-0.039,0.007-0.072,0.028-0.094,0.061l-1.197,1.742
			l-1.877-0.276l-0.967-1.155l0.533-1.403c0.027-0.075-0.01-0.159-0.086-0.188c-0.076-0.028-0.16,0.01-0.188,0.085l-0.475,1.249
			l-0.914-1.094l1.014-2.673c0.027-0.075-0.01-0.16-0.084-0.188c-0.076-0.029-0.16,0.01-0.189,0.085l-0.955,2.52l-0.904-1.081
			l0.531-1.403c0.029-0.075-0.01-0.159-0.084-0.188c-0.076-0.028-0.16,0.009-0.189,0.085l-0.475,1.249l-1.783-2.131
			c-0.051-0.063-0.143-0.071-0.205-0.02s-0.07,0.144-0.018,0.206l1.783,2.132l-1.314,0.246c-0.08,0.015-0.131,0.091-0.117,0.17
			c0.006,0.026,0.016,0.049,0.031,0.067c0.033,0.039,0.086,0.06,0.141,0.05l1.475-0.275l0.904,1.081l-2.648,0.495
			c-0.08,0.015-0.133,0.091-0.117,0.17c0.004,0.025,0.016,0.049,0.031,0.067c0.033,0.039,0.086,0.061,0.139,0.05l2.811-0.525
			l0.914,1.094l-1.313,0.245c-0.08,0.016-0.133,0.092-0.117,0.171c0.004,0.025,0.016,0.049,0.031,0.067
			c0.033,0.039,0.086,0.06,0.139,0.05l1.477-0.275l0.955,1.143l-0.299,2.031l-1.863,0.597c-0.037,0.013-0.068,0.039-0.084,0.073
			c-0.02,0.035-0.021,0.074-0.01,0.111l0.605,1.885l-2.629-0.492l-0.48-1.422c-0.027-0.076-0.109-0.117-0.186-0.092
			c-0.078,0.026-0.119,0.109-0.092,0.187l0.428,1.266l-1.309-0.247c-0.08-0.015-0.156,0.039-0.172,0.117
			c-0.008,0.045,0.006,0.089,0.033,0.121c0.02,0.026,0.051,0.043,0.084,0.05l1.311,0.246l-0.859,1.024
			c-0.045,0.055-0.045,0.134,0,0.188c0.006,0.006,0.012,0.013,0.018,0.019c0.064,0.051,0.156,0.043,0.207-0.019l0.965-1.15
			l2.566,0.481l-1.254,1.21c-0.059,0.056-0.059,0.149-0.004,0.206l1.467,1.521l-0.664,1.841c-0.029,0.076,0.01,0.16,0.086,0.188
			l1.785,0.646l-2.023,1.693l-1.404-0.532c-0.074-0.029-0.16,0.01-0.188,0.085c-0.02,0.051-0.008,0.106,0.023,0.146
			c0.016,0.02,0.037,0.033,0.061,0.042l1.25,0.475l-0.982,0.82c0.063,0.076,0.129,0.147,0.191,0.223l0.979-0.818l0.246,1.313
			c0.004,0.024,0.016,0.048,0.031,0.066c0.031,0.039,0.086,0.061,0.139,0.05c0.08-0.014,0.131-0.091,0.115-0.17l-0.273-1.476
			l2.023-1.693l0.32,1.872c0.006,0.026,0.018,0.05,0.033,0.068c0.031,0.039,0.084,0.061,0.137,0.051l1.93-0.329l1.166,1.614
			l-0.299,1.348l-1.438,0.435c-0.076,0.023-0.119,0.105-0.098,0.183c0.008,0.02,0.016,0.037,0.027,0.051
			c0.039,0.044,0.098,0.064,0.156,0.047l1.279-0.387l-0.305,1.375c-0.01,0.046,0.002,0.092,0.029,0.126
			c0.021,0.023,0.049,0.041,0.08,0.048c0.08,0.018,0.158-0.031,0.176-0.111l0.305-1.375l0.996,0.892
			c0.059,0.054,0.152,0.048,0.207-0.012c0.053-0.061,0.047-0.152-0.012-0.206l-1.119-1.001l0.283-1.278
			c0.002-0.001,0.004-0.001,0.004-0.001l1.588-1.147l1.865,0.992c0.035,0.018,0.074,0.022,0.111,0.01
			c0.037-0.011,0.068-0.036,0.088-0.071l0.918-1.728l2.051,0.064l0.957,1.144l-0.533,1.403c-0.02,0.051-0.008,0.106,0.025,0.146
			c0.016,0.018,0.035,0.033,0.059,0.042c0.076,0.028,0.162-0.009,0.189-0.084l0.475-1.25l0.914,1.093l-1.014,2.674
			c-0.02,0.051-0.008,0.105,0.023,0.145c0.016,0.02,0.037,0.034,0.061,0.043c0.076,0.029,0.16-0.009,0.189-0.084l0.955-2.52
			l0.904,1.082l-0.531,1.403c-0.02,0.05-0.008,0.106,0.023,0.145c0.016,0.02,0.035,0.035,0.061,0.043
			c0.076,0.029,0.16-0.008,0.189-0.084l0.473-1.25l1.783,2.132c0.053,0.063,0.145,0.07,0.207,0.019
			c0.061-0.052,0.07-0.145,0.018-0.206l-1.783-2.132l1.314-0.245c0.078-0.015,0.131-0.091,0.117-0.171
			c-0.016-0.079-0.092-0.132-0.172-0.117l-1.475,0.275l-0.904-1.082l2.648-0.494c0.08-0.015,0.131-0.091,0.117-0.17
			c-0.016-0.08-0.092-0.132-0.172-0.116l-2.809,0.524l-0.914-1.094l1.313-0.246c0.08-0.014,0.131-0.091,0.117-0.171
			c-0.016-0.079-0.092-0.131-0.172-0.116l-1.475,0.275l-0.965-1.155l0.059-1.896l1.928-0.868c0.035-0.017,0.063-0.046,0.076-0.082
			c0.012-0.038,0.012-0.077-0.004-0.113l-0.748-1.654l2.561,0.48l0.482,1.421c0.006,0.018,0.016,0.034,0.025,0.046
			c0.039,0.046,0.102,0.065,0.16,0.046c0.076-0.026,0.117-0.108,0.092-0.186l-0.43-1.266l1.385,0.26
			c0.078,0.015,0.156-0.038,0.172-0.117c0.014-0.08-0.039-0.156-0.119-0.171l-1.383-0.26l0.857-1.024
			c0.053-0.062,0.045-0.153-0.018-0.205s-0.154-0.045-0.207,0.018l-0.963,1.15l-2.545-0.477l1.217-1.475
			c0.023-0.029,0.035-0.068,0.033-0.106c-0.004-0.038-0.023-0.074-0.053-0.099l-1.502-1.238l0.594-1.621
			c0.025-0.071-0.006-0.151-0.076-0.183l-1.527-0.708l1.838-1.537l1.404,0.531c0.076,0.029,0.16-0.009,0.188-0.084
			c0.029-0.076-0.01-0.161-0.084-0.188l-1.25-0.474l1.094-0.916l2.672,1.015c0.076,0.028,0.16-0.01,0.189-0.085
			c0.027-0.075-0.01-0.16-0.084-0.188l-2.521-0.955l1.082-0.904l1.404,0.531c0.074,0.028,0.16-0.009,0.189-0.085
			c0.027-0.075-0.01-0.16-0.086-0.188l-1.25-0.473l2.133-1.783c0.061-0.053,0.068-0.145,0.018-0.206
			C84.799,129.605,84.707,129.598,84.646,129.649z M74.402,132.755l0.828,1.474c0.031,0.055,0.092,0.084,0.152,0.072l1.67-0.291
			l0.428,1.631l-1.932,1.616l-0.227-0.867c-0.02-0.073-0.092-0.12-0.166-0.106l-0.959,0.167l-0.439-0.783L74.402,132.755z
			 M76.025,139.114l0.818,0.675l-0.609,0.737l-1.844-0.345c0.063-0.449-0.037-0.919-0.316-1.311l1.416-1.184l0.814,0.379
			l-0.324,0.885C75.959,139.01,75.977,139.074,76.025,139.114z M68.676,140.964l-0.799-0.829l0.762-0.734l2.133,0.399
			c-0.027,0.408,0.08,0.824,0.33,1.178l-1.779,1.486l-0.975-0.353l0.359-0.996C68.727,141.063,68.715,141.004,68.676,140.964z
			 M72.189,140.066l-0.865,0.723c-0.193-0.282-0.277-0.611-0.264-0.935L72.189,140.066z M71.102,139.564
			c0.064-0.263,0.195-0.513,0.396-0.716l0.783,0.937L71.102,139.564z M72.447,140.232l-0.26,1.168
			c-0.248-0.066-0.482-0.197-0.674-0.387L72.447,140.232z M71.723,138.662c0.338-0.232,0.742-0.312,1.127-0.246l-0.279,1.259
			L71.723,138.662z M72.727,140.317l0.727,0.869c-0.295,0.201-0.641,0.287-0.977,0.263L72.727,140.317z M73.027,140.223l1.01,0.189
			c-0.072,0.216-0.191,0.417-0.359,0.587L73.027,140.223z M72.854,139.893l0.996-0.834c0.221,0.32,0.303,0.703,0.254,1.068
			L72.854,139.893z M72.916,139.458l0.215-0.965c0.195,0.074,0.377,0.188,0.531,0.341L72.916,139.458z M73.193,138.207l0.469-2.112
			l0.33,0.588c0.031,0.056,0.092,0.084,0.152,0.074l0.93-0.163l0.227,0.871l-1.414,1.183
			C73.688,138.443,73.449,138.296,73.193,138.207z M72.912,138.131c-0.469-0.084-0.967,0.015-1.377,0.307l-1.506-1.801l0.621,0.091
			c0.055,0.008,0.109-0.017,0.141-0.063l0.652-0.948l0.871,0.601c0.047,0.03,0.107,0.034,0.156,0.007l0.961-0.541L72.912,138.131z
			 M71.311,138.625c-0.254,0.249-0.42,0.559-0.496,0.886l-2.186-0.41l-0.305-0.947l1.01-0.323c0.053-0.018,0.092-0.063,0.1-0.118
			l0.166-1.133L71.311,138.625z M71.289,141.201c0.236,0.24,0.525,0.403,0.836,0.484l-0.617,2.784l-0.637-0.879
			c-0.033-0.047-0.088-0.067-0.143-0.059l-1.045,0.179l-0.174-1.021L71.289,141.201z M72.412,141.736
			c0.424,0.041,0.861-0.064,1.229-0.325l1.711,2.045l-1.145-0.037c-0.057-0.002-0.107,0.029-0.135,0.078l-0.496,0.936l-1.016-0.54
			c-0.051-0.026-0.109-0.022-0.156,0.01l-0.563,0.407L72.412,141.736z M73.865,141.224c0.221-0.217,0.375-0.478,0.463-0.757
			l1.752,0.328c0.002,0.013,0.004,0.023,0.01,0.034l0.436,0.966l-1.047,0.474c-0.053,0.023-0.086,0.073-0.086,0.129l-0.021,0.626
			L73.865,141.224z M69.477,134.252c0.055,0.008,0.109-0.016,0.141-0.062l1.166-1.696l1.568,1.078
			c0.045,0.031,0.105,0.034,0.154,0.006l1.615-0.908l-0.607,2.746c-0.02,0.001-0.039,0.007-0.055,0.018l-1.053,0.591l-0.92-0.632
			c-0.029-0.021-0.07-0.029-0.107-0.022c-0.039,0.007-0.072,0.029-0.096,0.062l-0.682,0.993l-0.855-0.125l-1.912-2.289
			L69.477,134.252z M65.383,136.711l1.813-0.582c0.053-0.017,0.092-0.063,0.1-0.117l0.273-1.862l1.805,2.159
			c-0.02,0.021-0.037,0.047-0.041,0.077l-0.174,1.193l-1.063,0.341c-0.035,0.012-0.066,0.038-0.084,0.073
			c-0.018,0.033-0.021,0.074-0.01,0.11l0.301,0.937l-2.311-0.433L65.383,136.711z M65.418,143.562l0.648-1.788
			c0.018-0.053,0.006-0.112-0.033-0.151l-1.428-1.481l1.299-1.253l2.381,0.446l-0.717,0.692c-0.059,0.056-0.061,0.146-0.004,0.207
			l0.836,0.868l-0.379,1.048c-0.018,0.051-0.006,0.104,0.025,0.144c0.016,0.019,0.039,0.034,0.063,0.043l0.953,0.346l-1.834,1.534
			L65.418,143.562z M70.824,147.552l-1.066-1.479c-0.035-0.046-0.088-0.066-0.145-0.058l-1.875,0.32l-0.322-1.896l1.834-1.535
			l0.172,0.998c0.014,0.08,0.088,0.134,0.168,0.12l1.098-0.188l0.707,0.977c0.008,0.013,0.02,0.021,0.029,0.028L70.824,147.552z
			 M75.504,145.825c-0.057-0.002-0.109,0.029-0.135,0.078l-0.893,1.679l-1.818-0.965c-0.049-0.026-0.109-0.022-0.154,0.01
			l-1.398,1.012l0.643-2.898l0.754-0.547l1.066,0.565c0.033,0.019,0.074,0.022,0.111,0.011c0.037-0.011,0.068-0.036,0.084-0.07
			l0.525-0.984l1.205,0.038c0.031,0.001,0.061-0.01,0.084-0.025l1.805,2.157L75.504,145.825z M79.582,143.015l-1.877,0.847
			c-0.051,0.023-0.084,0.073-0.086,0.129l-0.053,1.659l-1.914-2.289l0.027-0.862l1.1-0.496c0.035-0.017,0.063-0.046,0.076-0.082
			s0.014-0.077-0.004-0.112l-0.428-0.948l2.385,0.447L79.582,143.015z M79.199,136.575l-0.582,1.592
			c-0.021,0.057-0.004,0.122,0.043,0.163l1.469,1.21l-1.227,1.486l-2.34-0.438l0.6-0.727c0.023-0.029,0.035-0.067,0.031-0.106
			c-0.002-0.038-0.021-0.074-0.053-0.099l-0.85-0.701l0.334-0.915c0.027-0.071-0.006-0.151-0.074-0.182l-0.814-0.377l1.932-1.615
			L79.199,136.575z"/>
		<path fill="#E25252" d="M73.42,66.521l-1.314,0.245c-0.078,0.015-0.131,0.091-0.117,0.17c0.016,0.08,0.092,0.132,0.17,0.117
			l1.477-0.275l1.537,1.839l-1.629,0.426c-0.074,0.019-0.121,0.092-0.107,0.167l0.299,1.7l-1.668,0.938l-1.596-0.354l-0.436-1.436
			c-0.021-0.077-0.105-0.121-0.182-0.098c-0.078,0.023-0.121,0.105-0.098,0.183l0.387,1.278l-1.301-0.287
			c-0.078-0.019-0.156,0.031-0.174,0.11c-0.018,0.078,0.031,0.157,0.111,0.174l1.301,0.289l-0.891,0.995
			c-0.055,0.061-0.049,0.153,0.01,0.207c0.055,0.049,0.137,0.05,0.191,0.003c0.006-0.004,0.012-0.009,0.016-0.015l1-1.118
			l1.617,0.358l0.992,1.766l-1.107,1.613c-0.021,0.031-0.031,0.071-0.023,0.109s0.029,0.071,0.061,0.094l1.742,1.197l-0.275,1.876
			l-1.156,0.967l-1.402-0.532c-0.076-0.028-0.16,0.01-0.189,0.085c-0.027,0.076,0.01,0.16,0.086,0.188l1.248,0.474l-1.094,0.915
			l-2.672-1.015c-0.076-0.027-0.16,0.01-0.189,0.085s0.01,0.159,0.086,0.189l2.518,0.955l-1.08,0.904l-1.402-0.532
			c-0.076-0.028-0.16,0.01-0.189,0.085c-0.027,0.075,0.01,0.161,0.086,0.188l1.248,0.475l-2.131,1.783
			c-0.063,0.051-0.07,0.144-0.02,0.206c0.053,0.062,0.145,0.069,0.207,0.018l2.131-1.783l0.246,1.313
			c0.016,0.08,0.092,0.132,0.17,0.117c0.027-0.005,0.049-0.016,0.068-0.031c0.039-0.033,0.059-0.086,0.049-0.139l-0.275-1.477
			l1.082-0.903l0.494,2.648c0.016,0.079,0.092,0.132,0.17,0.117c0.025-0.005,0.049-0.017,0.068-0.032
			c0.039-0.032,0.059-0.085,0.049-0.139l-0.525-2.81l1.094-0.915l0.246,1.313c0.016,0.079,0.092,0.132,0.17,0.117
			c0.025-0.005,0.049-0.016,0.068-0.032c0.039-0.032,0.059-0.085,0.049-0.139l-0.275-1.476l1.143-0.956l2.031,0.299l0.598,1.863
			c0.012,0.037,0.039,0.068,0.072,0.085c0.035,0.019,0.074,0.021,0.111,0.01l1.885-0.605l-0.492,2.629l-1.422,0.48
			c-0.076,0.026-0.117,0.109-0.092,0.186c0.027,0.077,0.109,0.118,0.186,0.092l1.266-0.429l-0.246,1.31
			c-0.014,0.08,0.039,0.155,0.117,0.171c0.045,0.009,0.09-0.005,0.121-0.032c0.027-0.021,0.043-0.051,0.051-0.084l0.246-1.312
			l1.023,0.859c0.055,0.046,0.135,0.045,0.188,0c0.006-0.005,0.014-0.011,0.02-0.018c0.051-0.063,0.043-0.155-0.02-0.206
			l-1.15-0.965l0.482-2.567l1.209,1.254c0.057,0.059,0.15,0.059,0.207,0.004l1.52-1.466l1.842,0.664
			c0.076,0.028,0.16-0.011,0.188-0.087l0.646-1.785l1.693,2.024l-0.533,1.403c-0.029,0.075,0.01,0.16,0.086,0.188
			c0.051,0.02,0.105,0.008,0.145-0.024c0.02-0.016,0.033-0.036,0.043-0.061l0.475-1.249l0.914,1.093l-1.014,2.673
			c-0.029,0.075,0.01,0.16,0.084,0.189c0.051,0.019,0.107,0.008,0.146-0.025c0.018-0.016,0.033-0.036,0.043-0.06l0.955-2.521
			l0.904,1.082l-0.531,1.404c-0.029,0.075,0.01,0.159,0.084,0.188c0.051,0.02,0.107,0.008,0.146-0.024
			c0.018-0.016,0.033-0.036,0.043-0.06l0.473-1.25l1.783,2.131c0.053,0.063,0.145,0.071,0.207,0.019
			c0.063-0.052,0.07-0.144,0.018-0.205l-1.783-2.132l1.314-0.245c0.025-0.005,0.047-0.017,0.066-0.031
			c0.039-0.033,0.061-0.086,0.051-0.14c-0.016-0.08-0.092-0.132-0.172-0.117l-1.475,0.275l-0.904-1.081l2.648-0.495
			c0.025-0.006,0.049-0.016,0.066-0.031c0.039-0.032,0.061-0.085,0.051-0.14c-0.016-0.079-0.092-0.131-0.172-0.117l-2.809,0.526
			l-0.914-1.094l1.313-0.246c0.025-0.004,0.049-0.016,0.066-0.031c0.039-0.032,0.061-0.086,0.051-0.139
			c-0.016-0.079-0.092-0.132-0.17-0.116l-1.477,0.274l-1.693-2.024l1.873-0.32c0.025-0.005,0.049-0.017,0.068-0.032
			c0.039-0.032,0.059-0.084,0.051-0.137l-0.33-1.93l1.615-1.166l1.348,0.299l0.434,1.437c0.023,0.077,0.105,0.12,0.184,0.098
			c0.02-0.006,0.037-0.016,0.051-0.027c0.043-0.037,0.064-0.098,0.047-0.155l-0.387-1.279l1.375,0.305
			c0.045,0.01,0.092-0.002,0.125-0.03c0.023-0.021,0.041-0.048,0.049-0.08c0.018-0.079-0.031-0.158-0.111-0.176l-1.375-0.304
			l0.891-0.996c0.055-0.06,0.049-0.152-0.012-0.207c-0.061-0.053-0.152-0.048-0.207,0.012l-1,1.119l-1.277-0.284
			c-0.002-0.002-0.002-0.003-0.002-0.003l-1.148-1.589l0.994-1.865c0.018-0.034,0.021-0.074,0.01-0.111s-0.037-0.068-0.072-0.087
			l-1.729-0.918l0.066-2.051l1.143-0.957l1.404,0.532c0.051,0.02,0.105,0.008,0.145-0.024c0.02-0.015,0.035-0.035,0.043-0.06
			c0.029-0.076-0.008-0.161-0.084-0.188l-1.25-0.475l1.094-0.914l2.674,1.014c0.051,0.02,0.105,0.008,0.145-0.024
			c0.02-0.016,0.033-0.036,0.043-0.061c0.029-0.075-0.01-0.16-0.084-0.188l-2.521-0.955l1.084-0.905l1.402,0.532
			c0.051,0.019,0.107,0.008,0.145-0.024c0.02-0.016,0.035-0.035,0.043-0.061c0.029-0.075-0.008-0.16-0.084-0.188l-1.25-0.474
			l2.133-1.783c0.063-0.052,0.07-0.145,0.018-0.206c-0.051-0.062-0.145-0.07-0.205-0.019l-2.133,1.783l-0.244-1.313
			c-0.016-0.079-0.092-0.131-0.172-0.117c-0.078,0.016-0.131,0.092-0.117,0.171l0.275,1.476l-1.082,0.904l-0.494-2.648
			c-0.014-0.08-0.09-0.131-0.17-0.117c-0.08,0.015-0.131,0.091-0.115,0.171l0.523,2.81l-1.094,0.914l-0.246-1.313
			c-0.014-0.08-0.09-0.132-0.17-0.117c-0.08,0.016-0.131,0.091-0.117,0.171l0.275,1.475l-1.154,0.966l-1.896-0.06l-0.869-1.927
			c-0.018-0.035-0.045-0.063-0.082-0.076c-0.037-0.013-0.076-0.012-0.113,0.004l-1.654,0.747l0.48-2.561l1.422-0.481
			c0.018-0.007,0.033-0.016,0.045-0.026c0.047-0.038,0.066-0.101,0.047-0.159c-0.027-0.076-0.109-0.118-0.186-0.093l-1.266,0.43
			l0.258-1.384c0.016-0.079-0.037-0.156-0.115-0.172c-0.08-0.014-0.156,0.038-0.172,0.118l-0.26,1.384l-1.023-0.857
			c-0.063-0.053-0.154-0.045-0.205,0.017c-0.053,0.063-0.045,0.155,0.018,0.207l1.15,0.964l-0.477,2.545l-1.475-1.217
			c-0.029-0.024-0.068-0.036-0.107-0.033c-0.037,0.004-0.074,0.023-0.098,0.053l-1.238,1.501l-1.621-0.593
			c-0.072-0.026-0.152,0.006-0.184,0.075l-0.707,1.527l-1.537-1.838l0.531-1.403c0.029-0.075-0.01-0.16-0.084-0.188
			c-0.076-0.028-0.162,0.01-0.189,0.085l-0.473,1.249l-0.816-0.974c-0.076,0.06-0.154,0.121-0.23,0.182L73.42,66.521z
			 M73.928,76.728l-1.695-1.165l1.078-1.568c0.031-0.046,0.033-0.105,0.006-0.154l-0.908-1.616l2.746,0.607
			c0,0.02,0.006,0.039,0.018,0.056l0.59,1.052l-0.631,0.92c-0.021,0.03-0.029,0.07-0.023,0.108s0.029,0.072,0.063,0.095l0.992,0.682
			l-0.125,0.855l-2.289,1.913l0.242-1.643C73.998,76.814,73.975,76.76,73.928,76.728z M76.332,71.272l0.871-0.229l1.182,1.414
			c-0.203,0.2-0.352,0.438-0.439,0.693l-2.113-0.468l0.588-0.331c0.057-0.031,0.084-0.091,0.074-0.152L76.332,71.272z
			 M83.234,72.272l0.936,0.497l-0.541,1.016c-0.025,0.05-0.021,0.11,0.012,0.155l0.406,0.563l-2.572-0.569
			c0.041-0.425-0.064-0.862-0.326-1.229l2.045-1.711l-0.037,1.146C83.154,72.194,83.186,72.246,83.234,72.272z M83.449,76.661
			l-1.021,0.174l-1.488-1.778c0.24-0.236,0.402-0.526,0.484-0.836l2.783,0.617l-0.879,0.636c-0.047,0.033-0.068,0.088-0.059,0.144
			L83.449,76.661z M80.055,73.619l0.869-0.727c0.201,0.294,0.287,0.64,0.264,0.977L80.055,73.619z M81.139,74.158
			c-0.066,0.248-0.197,0.481-0.387,0.674l-0.781-0.934L81.139,74.158z M79.961,73.317l0.189-1.009
			c0.215,0.072,0.416,0.191,0.586,0.359L79.961,73.317z M80.527,75.021c-0.283,0.193-0.611,0.278-0.936,0.264l0.213-1.129
			L80.527,75.021z M79.631,73.493l-0.834-0.998c0.32-0.221,0.703-0.301,1.068-0.253L79.631,73.493z M79.195,73.429l-0.965-0.215
			c0.074-0.194,0.189-0.376,0.342-0.531L79.195,73.429z M79.412,73.775l-1.014,0.848c-0.23-0.338-0.311-0.743-0.244-1.127
			L79.412,73.775z M79.523,74.064l-0.221,1.179c-0.264-0.063-0.514-0.195-0.717-0.396L79.523,74.064z M79.248,75.531l-0.41,2.185
			l-0.947,0.305l-0.322-1.009c-0.018-0.054-0.064-0.092-0.119-0.101l-1.133-0.165l2.047-1.712
			C78.611,75.289,78.922,75.455,79.248,75.531z M79.537,75.574c0.408,0.027,0.824-0.08,1.178-0.329l1.486,1.777l-0.352,0.976
			l-0.996-0.359c-0.053-0.02-0.111-0.008-0.152,0.031l-0.828,0.799l-0.736-0.762L79.537,75.574z M80.961,72.48
			c-0.217-0.221-0.477-0.375-0.756-0.462l0.328-1.753c0.012-0.002,0.023-0.004,0.033-0.01l0.967-0.437l0.473,1.048
			c0.023,0.052,0.074,0.085,0.129,0.087l0.627,0.021L80.961,72.48z M79.92,71.955c-0.449-0.063-0.92,0.038-1.311,0.316l-1.184-1.416
			l0.379-0.814l0.885,0.323c0.059,0.021,0.123,0.004,0.162-0.044l0.676-0.818l0.736,0.609L79.92,71.955z M77.869,73.433
			c-0.084,0.47,0.014,0.968,0.307,1.378l-1.801,1.507l0.09-0.622c0.008-0.055-0.016-0.109-0.063-0.142l-0.947-0.651l0.6-0.872
			c0.031-0.047,0.035-0.106,0.006-0.155l-0.539-0.962L77.869,73.433z M78.346,80.353l-1.896,0.609l-0.582-1.813
			c-0.018-0.052-0.063-0.091-0.117-0.099l-1.863-0.273l2.16-1.806c0.02,0.021,0.047,0.037,0.076,0.041l1.193,0.175l0.342,1.062
			c0.012,0.036,0.037,0.067,0.072,0.085c0.033,0.018,0.074,0.021,0.111,0.01l0.936-0.3L78.346,80.353z M83.299,80.927l-1.787-0.648
			c-0.053-0.018-0.113-0.006-0.152,0.033l-1.48,1.429l-1.254-1.3l0.447-2.381l0.691,0.718c0.057,0.058,0.146,0.061,0.207,0.003
			l0.869-0.836l1.047,0.379c0.051,0.018,0.105,0.006,0.145-0.025c0.018-0.016,0.033-0.038,0.043-0.063l0.346-0.952l1.533,1.834
			L83.299,80.927z M85.811,76.588c-0.045,0.034-0.066,0.088-0.057,0.144l0.32,1.875l-1.896,0.323l-1.535-1.835l0.998-0.171
			c0.08-0.014,0.135-0.089,0.121-0.169l-0.188-1.098l0.977-0.707c0.012-0.008,0.02-0.02,0.027-0.029l2.711,0.6L85.811,76.588z
			 M85.641,70.977l1.68,0.893l-0.965,1.817c-0.027,0.049-0.023,0.109,0.01,0.154l1.01,1.399l-2.896-0.643l-0.547-0.755l0.564-1.065
			c0.02-0.034,0.023-0.074,0.012-0.111c-0.012-0.036-0.037-0.068-0.07-0.085l-0.984-0.524l0.037-1.205
			c0.002-0.031-0.01-0.061-0.025-0.084l2.158-1.806l-0.061,1.88C85.561,70.898,85.592,70.95,85.641,70.977z M81.045,67.536
			l1.707-0.772L83.6,68.64c0.023,0.052,0.072,0.084,0.129,0.086l1.658,0.053l-2.289,1.914l-0.861-0.027l-0.496-1.099
			c-0.018-0.036-0.047-0.063-0.082-0.077c-0.037-0.014-0.078-0.013-0.113,0.004l-0.947,0.428L81.045,67.536z M76.313,67.146
			l1.592,0.582c0.057,0.021,0.123,0.004,0.164-0.044l1.209-1.468l1.486,1.227l-0.438,2.34l-0.727-0.6
			c-0.029-0.024-0.068-0.036-0.107-0.031c-0.037,0.002-0.074,0.021-0.098,0.052l-0.701,0.85l-0.916-0.334
			c-0.07-0.026-0.15,0.007-0.182,0.075l-0.377,0.813l-1.615-1.932L76.313,67.146z M76.994,70.796l-0.867,0.227
			c-0.072,0.02-0.119,0.092-0.105,0.167l0.166,0.959l-0.783,0.439l-2.912-0.646l1.475-0.828c0.055-0.03,0.082-0.091,0.072-0.151
			l-0.291-1.671l1.631-0.427L76.994,70.796z"/>
	</g>
</g>
</svg>
