<?xml version="1.0" encoding="utf-8"?>
<!-- Generator: Adobe Illustrator 16.0.0, SVG Export Plug-In . SVG Version: 6.00 Build 0)  -->
<!DOCTYPE svg PUBLIC "-//W3C//DTD SVG 1.1//EN" "http://www.w3.org/Graphics/SVG/1.1/DTD/svg11.dtd">
<svg version="1.1" id="Layer_1" xmlns="http://www.w3.org/2000/svg" xmlns:xlink="http://www.w3.org/1999/xlink" x="0px" y="0px"
	 width="216px" height="216px" viewBox="0 0 216 216" enable-background="new 0 0 216 216" xml:space="preserve">
<g>
	<circle fill="#EDEDF7" cx="108" cy="108" r="108"/>
	<g>
		<g>
			<path fill="#E5C53B" d="M94.563,84.377c-0.348,1.03-1.465,1.584-2.496,1.237l0,0c-1.029-0.348-1.583-1.465-1.236-2.494
				l0.802-2.381c0.348-1.029,1.464-1.584,2.495-1.236l0,0c1.029,0.348,1.584,1.464,1.236,2.494L94.563,84.377z"/>
			<path fill="#D3B846" d="M105.69,81.521c0.774,0.762,0.784,2.008,0.022,2.783l0,0c-0.764,0.775-2.01,0.785-2.785,0.023
				l-1.789-1.762c-0.775-0.763-0.786-2.01-0.023-2.784l0,0c0.763-0.774,2.01-0.785,2.783-0.022L105.69,81.521z"/>
			<circle fill="#E5C53B" cx="56.349" cy="151.557" r="7.359"/>
			<path fill="#F4D344" d="M100.592,142.226c-0.813-3.741-0.973-12.357,5.373-30.377c0.078-0.221,0.156-0.444,0.235-0.667
				c0.167-0.413,0.888-2.655,0.907-2.731c2.835-10.877-3.193-22.25-14.01-25.895c-10.766-3.629-22.389,1.709-26.764,11.988
				c-0.03,0.071-0.121,0.281-0.21,0.497c-0.052,0.126-0.252,0.676-0.338,0.937c-0.146,0.443-0.329,1.016-0.394,1.246
				c-5.97,18.852-11.438,25.78-14.395,28.3c-4.615,1.303-7.9,3.725-9.055,7.154c-2.883,8.554,8.557,20.131,25.549,25.857
				c16.993,5.728,33.105,3.436,35.988-5.118C104.639,149.982,103.485,146.062,100.592,142.226z"/>
			<path fill="#E5C53B" d="M160.36,101.37c-3.722-0.904-11.542-4.524-24.978-18.105c-0.166-0.166-0.331-0.334-0.497-0.504
				c-0.298-0.33-2.001-1.958-2.06-2.008c-8.547-7.303-21.41-6.85-29.415,1.287c-7.967,8.1-8.244,20.887-0.909,29.313
				c0.051,0.058,0.201,0.231,0.355,0.405c0.091,0.102,0.498,0.521,0.695,0.714c0.334,0.323,0.77,0.739,0.947,0.898
				c14.35,13.605,18.192,21.553,19.167,25.312c-0.844,4.721-0.101,8.732,2.479,11.271c6.435,6.33,21.846,1.099,34.422-11.685
				c12.576-12.784,17.555-28.278,11.12-34.608C169.104,101.12,165.073,100.443,160.36,101.37z"/>
			<path fill="#D3B846" d="M171.688,103.661c-2.311-2.273-5.779-3.053-9.857-2.53c-33.595,5.955-38.164,37.552-38.164,37.552
				c-0.844,4.721-0.101,8.732,2.479,11.271c6.435,6.33,21.846,1.099,34.422-11.685C173.145,125.485,178.123,109.991,171.688,103.661
				z"/>
			<circle fill="#E5C53B" cx="145.636" cy="115.696" r="7.359"/>
		</g>
		<path fill="#49BEA6" d="M70.119,74.194l0.013,0.003c0,0,2.352-0.692,2.12-2.706c-0.044-0.236-0.195-0.745-0.73-1.432
			c-0.218-0.249-0.277-0.367-0.277-0.367s3.141,1.003,4.463-0.101l-0.029-0.054l-0.006-0.002c-1.075-1.807-2.559-2.27-2.559-2.27
			c0.888-0.387,1.301-0.642,1.489-0.788c0.13-0.102,0.155-0.146,0.155-0.146s0.085-0.091,0.121-0.138
			c0.037-0.049,0.069-0.1,0.1-0.151c0.197-0.349,0.225-0.813-0.033-1.452c-0.033-0.084-0.188-0.407-0.231-0.479
			c-0.056-0.095-0.113-0.19-0.175-0.28c-0.678-1.027-0.845-0.951-1.171-1.273c4.461-0.477,4.874-3.565,5.545-5.626l0.005-0.092
			c0.004,0.014,0.008,0.028,0.011,0.041c0.004-0.01,0.007-0.021,0.011-0.032l-0.004,0.064c0.442,2.119,1.875,4.924,6.249,5.954
			c-0.362,0.279-1.303,0.793-2.103,1.728c-0.07,0.084-0.139,0.168-0.207,0.256c-0.051,0.066-0.244,0.367-0.288,0.448
			c-0.888,1.589-0.688,2.513-0.438,2.97c0.031,0.056,0.063,0.104,0.093,0.147c0.054,0.073,0.234,0.229,0.299,0.272
			c0.087,0.058,0.178,0.109,0.204,0.126c0.252,0.133,0.512,0.208,0.703,0.248c0.025,0.008,0.053,0.013,0.076,0.019
			c0.145,0.025,0.236,0.033,0.236,0.033l0.002-0.002c1.366,0.129,3.189-0.666,3.189-0.666c0.004,0.006-0.006,0.016-0.01,0.023
			c-0.805,0.594-1.455,1.211-1.928,1.723c-0.32,0.328-0.611,0.666-0.838,0.997c-0.004,0.005-0.012,0.018-0.018,0.023
			c-0.004,0.006-0.006,0.014-0.012,0.023c-0.189,0.285-0.326,0.564-0.385,0.821c-0.633,2.069,1.734,3.093,1.734,3.093l0.014-0.001
			c0.184,0.104,0.378,0.188,0.595,0.235c-2.791,0.877-7.318,2.61-8.548,5.269l-0.232-0.008c-0.89-2.789-5.164-5.073-7.824-6.289
			C69.719,74.335,69.922,74.276,70.119,74.194z"/>
		<path fill="#49BEA6" d="M62.209,91.743l0.003-0.008c0,0-0.407-1.655-1.813-1.559c-0.166,0.023-0.523,0.113-1.018,0.463
			c-0.179,0.143-0.262,0.181-0.262,0.181s0.795-2.149,0.068-3.103l-0.037,0.019l-0.003,0.004c-1.288,0.69-1.656,1.706-1.656,1.706
			c-0.239-0.629-0.404-0.924-0.5-1.06c-0.067-0.094-0.098-0.112-0.098-0.112s-0.061-0.062-0.091-0.088
			c-0.033-0.027-0.067-0.052-0.102-0.074c-0.236-0.147-0.56-0.182-1.011-0.022c-0.06,0.021-0.29,0.118-0.341,0.146
			c-0.068,0.035-0.136,0.072-0.199,0.112c-0.736,0.438-0.688,0.557-0.922,0.774c-0.19-3.115-2.323-3.499-3.734-4.029l-0.063-0.006
			c0.01-0.004,0.02-0.005,0.028-0.006c-0.007-0.004-0.015-0.006-0.022-0.01l0.044,0.005c1.487-0.239,3.481-1.146,4.333-4.153
			c0.183,0.26,0.51,0.93,1.135,1.516c0.055,0.051,0.112,0.101,0.171,0.15c0.045,0.038,0.248,0.182,0.302,0.215
			c1.076,0.666,1.725,0.557,2.049,0.397c0.041-0.021,0.074-0.04,0.106-0.06c0.052-0.035,0.165-0.156,0.198-0.199
			c0.043-0.059,0.082-0.12,0.094-0.137c0.102-0.172,0.161-0.35,0.195-0.482c0.006-0.018,0.01-0.035,0.014-0.052
			c0.023-0.099,0.031-0.163,0.031-0.163l-0.001-0.001c0.132-0.944-0.362-2.237-0.362-2.239c0.004,0,0.012,0.007,0.016,0.01
			c0.388,0.578,0.796,1.049,1.136,1.395c0.218,0.232,0.443,0.444,0.667,0.612c0.003,0.003,0.012,0.009,0.016,0.013
			s0.01,0.006,0.016,0.01c0.191,0.141,0.383,0.244,0.559,0.292c1.418,0.505,2.203-1.107,2.203-1.107l-0.001-0.009
			c0.078-0.125,0.144-0.257,0.183-0.406c0.521,1.967,1.584,5.166,3.392,6.104l-0.014,0.16c-1.965,0.531-3.687,3.429-4.614,5.238
			C62.295,92.026,62.261,91.884,62.209,91.743z"/>
		<path fill="#49BEA6" d="M98.973,74.255l-0.01-0.001c0,0-1.494-0.944-0.934-2.294c0.077-0.154,0.284-0.475,0.791-0.847
			c0.199-0.13,0.264-0.2,0.264-0.2s-2.377,0.074-3.072-0.952l0.029-0.03l0.005-0.001c1.104-1.04,2.226-1.066,2.226-1.066
			c-0.54-0.442-0.775-0.701-0.875-0.841c-0.072-0.096-0.079-0.133-0.079-0.133s-0.042-0.08-0.059-0.119
			c-0.015-0.04-0.026-0.083-0.037-0.125c-0.069-0.279,0.005-0.607,0.311-0.998c0.04-0.053,0.211-0.246,0.255-0.287
			c0.059-0.054,0.117-0.109,0.177-0.158c0.675-0.58,0.774-0.493,1.064-0.652c-2.997-1.213-2.673-3.435-2.728-4.994l0.015-0.064
			c-0.005,0.008-0.011,0.018-0.016,0.025c0-0.008-0.001-0.016,0-0.024l-0.011,0.046c-0.727,1.381-2.277,3.041-5.516,2.888
			c0.196,0.266,0.746,0.808,1.116,1.614c0.03,0.072,0.062,0.144,0.092,0.219c0.021,0.056,0.097,0.302,0.11,0.367
			c0.301,1.275-0.021,1.877-0.286,2.143c-0.032,0.034-0.063,0.061-0.092,0.086c-0.054,0.039-0.21,0.112-0.261,0.129
			c-0.073,0.023-0.146,0.04-0.168,0.047c-0.203,0.042-0.396,0.044-0.537,0.032c-0.02,0.001-0.039-0.001-0.058-0.002
			c-0.104-0.01-0.17-0.023-0.17-0.023v-0.002c-0.974-0.18-2.081-1.093-2.083-1.094c-0.002,0.005,0.004,0.015,0.005,0.021
			c0.44,0.57,0.769,1.126,0.994,1.573c0.157,0.291,0.292,0.583,0.384,0.857c0.002,0.005,0.006,0.015,0.008,0.021
			c0.002,0.004,0.002,0.011,0.004,0.019c0.074,0.234,0.114,0.455,0.103,0.644c0.028,1.56-1.816,1.801-1.816,1.801l-0.011-0.003
			c-0.145,0.036-0.299,0.056-0.457,0.046c1.761,1.158,4.557,3.257,4.881,5.34l0.162,0.041c1.172-1.757,4.589-2.492,6.676-2.81
			C99.223,74.433,99.092,74.352,98.973,74.255z"/>
		<path fill="#49BEA6" d="M71.315,69.677l-0.007,0.01c0,0-1.998,1.427-3.438,0c-0.159-0.181-0.466-0.613-0.676-1.459
			c-0.062-0.324-0.118-0.445-0.118-0.445s-1.148,3.093-2.832,3.452l-0.023-0.055v-0.007c-0.758-1.963-0.206-3.416-0.206-3.416
			c-0.851,0.461-1.308,0.628-1.538,0.687c-0.162,0.041-0.213,0.031-0.213,0.031s-0.123,0.012-0.184,0.011
			c-0.062-0.001-0.121-0.004-0.18-0.015c-0.393-0.061-0.778-0.326-1.122-0.923c-0.044-0.078-0.205-0.399-0.233-0.477
			c-0.043-0.104-0.082-0.209-0.114-0.311c-0.392-1.168-0.228-1.252-0.28-1.708c-3.127,3.218-5.813,1.636-7.847,0.893l-0.077-0.052
			c0.01,0.011,0.018,0.021,0.027,0.033c-0.012-0.004-0.021-0.009-0.032-0.012l0.052,0.036c1.397,1.657,2.719,4.515,0.83,8.594
			c0.444-0.116,1.428-0.536,2.657-0.591c0.107-0.006,0.218-0.007,0.329-0.005c0.084,0,0.439,0.034,0.531,0.048
			c1.797,0.283,2.401,1.01,2.605,1.489c0.026,0.059,0.044,0.114,0.059,0.163c0.025,0.088,0.036,0.324,0.029,0.404
			c-0.007,0.103-0.021,0.208-0.023,0.236c-0.055,0.281-0.154,0.531-0.239,0.711c-0.011,0.021-0.023,0.045-0.036,0.068
			c-0.065,0.129-0.117,0.205-0.117,0.205l-0.003,0.002c-0.74,1.154-2.493,2.1-2.495,2.102c0.006,0.004,0.021,0.004,0.021,0.004
			c0.971-0.268,1.858-0.397,2.553-0.455c0.455-0.049,0.901-0.069,1.3-0.042c0.007,0,0.021,0,0.028,0.001
			c0.01,0,0.019,0.004,0.027,0.004c0.342,0.027,0.645,0.092,0.883,0.205c2.018,0.777,1.365,3.273,1.365,3.273l-0.01,0.008
			c-0.032,0.21-0.086,0.415-0.182,0.614c2.412-1.655,6.57-4.147,9.418-3.478l0.143-0.187c-1.648-2.421-0.808-7.194-0.125-10.037
			C71.672,69.448,71.498,69.571,71.315,69.677z"/>
		<path fill="#278972" d="M78.388,72.987l-0.008,0.004c0,0-1.841,0.173-2.237-1.302c-0.035-0.179-0.071-0.576,0.113-1.207
			c0.082-0.233,0.092-0.335,0.092-0.335s-1.92,1.581-3.151,1.178l0.005-0.045l0.004-0.004c0.25-1.566,1.158-2.303,1.158-2.303
			c-0.727-0.023-1.089-0.087-1.26-0.137c-0.121-0.033-0.15-0.06-0.15-0.06s-0.084-0.038-0.124-0.063
			c-0.04-0.023-0.077-0.049-0.11-0.077c-0.233-0.188-0.384-0.508-0.381-1.025c0-0.068,0.018-0.338,0.027-0.398
			c0.012-0.085,0.027-0.168,0.044-0.247c0.188-0.909,0.326-0.901,0.465-1.219c-3.254,0.913-4.402-1.135-5.444-2.388l-0.03-0.064
			c0.002,0.012,0.003,0.021,0.005,0.033c-0.006-0.007-0.012-0.014-0.016-0.02l0.02,0.043c0.281,1.608,0.059,3.971-2.717,5.913
			c0.334,0.092,1.133,0.19,1.953,0.621c0.072,0.036,0.145,0.077,0.217,0.121c0.055,0.031,0.273,0.188,0.328,0.232
			c1.062,0.864,1.18,1.567,1.131,1.956c-0.005,0.049-0.014,0.091-0.024,0.129c-0.017,0.066-0.099,0.225-0.133,0.273
			c-0.044,0.064-0.093,0.128-0.106,0.146c-0.141,0.163-0.301,0.288-0.424,0.373c-0.016,0.009-0.032,0.02-0.049,0.03
			c-0.092,0.06-0.154,0.09-0.154,0.09h-0.002c-0.92,0.472-2.419,0.424-2.421,0.426c0.003,0.004,0.013,0.01,0.017,0.012
			c0.729,0.191,1.355,0.441,1.83,0.668c0.313,0.141,0.612,0.296,0.861,0.464c0.004,0.003,0.014,0.008,0.018,0.011
			c0.007,0.005,0.011,0.01,0.017,0.014c0.212,0.147,0.384,0.304,0.497,0.468c1.019,1.271-0.353,2.649-0.353,2.649l-0.009,0.002
			c-0.1,0.124-0.212,0.238-0.35,0.331c2.195-0.165,5.846-0.216,7.445,1.3l0.163-0.068c-0.156-2.201,2.2-4.993,3.721-6.586
			C78.706,72.974,78.547,72.988,78.388,72.987z"/>
		<path fill="#278972" d="M63.317,78.287l-0.003,0.005c0,0-0.769,0.775-1.51,0.26c-0.084-0.067-0.252-0.234-0.407-0.589
			c-0.052-0.137-0.085-0.187-0.085-0.187s-0.271,1.443-0.983,1.728l-0.015-0.021v-0.003c-0.481-0.804-0.35-1.481-0.35-1.481
			c-0.339,0.266-0.527,0.374-0.623,0.417c-0.068,0.029-0.092,0.029-0.092,0.029s-0.053,0.016-0.08,0.019
			c-0.027,0.005-0.053,0.007-0.08,0.007c-0.178,0.004-0.366-0.083-0.563-0.319c-0.025-0.03-0.12-0.159-0.139-0.19
			c-0.026-0.043-0.052-0.086-0.074-0.128c-0.26-0.482-0.193-0.531-0.252-0.728c-1.13,1.646-2.43,1.156-3.379,0.985l-0.038-0.019
			c0.006,0.005,0.009,0.01,0.015,0.014c-0.006-0.001-0.01-0.002-0.015-0.003l0.025,0.013c0.739,0.619,1.536,1.771,1.015,3.703
			c0.187-0.085,0.586-0.344,1.123-0.46c0.046-0.011,0.095-0.021,0.145-0.026c0.036-0.008,0.195-0.02,0.236-0.02
			c0.811-0.012,1.131,0.26,1.258,0.455c0.016,0.023,0.027,0.047,0.038,0.066c0.018,0.037,0.04,0.141,0.043,0.175
			c0.005,0.046,0.007,0.093,0.008,0.106c-0.002,0.127-0.027,0.244-0.051,0.329c-0.004,0.01-0.008,0.021-0.012,0.032
			c-0.019,0.062-0.036,0.1-0.036,0.1l0,0c-0.238,0.563-0.937,1.109-0.938,1.111l0.012-0.002c0.404-0.189,0.785-0.313,1.085-0.391
			c0.196-0.057,0.39-0.1,0.567-0.118c0,0,0.01-0.001,0.013-0.001c0.005,0,0.009,0,0.013,0c0.152-0.014,0.29-0.009,0.404,0.022
			c0.943,0.188,0.846,1.332,0.846,1.332l-0.004,0.004c0.002,0.095-0.005,0.188-0.032,0.282c0.934-0.906,2.571-2.314,3.873-2.235
			l0.048-0.093c-0.906-0.937-0.898-3.092-0.814-4.389C63.456,78.16,63.39,78.228,63.317,78.287z"/>
		<path fill="#278972" d="M81.057,73.461h0.008c0,0,1.502-0.444,1.348-1.729c-0.029-0.15-0.126-0.476-0.471-0.914
			c-0.138-0.155-0.178-0.232-0.178-0.232s2.008,0.633,2.851-0.074l-0.021-0.034l-0.002-0.001c-0.691-1.15-1.639-1.441-1.639-1.441
			c0.565-0.248,0.828-0.414,0.947-0.507c0.084-0.065,0.098-0.095,0.098-0.095s0.055-0.059,0.078-0.088
			c0.023-0.031,0.045-0.063,0.063-0.097c0.124-0.223,0.141-0.521-0.024-0.927c-0.021-0.054-0.12-0.259-0.149-0.306
			c-0.034-0.062-0.073-0.12-0.11-0.177c-0.435-0.653-0.542-0.605-0.752-0.811c2.846-0.316,3.104-2.286,3.527-3.604l0.003-0.059
			c0.001,0.01,0.003,0.019,0.007,0.027c0.002-0.007,0.004-0.014,0.006-0.02l-0.001,0.038c0.286,1.354,1.207,3.136,4.003,3.783
			c-0.233,0.179-0.83,0.508-1.34,1.106c-0.045,0.053-0.088,0.108-0.131,0.166c-0.031,0.041-0.155,0.233-0.184,0.285
			c-0.561,1.016-0.434,1.605-0.271,1.896c0.019,0.035,0.04,0.066,0.061,0.093c0.032,0.046,0.148,0.146,0.188,0.173
			c0.056,0.036,0.114,0.072,0.132,0.08c0.161,0.083,0.326,0.132,0.449,0.157c0.018,0.003,0.033,0.005,0.049,0.009
			c0.092,0.017,0.15,0.023,0.15,0.023l0.002-0.002c0.871,0.08,2.036-0.434,2.036-0.434c-0.001,0.005-0.005,0.012-0.008,0.016
			c-0.513,0.381-0.927,0.776-1.228,1.105c-0.203,0.207-0.388,0.426-0.532,0.635c-0.001,0.006-0.008,0.013-0.011,0.016
			c-0.002,0.005-0.006,0.012-0.008,0.018c-0.12,0.182-0.206,0.36-0.242,0.523c-0.401,1.321,1.113,1.969,1.113,1.969h0.009
			c0.116,0.066,0.243,0.118,0.379,0.148c-1.78,0.568-4.666,1.684-5.442,3.383l-0.15-0.004c-0.572-1.775-3.309-3.223-5.008-3.992
			C80.803,73.552,80.932,73.514,81.057,73.461z"/>
		<path fill="#49BEA6" d="M129.986,73.726l-0.015,0.003c0,0-2.63-0.774-2.371-3.027c0.049-0.265,0.218-0.833,0.817-1.602
			c0.242-0.278,0.31-0.41,0.31-0.41s-3.513,1.122-4.993-0.112l0.034-0.06l0.007-0.003c1.203-2.021,2.862-2.539,2.862-2.539
			c-0.993-0.432-1.455-0.718-1.666-0.881c-0.147-0.114-0.174-0.164-0.174-0.164s-0.097-0.103-0.136-0.154
			c-0.042-0.055-0.078-0.111-0.111-0.169c-0.221-0.39-0.252-0.911,0.037-1.624c0.037-0.095,0.21-0.457,0.259-0.537
			c0.062-0.106,0.126-0.213,0.195-0.313c0.757-1.149,0.944-1.063,1.31-1.425c-4.99-0.532-5.452-3.988-6.203-6.293l-0.006-0.103
			c-0.004,0.015-0.008,0.031-0.012,0.046c-0.004-0.012-0.007-0.023-0.012-0.037l0.004,0.072c-0.494,2.371-2.096,5.509-6.99,6.66
			c0.406,0.313,1.457,0.888,2.354,1.934c0.078,0.093,0.154,0.188,0.23,0.286c0.058,0.075,0.272,0.41,0.322,0.501
			c0.992,1.777,0.77,2.811,0.49,3.322c-0.035,0.063-0.068,0.117-0.103,0.165c-0.062,0.081-0.263,0.255-0.335,0.305
			c-0.097,0.063-0.198,0.123-0.229,0.142c-0.281,0.147-0.572,0.232-0.787,0.277c-0.028,0.008-0.059,0.014-0.084,0.02
			c-0.161,0.029-0.265,0.037-0.265,0.037l-0.002-0.002c-1.528,0.145-3.568-0.745-3.571-0.746c-0.002,0.008,0.009,0.02,0.014,0.028
			c0.9,0.664,1.629,1.354,2.157,1.927c0.358,0.367,0.684,0.744,0.937,1.115c0.006,0.006,0.014,0.02,0.02,0.025
			c0.006,0.008,0.008,0.016,0.014,0.026c0.212,0.319,0.365,0.632,0.431,0.919c0.708,2.314-1.94,3.46-1.94,3.46l-0.016-0.001
			c-0.204,0.117-0.422,0.211-0.665,0.264c3.122,0.98,8.187,2.92,9.562,5.893l0.261-0.008c0.994-3.12,5.776-5.676,8.753-7.036
			C130.436,73.882,130.207,73.817,129.986,73.726z"/>
		<path fill="#49BEA6" d="M125.451,70.854l0.005,0.008c0,0,1.597,1.141,2.752,0.001c0.128-0.145,0.373-0.49,0.541-1.166
			c0.05-0.258,0.095-0.355,0.095-0.355s0.918,2.473,2.266,2.76l0.018-0.043v-0.006c0.607-1.568,0.168-2.729,0.168-2.729
			c0.68,0.368,1.046,0.502,1.23,0.548c0.129,0.034,0.17,0.025,0.17,0.025s0.099,0.011,0.147,0.009c0.048,0,0.097-0.003,0.143-0.011
			c0.315-0.049,0.624-0.261,0.898-0.738c0.036-0.062,0.165-0.318,0.187-0.381c0.036-0.082,0.066-0.166,0.094-0.248
			c0.313-0.934,0.182-1,0.225-1.363c2.5,2.572,4.65,1.309,6.277,0.715l0.063-0.041c-0.009,0.009-0.015,0.018-0.022,0.026
			c0.008-0.003,0.018-0.007,0.025-0.009l-0.041,0.029c-1.119,1.323-2.179,3.605-0.67,6.867c-0.355-0.094-1.143-0.43-2.126-0.473
			c-0.085-0.005-0.174-0.006-0.263-0.004c-0.067,0-0.352,0.027-0.426,0.038c-1.438,0.226-1.922,0.806-2.086,1.188
			c-0.021,0.047-0.035,0.092-0.047,0.131c-0.021,0.07-0.029,0.26-0.024,0.322c0.006,0.082,0.017,0.167,0.021,0.189
			c0.041,0.225,0.121,0.426,0.189,0.568c0.01,0.018,0.02,0.035,0.029,0.055c0.053,0.103,0.094,0.164,0.094,0.164l0.002,0.001
			c0.592,0.923,1.994,1.68,1.994,1.681c-0.004,0.004-0.017,0.004-0.017,0.004c-0.776-0.215-1.486-0.318-2.042-0.365
			c-0.363-0.039-0.722-0.055-1.04-0.034c-0.006,0-0.017,0-0.022,0.001c0,0-0.016,0.003-0.021,0.003
			c-0.273,0.022-0.516,0.073-0.707,0.163c-1.616,0.621-1.095,2.616-1.095,2.616l0.008,0.007c0.025,0.168,0.068,0.331,0.145,0.49
			c-1.929-1.323-5.254-3.317-7.534-2.783l-0.113-0.148c1.32-1.934,0.65-5.75,0.106-8.021
			C125.166,70.671,125.305,70.769,125.451,70.854z"/>
		<path fill="#49BEA6" d="M134.821,79.576l0.001,0.008c0,0,0.896,1.515,2.256,1.001c0.158-0.07,0.483-0.265,0.867-0.756
			c0.135-0.193,0.207-0.257,0.207-0.257s-0.146,2.356,0.854,3.081l0.032-0.027V82.62c1.069-1.063,1.13-2.172,1.13-2.172
			c0.424,0.549,0.676,0.791,0.811,0.896c0.094,0.074,0.13,0.083,0.13,0.083s0.077,0.044,0.117,0.061
			c0.04,0.018,0.081,0.032,0.122,0.041c0.275,0.076,0.605,0.016,1.004-0.275c0.053-0.038,0.25-0.201,0.292-0.244
			c0.06-0.055,0.114-0.111,0.165-0.169c0.597-0.649,0.514-0.753,0.68-1.034c1.117,3.015,3.338,2.762,4.888,2.867l0.067-0.011
			c-0.011,0.005-0.021,0.01-0.029,0.015c0.009,0,0.017,0,0.025,0.002l-0.045,0.008c-1.398,0.677-3.097,2.16-3.045,5.377
			c-0.257-0.205-0.779-0.767-1.571-1.159c-0.067-0.036-0.14-0.069-0.214-0.1c-0.053-0.024-0.299-0.105-0.361-0.123
			c-1.264-0.339-1.868-0.04-2.143,0.214c-0.035,0.031-0.063,0.063-0.086,0.09c-0.042,0.049-0.119,0.201-0.138,0.256
			c-0.024,0.068-0.046,0.141-0.052,0.161c-0.047,0.199-0.057,0.393-0.051,0.534c0.001,0.018,0.003,0.036,0.004,0.056
			c0.006,0.103,0.018,0.169,0.018,0.169l0,0c0.15,0.973,1.024,2.1,1.025,2.102c-0.005,0.001-0.016-0.004-0.018-0.005
			c-0.557-0.456-1.1-0.8-1.539-1.04c-0.283-0.164-0.572-0.308-0.841-0.406c-0.004-0.002-0.013-0.006-0.019-0.008
			c-0.007-0.002-0.014-0.002-0.018-0.005c-0.232-0.081-0.451-0.126-0.64-0.123c-1.55-0.079-1.849,1.743-1.849,1.743l0.004,0.008
			c-0.039,0.146-0.063,0.297-0.059,0.454c-1.102-1.784-3.102-4.626-5.166-5.017l-0.039-0.163c1.786-1.103,2.623-4.47,3.003-6.526
			C134.654,79.323,134.731,79.454,134.821,79.576z"/>
		<path fill="#278972" d="M119.471,72.987l0.007,0.004c0,0,1.841,0.173,2.237-1.302c0.036-0.179,0.072-0.576-0.112-1.207
			c-0.083-0.233-0.093-0.335-0.093-0.335s1.92,1.581,3.151,1.178l-0.005-0.045l-0.004-0.004c-0.25-1.566-1.158-2.303-1.158-2.303
			c0.728-0.023,1.089-0.087,1.26-0.137c0.121-0.033,0.15-0.06,0.15-0.06s0.085-0.038,0.125-0.063
			c0.039-0.023,0.076-0.049,0.11-0.077c0.233-0.188,0.384-0.508,0.38-1.025c0-0.068-0.018-0.338-0.027-0.398
			c-0.012-0.085-0.026-0.168-0.043-0.247c-0.188-0.909-0.326-0.901-0.466-1.219c3.255,0.913,4.403-1.135,5.444-2.388l0.031-0.064
			c-0.002,0.012-0.004,0.021-0.006,0.033c0.006-0.007,0.012-0.014,0.017-0.02l-0.02,0.043c-0.282,1.608-0.06,3.971,2.716,5.913
			c-0.334,0.092-1.133,0.19-1.953,0.621c-0.072,0.036-0.145,0.077-0.216,0.121c-0.055,0.031-0.273,0.188-0.328,0.232
			c-1.062,0.864-1.181,1.567-1.132,1.956c0.005,0.049,0.015,0.091,0.025,0.129c0.016,0.066,0.098,0.225,0.132,0.273
			c0.044,0.064,0.093,0.128,0.106,0.146c0.141,0.163,0.301,0.288,0.424,0.373c0.016,0.009,0.033,0.02,0.05,0.03
			c0.091,0.06,0.153,0.09,0.153,0.09h0.002c0.92,0.472,2.42,0.424,2.422,0.426c-0.004,0.004-0.014,0.01-0.017,0.012
			c-0.729,0.191-1.356,0.441-1.831,0.668c-0.313,0.141-0.612,0.296-0.861,0.464c-0.004,0.003-0.014,0.008-0.018,0.011
			c-0.007,0.005-0.011,0.01-0.016,0.014c-0.213,0.147-0.385,0.304-0.498,0.468c-1.018,1.271,0.353,2.649,0.353,2.649l0.01,0.002
			c0.1,0.124,0.212,0.238,0.35,0.331c-2.196-0.165-5.847-0.216-7.445,1.3l-0.163-0.068c0.155-2.201-2.201-4.993-3.721-6.586
			C119.152,72.974,119.311,72.988,119.471,72.987z"/>
		<path fill="#278972" d="M95.736,69.145l0.008,0.002c0,0,1.775-0.519,1.601-2.034c-0.033-0.18-0.147-0.563-0.55-1.081
			c-0.162-0.188-0.209-0.277-0.209-0.277s2.367,0.762,3.363-0.067l-0.021-0.039l-0.005-0.003c-0.809-1.363-1.927-1.714-1.927-1.714
			c0.669-0.289,0.981-0.482,1.123-0.591c0.1-0.076,0.117-0.111,0.117-0.111s0.064-0.066,0.092-0.104
			c0.028-0.035,0.055-0.072,0.075-0.111c0.147-0.261,0.169-0.613-0.024-1.094c-0.025-0.063-0.141-0.308-0.173-0.361
			c-0.042-0.074-0.087-0.146-0.132-0.212c-0.509-0.776-0.635-0.718-0.881-0.962c3.361-0.352,3.674-2.678,4.182-4.227l0.004-0.07
			c0.002,0.012,0.006,0.021,0.008,0.031c0.003-0.008,0.005-0.016,0.008-0.023l-0.003,0.048c0.331,1.599,1.409,3.712,4.704,4.495
			c-0.275,0.209-0.981,0.596-1.587,1.298c-0.054,0.06-0.105,0.124-0.156,0.192c-0.038,0.049-0.184,0.275-0.219,0.336
			c-0.668,1.195-0.52,1.892-0.331,2.236c0.023,0.043,0.047,0.078,0.07,0.11c0.04,0.056,0.174,0.173,0.225,0.206
			c0.064,0.044,0.133,0.084,0.15,0.096c0.192,0.099,0.388,0.157,0.533,0.19c0.018,0.003,0.037,0.006,0.057,0.009
			c0.107,0.022,0.177,0.027,0.177,0.027l0.001-0.001c1.029,0.101,2.405-0.497,2.405-0.497c0.002,0.006-0.005,0.015-0.007,0.018
			c-0.608,0.447-1.1,0.911-1.456,1.296c-0.241,0.246-0.46,0.501-0.631,0.749c-0.002,0.004-0.009,0.012-0.013,0.017
			c-0.004,0.007-0.006,0.013-0.01,0.019c-0.143,0.216-0.245,0.424-0.289,0.617c-0.479,1.557,1.305,2.334,1.305,2.334l0.009-0.002
			c0.14,0.079,0.284,0.144,0.447,0.179c-2.103,0.657-5.515,1.954-6.442,3.952l-0.177-0.003c-0.667-2.104-3.886-3.831-5.888-4.752
			C95.434,69.249,95.588,69.205,95.736,69.145z"/>
		<path fill="#278972" d="M116.802,73.461h-0.009c0,0-1.502-0.444-1.348-1.729c0.03-0.15,0.126-0.476,0.471-0.914
			c0.139-0.155,0.178-0.232,0.178-0.232s-2.008,0.633-2.85-0.074l0.02-0.034l0.002-0.001c0.692-1.15,1.64-1.441,1.64-1.441
			c-0.565-0.248-0.829-0.414-0.947-0.507c-0.085-0.065-0.098-0.095-0.098-0.095s-0.055-0.059-0.079-0.088
			c-0.023-0.031-0.045-0.063-0.063-0.097c-0.125-0.223-0.142-0.521,0.023-0.927c0.021-0.054,0.121-0.259,0.15-0.306
			c0.033-0.062,0.072-0.12,0.11-0.177c0.435-0.653,0.542-0.605,0.752-0.811c-2.847-0.316-3.104-2.286-3.528-3.604l-0.002-0.059
			c-0.002,0.01-0.004,0.019-0.007,0.027c-0.002-0.007-0.004-0.014-0.007-0.02l0.001,0.038c-0.286,1.354-1.206,3.136-4.002,3.783
			c0.233,0.179,0.829,0.508,1.339,1.106c0.045,0.053,0.088,0.108,0.132,0.166c0.03,0.041,0.155,0.233,0.183,0.285
			c0.562,1.016,0.434,1.605,0.271,1.896c-0.019,0.035-0.04,0.066-0.06,0.093c-0.033,0.046-0.148,0.146-0.188,0.173
			c-0.057,0.036-0.114,0.072-0.132,0.08c-0.162,0.083-0.327,0.132-0.45,0.157c-0.018,0.003-0.033,0.005-0.049,0.009
			c-0.092,0.017-0.149,0.023-0.149,0.023l-0.002-0.002c-0.871,0.08-2.036-0.434-2.036-0.434c0,0.005,0.004,0.012,0.007,0.016
			c0.513,0.381,0.927,0.776,1.228,1.105c0.203,0.207,0.389,0.426,0.533,0.635c0,0.006,0.008,0.013,0.01,0.016
			c0.002,0.005,0.007,0.012,0.008,0.018c0.12,0.182,0.207,0.36,0.242,0.523c0.401,1.321-1.112,1.969-1.112,1.969h-0.01
			c-0.116,0.066-0.243,0.118-0.378,0.148c1.779,0.568,4.665,1.684,5.442,3.383l0.15-0.004c0.572-1.775,3.308-3.223,5.008-3.992
			C117.055,73.552,116.926,73.514,116.802,73.461z"/>
		<path fill="#278972" d="M140.282,84.634l-0.005-0.008c0,0-0.363-1.522,0.827-2.031c0.145-0.049,0.475-0.127,1.026-0.047
			c0.205,0.043,0.29,0.038,0.29,0.038s-1.55-1.424-1.356-2.507h0.038h0.003c1.342,0.026,2.066,0.702,2.066,0.702
			c-0.067-0.613-0.055-0.925-0.033-1.074c0.014-0.104,0.034-0.132,0.034-0.132s0.022-0.076,0.036-0.112
			c0.015-0.036,0.032-0.069,0.053-0.103c0.131-0.219,0.38-0.381,0.815-0.44c0.056-0.009,0.284-0.025,0.339-0.022
			c0.07-0.002,0.141,0.002,0.209,0.008c0.783,0.051,0.794,0.166,1.076,0.246c-1.145-2.624,0.434-3.83,1.364-4.855l0.049-0.03
			c-0.009,0.003-0.019,0.005-0.026,0.007c0.004-0.006,0.01-0.01,0.014-0.016l-0.033,0.021c-1.316,0.428-3.32,0.519-5.275-1.581
			c-0.039,0.291-0.025,0.973-0.291,1.712c-0.023,0.065-0.05,0.131-0.078,0.197c-0.02,0.047-0.125,0.251-0.156,0.301
			c-0.6,0.993-1.174,1.178-1.508,1.183c-0.039,0-0.078-0.004-0.109-0.007c-0.057-0.006-0.201-0.057-0.245-0.077
			c-0.06-0.031-0.118-0.063-0.135-0.073c-0.152-0.1-0.276-0.218-0.361-0.312c-0.011-0.014-0.021-0.027-0.03-0.04
			c-0.062-0.069-0.096-0.116-0.096-0.116v-0.003c-0.504-0.716-0.64-1.981-0.64-1.981c-0.004,0.003-0.008,0.011-0.01,0.014
			c-0.074,0.635-0.21,1.19-0.346,1.616c-0.079,0.278-0.176,0.549-0.284,0.778c-0.005,0.004-0.008,0.012-0.009,0.017
			c-0.003,0.004-0.007,0.011-0.011,0.016c-0.098,0.194-0.21,0.358-0.332,0.472c-0.945,1.007-2.262,0.018-2.262,0.018l-0.005-0.009
			c-0.116-0.067-0.225-0.152-0.317-0.253c0.395,1.825,0.867,4.883-0.217,6.404l0.078,0.128c1.825-0.39,4.443,1.259,5.96,2.349
			C140.329,84.899,140.299,84.768,140.282,84.634z"/>
		<path fill="#D64542" d="M94.974,85.694c-1.377,0-2.493-1.117-2.493-2.494v-0.002c-2.694,1.521-6.189,3.16-9.555,4.614
			c-0.443,0.468-0.913,0.974-1.414,1.521c-8.934,9.139-18.352,15.725-22.576,18.494c2.84,0.832,8.587,1.801,8.587,1.801
			s0.14,2.216,0,9.488c6.509-4.225,13.921-10.805,16.138-12.952c9.696-8.27,17.605-17.478,20.096-20.47H94.974z"/>
		<path fill="#E74646" d="M92.48,74.702c-2-0.033-7.26-0.046-13.868,0.519l0,0c-4.886,0.384-8.304,0.794-10.648,1.15l0,0
			c-3.5,0.466-4.252,0.797-4.252,0.797v0.001c-0.129,0.042-0.246,0.09-0.354,0.143c-0.013,0.005-0.02,0.007-0.02,0.007l0.001,0.003
			c-0.999,0.504-1.098,1.443-1.08,1.82c0.009,0.164,0.025,0.342,0.053,0.533c0.282,1.813,0.603,3.856,0.89,5.683l0.829,5.379
			c0.007,0.07,0.017,0.158,0.04,0.259l0,0c0.074,0.328,0.264,0.779,0.752,1.085l0,0c1.138,0.802,4.734,0.201,4.734,0.201v-0.002
			c1.934-0.25,4.682-0.854,8.049-2.267l0,0c4.551-1.797,10.685-4.449,14.875-6.814V74.702z"/>
		<path fill="#D64542" d="M108.424,74.702c2.002-0.033,7.258-0.046,13.867,0.519l0,0c4.885,0.384,8.304,0.794,10.649,1.15l0,0
			c3.5,0.466,4.251,0.797,4.251,0.797l0,0c0.128,0.043,0.246,0.09,0.354,0.144c0.015,0.005,0.02,0.007,0.02,0.007v0.003
			c0.998,0.502,1.098,1.443,1.078,1.82c-0.007,0.164-0.024,0.342-0.051,0.533c-0.283,1.813-0.603,3.856-0.89,5.683l-0.83,5.379
			c-0.006,0.069-0.018,0.158-0.039,0.259l0,0c-0.074,0.328-0.265,0.779-0.752,1.085l0,0c-1.137,0.802-4.733,0.2-4.733,0.2
			l-0.001-0.001c-1.934-0.25-4.683-0.855-8.05-2.267l0,0c-4.552-1.797-10.686-4.449-14.874-6.814V74.702z"/>
		<path fill="#C13534" d="M105.929,85.694c1.378,0,2.495-1.117,2.495-2.494v-0.002c2.693,1.521,6.189,3.159,9.553,4.613
			c0.445,0.469,0.915,0.975,1.415,1.521c8.935,9.139,18.353,15.724,22.577,18.494c-2.84,0.831-8.589,1.801-8.589,1.801
			s-0.138,2.215,0,9.488c-6.509-4.225-13.919-10.805-16.135-12.952c-9.697-8.27-17.607-17.478-20.097-20.47H105.929z"/>
		<circle fill="#BA2626" cx="100.451" cy="78.862" r="10.227"/>
		<g>
			<path fill="#49BEA6" d="M96.785,80.288l-0.001,0.01c0,0-0.883,1.74-2.427,1.266c-0.179-0.069-0.554-0.261-1.014-0.781
				c-0.162-0.204-0.247-0.27-0.247-0.27s0.328,2.605-0.728,3.479l-0.036-0.03l-0.002-0.005c-1.259-1.104-1.403-2.334-1.403-2.334
				c-0.431,0.64-0.691,0.925-0.833,1.051c-0.099,0.088-0.138,0.1-0.138,0.1s-0.083,0.055-0.125,0.076
				c-0.045,0.021-0.088,0.041-0.133,0.056c-0.301,0.103-0.67,0.058-1.132-0.237c-0.062-0.038-0.291-0.207-0.341-0.25
				c-0.068-0.058-0.134-0.117-0.195-0.178c-0.706-0.68-0.621-0.799-0.825-1.102c-1.022,3.421-3.5,3.295-5.209,3.521l-0.073-0.009
				c0.012,0.005,0.021,0.009,0.033,0.014c-0.01,0.001-0.02,0.002-0.029,0.003l0.053,0.008c1.594,0.652,3.579,2.182,3.749,5.756
				c0.271-0.245,0.81-0.904,1.657-1.396c0.074-0.043,0.15-0.084,0.23-0.124c0.06-0.03,0.322-0.138,0.393-0.161
				c1.371-0.462,2.066-0.173,2.388,0.09c0.038,0.032,0.072,0.064,0.101,0.094c0.051,0.053,0.146,0.216,0.17,0.273
				c0.033,0.076,0.063,0.155,0.069,0.178c0.067,0.217,0.089,0.43,0.093,0.587c0,0.021,0.001,0.042,0.001,0.063
				c0.001,0.115-0.007,0.188-0.007,0.188l-0.002,0.002c-0.096,1.088-0.985,2.4-0.986,2.402c0.006,0,0.016-0.005,0.021-0.008
				c0.581-0.543,1.159-0.963,1.629-1.259c0.303-0.202,0.609-0.38,0.9-0.509c0.006-0.002,0.016-0.008,0.021-0.01
				c0.007-0.004,0.014-0.004,0.021-0.006c0.251-0.107,0.487-0.174,0.698-0.182c1.711-0.195,2.168,1.807,2.168,1.807l-0.004,0.01
				c0.056,0.159,0.094,0.324,0.1,0.5c1.092-2.057,3.107-5.348,5.364-5.924l0.03-0.182c-2.056-1.103-3.22-4.779-3.785-7.037
				C96.951,79.995,96.877,80.146,96.785,80.288z"/>
			<path fill="#49BEA6" d="M103.951,80.992v0.01c0,0,0.955,1.702,2.477,1.164c0.176-0.077,0.543-0.284,0.981-0.823
				c0.153-0.212,0.235-0.279,0.235-0.279s-0.22,2.615,0.871,3.445l0.036-0.033l0.001-0.004c1.21-1.156,1.307-2.39,1.307-2.39
				c0.456,0.62,0.728,0.896,0.875,1.016c0.102,0.085,0.143,0.095,0.143,0.095s0.084,0.049,0.127,0.068
				c0.045,0.02,0.089,0.037,0.136,0.051c0.305,0.09,0.671,0.029,1.12-0.283c0.059-0.042,0.282-0.22,0.331-0.266
				c0.064-0.061,0.128-0.122,0.186-0.185c0.678-0.709,0.589-0.825,0.78-1.136c1.163,3.377,3.634,3.146,5.35,3.302l0.073-0.013
				c-0.011,0.006-0.021,0.011-0.03,0.016c0.009,0,0.017,0.001,0.027,0.002l-0.051,0.01c-1.565,0.719-3.486,2.329-3.508,5.906
				c-0.281-0.232-0.847-0.87-1.714-1.324c-0.076-0.041-0.155-0.078-0.235-0.115c-0.061-0.028-0.328-0.125-0.398-0.144
				c-1.391-0.406-2.072-0.087-2.382,0.188c-0.038,0.034-0.07,0.066-0.099,0.098c-0.046,0.055-0.135,0.223-0.158,0.28
				c-0.027,0.077-0.055,0.157-0.061,0.181c-0.058,0.22-0.071,0.433-0.068,0.59c0,0.021,0,0.042,0.002,0.063
				c0.004,0.115,0.015,0.188,0.015,0.188l0.001,0.001c0.142,1.083,1.086,2.357,1.086,2.357c-0.006,0.003-0.017-0.004-0.022-0.005
				c-0.603-0.519-1.198-0.913-1.679-1.188c-0.311-0.19-0.625-0.356-0.922-0.473c-0.005-0.002-0.017-0.006-0.021-0.008
				c-0.006-0.004-0.013-0.004-0.021-0.007c-0.255-0.096-0.495-0.151-0.706-0.151c-1.717-0.123-2.09,1.895-2.09,1.895l0.004,0.01
				c-0.049,0.162-0.08,0.327-0.078,0.504c-1.176-2.01-3.327-5.213-5.607-5.693l-0.035-0.183c2.006-1.185,3.018-4.908,3.487-7.188
				C103.771,80.706,103.854,80.854,103.951,80.992z"/>
			<g>
				<circle fill="#C13534" cx="102.948" cy="86.378" r="2.507"/>
				<circle fill="#6B1414" cx="103.155" cy="84.804" r="0.371"/>
				
					<ellipse transform="matrix(-0.3613 -0.9324 0.9324 -0.3613 52.256 209.1588)" fill="#C13534" cx="97.761" cy="86.683" rx="2.853" ry="2.823"/>
				<circle fill="#6B1414" cx="96.977" cy="85.625" r="0.573"/>
				<circle fill="#D64542" cx="100.43" cy="88.874" r="1.751"/>
				<circle fill="#6B1414" cx="99.158" cy="88.964" r="0.259"/>
			</g>
		</g>
	</g>
</g>
</svg>
