<?xml version="1.0" encoding="utf-8"?>
<!-- Generator: Adobe Illustrator 16.0.0, SVG Export Plug-In . SVG Version: 6.00 Build 0)  -->
<!DOCTYPE svg PUBLIC "-//W3C//DTD SVG 1.1//EN" "http://www.w3.org/Graphics/SVG/1.1/DTD/svg11.dtd">
<svg version="1.1" id="Layer_1" xmlns="http://www.w3.org/2000/svg" xmlns:xlink="http://www.w3.org/1999/xlink" x="0px" y="0px"
	 width="216px" height="216px" viewBox="0 0 216 216" enable-background="new 0 0 216 216" xml:space="preserve">
<g>
	<circle fill="#D9EFF0" cx="108" cy="108" r="108"/>
	<g>
		<g>
			<path fill="#49BEA6" d="M72.608,142.922l0.015,0.004c0,0,2.84-0.836,2.56-3.268c-0.053-0.285-0.236-0.898-0.882-1.727
				c-0.262-0.301-0.334-0.443-0.334-0.443s3.79,1.211,5.387-0.121l-0.036-0.064l-0.006-0.004c-1.298-2.182-3.09-2.74-3.09-2.74
				c1.072-0.465,1.57-0.773,1.799-0.949c0.157-0.123,0.187-0.178,0.187-0.178s0.104-0.111,0.146-0.166
				c0.045-0.059,0.085-0.121,0.12-0.184c0.239-0.42,0.271-0.982-0.04-1.752c-0.04-0.102-0.227-0.492-0.278-0.58
				c-0.068-0.113-0.138-0.229-0.212-0.338c-0.816-1.24-1.02-1.148-1.412-1.537c5.384-0.574,5.883-4.305,6.693-6.793l0.006-0.109
				c0.004,0.018,0.009,0.035,0.012,0.049c0.006-0.012,0.01-0.023,0.015-0.037l-0.005,0.076c0.533,2.559,2.262,5.945,7.543,7.188
				c-0.438,0.338-1.572,0.959-2.539,2.086c-0.084,0.102-0.167,0.203-0.248,0.309c-0.063,0.082-0.295,0.443-0.349,0.541
				c-1.071,1.918-0.831,3.033-0.529,3.586c0.038,0.066,0.076,0.127,0.112,0.178c0.064,0.088,0.281,0.275,0.359,0.328
				c0.105,0.07,0.216,0.133,0.246,0.152c0.305,0.16,0.619,0.252,0.851,0.299c0.03,0.01,0.063,0.016,0.092,0.023
				c0.174,0.029,0.284,0.039,0.284,0.039l0.003-0.002c1.649,0.156,3.85-0.805,3.854-0.805c0,0.008-0.012,0.021-0.016,0.029
				c-0.973,0.717-1.758,1.463-2.327,2.08c-0.388,0.396-0.737,0.803-1.011,1.203c-0.006,0.006-0.016,0.021-0.023,0.029
				c-0.005,0.008-0.008,0.016-0.014,0.027c-0.229,0.344-0.393,0.682-0.464,0.992c-0.764,2.498,2.095,3.732,2.095,3.732h0.016
				c0.221,0.125,0.456,0.227,0.719,0.283c-3.371,1.059-8.836,3.152-10.319,6.361l-0.28-0.01c-1.075-3.367-6.234-6.125-9.446-7.594
				C72.126,143.092,72.369,143.021,72.608,142.922z"/>
			<path fill="#49BEA6" d="M63.06,164.107l0.004-0.01c0,0-0.492-1.998-2.189-1.881c-0.2,0.027-0.632,0.135-1.229,0.559
				c-0.215,0.172-0.316,0.217-0.316,0.217s0.96-2.594,0.084-3.744l-0.045,0.021l-0.003,0.006c-1.556,0.832-2.001,2.059-2.001,2.059
				c-0.288-0.76-0.487-1.113-0.604-1.279c-0.08-0.113-0.117-0.135-0.117-0.135s-0.073-0.074-0.109-0.105
				c-0.041-0.035-0.082-0.063-0.123-0.09c-0.285-0.18-0.675-0.219-1.221-0.027c-0.071,0.025-0.349,0.141-0.411,0.176
				c-0.081,0.043-0.163,0.086-0.24,0.135c-0.888,0.529-0.83,0.672-1.112,0.934c-0.229-3.758-2.805-4.223-4.507-4.863l-0.077-0.008
				c0.012-0.002,0.023-0.004,0.035-0.006c-0.01-0.006-0.018-0.006-0.028-0.012l0.054,0.006c1.795-0.289,4.201-1.383,5.23-5.014
				c0.221,0.314,0.616,1.123,1.369,1.828c0.067,0.063,0.137,0.123,0.207,0.184c0.055,0.045,0.3,0.219,0.365,0.258
				c1.297,0.805,2.081,0.672,2.474,0.48c0.048-0.023,0.089-0.047,0.128-0.072c0.063-0.043,0.199-0.188,0.239-0.238
				c0.05-0.072,0.099-0.146,0.113-0.166c0.122-0.207,0.194-0.422,0.234-0.584c0.007-0.02,0.013-0.041,0.018-0.061
				c0.027-0.119,0.037-0.197,0.037-0.197l-0.001-0.002c0.16-1.141-0.438-2.701-0.438-2.701s0.015,0.008,0.02,0.01
				c0.467,0.699,0.96,1.266,1.371,1.684c0.263,0.279,0.535,0.537,0.805,0.74c0.004,0.004,0.015,0.01,0.019,0.016
				c0.004,0.004,0.011,0.006,0.02,0.01c0.231,0.17,0.461,0.295,0.673,0.354c1.713,0.609,2.661-1.336,2.661-1.336l-0.002-0.012
				c0.095-0.15,0.173-0.311,0.221-0.49c0.63,2.373,1.911,6.236,4.095,7.369l-0.017,0.191c-2.372,0.643-4.451,4.141-5.571,6.324
				C63.162,164.449,63.122,164.277,63.06,164.107z"/>
			<path fill="#49BEA6" d="M107.438,142.996l-0.011-0.002c0,0-1.805-1.139-1.128-2.77c0.094-0.186,0.343-0.572,0.955-1.021
				c0.241-0.156,0.319-0.242,0.319-0.242s-2.869,0.09-3.71-1.148l0.036-0.037l0.006-0.002c1.332-1.254,2.686-1.287,2.686-1.287
				c-0.651-0.535-0.935-0.846-1.056-1.014c-0.088-0.117-0.096-0.16-0.096-0.16s-0.051-0.098-0.07-0.145
				c-0.017-0.049-0.032-0.1-0.045-0.15c-0.083-0.338,0.005-0.732,0.376-1.205c0.046-0.064,0.254-0.297,0.307-0.348
				c0.07-0.064,0.142-0.133,0.213-0.191c0.814-0.699,0.936-0.594,1.285-0.785c-3.617-1.467-3.225-4.146-3.291-6.031l0.017-0.078
				c-0.005,0.012-0.013,0.023-0.019,0.031c0-0.008-0.002-0.018,0-0.027l-0.014,0.055c-0.877,1.666-2.75,3.67-6.656,3.486
				c0.236,0.32,0.898,0.975,1.346,1.949c0.036,0.086,0.074,0.172,0.11,0.264c0.026,0.066,0.118,0.363,0.134,0.441
				c0.362,1.541-0.026,2.266-0.345,2.588c-0.04,0.041-0.076,0.072-0.112,0.104c-0.064,0.045-0.253,0.135-0.314,0.154
				c-0.088,0.029-0.177,0.049-0.202,0.057c-0.245,0.053-0.479,0.055-0.649,0.039c-0.021,0.002-0.047,0-0.068-0.002
				c-0.127-0.012-0.205-0.029-0.205-0.029v-0.002c-1.176-0.217-2.513-1.318-2.514-1.32c-0.004,0.008,0.004,0.02,0.004,0.025
				c0.532,0.689,0.928,1.359,1.201,1.9c0.189,0.35,0.353,0.703,0.463,1.033c0.003,0.006,0.006,0.018,0.009,0.025
				c0.004,0.006,0.002,0.014,0.007,0.023c0.09,0.281,0.136,0.549,0.123,0.777c0.033,1.881-2.193,2.174-2.193,2.174l-0.012-0.006
				c-0.176,0.045-0.361,0.068-0.553,0.057c2.125,1.398,5.501,3.932,5.892,6.447l0.195,0.049c1.414-2.121,5.54-3.01,8.059-3.393
				C107.74,143.209,107.583,143.111,107.438,142.996z"/>
			<path fill="#49BEA6" d="M74.053,137.471l-0.009,0.01c0,0-2.412,1.723-4.151,0c-0.192-0.217-0.562-0.74-0.814-1.762
				c-0.076-0.391-0.144-0.537-0.144-0.537s-1.386,3.734-3.419,4.168l-0.028-0.066l0.001-0.008c-0.915-2.369-0.249-4.123-0.249-4.123
				c-1.026,0.555-1.579,0.756-1.856,0.828c-0.195,0.049-0.258,0.037-0.258,0.037s-0.148,0.016-0.222,0.014s-0.147-0.006-0.216-0.018
				c-0.475-0.074-0.94-0.395-1.355-1.113c-0.053-0.096-0.247-0.484-0.281-0.576c-0.053-0.127-0.098-0.252-0.139-0.375
				c-0.473-1.41-0.274-1.512-0.338-2.063c-3.775,3.885-7.018,1.975-9.472,1.078l-0.094-0.063c0.013,0.014,0.021,0.027,0.033,0.041
				c-0.013-0.006-0.026-0.012-0.039-0.016l0.063,0.045c1.687,1.998,3.282,5.449,1.002,10.373c0.536-0.141,1.724-0.648,3.208-0.713
				c0.13-0.008,0.262-0.008,0.398-0.006c0.1,0,0.529,0.041,0.64,0.059c2.17,0.342,2.899,1.219,3.146,1.797
				c0.032,0.07,0.053,0.137,0.071,0.197c0.03,0.105,0.043,0.391,0.035,0.486c-0.009,0.125-0.026,0.252-0.028,0.287
				c-0.066,0.338-0.186,0.641-0.289,0.857c-0.014,0.025-0.028,0.055-0.043,0.082c-0.08,0.156-0.143,0.248-0.143,0.248l-0.003,0.002
				c-0.894,1.393-3.009,2.535-3.012,2.537c0.007,0.006,0.026,0.006,0.032,0.006c1.165-0.322,2.236-0.48,3.075-0.551
				c0.55-0.059,1.088-0.082,1.569-0.051c0.008,0,0.023,0,0.034,0.002c0.011,0,0.021,0.004,0.032,0.004
				c0.413,0.035,0.778,0.111,1.066,0.248c2.435,0.938,1.646,3.951,1.646,3.951l-0.011,0.01c-0.039,0.254-0.103,0.502-0.219,0.742
				c2.911-1.998,7.931-5.008,11.368-4.197l0.172-0.227c-1.99-2.922-0.975-8.684-0.15-12.117
				C74.482,137.193,74.273,137.342,74.053,137.471z"/>
			<path fill="#278972" d="M82.59,141.465l-0.01,0.006c0,0-2.223,0.209-2.7-1.572c-0.044-0.215-0.086-0.695,0.136-1.457
				c0.1-0.281,0.11-0.404,0.11-0.404s-2.316,1.908-3.803,1.422l0.006-0.053l0.005-0.006c0.301-1.891,1.398-2.779,1.398-2.779
				c-0.879-0.029-1.314-0.105-1.521-0.166c-0.146-0.041-0.182-0.072-0.182-0.072s-0.103-0.045-0.15-0.074
				c-0.047-0.029-0.093-0.061-0.133-0.094c-0.281-0.227-0.463-0.613-0.46-1.238c0.001-0.082,0.021-0.408,0.034-0.48
				c0.014-0.104,0.031-0.203,0.053-0.299c0.227-1.098,0.393-1.088,0.561-1.471c-3.928,1.102-5.314-1.369-6.572-2.883l-0.037-0.076
				c0.003,0.012,0.005,0.025,0.007,0.039c-0.007-0.008-0.015-0.016-0.021-0.023l0.024,0.051c0.34,1.943,0.071,4.793-3.278,7.139
				c0.402,0.111,1.367,0.23,2.357,0.75c0.088,0.043,0.175,0.092,0.262,0.146c0.065,0.037,0.329,0.229,0.395,0.279
				c1.283,1.045,1.426,1.893,1.367,2.361c-0.007,0.059-0.018,0.109-0.03,0.156c-0.019,0.08-0.119,0.271-0.161,0.33
				c-0.053,0.078-0.111,0.154-0.127,0.176c-0.171,0.197-0.363,0.348-0.512,0.451c-0.019,0.01-0.039,0.023-0.061,0.035
				c-0.109,0.072-0.186,0.109-0.186,0.109h-0.002c-1.11,0.568-2.92,0.512-2.923,0.514c0.003,0.004,0.016,0.012,0.021,0.014
				c0.881,0.232,1.636,0.533,2.209,0.807c0.379,0.17,0.739,0.357,1.04,0.561c0.005,0.004,0.017,0.01,0.021,0.014
				c0.008,0.004,0.013,0.012,0.02,0.014c0.257,0.18,0.464,0.369,0.6,0.566c1.229,1.533-0.425,3.199-0.425,3.199l-0.012,0.002
				c-0.12,0.148-0.255,0.287-0.422,0.398c2.651-0.197,7.057-0.26,8.987,1.57l0.198-0.082c-0.189-2.658,2.656-6.029,4.491-7.953
				C82.974,141.449,82.783,141.467,82.59,141.465z"/>
			<path fill="#278972" d="M64.397,147.863l-0.003,0.006c0,0-0.928,0.938-1.824,0.314c-0.1-0.082-0.303-0.283-0.49-0.711
				c-0.063-0.166-0.104-0.227-0.104-0.227s-0.327,1.744-1.187,2.086l-0.019-0.025v-0.004c-0.58-0.971-0.42-1.787-0.42-1.787
				c-0.41,0.32-0.639,0.449-0.754,0.502c-0.082,0.037-0.109,0.037-0.109,0.037s-0.064,0.018-0.099,0.021
				c-0.032,0.004-0.063,0.008-0.095,0.008c-0.215,0.004-0.443-0.1-0.68-0.385c-0.03-0.037-0.146-0.191-0.169-0.23
				c-0.03-0.053-0.062-0.104-0.087-0.154c-0.314-0.582-0.235-0.643-0.306-0.879c-1.363,1.988-2.933,1.396-4.079,1.189l-0.045-0.021
				c0.006,0.006,0.011,0.012,0.018,0.016c-0.007-0.002-0.013-0.002-0.018-0.004l0.029,0.016c0.893,0.748,1.855,2.139,1.226,4.471
				c0.226-0.104,0.708-0.414,1.355-0.555c0.056-0.014,0.114-0.025,0.175-0.033c0.044-0.008,0.236-0.023,0.285-0.023
				c0.979-0.014,1.366,0.314,1.519,0.551c0.019,0.027,0.033,0.055,0.046,0.08c0.021,0.043,0.048,0.168,0.052,0.209
				c0.006,0.057,0.009,0.113,0.009,0.129c-0.001,0.154-0.032,0.295-0.061,0.398c-0.005,0.012-0.01,0.025-0.014,0.039
				c-0.023,0.074-0.044,0.119-0.044,0.119h-0.001c-0.287,0.68-1.13,1.34-1.13,1.342c0.003,0,0.011-0.002,0.013-0.002
				c0.488-0.229,0.947-0.379,1.311-0.473c0.236-0.068,0.471-0.119,0.685-0.143c0,0,0.011,0,0.016,0c0,0,0.011,0,0.014,0
				c0.185-0.018,0.352-0.012,0.489,0.027c1.141,0.227,1.021,1.607,1.021,1.607l-0.004,0.004c0.002,0.115-0.008,0.229-0.04,0.342
				c1.127-1.096,3.104-2.793,4.676-2.697l0.058-0.113c-1.095-1.131-1.086-3.732-0.982-5.299
				C64.564,147.711,64.484,147.791,64.397,147.863z"/>
			<path fill="#278972" d="M85.811,142.037h0.011c0,0,1.813-0.535,1.626-2.088c-0.035-0.182-0.151-0.574-0.567-1.102
				c-0.166-0.189-0.215-0.281-0.215-0.281s2.424,0.764,3.44-0.09l-0.023-0.043h-0.003c-0.835-1.389-1.979-1.74-1.979-1.74
				c0.683-0.299,1.001-0.5,1.144-0.611c0.102-0.078,0.117-0.115,0.117-0.115s0.066-0.07,0.096-0.105
				c0.028-0.039,0.055-0.076,0.076-0.117c0.15-0.27,0.17-0.629-0.029-1.117c-0.025-0.066-0.145-0.314-0.182-0.371
				c-0.04-0.074-0.087-0.145-0.133-0.213c-0.523-0.789-0.654-0.73-0.907-0.979c3.435-0.381,3.746-2.76,4.258-4.35l0.004-0.07
				c0.001,0.012,0.004,0.021,0.008,0.031c0.003-0.008,0.005-0.016,0.009-0.023l-0.002,0.047c0.345,1.635,1.457,3.785,4.831,4.566
				c-0.281,0.217-1.001,0.613-1.616,1.336c-0.055,0.064-0.106,0.131-0.159,0.201c-0.037,0.049-0.187,0.281-0.222,0.344
				c-0.677,1.227-0.521,1.938-0.327,2.289c0.023,0.043,0.048,0.082,0.072,0.113c0.04,0.055,0.181,0.174,0.229,0.209
				c0.068,0.043,0.138,0.086,0.159,0.096c0.194,0.1,0.395,0.158,0.543,0.189c0.021,0.004,0.04,0.006,0.059,0.01
				c0.111,0.021,0.182,0.029,0.182,0.029l0.001-0.002c1.053,0.098,2.458-0.523,2.458-0.523c0,0.006-0.005,0.014-0.008,0.018
				c-0.619,0.461-1.119,0.938-1.481,1.336c-0.245,0.25-0.469,0.514-0.644,0.766c-0.002,0.008-0.01,0.016-0.013,0.02
				c-0.003,0.006-0.008,0.014-0.009,0.021c-0.146,0.219-0.249,0.434-0.293,0.631c-0.484,1.596,1.344,2.377,1.344,2.377l0.01-0.002
				c0.142,0.082,0.295,0.145,0.458,0.182c-2.148,0.686-5.633,2.031-6.57,4.084l-0.182-0.004c-0.69-2.146-3.993-3.893-6.046-4.822
				C85.506,142.146,85.66,142.102,85.811,142.037z"/>
			<path fill="#49BEA6" d="M144.877,142.355l-0.017,0.004c0,0-3.176-0.934-2.862-3.654c0.059-0.318,0.264-1.006,0.987-1.932
				c0.292-0.336,0.372-0.496,0.372-0.496s-4.239,1.355-6.026-0.137l0.04-0.07l0.009-0.004c1.452-2.439,3.456-3.066,3.456-3.066
				c-1.199-0.52-1.757-0.865-2.012-1.063c-0.178-0.139-0.21-0.197-0.21-0.197s-0.116-0.125-0.163-0.188
				c-0.052-0.064-0.096-0.135-0.135-0.203c-0.268-0.471-0.305-1.1,0.045-1.961c0.045-0.115,0.253-0.551,0.312-0.648
				c0.074-0.129,0.153-0.258,0.236-0.379c0.914-1.387,1.14-1.283,1.581-1.719c-6.025-0.643-6.581-4.816-7.487-7.598l-0.008-0.123
				c-0.005,0.018-0.01,0.037-0.015,0.055c-0.004-0.014-0.008-0.027-0.015-0.043l0.006,0.086c-0.597,2.861-2.531,6.65-8.438,8.041
				c0.49,0.377,1.76,1.07,2.84,2.332c0.095,0.113,0.188,0.229,0.279,0.346c0.068,0.09,0.328,0.496,0.389,0.605
				c1.198,2.146,0.929,3.393,0.592,4.01c-0.043,0.076-0.084,0.143-0.124,0.199c-0.074,0.098-0.316,0.309-0.405,0.369
				c-0.115,0.076-0.238,0.148-0.274,0.17c-0.341,0.178-0.69,0.279-0.95,0.334c-0.035,0.012-0.071,0.018-0.102,0.025
				c-0.194,0.035-0.32,0.045-0.32,0.045l-0.001-0.002c-1.847,0.174-4.308-0.9-4.313-0.902c-0.001,0.01,0.013,0.025,0.018,0.035
				c1.087,0.801,1.966,1.635,2.604,2.324c0.433,0.445,0.825,0.9,1.13,1.348c0.008,0.006,0.018,0.023,0.024,0.031
				c0.006,0.008,0.011,0.02,0.018,0.031c0.256,0.385,0.438,0.764,0.52,1.109c0.854,2.795-2.343,4.176-2.343,4.176h-0.02
				c-0.246,0.141-0.51,0.254-0.803,0.318c3.77,1.184,9.883,3.523,11.543,7.113l0.315-0.01c1.199-3.766,6.972-6.852,10.565-8.494
				C145.42,142.545,145.145,142.467,144.877,142.355z"/>
			<path fill="#49BEA6" d="M139.402,138.889l0.006,0.01c0,0,1.929,1.377,3.322,0.002c0.154-0.174,0.45-0.592,0.653-1.406
				c0.061-0.313,0.115-0.432,0.115-0.432s1.106,2.984,2.733,3.332l0.023-0.053l-0.002-0.006c0.734-1.893,0.203-3.295,0.203-3.295
				c0.822,0.445,1.263,0.605,1.486,0.662c0.155,0.041,0.203,0.029,0.203,0.029s0.121,0.014,0.18,0.012
				c0.058,0,0.116-0.004,0.172-0.014c0.381-0.059,0.753-0.314,1.084-0.891c0.045-0.074,0.199-0.385,0.227-0.459
				c0.043-0.1,0.079-0.201,0.111-0.301c0.379-1.127,0.221-1.207,0.271-1.646c3.019,3.105,5.614,1.58,7.578,0.865l0.077-0.051
				c-0.011,0.01-0.019,0.021-0.026,0.031c0.009-0.002,0.021-0.008,0.029-0.01l-0.05,0.035c-1.351,1.598-2.63,4.354-0.809,8.289
				c-0.428-0.111-1.378-0.518-2.565-0.57c-0.104-0.006-0.21-0.006-0.318-0.004c-0.08,0-0.424,0.033-0.513,0.045
				c-1.736,0.273-2.321,0.973-2.519,1.436c-0.025,0.057-0.043,0.109-0.057,0.158c-0.024,0.084-0.035,0.313-0.029,0.389
				c0.008,0.1,0.021,0.201,0.024,0.229c0.051,0.271,0.146,0.514,0.229,0.686c0.011,0.021,0.022,0.043,0.034,0.066
				c0.063,0.125,0.114,0.199,0.114,0.199h0.002c0.715,1.115,2.406,2.029,2.408,2.029c-0.006,0.004-0.021,0.004-0.025,0.004
				c-0.933-0.258-1.789-0.385-2.461-0.439c-0.438-0.049-0.871-0.068-1.256-0.043c-0.006,0-0.02,0-0.027,0.002
				c-0.01,0-0.018,0.004-0.018,0.004c-0.338,0.027-0.631,0.088-0.86,0.197c-1.952,0.75-1.322,3.158-1.322,3.158l0.01,0.008
				c0.03,0.203,0.083,0.4,0.175,0.592c-2.329-1.598-6.342-4.004-9.096-3.359l-0.137-0.18c1.594-2.334,0.785-6.941,0.129-9.684
				C139.059,138.668,139.226,138.787,139.402,138.889z"/>
			<path fill="#49BEA6" d="M150.715,149.42v0.01c0,0,1.082,1.828,2.725,1.207c0.189-0.086,0.582-0.32,1.046-0.912
				c0.163-0.234,0.251-0.311,0.251-0.311s-0.178,2.846,1.029,3.721l0.039-0.035v-0.006c1.291-1.281,1.365-2.621,1.365-2.621
				c0.511,0.662,0.813,0.953,0.978,1.08c0.112,0.09,0.157,0.1,0.157,0.1s0.092,0.055,0.141,0.074
				c0.048,0.02,0.098,0.039,0.146,0.051c0.333,0.09,0.732,0.018,1.213-0.334c0.063-0.047,0.302-0.242,0.353-0.293
				c0.071-0.068,0.138-0.137,0.2-0.205c0.719-0.785,0.619-0.908,0.819-1.248c1.349,3.639,4.03,3.332,5.899,3.461l0.082-0.014
				c-0.012,0.006-0.025,0.012-0.033,0.02c0.008,0,0.019,0,0.027,0l-0.053,0.01c-1.689,0.816-3.738,2.607-3.676,6.49
				c-0.311-0.248-0.94-0.924-1.896-1.398c-0.082-0.043-0.169-0.084-0.26-0.121c-0.063-0.029-0.359-0.127-0.436-0.148
				c-1.523-0.408-2.255-0.049-2.586,0.26c-0.043,0.037-0.075,0.074-0.104,0.107c-0.051,0.059-0.144,0.244-0.166,0.309
				c-0.029,0.084-0.057,0.17-0.063,0.195c-0.056,0.24-0.068,0.473-0.061,0.643c0.001,0.023,0.003,0.045,0.005,0.068
				c0.008,0.125,0.021,0.203,0.021,0.203v0.002c0.183,1.174,1.236,2.535,1.238,2.537c-0.007,0-0.019-0.006-0.021-0.008
				c-0.671-0.549-1.327-0.965-1.856-1.254c-0.343-0.197-0.691-0.371-1.017-0.49c-0.004-0.002-0.016-0.008-0.022-0.01
				c-0.009-0.002-0.016-0.002-0.021-0.006c-0.281-0.098-0.544-0.152-0.772-0.148c-1.871-0.096-2.23,2.104-2.23,2.104l0.004,0.01
				c-0.048,0.178-0.077,0.357-0.072,0.549c-1.328-2.154-3.743-5.584-6.235-6.057l-0.046-0.197c2.155-1.33,3.166-5.395,3.625-7.877
				C150.513,149.113,150.605,149.271,150.715,149.42z"/>
			<path fill="#278972" d="M132.184,141.465l0.009,0.006c0,0,2.222,0.207,2.7-1.572c0.044-0.215,0.087-0.695-0.135-1.457
				c-0.101-0.281-0.111-0.404-0.111-0.404s2.316,1.908,3.803,1.422l-0.006-0.055l-0.004-0.004c-0.302-1.891-1.398-2.781-1.398-2.781
				c0.878-0.027,1.314-0.104,1.521-0.164c0.146-0.041,0.181-0.072,0.181-0.072s0.102-0.045,0.15-0.074
				c0.048-0.029,0.093-0.061,0.134-0.094c0.281-0.227,0.463-0.613,0.459-1.238c0-0.082-0.021-0.408-0.033-0.48
				c-0.015-0.104-0.032-0.203-0.053-0.299c-0.228-1.098-0.395-1.088-0.563-1.471c3.929,1.102,5.314-1.369,6.573-2.883l0.037-0.078
				c-0.003,0.014-0.005,0.027-0.007,0.041c0.008-0.008,0.014-0.018,0.021-0.025l-0.024,0.053c-0.34,1.941-0.071,4.793,3.278,7.139
				c-0.403,0.111-1.368,0.23-2.357,0.75c-0.087,0.043-0.175,0.092-0.26,0.146c-0.067,0.037-0.331,0.227-0.397,0.279
				c-1.281,1.045-1.424,1.893-1.365,2.361c0.006,0.059,0.018,0.109,0.029,0.156c0.02,0.08,0.119,0.271,0.16,0.33
				c0.054,0.078,0.112,0.154,0.128,0.176c0.171,0.197,0.363,0.348,0.512,0.451c0.02,0.01,0.04,0.023,0.06,0.035
				c0.11,0.072,0.187,0.109,0.187,0.109h0.003c1.109,0.568,2.919,0.512,2.922,0.514c-0.004,0.004-0.016,0.012-0.02,0.014
				c-0.881,0.232-1.637,0.533-2.21,0.807c-0.378,0.17-0.739,0.357-1.04,0.561c-0.005,0.004-0.016,0.01-0.021,0.012
				c-0.008,0.006-0.013,0.014-0.019,0.016c-0.257,0.18-0.465,0.367-0.601,0.566c-1.23,1.533,0.425,3.199,0.425,3.199l0.013,0.002
				c0.119,0.148,0.254,0.287,0.42,0.398c-2.65-0.199-7.057-0.26-8.986,1.57l-0.197-0.082c0.188-2.658-2.656-6.029-4.492-7.953
				C131.799,141.449,131.99,141.467,132.184,141.465z"/>
			<path fill="#278972" d="M103.531,136.826l0.01,0.002c0,0,2.145-0.625,1.934-2.455c-0.04-0.217-0.179-0.68-0.664-1.305
				c-0.197-0.227-0.253-0.336-0.253-0.336s2.858,0.922,4.061-0.08l-0.026-0.047l-0.006-0.004c-0.977-1.646-2.325-2.068-2.325-2.068
				c0.808-0.35,1.185-0.582,1.354-0.715c0.12-0.092,0.143-0.133,0.143-0.133s0.077-0.082,0.111-0.127
				c0.033-0.043,0.065-0.088,0.09-0.135c0.179-0.314,0.205-0.738-0.029-1.32c-0.031-0.076-0.17-0.371-0.209-0.436
				c-0.051-0.09-0.104-0.176-0.158-0.256c-0.614-0.938-0.768-0.867-1.063-1.162c4.058-0.422,4.435-3.23,5.048-5.102l0.004-0.084
				c0.004,0.014,0.007,0.025,0.01,0.037c0.004-0.01,0.006-0.02,0.009-0.029l-0.003,0.059c0.399,1.93,1.699,4.48,5.68,5.426
				c-0.333,0.254-1.186,0.719-1.916,1.568c-0.065,0.07-0.128,0.148-0.189,0.23c-0.047,0.059-0.222,0.334-0.264,0.406
				c-0.807,1.443-0.627,2.283-0.399,2.699c0.026,0.051,0.057,0.096,0.084,0.133c0.048,0.068,0.211,0.209,0.271,0.248
				c0.079,0.055,0.161,0.102,0.184,0.117c0.23,0.119,0.467,0.189,0.643,0.23c0.022,0.002,0.044,0.006,0.068,0.012
				c0.129,0.025,0.213,0.031,0.213,0.031l0.002-0.002c1.243,0.121,2.903-0.6,2.903-0.6c0.003,0.006-0.007,0.018-0.009,0.021
				c-0.733,0.541-1.326,1.1-1.757,1.564c-0.291,0.297-0.556,0.605-0.763,0.904c-0.001,0.004-0.01,0.014-0.014,0.02
				c-0.006,0.008-0.008,0.016-0.013,0.021c-0.172,0.262-0.296,0.514-0.349,0.746c-0.577,1.879,1.574,2.818,1.574,2.818l0.012-0.004
				c0.167,0.096,0.343,0.174,0.54,0.217c-2.54,0.793-6.657,2.359-7.778,4.771l-0.213-0.004c-0.806-2.539-4.691-4.625-7.107-5.736
				C103.168,136.953,103.354,136.898,103.531,136.826z"/>
			<path fill="#278972" d="M128.962,142.037h-0.011c0,0-1.813-0.537-1.627-2.088c0.037-0.182,0.152-0.574,0.568-1.104
				c0.168-0.188,0.214-0.279,0.214-0.279s-2.423,0.764-3.44-0.092l0.025-0.041h0.002c0.836-1.389,1.979-1.74,1.979-1.74
				c-0.683-0.299-1-0.5-1.143-0.611c-0.104-0.078-0.119-0.115-0.119-0.115s-0.064-0.07-0.095-0.105
				c-0.028-0.039-0.055-0.076-0.076-0.117c-0.149-0.27-0.171-0.629,0.03-1.117c0.024-0.066,0.144-0.314,0.18-0.371
				c0.041-0.074,0.088-0.145,0.133-0.213c0.524-0.789,0.654-0.73,0.908-0.979c-3.436-0.381-3.746-2.76-4.258-4.35l-0.004-0.07
				c-0.001,0.01-0.004,0.021-0.007,0.031c-0.003-0.008-0.005-0.016-0.009-0.023l0.002,0.047c-0.346,1.635-1.457,3.785-4.832,4.566
				c0.281,0.217,1.002,0.613,1.617,1.336c0.053,0.064,0.105,0.131,0.158,0.201c0.037,0.049,0.188,0.281,0.222,0.344
				c0.677,1.227,0.522,1.938,0.327,2.289c-0.023,0.043-0.049,0.082-0.072,0.113c-0.041,0.055-0.18,0.174-0.229,0.209
				c-0.066,0.043-0.138,0.086-0.158,0.096c-0.195,0.1-0.395,0.158-0.543,0.189c-0.021,0.004-0.041,0.006-0.06,0.01
				c-0.11,0.021-0.181,0.029-0.181,0.029l-0.002-0.002c-1.052,0.098-2.459-0.523-2.459-0.523c0.002,0.006,0.007,0.014,0.01,0.018
				c0.618,0.461,1.118,0.938,1.482,1.336c0.244,0.25,0.467,0.514,0.643,0.766c0,0.008,0.009,0.016,0.012,0.02
				c0.002,0.006,0.008,0.014,0.01,0.021c0.145,0.219,0.25,0.434,0.292,0.631c0.485,1.596-1.343,2.377-1.343,2.377l-0.012-0.002
				c-0.141,0.082-0.293,0.145-0.457,0.182c2.148,0.686,5.633,2.031,6.57,4.082l0.182-0.004c0.69-2.145,3.994-3.891,6.045-4.82
				C129.268,142.146,129.112,142.102,128.962,142.037z"/>
			<path fill="#278972" d="M157.307,155.525l-0.006-0.01c0,0-0.438-1.838,0.998-2.451c0.175-0.061,0.573-0.154,1.239-0.059
				c0.247,0.051,0.351,0.047,0.351,0.047s-1.871-1.719-1.639-3.027h0.047h0.004c1.619,0.033,2.494,0.85,2.494,0.85
				c-0.082-0.742-0.066-1.117-0.039-1.297c0.016-0.127,0.041-0.16,0.041-0.16s0.026-0.092,0.043-0.135
				c0.018-0.043,0.039-0.084,0.063-0.125c0.158-0.264,0.459-0.461,0.985-0.531c0.068-0.01,0.343-0.031,0.409-0.027
				c0.084-0.002,0.17,0.004,0.252,0.01c0.945,0.061,0.959,0.201,1.3,0.297c-1.384-3.168,0.522-4.623,1.646-5.861l0.06-0.037
				c-0.011,0.004-0.021,0.008-0.032,0.01c0.006-0.008,0.013-0.012,0.016-0.02l-0.037,0.025c-1.59,0.516-4.01,0.625-6.369-1.91
				c-0.048,0.352-0.031,1.174-0.352,2.066c-0.028,0.08-0.061,0.158-0.095,0.238c-0.023,0.057-0.15,0.303-0.188,0.363
				c-0.725,1.199-1.418,1.422-1.82,1.428c-0.048,0.002-0.094-0.004-0.133-0.008c-0.068-0.006-0.242-0.068-0.295-0.094
				c-0.071-0.037-0.143-0.074-0.163-0.088c-0.183-0.121-0.333-0.264-0.436-0.377c-0.013-0.016-0.025-0.031-0.037-0.047
				c-0.073-0.084-0.115-0.141-0.115-0.141v-0.004c-0.606-0.863-0.772-2.393-0.772-2.393c-0.005,0.004-0.01,0.014-0.012,0.018
				c-0.089,0.766-0.254,1.436-0.418,1.951c-0.094,0.336-0.212,0.662-0.343,0.939c-0.005,0.004-0.009,0.014-0.011,0.02
				s-0.008,0.014-0.013,0.02c-0.118,0.234-0.253,0.432-0.4,0.568c-1.143,1.217-2.731,0.021-2.731,0.021l-0.005-0.01
				c-0.14-0.082-0.271-0.184-0.384-0.305c0.478,2.203,1.049,5.893-0.262,7.73l0.095,0.154c2.204-0.471,5.364,1.52,7.195,2.834
				C157.363,155.846,157.326,155.686,157.307,155.525z"/>
		</g>
		<path fill="#C13534" d="M156.73,135.311c-3.17-1.227-6.745,0.373-7.986,3.576c-1.241,3.205,0.321,6.799,3.489,8.031
			c3.172,1.227,6.747-0.373,7.992-3.578C161.463,140.141,159.901,136.545,156.73,135.311z"/>
		<path fill="#6B1414" d="M155.268,137.963c-0.462,0.514-0.425,1.301,0.085,1.768c0.513,0.467,1.3,0.428,1.765-0.082
			c0.464-0.512,0.427-1.301-0.084-1.766C156.523,137.418,155.731,137.455,155.268,137.963z"/>
		<path fill="#ECB460" d="M116.688,153.736c0,2.383-1.932,4.313-4.313,4.313h-8.747c-2.383,0-4.313-1.93-4.313-4.313V76.639
			c0-2.383,1.931-4.314,4.313-4.314h8.747c2.382,0,4.313,1.932,4.313,4.314V153.736z"/>
		<path fill="#F4D344" d="M115.281,57.693L115.281,57.693l-0.001-0.002c-0.263-0.57-0.545-1.102-0.821-1.572
			c-1.505-3.006-4.658-9.891-5.84-16.951c0,0-0.614-3.777-0.619-3.734c-0.006-0.039-0.619,3.74-0.619,3.74
			c-1.181,7.063-4.335,13.947-5.84,16.953c-0.276,0.471-0.558,1.002-0.82,1.572l-0.002,0.002l0,0
			c-1.416,3.074-2.265,7.314,1.592,9.826c1.941,1.264,4.008,1.744,5.936,1.641c1.783,0.004,3.666-0.49,5.445-1.648
			C117.547,65.01,116.698,60.768,115.281,57.693z M109.966,66.777c-0.615,0.4-1.266,0.57-1.881,0.57
			c-0.665,0.035-1.38-0.131-2.05-0.566c-1.33-0.867-1.038-2.332-0.549-3.393v-0.002l0,0c0.091-0.197,0.188-0.381,0.283-0.543
			c0.52-1.037,1.609-3.414,2.017-5.854c0,0,0.212-1.305,0.214-1.291c0.002-0.016,0.215,1.289,0.215,1.289
			c0.406,2.438,1.496,4.814,2.016,5.854c0.096,0.162,0.192,0.346,0.283,0.543h0.001l0,0
			C111.004,64.447,111.297,65.91,109.966,66.777z"/>
		<path fill="#98904C" d="M108.246,69.168c-0.264,0.016-0.529,0.016-0.796,0.008v3.148h1.1v-3.166
			C108.449,69.162,108.346,69.168,108.246,69.168z"/>
		<path fill="#E74646" d="M99.313,77.746v3.111c2.225,0.352,4.847,0.604,7.835,0.604c2.861,0,6.062-0.242,9.539-0.828v-3.082
			C109.482,78.813,103.535,78.457,99.313,77.746z"/>
		<path fill="#E74646" d="M99.313,85.65v3.109c2.225,0.354,4.847,0.605,7.835,0.605c2.861,0,6.062-0.242,9.539-0.828v-3.084
			C109.482,86.715,103.535,86.361,99.313,85.65z"/>
		<path fill="#E74646" d="M99.313,93.555v3.109c2.225,0.354,4.847,0.604,7.835,0.604c2.861,0,6.062-0.24,9.539-0.826v-3.084
			C109.482,94.619,103.535,94.266,99.313,93.555z"/>
		<path fill="#E74646" d="M99.313,101.457v3.111c2.225,0.352,4.847,0.604,7.835,0.604c2.861,0,6.062-0.24,9.539-0.826v-3.084
			C109.482,102.523,103.535,102.168,99.313,101.457z"/>
		<path fill="#E74646" d="M99.313,109.361v3.111c2.225,0.352,4.847,0.604,7.835,0.604c2.861,0,6.062-0.242,9.539-0.826v-3.084
			C109.482,110.428,103.535,110.072,99.313,109.361z"/>
		<path fill="#E74646" d="M99.313,117.266v3.111c2.225,0.352,4.847,0.604,7.835,0.604c2.861,0,6.062-0.242,9.539-0.828v-3.082
			C109.482,118.332,103.535,117.977,99.313,117.266z"/>
		<path fill="#E74646" d="M99.313,125.17v3.111c2.225,0.352,4.847,0.604,7.835,0.604c2.861,0,6.062-0.242,9.539-0.828v-3.084
			C109.482,126.234,103.535,125.881,99.313,125.17z"/>
		<path fill="#E74646" d="M99.313,133.072v3.111c2.225,0.354,4.847,0.604,7.835,0.604c2.861,0,6.062-0.24,9.539-0.826v-3.084
			C109.482,134.139,103.535,133.785,99.313,133.072z"/>
		<path fill="#E74646" d="M99.313,140.977v3.111c2.225,0.354,4.847,0.604,7.835,0.604c2.861,0,6.062-0.24,9.539-0.826v-3.084
			C109.482,142.043,103.535,141.688,99.313,140.977z"/>
		<path fill="#E74646" d="M99.313,148.881v3.111c2.225,0.352,4.847,0.604,7.835,0.604c2.861,0,6.062-0.242,9.539-0.828v-3.082
			C109.482,149.947,103.535,149.592,99.313,148.881z"/>
		<path fill="#ECB460" d="M82.489,153.736c0,2.383-1.931,4.313-4.313,4.313H69.43c-2.383,0-4.314-1.93-4.314-4.313v-37.791
			c0-2.381,1.932-4.313,4.314-4.313h8.746c2.383,0,4.313,1.932,4.313,4.313V153.736z"/>
		<path fill="#F4D344" d="M78.764,101.664L78.764,101.664l-0.001-0.002c-0.179-0.389-0.371-0.75-0.559-1.07
			c-1.026-2.047-3.176-6.738-3.98-11.549c0,0-0.418-2.574-0.421-2.545c-0.004-0.025-0.422,2.549-0.422,2.549
			c-0.805,4.813-2.953,9.502-3.979,11.551c-0.189,0.32-0.38,0.682-0.561,1.07v0.002l0,0c-0.965,2.094-1.543,4.984,1.083,6.693
			c1.324,0.861,2.731,1.189,4.044,1.119c1.217,0.002,2.5-0.334,3.711-1.123C80.307,106.648,79.729,103.76,78.764,101.664z
			 M75.141,107.854c-0.418,0.271-0.859,0.389-1.28,0.389c-0.453,0.023-0.94-0.09-1.396-0.387c-0.906-0.592-0.708-1.588-0.374-2.311
			v-0.002l0,0c0.062-0.135,0.129-0.258,0.193-0.369c0.354-0.707,1.096-2.326,1.374-3.988c0,0,0.144-0.889,0.146-0.881
			c0.002-0.01,0.146,0.879,0.146,0.879c0.275,1.66,1.019,3.281,1.373,3.988c0.065,0.111,0.131,0.234,0.193,0.369v0.002l0,0
			C75.849,106.266,76.048,107.264,75.141,107.854z"/>
		<path fill="#98904C" d="M73.969,109.482c-0.178,0.01-0.358,0.01-0.541,0.004v2.146h0.75v-2.158
			C74.108,109.477,74.039,109.482,73.969,109.482z"/>
		<path fill="#E74646" d="M65.115,117.055v3.111c2.225,0.352,4.848,0.602,7.836,0.602c2.859,0,6.062-0.24,9.538-0.826v-3.084
			C75.285,118.121,69.338,117.766,65.115,117.055z"/>
		<path fill="#E74646" d="M65.115,124.959v3.109c2.225,0.354,4.848,0.604,7.836,0.604c2.859,0,6.062-0.24,9.538-0.826v-3.084
			C75.285,126.023,69.338,125.668,65.115,124.959z"/>
		<path fill="#E74646" d="M65.115,132.861v3.111c2.225,0.354,4.848,0.604,7.836,0.604c2.859,0,6.062-0.242,9.538-0.826v-3.084
			C75.285,133.928,69.338,133.572,65.115,132.861z"/>
		<path fill="#E74646" d="M65.115,140.766v3.111c2.225,0.352,4.848,0.604,7.836,0.604c2.859,0,6.062-0.242,9.538-0.828v-3.082
			C75.285,141.832,69.338,141.477,65.115,140.766z"/>
		<path fill="#E74646" d="M65.115,148.67v3.111c2.225,0.352,4.848,0.604,7.836,0.604c2.859,0,6.062-0.242,9.538-0.828v-3.082
			C75.285,149.736,69.338,149.381,65.115,148.67z"/>
		<path fill="#ECB460" d="M150.885,153.736c0,2.383-1.932,4.313-4.313,4.313h-8.747c-2.382,0-4.313-1.93-4.313-4.313v-37.791
			c0-2.381,1.931-4.313,4.313-4.313h8.747c2.382,0,4.313,1.932,4.313,4.313V153.736z"/>
		<path fill="#F4D344" d="M147.158,101.664L147.158,101.664v-0.002c-0.18-0.389-0.371-0.75-0.559-1.07
			c-1.026-2.047-3.175-6.738-3.98-11.549c0,0-0.418-2.574-0.421-2.545c-0.004-0.025-0.423,2.549-0.423,2.549
			c-0.805,4.813-2.953,9.502-3.979,11.551c-0.188,0.32-0.379,0.682-0.559,1.07l-0.001,0.002l0,0
			c-0.966,2.094-1.544,4.984,1.083,6.693c1.324,0.861,2.732,1.189,4.044,1.119c1.216,0.002,2.499-0.334,3.711-1.123
			C148.702,106.648,148.125,103.76,147.158,101.664z M143.537,107.854c-0.42,0.271-0.861,0.389-1.281,0.389
			c-0.453,0.023-0.939-0.09-1.396-0.387c-0.906-0.592-0.708-1.588-0.374-2.311v-0.002l0,0c0.063-0.135,0.128-0.258,0.192-0.369
			c0.355-0.707,1.097-2.326,1.375-3.988c0,0,0.145-0.889,0.146-0.881c0.001-0.01,0.146,0.879,0.146,0.879
			c0.277,1.66,1.02,3.281,1.374,3.988c0.065,0.111,0.131,0.234,0.192,0.369v0.002l0,0
			C144.244,106.266,144.443,107.264,143.537,107.854z"/>
		<path fill="#98904C" d="M142.365,109.482c-0.179,0.01-0.359,0.01-0.542,0.004v2.146h0.749v-2.158
			C142.504,109.477,142.434,109.482,142.365,109.482z"/>
		<path fill="#E74646" d="M133.512,117.055v3.111c2.224,0.352,4.847,0.602,7.834,0.602c2.861,0,6.063-0.24,9.539-0.826v-3.084
			C143.681,118.121,137.734,117.766,133.512,117.055z"/>
		<path fill="#E74646" d="M133.512,124.959v3.109c2.224,0.354,4.847,0.604,7.834,0.604c2.861,0,6.063-0.24,9.539-0.826v-3.084
			C143.681,126.023,137.734,125.668,133.512,124.959z"/>
		<path fill="#E74646" d="M133.512,132.861v3.111c2.224,0.354,4.847,0.604,7.834,0.604c2.861,0,6.063-0.242,9.539-0.826v-3.084
			C143.681,133.928,137.734,133.572,133.512,132.861z"/>
		<path fill="#E74646" d="M133.512,140.766v3.111c2.224,0.352,4.847,0.604,7.834,0.604c2.861,0,6.063-0.242,9.539-0.828v-3.082
			C143.681,141.832,137.734,141.477,133.512,140.766z"/>
		<path fill="#E74646" d="M133.512,148.67v3.111c2.224,0.352,4.847,0.604,7.834,0.604c2.861,0,6.063-0.242,9.539-0.828v-3.082
			C143.681,149.736,137.734,149.381,133.512,148.67z"/>
		<g>
			<path fill="#49BEA6" d="M99.452,143.18l-0.003,0.023c0,0-1.926,3.797-5.293,2.76c-0.391-0.15-1.209-0.568-2.211-1.703
				c-0.354-0.445-0.539-0.59-0.539-0.59s0.715,5.684-1.588,7.59l-0.079-0.066l-0.004-0.01c-2.745-2.41-3.063-5.092-3.063-5.092
				c-0.938,1.395-1.508,2.018-1.816,2.293c-0.215,0.191-0.302,0.217-0.302,0.217s-0.18,0.117-0.272,0.166
				c-0.097,0.047-0.191,0.09-0.289,0.121c-0.655,0.223-1.462,0.125-2.469-0.518c-0.133-0.082-0.635-0.451-0.743-0.547
				c-0.148-0.125-0.292-0.254-0.425-0.385c-1.542-1.484-1.358-1.746-1.802-2.406c-2.23,7.465-7.635,7.191-11.363,7.682l-0.159-0.02
				c0.024,0.012,0.047,0.02,0.071,0.029c-0.02,0.002-0.042,0.004-0.062,0.008l0.112,0.016c3.477,1.424,7.809,4.76,8.18,12.557
				c0.592-0.533,1.765-1.973,3.616-3.043c0.161-0.094,0.327-0.184,0.501-0.271c0.131-0.066,0.705-0.301,0.858-0.352
				c2.991-1.008,4.508-0.377,5.208,0.197c0.082,0.068,0.156,0.141,0.22,0.205c0.109,0.113,0.316,0.469,0.369,0.596
				c0.072,0.166,0.136,0.338,0.151,0.387c0.146,0.475,0.195,0.939,0.203,1.281c0,0.045,0.001,0.092,0.001,0.137
				c0.003,0.252-0.016,0.408-0.016,0.408l-0.001,0.006c-0.211,2.375-2.151,5.236-2.154,5.24c0.014,0.002,0.036-0.01,0.047-0.016
				c1.268-1.186,2.529-2.1,3.555-2.746c0.66-0.441,1.328-0.83,1.964-1.109c0.012-0.006,0.033-0.018,0.048-0.023
				c0.014-0.008,0.027-0.008,0.043-0.012c0.548-0.234,1.064-0.379,1.524-0.396c3.733-0.426,4.729,3.941,4.729,3.941l-0.01,0.021
				c0.121,0.348,0.207,0.707,0.218,1.09c2.384-4.486,6.778-11.664,11.702-12.922l0.064-0.398c-4.482-2.402-7.021-10.424-8.254-15.35
				C99.814,142.543,99.65,142.869,99.452,143.18z"/>
			<path fill="#49BEA6" d="M115.086,144.717v0.021c0,0,2.082,3.713,5.4,2.539c0.385-0.168,1.186-0.619,2.142-1.795
				c0.335-0.463,0.512-0.609,0.512-0.609s-0.478,5.705,1.902,7.514l0.078-0.07l0.003-0.01c2.639-2.52,2.849-5.211,2.849-5.211
				c0.996,1.354,1.588,1.953,1.91,2.215c0.222,0.186,0.31,0.205,0.31,0.205s0.185,0.109,0.279,0.152
				c0.096,0.041,0.193,0.078,0.295,0.107c0.664,0.199,1.463,0.064,2.443-0.617c0.128-0.09,0.616-0.479,0.723-0.578
				c0.141-0.131,0.277-0.268,0.404-0.402c1.479-1.547,1.284-1.801,1.702-2.477c2.537,7.363,7.928,6.861,11.671,7.201l0.16-0.027
				c-0.023,0.012-0.046,0.023-0.068,0.033c0.021,0.002,0.037,0.002,0.061,0.004l-0.109,0.021c-3.416,1.566-7.607,5.082-7.653,12.885
				c-0.614-0.506-1.847-1.898-3.739-2.889c-0.166-0.09-0.338-0.172-0.513-0.252c-0.132-0.061-0.717-0.271-0.87-0.313
				c-3.032-0.887-4.52-0.191-5.195,0.412c-0.084,0.074-0.153,0.145-0.215,0.213c-0.101,0.119-0.295,0.484-0.344,0.611
				c-0.062,0.168-0.119,0.342-0.134,0.393c-0.125,0.48-0.154,0.945-0.147,1.287c-0.002,0.047-0.002,0.092,0.002,0.137
				c0.011,0.252,0.032,0.412,0.032,0.412l0.003,0.002c0.309,2.361,2.368,5.141,2.368,5.145c-0.011,0.004-0.036-0.01-0.048-0.014
				c-1.316-1.131-2.614-1.99-3.663-2.594c-0.677-0.414-1.361-0.775-2.012-1.029c-0.009-0.004-0.035-0.014-0.045-0.018
				c-0.014-0.008-0.028-0.008-0.046-0.016c-0.555-0.207-1.079-0.33-1.538-0.33c-3.746-0.27-4.562,4.135-4.562,4.135l0.009,0.021
				c-0.106,0.354-0.173,0.713-0.169,1.098c-2.566-4.383-7.259-11.373-12.232-12.42l-0.078-0.398
				c4.375-2.584,6.584-10.707,7.608-15.682C114.692,144.094,114.87,144.414,115.086,144.717z"/>
			<g>
				<path fill="#C13534" d="M116.943,152.787c2.031,2.232,1.867,5.693-0.367,7.727c-2.233,2.031-5.693,1.865-7.729-0.367
					c-2.029-2.232-1.868-5.688,0.369-7.727C111.448,150.391,114.909,150.555,116.943,152.787z"/>
				<path fill="#6B1414" d="M113.947,152.486c0.298,0.334,0.274,0.846-0.055,1.145c-0.33,0.301-0.843,0.275-1.145-0.055
					c-0.301-0.328-0.275-0.842,0.054-1.143C113.131,152.135,113.645,152.158,113.947,152.486z"/>
				<path fill="#C13534" d="M99.334,151.328c3.168-1.229,6.744,0.371,7.985,3.574c1.241,3.207-0.321,6.801-3.49,8.031
					c-3.171,1.229-6.746-0.373-7.991-3.576C94.6,156.156,96.162,152.563,99.334,151.328z"/>
				<path fill="#6B1414" d="M100.795,153.98c0.463,0.514,0.426,1.299-0.084,1.768c-0.513,0.465-1.299,0.426-1.766-0.082
					c-0.463-0.514-0.426-1.303,0.085-1.766C99.54,153.436,100.332,153.471,100.795,153.98z"/>
				<path fill="#D64542" d="M106.036,158.346c1.969-0.752,4.176,0.23,4.933,2.199c0.753,1.971-0.232,4.178-2.201,4.932
					s-4.176-0.229-4.931-2.201C103.082,161.311,104.068,159.102,106.036,158.346z"/>
				<circle fill="#6B1414" cx="104.627" cy="162.106" r="0.565"/>
			</g>
		</g>
		<path fill="#C13534" d="M59.229,135.938c-3.001,0.301-5.193,2.98-4.896,5.988c0.297,3.004,2.976,5.195,5.979,4.898
			c3-0.303,5.193-2.98,4.897-5.99C64.908,137.83,62.23,135.639,59.229,135.938z"/>
		<path fill="#6B1414" d="M61.652,137.717c-0.443,0.049-0.77,0.445-0.725,0.889c0.043,0.443,0.44,0.768,0.885,0.725
			c0.443-0.043,0.768-0.441,0.725-0.885C62.493,138.002,62.098,137.678,61.652,137.717z"/>
		<g>
			<path fill="#D64542" d="M55.861,145.955c-1.508,1.475-1.547,3.889-0.084,5.398c1.463,1.506,3.869,1.533,5.379,0.059
				c1.507-1.473,1.547-3.887,0.082-5.396C59.779,144.51,57.371,144.484,55.861,145.955z"/>
			<path fill="#6B1414" d="M59.457,145.842c-0.221,0.219-0.227,0.578-0.01,0.799c0.213,0.221,0.571,0.227,0.795,0.01
				c0.223-0.219,0.23-0.578,0.013-0.799C60.039,145.627,59.681,145.623,59.457,145.842z"/>
		</g>
	</g>
</g>
</svg>
