<?xml version="1.0" encoding="utf-8"?>
<!-- Generator: Adobe Illustrator 16.0.0, SVG Export Plug-In . SVG Version: 6.00 Build 0)  -->
<!DOCTYPE svg PUBLIC "-//W3C//DTD SVG 1.1//EN" "http://www.w3.org/Graphics/SVG/1.1/DTD/svg11.dtd">
<svg version="1.1" id="Layer_1" xmlns="http://www.w3.org/2000/svg" xmlns:xlink="http://www.w3.org/1999/xlink" x="0px" y="0px"
	 width="216px" height="216px" viewBox="0 0 216 216" enable-background="new 0 0 216 216" xml:space="preserve">
<g>
	<circle fill="#626074" cx="108" cy="108" r="108"/>
	<g>
		<g>
			<g>
				<g>
					<path fill="#EAEAEA" d="M128.793,165.477c2.869-1.435,4.033-4.926,2.6-7.796l-41.57-83.139
						c-5.844-11.687-20.105-16.441-31.793-10.598C46.342,69.789,41.588,84.05,47.432,95.737c1.436,2.871,4.926,4.034,7.797,2.599
						c2.869-1.435,4.033-4.925,2.598-7.796c-2.979-5.955-0.555-13.223,5.4-16.201c5.955-2.977,13.223-0.555,16.201,5.401
						l41.568,83.138C122.432,165.747,125.922,166.913,128.793,165.477z"/>
				</g>
				<path fill="#D64542" d="M58.029,63.944c5.252-2.626,11.023-3.105,16.318-1.783L46.813,75.93
					C48.93,70.9,52.777,66.57,58.029,63.944z"/>
				<g>
					<path fill="#D64542" d="M81.506,65.261c1.725,1.112,3.314,2.459,4.719,4.015L75,74.888c-3.148-1.947-7.123-2.412-10.748-1.001
						L81.506,65.261z"/>
					<path fill="#D64542" d="M44.996,83.516l17.252-8.626c-3.305,2.053-5.318,5.511-5.646,9.198L45.375,89.7
						C44.973,87.642,44.852,85.563,44.996,83.516z"/>
				</g>
				<g>
					<path fill="#D64542" d="M57.826,90.541c1.078,2.153,0.689,4.658-0.785,6.38l-4.035,2.019c-2.262,0.146-4.496-1.048-5.574-3.2
						c-0.053-0.104-0.098-0.21-0.146-0.314l10.395-5.197C57.729,90.332,57.773,90.437,57.826,90.541z"/>
					<path fill="#D64542" d="M81.822,84.531l-2.395-4.791c-0.053-0.104-0.107-0.204-0.164-0.307l10.396-5.197
						c0.053,0.103,0.109,0.202,0.162,0.307l2.395,4.79L81.822,84.531z"/>
				</g>
				
					<rect x="85.156" y="86.974" transform="matrix(0.8944 -0.4472 0.4472 0.8944 -30.5674 50.1647)" fill="#D64542" width="11.621" height="5.702"/>
				
					<rect x="90.378" y="97.417" transform="matrix(0.8944 -0.4473 0.4473 0.8944 -34.6899 53.6122)" fill="#D64542" width="11.622" height="5.703"/>
				
					<rect x="95.599" y="107.861" transform="matrix(0.8944 -0.4472 0.4472 0.8944 -38.8057 57.0402)" fill="#D64542" width="11.621" height="5.702"/>
				
					<rect x="100.821" y="118.302" transform="matrix(0.8944 -0.4473 0.4473 0.8944 -42.9337 60.4999)" fill="#D64542" width="11.62" height="5.704"/>
				
					<rect x="106.043" y="128.746" transform="matrix(0.8945 -0.4471 0.4471 0.8945 -47.0383 63.9035)" fill="#D64542" width="11.621" height="5.702"/>
				
					<rect x="111.264" y="139.189" transform="matrix(0.8944 -0.4473 0.4473 0.8944 -51.1681 67.3659)" fill="#D64542" width="11.622" height="5.703"/>
				
					<rect x="116.486" y="149.632" transform="matrix(0.8944 -0.4472 0.4472 0.8944 -55.2814 70.7909)" fill="#D64542" width="11.621" height="5.702"/>
				<path fill="#D64542" d="M121.049,162.974l10.387-5.194c1.361,2.853,0.195,6.278-2.643,7.697
					C125.957,166.896,122.516,165.771,121.049,162.974z"/>
			</g>
			<g>
				<g>
					<path fill="#EAEAEA" d="M87.207,165.477c-2.871-1.435-4.033-4.926-2.6-7.796l41.57-83.139
						c5.844-11.687,20.105-16.441,31.793-10.598c11.688,5.845,16.441,20.105,10.598,31.793c-1.436,2.871-4.926,4.034-7.797,2.599
						c-2.869-1.435-4.033-4.925-2.598-7.796c2.977-5.955,0.555-13.223-5.4-16.201c-5.955-2.977-13.223-0.555-16.201,5.401
						l-41.57,83.138C93.568,165.747,90.076,166.913,87.207,165.477z"/>
				</g>
				<path fill="#D64542" d="M157.971,63.944c-5.252-2.626-11.023-3.105-16.318-1.783l27.535,13.769
					C167.07,70.9,163.223,66.57,157.971,63.944z"/>
				<g>
					<path fill="#D64542" d="M134.494,65.261c-1.725,1.112-3.314,2.459-4.719,4.015L141,74.888
						c3.146-1.947,7.123-2.412,10.746-1.001L134.494,65.261z"/>
					<path fill="#D64542" d="M171.004,83.516l-17.252-8.626c3.305,2.053,5.316,5.511,5.646,9.198l11.225,5.612
						C171.027,87.642,171.148,85.563,171.004,83.516z"/>
				</g>
				<g>
					<path fill="#D64542" d="M158.174,90.541c-1.078,2.153-0.689,4.658,0.783,6.38l4.037,2.019c2.262,0.146,4.496-1.048,5.574-3.2
						c0.051-0.104,0.098-0.21,0.146-0.314l-10.395-5.197C158.271,90.332,158.225,90.437,158.174,90.541z"/>
					<path fill="#D64542" d="M134.178,84.531l2.395-4.791c0.053-0.104,0.107-0.204,0.164-0.307l-10.396-5.197
						c-0.053,0.103-0.109,0.202-0.162,0.307l-2.395,4.79L134.178,84.531z"/>
				</g>
				
					<rect x="119.222" y="86.974" transform="matrix(-0.8944 -0.4472 0.4472 -0.8944 196.6953 226.0838)" fill="#D64542" width="11.621" height="5.702"/>
				
					<rect x="114.001" y="97.416" transform="matrix(-0.8944 -0.4473 0.4473 -0.8944 182.1114 243.5413)" fill="#D64542" width="11.62" height="5.704"/>
				
					<rect x="108.779" y="107.861" transform="matrix(-0.8944 -0.4472 0.4472 -0.8944 167.5703 260.9818)" fill="#D64542" width="11.621" height="5.702"/>
				
					<rect x="103.558" y="118.303" transform="matrix(-0.8944 -0.4473 0.4473 -0.8944 152.9845 278.4355)" fill="#D64542" width="11.62" height="5.703"/>
				
					<rect x="98.336" y="128.746" transform="matrix(-0.8945 -0.4471 0.4471 -0.8945 138.4582 295.8744)" fill="#D64542" width="11.621" height="5.702"/>
				
					<rect x="93.114" y="139.189" transform="matrix(-0.8944 -0.4473 0.4473 -0.8944 123.8705 313.3278)" fill="#D64542" width="11.622" height="5.703"/>
				
					<rect x="87.892" y="149.632" transform="matrix(-0.8944 -0.4472 0.4472 -0.8944 109.3211 330.774)" fill="#D64542" width="11.621" height="5.702"/>
				<path fill="#D64542" d="M94.949,162.974l-10.385-5.194c-1.361,2.853-0.195,6.278,2.643,7.697
					C90.043,166.896,93.484,165.771,94.949,162.974z"/>
			</g>
		</g>
		<g>
			<ellipse fill="#36937B" cx="107.997" cy="118.032" rx="5.247" ry="3.683"/>
			<path fill="#49BEA6" d="M139.729,102.233c-4.279-4.968-9.637-4.699-10.654-4.699c-3.92,0.031-6.137,1.916-6.734,2.246
				c-3.742,2.453-5.686,8.799-6.404,10.355c-1.604,3.498-3.121,5.291-3.609,5.818c0.578,0.591,0.918,1.307,0.918,2.078
				c0,0.254-0.039,0.502-0.107,0.742c0.447-0.17,1.221-0.473,1.631-0.678c2.125-0.869,5.746-5.328,7.361-6.854
				c4.85-5.236,11.914-4.489,13.32-4.416c5.268,0.224,8.02,4.027,8.4,4.657C141.443,103.88,140.418,103.28,139.729,102.233z"/>
			<path fill="#278972" d="M144.1,112.028l-0.311-0.639c-0.434-0.665-2.232-2.986-5.451-4.043c-0.145,1.391-0.852,3.008-1.334,4
				c-3.945,6.868-12.033,6.954-13.68,7.039c-4.314,0.086-7.975-0.354-7.975-0.354l-0.352-0.041c-0.08,0.041-0.156,0.075-0.23,0.105
				c-0.41,0.205-1.184,0.508-1.631,0.678c-0.215,0.735-0.742,1.391-1.48,1.895c0.629,0.285,1.973,0.859,3.693,1.406
				c4.996,1.221,9.621,1.334,10.189,1.306c8.484,0.226,11.465-1.846,12.457-2.327C145.15,117.166,144.1,112.028,144.1,112.028z"/>
			<path fill="#49BEA6" d="M144.813,138.704L144.813,138.704c0,0-0.029-0.124-0.092-0.348c-0.088-0.314-0.18-0.634-0.277-0.957
				c-0.451-1.474-1.033-2.973-1.773-4.273c-0.674-1.35-1.525-2.803-2.58-4.189c-0.09-0.12-0.182-0.238-0.273-0.352
				c-0.002-0.003-0.002-0.005-0.004-0.007l0,0c-0.791-0.981-1.701-1.78-3.418-3.197l0,0l-0.004-0.003
				c-0.035-0.028-0.068-0.056-0.104-0.086c-0.008-0.003-0.02-0.012-0.029-0.018c-0.461-0.359-2.004-1.566-3.117-2.443
				c-0.826,0.17-1.777,0.315-2.875,0.417l0,0c-0.139,0.015-0.283,0.024-0.428,0.036c-0.041,0.002-0.084,0.006-0.125,0.01
				c-0.178,0.014-0.357,0.025-0.543,0.037c-0.07,0.004-0.141,0.007-0.213,0.011c-0.133,0.006-0.266,0.013-0.4,0.019
				c-0.082,0.005-0.166,0.007-0.248,0.009c-0.131,0.005-0.264,0.011-0.396,0.015c-0.086,0.001-0.174,0.003-0.262,0.005
				c-0.137,0.003-0.277,0.004-0.418,0.007c-0.086,0-0.174,0-0.262,0c-0.154,0.002-0.313,0-0.471,0c-0.078,0-0.154,0-0.232,0
				c-0.24-0.004-0.482-0.009-0.729-0.015c-0.568,0.028-5.193-0.085-10.189-1.306c-1.721-0.547-3.064-1.121-3.693-1.406
				c0.004-0.002,0.006-0.004,0.008-0.006c-0.313,0.215-0.664,0.402-1.047,0.559v0.001c0,0,2.443,1.213,3.971,2.052
				c4.49,2.604,7.541,3.144,13.348,15.265c2.336,5.747,2.725,6.349,4.311,12.558h0.086l6.271-6.615h7.281
				C145.885,144.481,145.627,141.807,144.813,138.704z"/>
			<path fill="#49BEA6" d="M76.27,102.233c4.281-4.968,9.639-4.699,10.656-4.699c3.92,0.029,6.135,1.916,6.734,2.246
				c3.74,2.453,5.686,8.799,6.404,10.355c1.602,3.498,3.121,5.291,3.609,5.818c-0.578,0.592-0.916,1.307-0.916,2.078
				c0,0.254,0.035,0.502,0.107,0.742c-0.451-0.17-1.223-0.472-1.633-0.678c-2.125-0.869-5.748-5.327-7.363-6.854
				c-4.85-5.236-11.912-4.489-13.318-4.416c-5.268,0.224-8.021,4.027-8.4,4.657C74.557,103.88,75.582,103.28,76.27,102.233z"/>
			<path fill="#278972" d="M71.9,112.028l0.311-0.641c0.434-0.664,2.232-2.984,5.451-4.041c0.145,1.391,0.852,3.007,1.334,4
				c3.943,6.868,12.033,6.953,13.68,7.037c4.314,0.088,7.975-0.352,7.975-0.352l0.354-0.041c0.078,0.041,0.154,0.075,0.229,0.105
				c0.41,0.206,1.182,0.508,1.633,0.678c0.213,0.737,0.74,1.391,1.479,1.895c-0.631,0.285-1.973,0.859-3.693,1.406
				c-4.994,1.221-9.621,1.333-10.188,1.306c-8.486,0.226-11.467-1.846-12.461-2.328C70.852,117.164,71.9,112.028,71.9,112.028z"/>
			<path fill="#49BEA6" d="M71.188,138.704L71.188,138.704c0,0,0.029-0.125,0.092-0.348c0.088-0.316,0.178-0.636,0.277-0.957
				c0.451-1.475,1.035-2.973,1.773-4.273c0.674-1.352,1.525-2.805,2.58-4.189c0.09-0.12,0.18-0.238,0.271-0.354
				c0.002-0.002,0.004-0.004,0.006-0.005l0,0c0.793-0.983,1.701-1.78,3.418-3.197l0,0l0.004-0.003
				c0.035-0.029,0.066-0.056,0.104-0.085c0.008-0.007,0.02-0.014,0.029-0.02c0.461-0.36,2.002-1.565,3.115-2.442
				c0.828,0.17,1.781,0.315,2.879,0.416c0,0,0,0-0.002,0c0.141,0.014,0.283,0.025,0.426,0.037c0.043,0.002,0.086,0.006,0.129,0.01
				c0.176,0.014,0.355,0.024,0.541,0.035c0.07,0.006,0.141,0.008,0.213,0.013c0.133,0.006,0.266,0.015,0.4,0.019
				c0.082,0.004,0.166,0.007,0.248,0.009c0.131,0.005,0.262,0.011,0.396,0.014c0.088,0.003,0.174,0.003,0.264,0.006
				c0.135,0.002,0.273,0.003,0.416,0.007c0.088,0,0.174,0,0.262,0c0.154,0.002,0.313,0,0.471,0c0.078,0,0.154,0,0.234,0
				c0.236-0.005,0.479-0.01,0.729-0.015c0.566,0.027,5.193-0.085,10.188-1.306c1.721-0.547,3.063-1.121,3.693-1.406
				c-0.004-0.002-0.006-0.004-0.008-0.006c0.313,0.216,0.664,0.402,1.045,0.559v0.001c0,0-2.443,1.215-3.967,2.053
				c-4.49,2.603-7.545,3.142-13.35,15.263c-2.336,5.748-2.725,6.349-4.311,12.559h-0.086l-6.27-6.615h-7.285
				C70.113,144.481,70.373,141.807,71.188,138.704z"/>
		</g>
	</g>
</g>
</svg>
