<?xml version="1.0" encoding="utf-8"?>
<!-- Generator: Adobe Illustrator 16.0.0, SVG Export Plug-In . SVG Version: 6.00 Build 0)  -->
<!DOCTYPE svg PUBLIC "-//W3C//DTD SVG 1.1//EN" "http://www.w3.org/Graphics/SVG/1.1/DTD/svg11.dtd">
<svg version="1.1" id="Layer_1" xmlns="http://www.w3.org/2000/svg" xmlns:xlink="http://www.w3.org/1999/xlink" x="0px" y="0px"
	 width="216px" height="216px" viewBox="0 0 216 216" enable-background="new 0 0 216 216" xml:space="preserve">
<g>
	<circle fill="#F26F62" cx="108" cy="108" r="108"/>
	<path fill="#E9CEBD" d="M13.098,159.59C31.404,193.195,67.039,216,108,216s76.596-22.805,94.902-56.41H13.098z"/>
	<path fill="#56412F" d="M134.594,134.369l-2.443,2.443l-2.771-2.773l-2.773,2.773l-2.773-2.773l-2.773,2.773l-2.773-2.773
		l-2.771,2.773l-2.773-2.773l-2.773,2.773l-2.773-2.773l-2.773,2.773l-2.771-2.773l-2.775,2.773l-2.771-2.773l-2.773,2.773
		l-2.773-2.773l-2.773,2.773l-2.771-2.773l-2.773,2.773l-2.443-2.443c-0.703,0.525-1.164,1.355-1.164,2.299l8.289,36.869
		c0,1.59,1.289,2.879,2.877,2.879h34.797c1.59,0,2.877-1.289,2.877-2.879l8.289-36.869
		C135.758,135.725,135.297,134.895,134.594,134.369z"/>
	<path fill="#ABD58B" d="M147.643,134.949c-0.193,0.08-0.395,0.156-0.609,0.219c0,0-0.006,0.002-0.01,0.004
		c-0.213,0.063-0.441,0.113-0.676,0.156c-0.055,0.01-0.109,0.02-0.166,0.027c-0.24,0.039-0.488,0.072-0.752,0.09
		c-6.186,0.398-1.895-13.77-20.354-16.465c-1.723-0.25-3.404-0.375-5.043-0.396c-15.477-0.176-25.348,9.48-35.436,9.756
		c-3.549,0.098-7.766-1.107-11.412-3.412c-1.229,2.762-2.727,8.75,5.443,11.74c0-0.943,0.461-1.773,1.164-2.299l2.443,2.443
		l2.773-2.773l2.771,2.773l2.773-2.773l2.773,2.773l2.773-2.773l2.771,2.773l2.775-2.773l2.771,2.773l2.773-2.773l2.773,2.773
		l2.773-2.773l2.773,2.773l2.771-2.773l2.773,2.773l2.773-2.773l2.773,2.773l2.773-2.773l2.771,2.773l2.443-2.443
		c0.703,0.525,1.164,1.355,1.164,2.299l-0.146,0.654l0.146,0.018c1.096,0.674,8.922,5.139,12.551-2.717
		c-0.174,0.102-0.361,0.193-0.555,0.279C147.717,134.918,147.68,134.934,147.643,134.949z"/>
	<path fill="#C7E1A7" d="M151.42,128.34c-5.822-23-27.938-16.275-49.232-15.709h-0.002c-32.459,3.023-31.572-14.055-31.572-14.055
		l0.004-0.006c0-1.857,0.818-3.588,2.039-5.143l0,0c-19.098,21.143,0.123,35.236,11.941,34.912
		c11.143-0.305,22.02-12.053,40.479-9.359c18.459,2.695,14.168,16.863,20.354,16.465C151.617,135.045,151.42,128.34,151.42,128.34z"
		/>
	<path fill="#ABD58B" d="M86.236,84.41c5.783,4.916,18.002,12.027,38.775,9.645c0.73-0.084,1.424-0.162,2.096-0.242
		c-0.006-0.072-0.014-0.141-0.02-0.213c2.244,0.211,7.063,1.385,12.551,7.137v0.002c11.109,11.092,11.781,27.602,11.781,27.602
		c-5.822-23-27.938-16.275-49.232-15.709h-0.002c-32.459,3.023-31.572-14.055-31.572-14.055l0.004-0.006
		c0.004-5.705,7.701-10.248,11.166-12.002l-0.006-0.008c0,0,0.078-0.035,0.213-0.096c0.879-0.439,1.439-0.676,1.445-0.68
		L86.236,84.41"/>
	<g>
		<path fill="#FFFFFF" d="M84.504,110.588c-0.057,0.836,0.576,1.555,1.41,1.605s1.557-0.584,1.613-1.422s-0.576-1.555-1.41-1.607
			C85.283,109.115,84.561,109.75,84.504,110.588z"/>
		<path fill="#FFFFFF" d="M80.697,109.301c-0.047,0.705,0.484,1.307,1.184,1.35c0.701,0.043,1.311-0.49,1.357-1.195
			c0.047-0.703-0.484-1.307-1.186-1.35C81.354,108.063,80.744,108.596,80.697,109.301z"/>
		<path fill="#FFFFFF" d="M78.068,107.613c-0.033,0.494,0.34,0.918,0.832,0.949c0.492,0.029,0.918-0.346,0.951-0.84
			s-0.34-0.918-0.832-0.947C78.529,106.746,78.102,107.121,78.068,107.613z"/>
		<path fill="#FFFFFF" d="M75.574,105.893c-0.031,0.443,0.305,0.822,0.746,0.85c0.439,0.027,0.822-0.309,0.852-0.752
			c0.031-0.443-0.303-0.822-0.744-0.85C75.986,105.115,75.604,105.451,75.574,105.893z"/>
	</g>
	<g>
		<path fill="#FFFFFF" d="M121.186,109.943c-0.238-0.805-1.082-1.26-1.881-1.02c-0.801,0.242-1.258,1.09-1.02,1.895
			c0.24,0.807,1.082,1.264,1.883,1.021S121.424,110.75,121.186,109.943z"/>
		<path fill="#FFFFFF" d="M125.205,109.832c-0.201-0.678-0.908-1.061-1.582-0.857c-0.672,0.203-1.057,0.916-0.855,1.594
			s0.91,1.061,1.584,0.857C125.021,111.225,125.406,110.51,125.205,109.832z"/>
		<path fill="#FFFFFF" d="M128.258,110.506c-0.141-0.477-0.639-0.746-1.109-0.604c-0.473,0.143-0.742,0.643-0.6,1.119
			c0.141,0.475,0.639,0.744,1.109,0.602S128.398,110.98,128.258,110.506z"/>
		<path fill="#FFFFFF" d="M131.197,111.256c-0.125-0.426-0.572-0.666-0.994-0.537c-0.424,0.127-0.664,0.574-0.539,1
			c0.127,0.428,0.572,0.668,0.996,0.541C131.082,112.131,131.324,111.684,131.197,111.256z"/>
	</g>
	<g>
		<path fill="#FFFFFF" d="M105.619,123.197c-0.561-0.623-1.52-0.672-2.137-0.111c-0.619,0.563-0.668,1.523-0.105,2.148
			s1.52,0.676,2.139,0.113C106.133,124.785,106.182,123.824,105.619,123.197z"/>
		<path fill="#FFFFFF" d="M109.201,121.369c-0.473-0.525-1.277-0.566-1.797-0.094c-0.521,0.471-0.561,1.279-0.088,1.805
			c0.471,0.527,1.277,0.568,1.797,0.096C109.633,122.705,109.674,121.895,109.201,121.369z"/>
		<path fill="#FFFFFF" d="M112.246,120.664c-0.33-0.369-0.896-0.398-1.262-0.066s-0.393,0.898-0.061,1.268s0.896,0.396,1.26,0.066
			C112.549,121.6,112.578,121.033,112.246,120.664z"/>
		<path fill="#FFFFFF" d="M115.223,120.078c-0.297-0.33-0.803-0.355-1.129-0.059c-0.328,0.297-0.354,0.807-0.057,1.137
			c0.299,0.33,0.803,0.357,1.131,0.059C115.494,120.918,115.52,120.41,115.223,120.078z"/>
	</g>
	<g>
		<path fill="#278972" d="M95.078,109.254c1.68-1.096,3.924-0.611,5.018,1.082c1.09,1.693,0.615,3.953-1.064,5.049
			c-1.678,1.094-3.924,0.609-5.018-1.084C92.924,112.611,93.398,110.35,95.078,109.254z"/>
	</g>
	<g>
		<path fill="#278972" d="M73.127,122.934c1.68-1.096,3.926-0.611,5.018,1.082s0.615,3.953-1.063,5.049
			c-1.68,1.094-3.924,0.609-5.018-1.084C70.973,126.291,71.449,124.027,73.127,122.934z"/>
	</g>
	<g>
		<path fill="#278972" d="M135.777,110.789c1.451-0.945,3.391-0.527,4.336,0.936c0.941,1.463,0.531,3.416-0.918,4.363
			c-1.453,0.945-3.393,0.527-4.338-0.936C133.916,113.689,134.326,111.736,135.777,110.789z"/>
	</g>
	<g>
		<path fill="#278972" d="M67.729,95.996c1.145-0.758,2.68-0.43,3.432,0.732c0.748,1.162,0.43,2.719-0.715,3.477
			c-1.146,0.758-2.682,0.43-3.434-0.732C66.264,98.313,66.584,96.754,67.729,95.996z"/>
	</g>
	<g>
		<path fill="#278972" d="M115.941,91.184c0.832-0.547,1.947-0.309,2.492,0.535c0.543,0.844,0.311,1.971-0.521,2.518
			c-0.83,0.547-1.945,0.307-2.49-0.535C114.877,92.857,115.109,91.73,115.941,91.184z"/>
	</g>
	<path fill="#C7E1A7" d="M125.012,94.055c0.73-0.084,1.424-0.162,2.096-0.242c-0.213-2.566-0.627-4.762-0.963-6.236
		c-0.939-4.658-3.699-10.025-12.531-11.748c-0.271-1.086,1.244-8.445-5.221-14.48c0,0,0.676,5.361-7.998,13.469
		c-4.402,3.932-9.947,7.303-14.158,9.594C92.02,89.326,104.238,96.438,125.012,94.055z"/>
	<g>
		<path fill="#278972" d="M117.322,75.709c1.199-0.781,2.799-0.439,3.576,0.766c0.775,1.205,0.432,2.814-0.766,3.596
			c-1.199,0.781-2.801,0.438-3.578-0.768C115.779,78.1,116.123,76.488,117.322,75.709z"/>
	</g>
	<g>
		<path fill="#278972" d="M96.895,88.732c0.836-0.592,1.984-0.334,2.566,0.578c0.578,0.91,0.371,2.127-0.465,2.719
			c-0.836,0.59-1.984,0.332-2.566-0.578C95.85,90.543,96.059,89.324,96.895,88.732z"/>
	</g>
	<g>
		<path fill="#FFFFFF" d="M121.848,92.168c0.326,0.773,1.217,1.129,1.982,0.797c0.768-0.332,1.125-1.225,0.797-1.996
			c-0.326-0.773-1.215-1.129-1.982-0.799C121.877,90.502,121.52,91.395,121.848,92.168z"/>
		<path fill="#FFFFFF" d="M117.869,92.74c0.275,0.65,1.021,0.947,1.666,0.67c0.646-0.279,0.947-1.029,0.67-1.68
			c-0.273-0.648-1.021-0.947-1.666-0.67C117.895,91.34,117.594,92.09,117.869,92.74z"/>
		<path fill="#FFFFFF" d="M114.762,92.422c0.193,0.457,0.719,0.666,1.17,0.471c0.453-0.195,0.664-0.723,0.471-1.178
			s-0.719-0.666-1.17-0.471S114.568,91.967,114.762,92.422z"/>
		<path fill="#FFFFFF" d="M111.76,92.014c0.172,0.408,0.643,0.596,1.049,0.42c0.404-0.174,0.596-0.646,0.422-1.055
			c-0.174-0.41-0.645-0.598-1.049-0.422C111.775,91.133,111.586,91.605,111.76,92.014z"/>
	</g>
	<polygon fill="#E7E2B9" points="108.482,39.41 112.811,48.182 122.492,49.59 115.486,56.418 117.141,66.059 108.482,61.508 
		99.822,66.061 101.477,56.418 94.471,49.59 104.152,48.182 	"/>
</g>
</svg>
