<?xml version="1.0" encoding="utf-8"?>
<!-- Generator: Adobe Illustrator 22.1.0, SVG Export Plug-In . SVG Version: 6.00 Build 0)  -->
<svg version="1.1" id="Слой_1" xmlns="http://www.w3.org/2000/svg" xmlns:xlink="http://www.w3.org/1999/xlink" x="0px" y="0px"
	 viewBox="0 0 512 512" style="enable-background:new 0 0 512 512;" xml:space="preserve">
<style type="text/css">
	.st0{fill:#5A5A5A;}
	.st1{fill:#444444;}
	.st2{fill:#FDBF00;}
	.st3{fill:#FF9F00;}
	.st4{fill:#00CC71;}
	.st5{fill:#FFD400;}
	.st6{fill:#FF4D4D;}
	.st7{fill:#F4BF1A;}
	.st8{fill:#FFD949;}
	.st9{fill:#DCA815;}
	.st10{fill:#D1D4D2;}
</style>
<path class="st0" d="M256,31C115.3,31,0,145.3,0,286c0,73.2,32.5,142.8,87.4,191.4l4.2,3.6h328.8l4.2-3.6
	C479.5,428.8,512,359.2,512,286C512,145.3,396.7,31,256,31z"/>
<path class="st1" d="M512,286c0,73.2-32.5,142.8-87.4,191.4l-4.2,3.6H256V31C396.7,31,512,145.3,512,286z"/>
<path d="M343.4,128l25,16.6L335,194.5l-25-16.6L343.4,128z"/>
<path class="st2" d="M91,361h60v30H91V361z"/>
<path class="st3" d="M361,361h60v30h-60V361z"/>
<path class="st4" d="M330.2,211.8c19,19,30.8,45.3,30.8,74.2v15h90v-15c0-53.8-21.9-102.5-57.2-137.8L331,151L330.2,211.8z"/>
<path class="st5" d="M118.2,148.2L121,211l60.8,0.8c19-19,45.3-30.8,74.2-30.8V91C202.2,91,153.5,112.9,118.2,148.2z"/>
<path class="st2" d="M393.8,148.2C358.5,112.9,309.8,91,256,91l-30,49.7l30,40.3c28.9,0,55.2,11.8,74.2,30.8L393.8,148.2z"/>
<path class="st0" d="M241,331h30v30h-30V331z"/>
<path class="st1" d="M256,331h15v30h-15V331z"/>
<path class="st6" d="M61,286v15h90v-15c0-28.9,11.8-55.2,30.8-74.2l-63.6-63.6C82.9,183.5,61,232.2,61,286z"/>
<g id="XMLID_90_">
	<path id="XMLID_122_" class="st7" d="M299.2,332.9c-29.4,29.4-72.9,34.3-101.2,12.9c1.7,2.3,3.6,4.5,5.7,6.6
		c27.8,27.8,76.1,24.6,107.9-7.2c31.8-31.8,35-80.1,7.2-107.9c-2.1-2.1-4.3-4-6.6-5.7C333.5,260,328.6,303.5,299.2,332.9"/>
	<path id="XMLID_121_" class="st8" d="M306.4,225c27.8,27.8,24.6,76.1-7.2,107.9c-31.8,31.8-80.1,35-107.9,7.2
		c-27.8-27.8-24.6-76.1,7.2-107.9S278.6,197.2,306.4,225"/>
	<path id="XMLID_89_" class="st7" d="M238.7,347.4c-15.2,0-29.1-5.5-39.1-15.5c-23.2-23.2-20-64.2,7.2-91.4
		c14.4-14.4,33.5-22.7,52.3-22.7c15.2,0,29.1,5.5,39.1,15.5c23.2,23.2,20,64.2-7.2,91.4C276.6,339.1,257.5,347.4,238.7,347.4"/>
	<path id="XMLID_119_" class="st9" d="M301.2,330.8l12.4,12.4c1.3-1.4,2.6-2.9,3.9-4.4l-12.3-12.3
		C303.8,327.9,302.5,329.3,301.2,330.8"/>
	<path id="XMLID_118_" class="st9" d="M290.4,340.5l12.4,12.4c1.5-1.2,3-2.4,4.5-3.7l-12.4-12.4C293.5,338.1,292,339.4,290.4,340.5"
		/>
	<path id="XMLID_117_" class="st9" d="M310.3,319.4l12.4,12.4c1.1-1.7,2.2-3.3,3.2-5l-12.3-12.3
		C312.5,316.1,311.5,317.7,310.3,319.4"/>
	<path id="XMLID_116_" class="st9" d="M317.7,306.2l12.4,12.4c0.9-1.9,1.7-3.9,2.4-5.8l-12.4-12.4
		C319.4,302.4,318.6,304.3,317.7,306.2"/>
	<path id="XMLID_115_" class="st9" d="M278,348.7l12.4,12.4c1.8-0.9,3.5-1.9,5.2-3l-12.4-12.4C281.5,346.7,279.8,347.7,278,348.7"/>
	<path id="XMLID_114_" class="st9" d="M263.7,354.9l12.4,12.4c2-0.7,4-1.4,6-2.2l-12.4-12.4C267.7,353.5,265.7,354.2,263.7,354.9"/>
	<path id="XMLID_113_" class="st9" d="M243,358.8l12.4,12.4c2.5-0.1,5-0.4,7.4-0.8L250.4,358C247.9,358.4,245.4,358.7,243,358.8"/>
	<path id="XMLID_112_" class="st9" d="M220.1,356.5l12.4,12.4c3.3,0.9,6.7,1.5,10.1,1.9l-12.4-12.4
		C226.8,358,223.4,357.4,220.1,356.5"/>
	<path id="XMLID_111_" class="st9" d="M323.8,287.6l12.4,12.4c0.5-2.4,0.8-4.8,1.1-7.1l-12.4-12.4
		C324.6,282.8,324.2,285.2,323.8,287.6"/>
	<path id="XMLID_88_" class="st9" d="M337.5,280.8c-0.2-3.1-0.5-6.2-1.1-9.3L324,259.1c0.6,3.1,1,6.2,1.2,9.4L337.5,280.8z"/>
	<path id="XMLID_109_" class="st10" d="M188.2,370.1c-8,0-14.5-6.5-14.5-14.5c0-1.6,1.3-2.9,2.9-2.9c1.6,0,2.9,1.3,2.9,2.9
		c0,4.8,3.9,8.7,8.7,8.7c1.6,0,2.9,1.3,2.9,2.9S189.8,370.1,188.2,370.1"/>
	<path id="XMLID_108_" class="st10" d="M333.5,224.8c-1.6,0-2.9-1.3-2.9-2.9c0-6.4-3.9-11.6-8.7-11.6c-1.6,0-2.9-1.3-2.9-2.9
		c0-1.6,1.3-2.9,2.9-2.9c8,0,14.5,7.8,14.5,17.4C336.4,223.5,335.1,224.8,333.5,224.8"/>
	<path id="XMLID_107_" class="st10" d="M304.4,367.2c-1.6,0-2.9-1.3-2.9-2.9c0-1.6,1.3-2.9,2.9-2.9c14.4,0,26.1-11.7,26.1-26.1
		c0-1.6,1.3-2.9,2.9-2.9c1.6,0,2.9,1.3,2.9,2.9C336.4,352.8,322.1,367.2,304.4,367.2"/>
	<path id="XMLID_106_" class="st10" d="M324.8,373c-1.6,0-2.9-1.3-2.9-2.9c0-1.6,1.3-2.9,2.9-2.9c4.7,0,8.7-2.7,8.7-5.8
		c0-1.6,1.3-2.9,2.9-2.9s2.9,1.3,2.9,2.9C339.3,367.8,332.8,373,324.8,373"/>
	<path id="XMLID_105_" class="st8" d="M282.7,270.9c-0.7-16.9-13.2-23.4-32.2-23.5c-0.8,0-1.7,0-2.5,0.1c-5.9,0.4-11.5-0.6-15.5-3.3
		c-1.6-1.1-2.9-2.2-3.7-3.4c-0.4-0.5-1.4-0.2-1.4,0.5c-0.1,1.2-0.2,2.6-0.1,4.2c0.1,5.9-0.5,5-4.1,10.5c-2,3.1-3.6,6.5-4.7,10.2
		c-2.6,1.1-4.7,3.3-5.3,6.2l-0.8,3.7c-0.7,3.4,0.9,6.5,3.8,7.9c0.4,8.4,3.5,15.9,11,21.1l-0.9,5.1c-0.2,1.3-1.2,2.3-2.4,2.6
		l-17.3,4.2c-4.5,1.3-8,5.3-9.1,10.4l-0.3,1.2c0.9,1,1.8,2.1,2.7,3.1c10,10,23.9,15.5,39.1,15.5c13,0,26.1-3.9,37.7-11.1L256.6,321
		c-1.3-1-2-2.5-1.8-4l0.8-5.7c11.1-2,18.4-8.9,22.7-18.4c5-0.6,9-3.8,9.4-8.3l0.5-4.9C288.6,276.1,286.2,272.8,282.7,270.9"/>
</g>
</svg>
