<?xml version="1.0" encoding="utf-8"?>
<!-- Generator: Adobe Illustrator 16.0.0, SVG Export Plug-In . SVG Version: 6.00 Build 0)  -->
<!DOCTYPE svg PUBLIC "-//W3C//DTD SVG 1.1//EN" "http://www.w3.org/Graphics/SVG/1.1/DTD/svg11.dtd">
<svg version="1.1" id="Layer_1" xmlns="http://www.w3.org/2000/svg" xmlns:xlink="http://www.w3.org/1999/xlink" x="0px" y="0px"
	 width="216px" height="216px" viewBox="0 0 216 216" enable-background="new 0 0 216 216" xml:space="preserve">
<g>
	<circle fill="#5DABB5" cx="108" cy="108" r="108"/>
	<g>
		<rect x="62.059" y="87.22" fill="#D64542" width="91.883" height="75.789"/>
		<polygon fill="#C93131" points="153.941,87.227 62.059,87.228 74.943,74.736 141.057,74.736 		"/>
		<rect x="95.801" y="87.22" fill="#EAEAEA" width="24.399" height="75.789"/>
		<polygon fill="#D3D3D3" points="120.2,87.18 95.801,87.18 100.12,74.736 115.881,74.736 		"/>
		<g>
			<ellipse fill="#D64542" cx="107.996" cy="77.176" rx="6.189" ry="4.344"/>
			<path fill="#EAEAEA" d="M145.434,58.538c-5.05-5.861-11.371-5.544-12.571-5.544c-4.626,0.035-7.239,2.26-7.944,2.648
				c-4.415,2.896-6.709,10.381-7.557,12.218c-1.89,4.128-3.682,6.243-4.258,6.864c0.683,0.696,1.082,1.542,1.082,2.451
				c0,0.301-0.043,0.594-0.126,0.877c0.528-0.201,1.44-0.559,1.925-0.8c2.506-1.024,6.779-6.286,8.686-8.087
				c5.721-6.179,14.055-5.296,15.714-5.21c6.214,0.264,9.463,4.751,9.909,5.493C147.455,60.479,146.246,59.773,145.434,58.538z"/>
			<path fill="#DCDBDB" d="M150.589,70.094l-0.366-0.756c-0.512-0.783-2.633-3.521-6.432-4.768c-0.17,1.641-1.005,3.548-1.573,4.72
				c-4.654,8.103-14.196,8.203-16.139,8.303c-5.089,0.102-9.408-0.417-9.408-0.417l-0.416-0.047
				c-0.093,0.046-0.183,0.088-0.271,0.124c-0.484,0.241-1.396,0.599-1.925,0.8c-0.253,0.867-0.876,1.64-1.745,2.234
				c0.742,0.336,2.326,1.014,4.356,1.659c5.894,1.439,11.351,1.573,12.021,1.54c10.01,0.268,13.526-2.177,14.698-2.746
				C151.827,76.153,150.589,70.094,150.589,70.094z"/>
			<path fill="#EAEAEA" d="M151.431,101.565L151.431,101.565c0,0-0.036-0.147-0.11-0.411c-0.102-0.372-0.21-0.749-0.326-1.128
				c-0.533-1.74-1.22-3.508-2.092-5.043c-0.795-1.593-1.799-3.307-3.044-4.942c-0.106-0.142-0.213-0.281-0.321-0.416
				c-0.002-0.002-0.004-0.005-0.006-0.007l0,0c-0.935-1.159-2.007-2.1-4.032-3.771l0,0c0,0-0.004-0.003-0.005-0.004
				c-0.041-0.033-0.08-0.065-0.121-0.101c-0.01-0.006-0.024-0.015-0.036-0.022c-0.543-0.424-2.362-1.846-3.676-2.882
				c-0.976,0.2-2.099,0.372-3.395,0.491c0,0,0,0,0.001,0.001c-0.164,0.016-0.333,0.028-0.502,0.042
				c-0.051,0.004-0.101,0.009-0.15,0.013c-0.21,0.015-0.422,0.029-0.639,0.042c-0.083,0.006-0.168,0.009-0.252,0.014
				c-0.156,0.008-0.313,0.016-0.473,0.022c-0.097,0.005-0.195,0.008-0.293,0.011c-0.154,0.006-0.31,0.011-0.467,0.016
				c-0.103,0.002-0.206,0.004-0.311,0.007c-0.162,0.003-0.326,0.005-0.492,0.007c-0.102,0.001-0.205,0.002-0.309,0.002
				c-0.182,0.001-0.368,0-0.556-0.001c-0.092-0.001-0.183-0.001-0.274-0.001c-0.281-0.004-0.568-0.01-0.859-0.017
				c-0.67,0.033-6.127-0.101-12.021-1.54c-2.03-0.646-3.614-1.323-4.356-1.659c0.003-0.002,0.006-0.004,0.008-0.007
				c-0.368,0.254-0.783,0.476-1.233,0.658v0.001c0,0,2.882,1.433,4.683,2.422c5.297,3.072,8.898,3.708,15.748,18.009
				c2.756,6.78,3.215,7.489,5.086,14.815h0.102l7.396-7.806h8.594C152.697,108.38,152.392,105.225,151.431,101.565z"/>
			<path fill="#EAEAEA" d="M70.566,58.538c5.05-5.861,11.371-5.544,12.57-5.544c4.627,0.035,7.239,2.26,7.945,2.648
				c4.414,2.896,6.709,10.381,7.557,12.218c1.89,4.128,3.682,6.243,4.258,6.864c-0.683,0.697-1.082,1.542-1.082,2.452
				c0,0.3,0.043,0.593,0.126,0.876c-0.528-0.201-1.44-0.558-1.925-0.8c-2.506-1.024-6.779-6.285-8.686-8.087
				c-5.721-6.179-14.055-5.296-15.714-5.209c-6.214,0.263-9.464,4.75-9.909,5.492C68.545,60.48,69.754,59.773,70.566,58.538z"/>
			<path fill="#DCDBDB" d="M65.411,70.094l0.366-0.756c0.512-0.783,2.633-3.521,6.432-4.768c0.169,1.641,1.005,3.548,1.573,4.72
				c4.653,8.103,14.196,8.203,16.139,8.303c5.089,0.102,9.408-0.416,9.408-0.416l0.416-0.048c0.092,0.046,0.183,0.088,0.271,0.124
				c0.484,0.242,1.396,0.599,1.925,0.8c0.253,0.868,0.876,1.64,1.745,2.235c-0.742,0.335-2.326,1.014-4.356,1.658
				c-5.894,1.439-11.351,1.573-12.021,1.54C77.298,83.754,73.782,81.31,72.61,80.74C64.173,76.153,65.411,70.094,65.411,70.094z"/>
			<path fill="#EAEAEA" d="M64.569,101.565L64.569,101.565c-0.001,0,0.036-0.147,0.109-0.41c0.103-0.373,0.211-0.75,0.327-1.129
				c0.532-1.74,1.22-3.508,2.092-5.043c0.795-1.593,1.799-3.307,3.044-4.942c0.106-0.142,0.213-0.28,0.321-0.416
				c0.002-0.002,0.004-0.005,0.006-0.007l0,0c0.935-1.159,2.007-2.1,4.032-3.771l0,0l0.004-0.004c0.042-0.033,0.081-0.065,0.122-0.1
				c0.01-0.007,0.024-0.016,0.036-0.023c0.543-0.424,2.362-1.846,3.676-2.882c0.976,0.2,2.099,0.372,3.395,0.491
				c0,0,0,0-0.001,0.001c0.164,0.016,0.332,0.028,0.502,0.042c0.051,0.004,0.101,0.009,0.15,0.013
				c0.209,0.015,0.422,0.029,0.639,0.042c0.083,0.006,0.168,0.009,0.252,0.014c0.156,0.008,0.313,0.017,0.473,0.022
				c0.097,0.005,0.195,0.008,0.293,0.011c0.154,0.007,0.309,0.011,0.467,0.016c0.103,0.003,0.206,0.004,0.311,0.007
				c0.161,0.003,0.325,0.005,0.491,0.007c0.103,0.002,0.205,0.002,0.31,0.002c0.182,0.001,0.368,0,0.556,0
				c0.092-0.001,0.183-0.001,0.274-0.002c0.281-0.004,0.568-0.01,0.859-0.017c0.67,0.033,6.127-0.101,12.021-1.54
				c2.03-0.645,3.614-1.323,4.356-1.658c-0.003-0.003-0.006-0.005-0.008-0.008c0.368,0.255,0.783,0.476,1.232,0.658v0.001
				c0,0-2.881,1.434-4.682,2.423c-5.297,3.071-8.899,3.707-15.749,18.008c-2.755,6.78-3.214,7.489-5.085,14.815h-0.102l-7.397-7.806
				h-8.593C63.303,108.38,63.608,105.225,64.569,101.565z"/>
		</g>
	</g>
</g>
</svg>
