<?xml version="1.0" encoding="utf-8"?>
<!-- Generator: Adobe Illustrator 16.0.0, SVG Export Plug-In . SVG Version: 6.00 Build 0)  -->
<!DOCTYPE svg PUBLIC "-//W3C//DTD SVG 1.1//EN" "http://www.w3.org/Graphics/SVG/1.1/DTD/svg11.dtd">
<svg version="1.1" id="Layer_1" xmlns="http://www.w3.org/2000/svg" xmlns:xlink="http://www.w3.org/1999/xlink" x="0px" y="0px"
	 width="216px" height="216px" viewBox="0 0 216 216" enable-background="new 0 0 216 216" xml:space="preserve">
<g>
	<circle fill="#EDEDF7" cx="108" cy="108" r="108"/>
	<path fill="#F2F2F2" d="M13.098,159.59C31.404,193.195,67.039,216,108,216s76.596-22.805,94.902-56.41H13.098z"/>
	<g>
		<path fill="#F4D4BE" d="M163.977,152.49c-0.803-3.402-3.25-6.135-6.717-7.971c-0.77-0.408-1.59-0.773-2.455-1.09
			c-3.064-1.506-8.34-4.604-11.924-9.457c-0.973-1.621-8.332-11.52-2.502-21.15c0.098-0.16,0.197-0.322,0.305-0.482
			c0.051-0.078,0.104-0.158,0.156-0.238c0.098-0.141,0.695-0.791,1.031-1.039c0.258-0.189,0.52-0.369,0.68-0.453
			c3.373-1.791,9.002-4.875,12.475-8.107c0.514-0.461,0.992-0.959,1.432-1.494c0.002-0.002,0.004-0.004,0.006-0.006c0,0,0,0-0.002,0
			c1.934-2.355,3.096-5.369,3.096-8.652c0-7.537-6.109-13.646-13.646-13.646c-1.99,0-3.881,0.432-5.588,1.199l0,0l-0.004,0.002
			c-0.516,0.232-1.018,0.492-1.496,0.783l-5.645,2.961c-0.381,0.152-5.1,3.195-8.371-1.674c-0.254-0.637-0.662-1.486-0.568-2.592
			c5.738-4.703,9.4-11.844,9.4-19.842c0-14.16-11.479-25.639-25.639-25.639S82.361,45.381,82.361,59.541
			c0,7.996,3.662,15.137,9.398,19.84c0.096,1.107-0.313,1.957-0.566,2.594c-3.273,4.869-7.992,1.826-8.371,1.674l-5.645-2.961
			c-0.48-0.291-0.98-0.551-1.496-0.783l-0.006-0.002l0,0c-1.705-0.768-3.596-1.199-5.588-1.199c-7.535,0-13.645,6.109-13.645,13.646
			c0,3.283,1.16,6.297,3.094,8.652l0,0c0.002,0.002,0.004,0.004,0.006,0.006c0.438,0.535,0.916,1.033,1.43,1.494
			c3.473,3.232,9.102,6.316,12.477,8.107c0.158,0.084,0.422,0.264,0.678,0.453c0.336,0.248,0.936,0.898,1.031,1.039
			c0.055,0.08,0.107,0.16,0.158,0.238c0.105,0.16,0.207,0.322,0.305,0.482c5.828,9.631-1.531,19.529-2.504,21.15
			c-3.584,4.854-8.857,7.951-11.924,9.457c-0.863,0.316-1.684,0.682-2.455,1.09c-3.465,1.836-5.914,4.568-6.715,7.971
			c-1.949,8.258,6.52,17.322,18.912,20.244c7.691,1.814,15.084,0.836,20.053-2.139h0.002c0.025-0.014,0.049-0.029,0.072-0.043
			c0.016-0.01,0.033-0.02,0.049-0.029c0.703-0.396,1.357-0.875,1.967-1.418c1.121-0.957,2.043-2.047,2.729-3.258
			c3.422-5.285,4.713-12.576,5.305-15.232c1.48-6.666,5.096-8.24,6.41-8.598c0.086-0.023,0.352-0.072,0.432-0.074
			c0.133,0,0.291,0.016,0.424,0.047c1.215,0.303,4.988,1.777,6.512,8.625c0.59,2.656,1.881,9.947,5.303,15.232
			c0.686,1.211,1.609,2.301,2.73,3.258c0.609,0.543,1.262,1.021,1.965,1.418c0.016,0.01,0.033,0.02,0.049,0.029
			c0.025,0.014,0.049,0.029,0.074,0.043l0,0c4.971,2.975,12.363,3.953,20.053,2.139C157.457,169.813,165.924,160.748,163.977,152.49
			z"/>
		<g>
			<circle fill="#564A3D" cx="101.791" cy="55.596" r="2.498"/>
			<circle fill="#564A3D" cx="114.208" cy="55.596" r="2.499"/>
		</g>
		<g>
			<path fill="#564A3D" d="M107.811,69.064c-0.287,0-0.531-0.014-0.721-0.031c-4.033-0.563-5.311-3.793-5.428-5.424
				c-0.029-0.412,0.279-0.77,0.691-0.799c0.412-0.027,0.768,0.279,0.799,0.688l0,0c0.012,0.145,0.328,3.523,4.107,4.051
				c1.396,0.121,4.816-0.023,5.598-4.133c0.078-0.406,0.473-0.668,0.875-0.594c0.404,0.076,0.67,0.467,0.594,0.873
				C113.422,68.436,109.711,69.064,107.811,69.064z"/>
		</g>
		<g>
			<circle fill="#564A3D" cx="107.999" cy="101.197" r="2.104"/>
			<circle fill="#564A3D" cx="107.999" cy="110.465" r="2.104"/>
			<circle fill="#564A3D" cx="107.999" cy="119.732" r="2.104"/>
		</g>
		<g>
			<path fill="#D64542" d="M122.064,80.658c-1.633-2.664-2.732-2.1-3.332-1.699c-0.547,0.365-6.041,5.041-7.004,5.863
				c-0.744-1.297-2.127-2.182-3.729-2.182c-1.604,0-2.986,0.885-3.729,2.182c-0.963-0.82-6.457-5.498-7.004-5.863
				c-0.602-0.4-1.701-0.965-3.332,1.699c-0.566,1.1-2.365,5.697,0,13.459c0.266,0.4,0.799,2.434,4.064,0
				c1.699-1.332,6.096-4.695,6.096-4.695l0.258-0.182c0.764,1.217,2.105,2.029,3.646,2.029s2.883-0.813,3.646-2.029l0.256,0.182
				c0,0,4.398,3.363,6.098,4.695c3.264,2.434,3.797,0.4,4.064,0C124.43,86.355,122.631,81.758,122.064,80.658z"/>
		</g>
		<path fill="#FFFFFF" d="M97.756,157.813c0.023-0.4-0.197-0.775-0.559-0.953l-0.299-0.145c-0.238-0.115-0.51-0.131-0.76-0.047
			l-1.807,0.623l-0.334-0.963c-0.002-0.004-0.004-0.008-0.006-0.012l-0.502-1.445c-0.336-0.977-1.482-1.533-2.461-1.197l-1.75,0.604
			c-0.02,0.006-0.035,0.016-0.051,0.023l-0.615,0.211l-0.334-0.963c0-0.004-0.004-0.006-0.004-0.012l-0.502-1.445
			c-0.336-0.977-1.484-1.533-2.461-1.197l-1.625,0.561l-0.004,0.002l-0.793,0.273l-0.336-0.965c0-0.002-0.002-0.006-0.004-0.01
			l-0.502-1.445c-0.336-0.979-1.484-1.535-2.461-1.197l-0.578,0.199c-0.014,0.004-0.029,0.004-0.043,0.01l-1.809,0.623l-0.332-0.963
			c-0.002-0.004-0.004-0.008-0.006-0.012l-0.5-1.445c-0.338-0.979-1.486-1.535-2.461-1.197l-1.752,0.604
			c-0.02,0.006-0.037,0.016-0.053,0.023l-0.613,0.211l-0.334-0.963c0-0.004-0.002-0.006-0.004-0.01l-0.502-1.447
			c-0.338-0.977-1.484-1.535-2.461-1.197l-3.287,1.133c-0.379,0.129-0.643,0.477-0.668,0.877c-0.023,0.4,0.197,0.777,0.559,0.951
			l0.299,0.146c0.238,0.115,0.512,0.133,0.76,0.045l2.793-0.961l0.502,1.453c0.002,0.002,0.004,0.006,0.006,0.008l0.332,0.959
			c0.168,0.49,0.516,0.883,0.982,1.109c0.465,0.225,0.99,0.256,1.479,0.088l2.004-0.691c0.012-0.004,0.021-0.012,0.033-0.016
			l0.379-0.131l0.504,1.453c0.002,0.004,0.002,0.006,0.004,0.01l0.332,0.957c0.168,0.488,0.518,0.883,0.982,1.107
			c0.465,0.227,0.992,0.258,1.479,0.09l0.902-0.311c0.014-0.004,0.029-0.006,0.043-0.01l1.484-0.512l0.504,1.453
			c0.002,0.004,0.002,0.006,0.004,0.01l0.332,0.957c0.168,0.488,0.518,0.883,0.982,1.107c0.465,0.227,0.99,0.258,1.479,0.09
			l2.004-0.689c0,0,0.002-0.002,0.004-0.004l0.416-0.143l0.502,1.453c0.002,0.002,0.002,0.006,0.004,0.008l0.334,0.961
			c0.168,0.488,0.518,0.881,0.982,1.107c0.465,0.225,0.99,0.258,1.479,0.09l2.004-0.691c0.012-0.004,0.021-0.014,0.033-0.018
			l0.379-0.131l0.504,1.453c0,0.004,0.004,0.006,0.004,0.012l0.332,0.957c0.168,0.488,0.518,0.881,0.982,1.107
			c0.465,0.225,0.99,0.258,1.48,0.088l2.301-0.793C97.469,158.559,97.73,158.213,97.756,157.813z"/>
		<path fill="#FFFFFF" d="M118.736,157.813c-0.023-0.4,0.195-0.775,0.557-0.953l0.301-0.145c0.236-0.115,0.51-0.131,0.758-0.047
			l1.809,0.623l0.334-0.963c0-0.004,0.004-0.008,0.004-0.012l0.502-1.445c0.336-0.977,1.484-1.533,2.461-1.197l1.752,0.604
			c0.018,0.006,0.033,0.016,0.049,0.023l0.615,0.211l0.334-0.963c0.002-0.004,0.004-0.006,0.006-0.012l0.5-1.445
			c0.338-0.977,1.486-1.533,2.463-1.197l1.623,0.561l0.004,0.002l0.795,0.273l0.334-0.965c0-0.002,0.004-0.006,0.004-0.01
			l0.502-1.445c0.338-0.979,1.484-1.535,2.461-1.197l0.58,0.199c0.014,0.004,0.027,0.004,0.041,0.01l1.809,0.623l0.334-0.963
			c0-0.004,0.004-0.008,0.004-0.012l0.502-1.445c0.336-0.979,1.486-1.535,2.461-1.197l1.752,0.604
			c0.018,0.006,0.035,0.016,0.053,0.023l0.613,0.211l0.332-0.963c0.002-0.004,0.004-0.006,0.004-0.01l0.502-1.447
			c0.338-0.977,1.484-1.535,2.461-1.197l3.287,1.133c0.381,0.129,0.645,0.477,0.668,0.877s-0.197,0.777-0.559,0.951l-0.299,0.146
			c-0.236,0.115-0.51,0.133-0.76,0.045l-2.791-0.961l-0.504,1.453c0,0.002-0.004,0.006-0.004,0.008l-0.332,0.959
			c-0.17,0.49-0.518,0.883-0.982,1.109c-0.465,0.225-0.99,0.256-1.479,0.088l-2.004-0.691c-0.012-0.004-0.023-0.012-0.035-0.016
			l-0.379-0.131l-0.502,1.453c-0.002,0.004-0.004,0.006-0.006,0.01l-0.332,0.957c-0.168,0.488-0.518,0.883-0.982,1.107
			c-0.465,0.227-0.99,0.258-1.479,0.09l-0.902-0.311c-0.014-0.004-0.027-0.006-0.043-0.01l-1.482-0.512l-0.504,1.453
			c-0.002,0.004-0.004,0.006-0.004,0.01l-0.332,0.957c-0.17,0.488-0.52,0.883-0.984,1.107c-0.465,0.227-0.99,0.258-1.479,0.09
			l-2.004-0.689c0,0-0.002-0.002-0.004-0.004l-0.414-0.143l-0.504,1.453c0,0.002-0.002,0.006-0.004,0.008l-0.332,0.961
			c-0.17,0.488-0.518,0.881-0.982,1.107c-0.467,0.225-0.99,0.258-1.48,0.09l-2.002-0.691c-0.014-0.004-0.023-0.014-0.035-0.018
			l-0.379-0.131l-0.502,1.453c-0.002,0.004-0.004,0.006-0.006,0.012l-0.33,0.957c-0.17,0.488-0.52,0.881-0.984,1.107
			c-0.465,0.225-0.99,0.258-1.479,0.088l-2.301-0.793C119.023,158.559,118.76,158.213,118.736,157.813z"/>
		<path fill="#FFFFFF" d="M138.842,83.219c0.262-0.016,0.508,0.127,0.621,0.363l0.096,0.195c0.076,0.156,0.086,0.334,0.031,0.498
			l-0.406,1.182l0.629,0.217c0.002,0.002,0.004,0.004,0.008,0.004l0.943,0.328c0.639,0.221,1.004,0.969,0.783,1.609l-0.395,1.145
			c-0.002,0.012-0.01,0.021-0.014,0.031L141,89.195l0.629,0.217l0.008,0.004l0.945,0.328c0.637,0.221,1.002,0.971,0.781,1.609
			L143,92.416l-0.002,0.002l-0.178,0.52l0.629,0.219c0,0,0.004,0,0.006,0.002l0.945,0.328c0.639,0.221,1.004,0.971,0.783,1.609
			l-0.131,0.377c-0.002,0.01-0.002,0.02-0.006,0.027l-0.406,1.184l0.629,0.217c0.002,0.002,0.004,0.004,0.008,0.004l0.943,0.328
			c0.639,0.221,1.004,0.971,0.783,1.609l-0.395,1.145c-0.004,0.012-0.01,0.023-0.016,0.035l-0.137,0.4l0.629,0.217
			c0.002,0.002,0.004,0.004,0.004,0.004l0.949,0.328c0.639,0.221,1.002,0.971,0.781,1.609l-0.738,2.148
			c-0.084,0.248-0.311,0.42-0.572,0.436c-0.264,0.016-0.508-0.127-0.623-0.363l-0.096-0.195c-0.074-0.156-0.086-0.334-0.029-0.498
			l0.627-1.824l-0.949-0.33c0,0-0.002-0.002-0.006-0.002l-0.625-0.219c-0.32-0.109-0.576-0.338-0.725-0.643
			c-0.148-0.303-0.168-0.646-0.059-0.967l0.451-1.309c0.002-0.008,0.008-0.016,0.01-0.023l0.086-0.246l-0.949-0.33
			c-0.002,0-0.004-0.002-0.006-0.002l-0.627-0.217c-0.318-0.111-0.576-0.34-0.723-0.643c-0.148-0.305-0.17-0.648-0.059-0.967
			l0.201-0.59c0.004-0.01,0.004-0.02,0.008-0.029l0.334-0.969l-0.949-0.33c0,0-0.004-0.002-0.008-0.002l-0.625-0.217
			c-0.32-0.111-0.576-0.34-0.725-0.645c-0.146-0.303-0.168-0.646-0.059-0.965l0.451-1.313c0,0,0,0,0.002,0l0.092-0.271l-0.947-0.33
			l-0.006-0.002l-0.629-0.219c-0.318-0.109-0.574-0.338-0.723-0.643c-0.148-0.303-0.168-0.646-0.059-0.967l0.449-1.309
			c0.004-0.008,0.01-0.016,0.012-0.023l0.086-0.248l-0.949-0.328c-0.002,0-0.004-0.002-0.008-0.004l-0.625-0.217
			c-0.318-0.109-0.574-0.338-0.725-0.641c-0.146-0.305-0.168-0.648-0.059-0.969l0.518-1.504
			C138.354,83.406,138.58,83.234,138.842,83.219z"/>
		<path fill="#FFFFFF" d="M77.158,83.219c-0.264-0.016-0.508,0.127-0.623,0.363l-0.096,0.195c-0.074,0.156-0.086,0.334-0.029,0.498
			l0.406,1.182l-0.629,0.217c-0.004,0.002-0.006,0.004-0.008,0.004l-0.945,0.328c-0.639,0.221-1.002,0.969-0.781,1.609l0.393,1.145
			c0.004,0.012,0.012,0.021,0.016,0.031L75,89.195l-0.631,0.217c-0.002,0.002-0.004,0.004-0.004,0.004l-0.947,0.328
			c-0.639,0.221-1.004,0.971-0.783,1.609L73,92.416v0.002l0.18,0.52l-0.629,0.219c-0.004,0-0.004,0-0.006,0.002l-0.947,0.328
			c-0.637,0.221-1.002,0.971-0.781,1.609l0.129,0.377c0.004,0.01,0.004,0.02,0.008,0.027l0.406,1.184L70.73,96.9
			c-0.004,0.002-0.006,0.004-0.008,0.004l-0.945,0.328c-0.639,0.221-1.002,0.971-0.783,1.609l0.395,1.145
			c0.004,0.012,0.012,0.023,0.016,0.035l0.139,0.4l-0.631,0.217c-0.002,0.002-0.004,0.004-0.006,0.004l-0.945,0.328
			c-0.639,0.221-1.004,0.971-0.783,1.609l0.738,2.148c0.086,0.248,0.313,0.42,0.574,0.436s0.508-0.127,0.621-0.363l0.096-0.195
			c0.076-0.156,0.086-0.334,0.031-0.498l-0.629-1.824l0.949-0.33c0.002,0,0.004-0.002,0.006-0.002l0.627-0.219
			c0.32-0.109,0.576-0.338,0.725-0.643c0.146-0.303,0.168-0.646,0.059-0.967l-0.451-1.309c-0.002-0.008-0.008-0.016-0.012-0.023
			l-0.086-0.246l0.949-0.33c0.004,0,0.006-0.002,0.008-0.002l0.627-0.217c0.318-0.111,0.576-0.34,0.723-0.643
			c0.146-0.305,0.168-0.648,0.059-0.967l-0.203-0.59c-0.002-0.01-0.004-0.02-0.006-0.029l-0.334-0.969l0.949-0.33
			c0.002,0,0.004-0.002,0.006-0.002l0.627-0.217c0.318-0.111,0.576-0.34,0.723-0.645c0.148-0.303,0.17-0.646,0.059-0.965
			l-0.449-1.313H74.16l-0.094-0.271l0.949-0.33c0.002,0,0.004-0.002,0.004-0.002l0.629-0.219c0.32-0.109,0.576-0.338,0.725-0.643
			c0.146-0.303,0.168-0.646,0.059-0.967l-0.449-1.309c-0.004-0.008-0.01-0.016-0.012-0.023l-0.088-0.248l0.951-0.328
			c0.002,0,0.004-0.002,0.006-0.004l0.627-0.217c0.318-0.109,0.574-0.338,0.723-0.641c0.148-0.305,0.168-0.648,0.059-0.969
			l-0.518-1.504C77.645,83.406,77.42,83.234,77.158,83.219z"/>
	</g>
</g>
</svg>
