<?xml version="1.0" encoding="utf-8"?>
<!-- Generator: Adobe Illustrator 16.0.0, SVG Export Plug-In . SVG Version: 6.00 Build 0)  -->
<!DOCTYPE svg PUBLIC "-//W3C//DTD SVG 1.1//EN" "http://www.w3.org/Graphics/SVG/1.1/DTD/svg11.dtd">
<svg version="1.1" id="Layer_1" xmlns="http://www.w3.org/2000/svg" xmlns:xlink="http://www.w3.org/1999/xlink" x="0px" y="0px"
	 width="216px" height="216px" viewBox="0 0 216 216" enable-background="new 0 0 216 216" xml:space="preserve">
<g>
	<circle fill="#F8E79F" cx="108" cy="108" r="108"/>
	<g>
		<path fill="#49BEA6" d="M66.633,97.447c3.781,11.66-11.027,9.456-13.855,8.56c8.1,11.563-12.559,16.097-13.922,15.829
			c1.559,3.774-1.275,7.003-3.986,9.075c-0.285,0.218-0.568,0.424-0.846,0.614c-0.227,0.157-0.74,0.46-1.242,0.737
			c-0.387,0.214-1.828,0.862-2.262,1.044c-1.107,0.462-2.18,0.898-2.18,0.898s9.813-2.667,11.594,4.772
			c1.016-1.09,13.262-6.373,13.506,8.751c1.889-2.553,6.301-12.448,11.814-7.965c0.842-1.168,10.07-9.59,12.639,3.386
			c4.033-7.478,8.15-17.403,13.115-12.859c0.752-2.556,6.891-8.971,10.961,1.169c-1.068-6.132-0.26-20.094,6.422-23.727
			c0,0-0.916,0.12-1.879,0.193c-0.68,0.053-3.203-0.184-3.914-0.367c-5.918-1.524-12.311-6.415-16.758-12.201
			C83.734,107.016,71.285,101.984,66.633,97.447z"/>
		<g>
			<path fill="#2A9377" d="M187.357,139.377c0.191,0.101,0.301,0.149,0.301,0.149S187.557,139.476,187.357,139.377z"/>
			<path fill="#2A9377" d="M134.793,142.712c-0.883-3.594,0.738-13.287,12.178,0.314c0.756-1.112,6.107-8.416,19.979-3.324
				c0.143,0.053,0.287,0.106,0.432,0.161c-0.012-0.033,5.789-6.36,18.834-1.035c0.529,0.25,0.906,0.433,1.143,0.549
				c-1.578-0.835-8.674-5.293-4.605-16.173c-2.582,0.091-17.332-3.727-13.666-13.512c1.15-3.069,1.441-4.276,1.238-4.516
				c-0.328-0.387-0.768,0.759-2.271,1.763c-0.166,0.111-0.648,0.377-0.742,0.414c-0.236,0.092-0.611,0.215-0.891,0.277
				c-0.076,0.016-0.479,0.038-0.668,0.024c-0.199-0.014-0.4-0.037-0.494-0.066c-0.182-0.055-0.375-0.126-0.482-0.183
				c-0.174-0.091-0.342-0.188-0.418-0.25c-0.041-0.035-0.096-0.091-0.152-0.153c-0.125-0.137-0.301-0.374-0.316-0.402
				c-0.035-0.063-0.068-0.128-0.1-0.194c-0.104-0.213-0.189-0.443-0.258-0.687c-0.338-1.184-0.285-2.702,0.115-4.392
				c-8.855,2.142-16.141,8.001-30.717-4.7c-1.477,1.999-3.012,4.213-6.172,6.373c-1.902,1.301-3.16,1.575-3.814,1.626
				c-1.771,0.139-3.807-0.569-4.324-5.291c-1.295,1.481-4.654,9.133-12.213,9.314c0.094,0.033,7.996,2.768,7.879,14.445
				c2.408-0.826,10.658-1.007,4.523,10.646C120.996,132.518,126.938,130.235,134.793,142.712z"/>
		</g>
		<path fill="#278972" d="M131.645,90.413c-9.98-0.812-5.473-8.984-4.52-11.132c-8.645-1.52-5.143-13.988-4.826-17.92
			c-4.549,6.48-6.926,3.757-7.439,1.836c-7.605,1.421-8.641-10.219-8.752-14.862v-2.434c-1.105,4.802-5.23,13.484-20.578,15.714
			c4.785,3.496,12.881,11.776-2.576,16.745c4.049,3.128,9.199,7.544,6.072,12.33c2.943,1.288,13.064,6.808,4.969,14.72
			c3.568-0.856,10.502,3.884,12.305,8.539c0,0,1.723-11.997,14.158-10.905C117.02,96.679,126.264,92.473,131.645,90.413z"/>
		<g>
			<circle fill="#BA2626" cx="107.299" cy="109.81" r="6.332"/>
			<circle fill="#6B1414" cx="107.006" cy="105.81" r="0.937"/>
		</g>
		<g>
			<path fill="#BA2626" d="M94.525,116.06c2.996-1.936,7.01-1.053,8.969,1.976c1.953,3.029,1.111,7.053-1.883,8.991
				c-2.998,1.936-7.01,1.052-8.969-1.976C90.688,122.024,91.529,117.998,94.525,116.06z"/>
			<circle fill="#6B1414" cx="95.821" cy="119.534" r="1.311"/>
		</g>
		<g>
			<path fill="#9B2020" d="M110.371,116.456c2.809-1.799,6.545-0.98,8.348,1.83c1.801,2.81,0.982,6.547-1.826,8.346
				c-2.811,1.798-6.549,0.98-8.35-1.833C106.74,121.991,107.559,118.256,110.371,116.456z"/>
			<path fill="#6B1414" d="M108.908,121.98c0.416-0.266,0.969-0.144,1.234,0.271c0.268,0.414,0.146,0.967-0.27,1.237
				c-0.416,0.262-0.969,0.144-1.236-0.272C108.373,122.801,108.492,122.245,108.908,121.98z"/>
		</g>
	</g>
</g>
</svg>
