<?xml version="1.0" encoding="utf-8"?>
<!-- Generator: Adobe Illustrator 16.0.0, SVG Export Plug-In . SVG Version: 6.00 Build 0)  -->
<!DOCTYPE svg PUBLIC "-//W3C//DTD SVG 1.1//EN" "http://www.w3.org/Graphics/SVG/1.1/DTD/svg11.dtd">
<svg version="1.1" id="Layer_1" xmlns="http://www.w3.org/2000/svg" xmlns:xlink="http://www.w3.org/1999/xlink" x="0px" y="0px"
	 width="216px" height="216px" viewBox="0 0 216 216" enable-background="new 0 0 216 216" xml:space="preserve">
<g>
	<circle fill="#55532D" cx="108" cy="108" r="108"/>
	<path fill="#757247" d="M13.098,159.59C31.404,193.195,67.039,216,108,216s76.596-22.805,94.902-56.41H13.098z"/>
	<g>
		<g>
			<polygon fill="#D3B846" points="138.109,160.318 77.938,160.318 62.32,67.056 153.73,67.056 			"/>
			<polygon fill="#EFCA35" points="67.758,71.658 81.836,155.716 134.215,155.716 148.295,71.658 			"/>
			<g>
				<path fill="#9E7153" d="M110.354,45.267c0.006-0.055,0.01-0.111,0.01-0.165c0-1.292-1.047-2.34-2.342-2.34
					c-1.293,0-2.334,1.048-2.334,2.34c0,0.054,0.004,0.11,0.008,0.165H110.354z"/>
			</g>
			<rect x="85.195" y="61.375" fill="#D3B846" width="45.658" height="5.681"/>
			<polygon fill="#9E7153" points="85.148,67.056 59.07,67.056 57.65,61.375 85.148,61.375 			"/>
			<polygon fill="#9E7153" points="130.854,67.056 156.934,67.056 158.354,61.375 130.854,61.375 			"/>
			<polygon fill="#9E7153" points="120.914,160.318 95.137,160.318 85.195,67.056 130.854,67.056 			"/>
			<path fill="#EFCA35" d="M125.734,71.658l-8.957,84.058H99.273l-8.959-84.058H125.734"/>
			<path fill="#EFCA35" d="M147.932,61.375c-10.809-9.028-24.723-14.466-39.91-14.466c-15.182,0-29.094,5.438-39.902,14.466H147.932
				z"/>
			<path fill="#9E7153" d="M108.021,46.909c5.811,0,11.432,0.798,16.764,2.285v-3.928H91.262v3.928
				C96.596,47.707,102.217,46.909,108.021,46.909z"/>
		</g>
		<g>
			<path fill="#9B1E20" d="M115.473,126.131c0,2.896-3.35,5.245-7.479,5.245c-4.123,0-7.475-2.349-7.475-5.244
				c0-2.897,3.352-5.248,7.475-5.248C112.123,120.884,115.473,123.234,115.473,126.131z"/>
			<path fill="#D64542" d="M153.211,103.619c-6.096-7.078-13.732-6.695-15.182-6.695c-5.588,0.043-8.742,2.729-9.596,3.198
				c-5.332,3.497-8.104,12.539-9.125,14.757c-2.283,4.985-4.449,7.541-5.145,8.29c0.826,0.841,1.309,1.862,1.309,2.962
				c0,0.362-0.053,0.716-0.154,1.059c0.641-0.242,1.74-0.676,2.326-0.967c3.027-1.238,8.189-7.593,10.488-9.767
				c6.91-7.46,16.977-6.393,18.982-6.293c7.502,0.319,11.428,5.739,11.965,6.635C155.654,105.965,154.191,105.113,153.211,103.619z"
				/>
			<path fill="#B52525" d="M159.438,117.577l-0.441-0.915c-0.619-0.946-3.18-4.251-7.768-5.756
				c-0.203,1.979-1.215,4.284-1.902,5.698c-5.617,9.788-17.145,9.908-19.49,10.029c-6.146,0.123-11.363-0.503-11.363-0.503
				l-0.502-0.058c-0.111,0.056-0.221,0.105-0.326,0.149c-0.586,0.291-1.686,0.725-2.326,0.967c-0.303,1.048-1.057,1.979-2.105,2.698
				c0.896,0.406,2.809,1.224,5.26,2.003c7.117,1.739,13.709,1.901,14.518,1.86c12.092,0.324,16.336-2.628,17.754-3.316
				C160.934,124.896,159.438,117.577,159.438,117.577z"/>
			<path fill="#D64542" d="M160.455,155.587L160.455,155.587c0,0-0.043-0.178-0.135-0.496c-0.121-0.449-0.254-0.905-0.393-1.362
				c-0.646-2.103-1.473-4.237-2.525-6.091c-0.961-1.924-2.174-3.993-3.678-5.969c-0.129-0.172-0.258-0.34-0.389-0.503
				c0-0.003-0.004-0.006-0.006-0.009l0,0c-1.129-1.4-2.424-2.535-4.869-4.554l0,0l-0.004-0.005
				c-0.053-0.041-0.098-0.081-0.148-0.122c-0.012-0.007-0.029-0.02-0.045-0.027c-0.656-0.513-2.854-2.23-4.439-3.481
				c-1.176,0.24-2.533,0.449-4.1,0.594c0,0,0,0,0,0.002c-0.197,0.018-0.4,0.033-0.604,0.049c-0.063,0.005-0.123,0.012-0.184,0.017
				c-0.254,0.017-0.51,0.034-0.771,0.05c-0.1,0.008-0.203,0.012-0.303,0.018c-0.188,0.008-0.379,0.019-0.572,0.025
				c-0.115,0.007-0.236,0.01-0.354,0.014c-0.188,0.007-0.375,0.013-0.564,0.019c-0.121,0.003-0.246,0.005-0.373,0.008
				c-0.197,0.005-0.395,0.007-0.596,0.01c-0.123,0-0.248,0.001-0.371,0.001c-0.221,0.002-0.447,0-0.672-0.001
				c-0.111,0-0.221,0-0.332,0c-0.342-0.005-0.688-0.013-1.039-0.021c-0.809,0.041-7.4-0.121-14.518-1.86
				c-2.451-0.779-4.363-1.597-5.26-2.003c0.004-0.002,0.008-0.004,0.01-0.009c-0.445,0.307-0.945,0.574-1.49,0.795v0.001
				c0,0,3.479,1.729,5.654,2.924c6.398,3.713,10.748,4.48,19.02,21.752c3.328,8.189,3.883,9.045,6.143,17.895h0.123l8.936-9.429
				h10.377C161.984,163.816,161.615,160.007,160.455,155.587z"/>
			<path fill="#D64542" d="M62.791,103.619c6.098-7.078,13.732-6.695,15.182-6.695c5.588,0.043,8.744,2.729,9.598,3.198
				c5.33,3.497,8.1,12.539,9.125,14.757c2.283,4.985,4.447,7.541,5.141,8.29c-0.822,0.842-1.307,1.862-1.307,2.963
				c0,0.361,0.053,0.715,0.154,1.058c-0.639-0.242-1.74-0.675-2.326-0.967c-3.025-1.238-8.188-7.591-10.49-9.767
				c-6.908-7.46-16.973-6.393-18.979-6.291c-7.504,0.317-11.43,5.737-11.969,6.633C60.35,105.966,61.809,105.113,62.791,103.619z"/>
			<path fill="#B52525" d="M56.563,117.577l0.443-0.915c0.621-0.946,3.18-4.251,7.768-5.756c0.205,1.979,1.215,4.284,1.9,5.698
				c5.621,9.788,17.146,9.908,19.492,10.029c6.146,0.123,11.361-0.502,11.361-0.502l0.504-0.059
				c0.111,0.056,0.221,0.105,0.326,0.149c0.586,0.292,1.688,0.725,2.326,0.967c0.305,1.049,1.057,1.979,2.107,2.7
				c-0.896,0.404-2.811,1.223-5.264,2.001c-7.115,1.739-13.707,1.901-14.514,1.86c-12.094,0.324-16.34-2.628-17.756-3.316
				C55.068,124.896,56.563,117.577,56.563,117.577z"/>
			<path fill="#D64542" d="M55.547,155.587L55.547,155.587c0,0,0.045-0.178,0.131-0.494c0.125-0.451,0.258-0.907,0.398-1.364
				c0.643-2.103,1.473-4.237,2.523-6.091c0.961-1.924,2.174-3.993,3.678-5.969c0.129-0.172,0.256-0.337,0.389-0.503
				c0.002-0.003,0.004-0.006,0.008-0.009l0,0c1.127-1.4,2.422-2.535,4.867-4.554l0,0l0.006-0.005
				c0.051-0.041,0.096-0.081,0.148-0.12c0.012-0.009,0.027-0.021,0.041-0.029c0.658-0.513,2.854-2.23,4.441-3.481
				c1.176,0.24,2.533,0.449,4.098,0.594c0,0,0,0,0,0.002c0.199,0.018,0.402,0.033,0.607,0.049c0.061,0.005,0.121,0.012,0.182,0.017
				c0.254,0.017,0.51,0.034,0.771,0.05c0.1,0.008,0.203,0.012,0.305,0.018c0.188,0.008,0.377,0.02,0.57,0.025
				c0.115,0.007,0.234,0.01,0.354,0.014c0.188,0.009,0.373,0.013,0.564,0.019c0.125,0.004,0.248,0.005,0.375,0.008
				c0.193,0.005,0.393,0.007,0.594,0.01c0.123,0.001,0.246,0.001,0.373,0.001c0.221,0.002,0.445,0,0.67,0
				c0.113-0.001,0.221-0.001,0.332-0.001c0.342-0.005,0.688-0.013,1.041-0.021c0.807,0.041,7.398-0.121,14.514-1.86
				c2.453-0.778,4.367-1.597,5.264-2.001c-0.004-0.004-0.008-0.006-0.012-0.011c0.445,0.309,0.947,0.574,1.492,0.795v0.001
				c0,0-3.48,1.731-5.656,2.926c-6.398,3.711-10.75,4.479-19.021,21.75c-3.326,8.189-3.881,9.045-6.141,17.895H73.33l-8.936-9.429
				H54.02C54.02,163.816,54.387,160.007,55.547,155.587z"/>
		</g>
		<g>
			<path fill="#49BEA6" d="M123.012,129.649c-1.369-4.231,4.004-3.432,5.029-3.105c-2.939-4.196,4.559-5.842,5.055-5.746
				c-0.568-1.369,0.461-2.541,1.445-3.292c0.102-0.079,0.207-0.153,0.307-0.224c0.082-0.055,0.268-0.166,0.449-0.267
				c0.143-0.077,0.664-0.313,0.824-0.379c0.4-0.168,0.789-0.326,0.789-0.326s-3.563,0.968-4.207-1.732
				c-0.369,0.396-4.813,2.313-4.9-3.174c-0.686,0.926-2.289,4.516-4.289,2.889c-0.307,0.423-3.654,3.479-4.588-1.229
				c-1.463,2.714-2.957,6.316-4.758,4.668c-0.273,0.928-2.502,3.255-3.977-0.426c0.389,2.226,0.09,7.294-2.328,8.612
				c0,0,0.328-0.043,0.672-0.07c0.256-0.02,1.17,0.067,1.428,0.134c2.146,0.553,4.465,2.326,6.08,4.426
				C116.809,126.177,121.324,128.002,123.012,129.649z"/>
			<g>
				<path fill="#2A9377" d="M79.203,114.434c-0.07-0.037-0.113-0.057-0.113-0.057S79.129,114.396,79.203,114.434z"/>
				<path fill="#2A9377" d="M98.277,113.224c0.32,1.305-0.268,4.821-4.42-0.114c-0.273,0.401-2.215,3.052-7.248,1.205
					c-0.053-0.019-0.105-0.038-0.158-0.058c0.004,0.012-2.1,2.307-6.836,0.374c-0.189-0.089-0.328-0.154-0.412-0.197
					c0.572,0.303,3.146,1.921,1.67,5.868c0.938-0.033,6.291,1.353,4.959,4.904c-0.416,1.113-0.521,1.552-0.449,1.638
					c0.119,0.142,0.279-0.273,0.824-0.638c0.061-0.041,0.234-0.14,0.27-0.151c0.086-0.033,0.223-0.078,0.324-0.101
					c0.027-0.006,0.174-0.014,0.242-0.009c0.072,0.005,0.145,0.016,0.18,0.025c0.064,0.019,0.135,0.045,0.174,0.064
					c0.063,0.033,0.125,0.067,0.15,0.092c0.018,0.013,0.037,0.032,0.057,0.056c0.047,0.049,0.109,0.136,0.115,0.147
					c0.012,0.021,0.025,0.045,0.035,0.068c0.037,0.078,0.068,0.161,0.094,0.25c0.123,0.429,0.104,0.98-0.041,1.594
					c3.215-0.778,5.857-2.905,11.146,1.704c0.537-0.725,1.094-1.527,2.242-2.312c0.688-0.472,1.146-0.571,1.381-0.591
					c0.643-0.049,1.381,0.207,1.57,1.921c0.471-0.538,1.688-3.315,4.436-3.381c-0.041-0.013-2.904-1.005-2.861-5.243
					c-0.875,0.301-3.869,0.366-1.643-3.862C103.285,116.922,101.129,117.751,98.277,113.224z"/>
			</g>
			<path fill="#278972" d="M99.42,132.203c3.621,0.294,1.984,3.259,1.641,4.04c3.139,0.552,1.867,5.076,1.752,6.504
				c1.648-2.353,2.51-1.363,2.697-0.666c2.764-0.516,3.137,3.708,3.176,5.392v0.884c0.402-1.742,1.902-4.893,7.471-5.702
				c-1.738-1.27-4.674-4.274,0.934-6.078c-1.469-1.136-3.338-2.739-2.203-4.475c-1.068-0.468-4.74-2.47-1.805-5.342
				c-1.293,0.31-3.809-1.409-4.463-3.1c0,0-0.627,4.355-5.139,3.959C104.73,129.929,101.371,131.454,99.42,132.203z"/>
			<g>
				<path fill="#BA2626" d="M106.902,127.022c-1.023-0.747-1.248-2.184-0.506-3.21c0.742-1.027,2.186-1.254,3.211-0.508
					c1.027,0.746,1.254,2.184,0.51,3.209C109.365,127.541,107.932,127.767,106.902,127.022z"/>
				<path fill="#6B1414" d="M108.164,126.89c-0.156-0.109-0.189-0.324-0.084-0.473c0.117-0.154,0.33-0.188,0.484-0.076
					c0.148,0.11,0.188,0.322,0.072,0.475C108.521,126.966,108.318,127,108.164,126.89z"/>
			</g>
			<g>
				<path fill="#BA2626" d="M112.891,122.896c-1.088,0.701-2.545,0.382-3.252-0.719c-0.715-1.098-0.402-2.559,0.678-3.261
					c1.092-0.702,2.547-0.383,3.258,0.716C114.283,120.731,113.977,122.192,112.891,122.896z"/>
				<path fill="#6B1414" d="M112.139,122.019c-0.209-0.154-0.256-0.452-0.104-0.665c0.154-0.213,0.451-0.259,0.666-0.104
					c0.211,0.153,0.258,0.451,0.105,0.665C112.65,122.126,112.355,122.172,112.139,122.019z"/>
			</g>
			<g>
				<path fill="#9B2020" d="M107.139,122.751c-1.016,0.653-2.371,0.355-3.027-0.664c-0.652-1.019-0.355-2.375,0.664-3.029
					c1.016-0.651,2.371-0.355,3.025,0.667C108.455,120.743,108.162,122.099,107.139,122.751z"/>
				<path fill="#6B1414" d="M107.674,120.746c-0.154,0.098-0.355,0.051-0.447-0.097c-0.104-0.152-0.061-0.354,0.092-0.45
					c0.156-0.096,0.357-0.052,0.451,0.099C107.869,120.45,107.828,120.651,107.674,120.746z"/>
			</g>
		</g>
	</g>
</g>
</svg>
