<svg height="464pt" viewBox="-16 0 464 464.32" width="464pt" xmlns="http://www.w3.org/2000/svg"><path d="m208.160156 112.320312h-112v32h112zm0 0" fill="#ffa733"/><path d="m261.28125 160.320312h-5.121094l-4.960937 34.480469c-.800781 5.761719-4.703125 10.617188-10.160157 12.640625-2.558593.957032-5.039062 2-7.4375 3.039063-5.277343 2.417969-11.453124 1.742187-16.082031-1.761719l-14.320312-10.71875-13.519531-10.160156-34 34 20.878906 27.839844c3.503906 4.628906 4.179687 10.804687 1.761718 16.082031-1.039062 2.398437-2.082031 4.878906-3.039062 7.4375-2.023438 5.457031-6.878906 9.359375-12.640625 10.160156l-34.480469 4.960937v48l34.480469 4.960938c5.761719.800781 10.617187 4.703125 12.640625 10.160156.957031 2.558594 2 5.039063 3.039062 7.4375 2.417969 5.277344 1.742188 11.453125-1.761718 16.082032l-20.878906 27.839843 13.519531 13.519531h-105.039063c-33.179687.003907-60.855468-25.351562-63.761718-58.398437-.160157-1.84375-.238282-3.683594-.238282-5.601563v-112c0-53.019531 42.980469-96 96-96h112c10.335938-.003906 20.601563 1.667969 30.398438 4.960938 8.046875 2.617188 15.691406 6.332031 22.722656 11.039062zm0 0" fill="#ffb655"/><path d="m80.160156 112.320312h144c17.671875 0 32-14.328124 32-32v-80c-26.015625 0-26.015625 16.320313-52 16.320313s-26.007812-16.640625-52-16.640625c-25.992187 0-26 16.640625-52 16.640625s-26.023437-16.320313-52-16.320313v80c0 17.671876 14.328125 32 32 32zm0 0" fill="#ffb655"/><path d="m382 358.878906c-2.417969 5.277344-1.742188 11.453125 1.761719 16.082032l20.878906 27.839843-34 34-27.839844-20.878906c-4.628906-3.503906-10.804687-4.179687-16.082031-1.761719-2.398438 1.039063-4.878906 2.078125-7.4375 3.039063-5.457031 2.023437-9.359375 6.878906-10.160156 12.640625l-4.960938 34.480468h-48l-4.960937-34.480468c-.800781-5.761719-4.703125-10.617188-10.160157-12.640625-.71875-.238281-1.4375-.558594-2.160156-.878907-1.839844-.640624-3.597656-1.441406-5.277344-2.160156-5.277343-2.417968-11.453124-1.742187-16.082031 1.761719l-.558593.398437-27.28125 20.480469-34-34 20.878906-27.839843c3.503906-4.628907 4.179687-10.804688 1.761718-16.082032-1.039062-2.398437-2.082031-4.878906-3.039062-7.4375-2.023438-5.457031-6.878906-9.359375-12.640625-10.160156l-34.480469-4.960938v-48l34.480469-4.960937c5.761719-.800781 10.617187-4.703125 12.640625-10.160156.957031-2.558594 2-5.039063 3.039062-7.4375 2.417969-5.277344 1.742188-11.453125-1.761718-16.082031l-20.878906-27.839844 34-34 27.839843 20.878906c4.628907 3.503906 10.804688 4.179688 16.082031 1.761719 2.398438-1.039063 4.878907-2.082031 7.4375-3.039063 5.457032-2.023437 9.359376-6.878906 10.160157-12.640625l4.960937-34.480469h48l4.960938 34.480469c.800781 5.761719 4.703125 10.617188 10.160156 12.640625 2.558594.957032 5.039062 2 7.4375 3.039063 5.277344 2.417969 11.453125 1.742187 16.082031-1.761719l27.839844-20.878906 34 34-20.878906 27.839844c-3.503907 4.628906-4.179688 10.804687-1.761719 16.082031 1.039062 2.398437 2.078125 4.878906 3.039062 7.4375 2.023438 5.457031 6.878907 9.359375 12.640626 10.160156l34.480468 4.960937v48l-34.480468 4.960938c-5.761719.800781-10.617188 4.703125-12.640626 10.160156-.960937 2.558594-2 5.039063-3.039062 7.4375zm0 0" fill="#ff7956"/><path d="m352.160156 312.320312c0 39.765626-32.234375 72-72 72s-72-32.234374-72-72c0-39.765624 32.234375-72 72-72s72 32.234376 72 72zm0 0" fill="#ffd422"/><path d="m96.160156 112.320312h112v16h-112zm0 0" fill="#ff9811"/><path d="m128.160156 288.320312v48l34.480469 4.960938c5.761719.800781 10.617187 4.703125 12.640625 10.160156.957031 2.558594 2 5.039063 3.039062 7.4375 2.417969 5.277344 1.742188 11.453125-1.761718 16.082032l-20.878906 27.839843 13.519531 13.519531h-105.039063c-33.179687.003907-60.855468-25.351562-63.761718-58.398437 62.1875-30.21875 118.761718-70.828125 167.28125-120.082031l8.878906 11.839844c3.503906 4.628906 4.179687 10.804687 1.761718 16.082031-1.039062 2.398437-2.082031 4.878906-3.039062 7.4375-2.023438 5.457031-6.878906 9.359375-12.640625 10.160156zm0 0" fill="#ffa733"/><path d="m261.28125 160.320312h-5.121094l-4.960937 34.480469c-.800781 5.761719-4.703125 10.617188-10.160157 12.640625-2.558593.957032-5.039062 2-7.4375 3.039063-5.277343 2.417969-11.453124 1.742187-16.082031-1.761719l-14.320312-10.71875c12.660156-15.589844 24.464843-31.851562 35.359375-48.71875 8.046875 2.617188 15.691406 6.332031 22.722656 11.039062zm0 0" fill="#ffa733"/><g fill="#ee8700"><path d="m96.160156 48.320312c4.382813-.546874 8.382813 2.5625 8.929688 6.945313l6.015625 48.121094c.546875 4.386719-2.5625 8.382812-6.945313 8.933593-4.386718.546876-8.382812-2.5625-8.933594-6.949218l-6.011718-48.121094c-.550782-4.382812 2.558594-8.382812 6.945312-8.929688zm0 0"/><path d="m193.210938 103.390625 6.015624-48.121094c.546876-4.382812 4.546876-7.492187 8.929688-6.945312 4.386719.546875 7.496094 4.546875 6.949219 8.929687l-6.015625 48.121094c-.550782 4.386719-4.546875 7.496094-8.933594 6.949219-4.382812-.550781-7.492188-4.546875-6.945312-8.933594zm0 0"/><path d="m152.160156 48.320312c4.417969 0 8 3.582032 8 8v48c0 4.417969-3.582031 8-8 8-4.417968 0-8-3.582031-8-8v-48c0-4.417968 3.582032-8 8-8zm0 0"/></g><path d="m288.160156 304.320312h-16c-4.417968 0-8-3.582031-8-8 0-4.417968 3.582032-8 8-8h16c4.417969 0 8 3.582032 8 8h16c0-13.253906-10.746094-24-24-24v-8h-16v8c-13.253906 0-24 10.746094-24 24 0 13.253907 10.746094 24 24 24h16c4.417969 0 8 3.582032 8 8 0 4.417969-3.582031 8-8 8h-16c-4.417968 0-8-3.582031-8-8h-16c0 13.253907 10.746094 24 24 24v8h16v-8c13.253906 0 24-10.746093 24-24 0-13.253906-10.746094-24-24-24zm0 0" fill="#ff5023"/></svg>