<?xml version="1.0" encoding="utf-8"?>
<!-- Generator: Adobe Illustrator 16.0.0, SVG Export Plug-In . SVG Version: 6.00 Build 0)  -->
<!DOCTYPE svg PUBLIC "-//W3C//DTD SVG 1.1//EN" "http://www.w3.org/Graphics/SVG/1.1/DTD/svg11.dtd">
<svg version="1.1" id="Layer_1" xmlns="http://www.w3.org/2000/svg" xmlns:xlink="http://www.w3.org/1999/xlink" x="0px" y="0px"
	 width="216px" height="216px" viewBox="0 0 216 216" enable-background="new 0 0 216 216" xml:space="preserve">
<g>
	<circle fill="#B8E1DE" cx="108" cy="108" r="108"/>
	<g>
		<g>
			<g>
				<path fill="#1A6954" d="M93.848,164.204c-2.467-2.762-4.146,1.438-4.344,2.312c-1.783-3.874-6.111,0.828-6.25,1.225
					c-0.746-0.981-2.021-0.733-2.975-0.341c-0.1,0.041-0.195,0.084-0.289,0.126c-0.074,0.036-0.232,0.123-0.381,0.212
					c-0.113,0.068-0.502,0.346-0.617,0.432c-0.287,0.219-0.566,0.432-0.566,0.432s2.191-2.154,0.521-3.752
					c0.438-0.099,3.682-2.489-0.229-4.855c0.953-0.104,4.207,0.251,3.875-1.87c0.434-0.042,4.037-1.169,1.043-3.813
					c2.564,0.085,5.779,0.521,5.35-1.465c0.783,0.192,3.391-0.434,1.365-3.039c1.436,1.213,5.203,3.126,7.168,1.936
					c0,0-0.172,0.222-0.336,0.461c-0.119,0.17-0.441,0.864-0.5,1.078c-0.504,1.776-0.201,4.188,0.633,6.229
					C93.953,158.285,93.371,162.299,93.848,164.204z"/>
				<path fill="#49BEA6" d="M99.039,155.503c4.781-2.439,4.85,4.115,4.658,5.399c4.439-4.3,7.826,4.32,7.803,4.929
					c1.525-0.936,3.117,0.067,4.199,1.096c0.113,0.108,0.223,0.217,0.324,0.322c0.084,0.089,0.25,0.29,0.404,0.488
					c0.119,0.152,0.5,0.73,0.607,0.904c0.277,0.447,0.539,0.881,0.539,0.881s-1.828-4.057,1.264-5.342
					c-0.541-0.363-3.672-5.295,2.854-6.443c-1.236-0.641-5.818-1.865-4.26-4.558c-0.564-0.284-4.842-3.692,0.592-5.698
					c-3.512-1.229-8.088-2.323-6.465-4.785c-1.158-0.147-4.354-2.359-0.25-4.818c-2.578,0.885-8.67,1.498-10.703-1.14
					c0,0,0.115,0.388,0.213,0.799c0.07,0.29,0.141,1.398,0.111,1.718c-0.25,2.664-1.924,5.766-4.117,8.088
					C101.998,147.448,100.682,153.178,99.039,155.503z"/>
				<g>
					<path fill="#2A9377" d="M71.287,157.451c-0.086,0.04-0.133,0.065-0.133,0.065S71.199,157.495,71.287,157.451z"/>
					<path fill="#2A9377" d="M84.02,138.223c1.486,0.642,4.441,3.771-3.33,4.168c0.188,0.557,1.324,4.356-4.121,7.852
						c-0.057,0.036-0.113,0.072-0.17,0.108c0.016,0.004,0.689,3.701-4.619,6.847c-0.227,0.118-0.391,0.202-0.492,0.254
						c0.709-0.331,4.141-1.628,6.861,2.668c0.652-0.926,5.883-5.063,8.33-1.197c0.766,1.212,1.111,1.633,1.248,1.625
						c0.221-0.013-0.063-0.468-0.016-1.259c0.006-0.088,0.039-0.326,0.053-0.367c0.029-0.108,0.086-0.271,0.139-0.385
						c0.014-0.031,0.113-0.178,0.168-0.24c0.057-0.066,0.119-0.129,0.154-0.155c0.066-0.049,0.143-0.097,0.189-0.12
						c0.08-0.036,0.156-0.068,0.199-0.079c0.023-0.006,0.057-0.009,0.094-0.013c0.08-0.008,0.209-0.006,0.225-0.004
						c0.031,0.004,0.063,0.01,0.094,0.016c0.102,0.021,0.205,0.053,0.309,0.092c0.502,0.195,1.018,0.615,1.5,1.201
						c1.596-3.656,1.475-7.748,9.762-9.478c-0.307-1.044-0.674-2.165-0.592-3.84c0.047-1.007,0.285-1.519,0.439-1.76
						c0.42-0.655,1.205-1.179,2.99-0.11c-0.176-0.845-1.957-4.039-0.021-6.727c-0.037,0.025-3.08,2.06-7.127-1.068
						c-0.348,1.061-2.465,3.986-4.91-1.235C91.225,136.103,90.449,138.78,84.02,138.223z"/>
				</g>
				<path fill="#1A6954" d="M89.098,145.51c4.09,1.584,1.182,4.452,0.514,5.237c3.439,1.713,0.416,6.51-0.205,8.122
					c2.717-2.154,3.375-0.716,3.352,0.155c3.369,0.35,2.355,5.363,1.824,7.327l-0.301,1.021c1.059-1.878,3.871-5.01,10.592-4.036
					c-1.572-2.063-3.941-6.546,3.166-6.708c-1.311-1.817-2.924-4.312-1.016-5.932c-1.076-0.905-4.637-4.483-0.252-6.797
					c-1.605-0.085-3.928-2.937-4.104-5.116c0,0-2.217,4.822-7.301,2.816C96.018,144.7,91.613,145.315,89.098,145.51z"/>
				<g>
					<path fill="#2A9377" d="M111.506,174.679c0.023,0.061,0.035,0.095,0.035,0.095S111.527,174.742,111.506,174.679z"/>
					<path fill="#2A9377" d="M114.203,158.997c-1.051-0.38-4.016-0.206-0.299,3.668c-0.357,0.192-2.725,1.564-1.643,5.895
						c0.012,0.043,0.023,0.089,0.033,0.135c-0.008-0.005-2.096,1.532-0.918,5.623c0.059,0.167,0.102,0.286,0.129,0.361
						c-0.199-0.502-1.311-2.777-4.709-1.905c0.111-0.773-0.561-5.327-3.617-4.54c-0.959,0.246-1.332,0.294-1.398,0.225
						c-0.105-0.11,0.254-0.205,0.604-0.624c0.039-0.046,0.135-0.184,0.148-0.21c0.035-0.068,0.084-0.178,0.113-0.258
						c0.006-0.023,0.025-0.145,0.027-0.201c0.004-0.06,0.002-0.121-0.004-0.15c-0.01-0.057-0.025-0.116-0.039-0.15
						c-0.021-0.056-0.045-0.109-0.063-0.134c-0.008-0.013-0.023-0.032-0.039-0.051c-0.039-0.042-0.104-0.103-0.111-0.108
						c-0.02-0.013-0.037-0.024-0.055-0.036c-0.061-0.038-0.127-0.071-0.199-0.1c-0.344-0.14-0.803-0.173-1.322-0.106
						c0.93-2.591,2.924-4.59-0.422-9.378c0.648-0.378,1.363-0.769,2.113-1.648c0.453-0.528,0.576-0.898,0.611-1.093
						c0.1-0.527-0.047-1.162-1.449-1.471c0.488-0.34,2.895-1.103,3.191-3.367c0.008,0.029,0.574,2.492,4.086,2.834
						c-0.326,0.695-0.646,3.168,3.051,1.701C111.586,154.524,110.709,156.235,114.203,158.997z"/>
				</g>
				<path fill="#49BEA6" d="M104.945,161.442c-3.025,0-1.869,2.571-1.635,3.242c-2.641,0.244-1.893,4.084-1.895,5.275
					c-1.209-2.063-1.992-1.302-2.195-0.735c-2.254-0.615-2.852,2.864-3,4.259l-0.061,0.733c-0.215-1.474-1.242-4.188-5.809-5.239
					c1.527-0.935,4.168-3.229-0.363-5.105c1.295-0.842,2.957-2.044,2.133-3.563c0.918-0.314,4.1-1.728,1.857-4.309
					c1.053,0.345,3.258-0.911,3.916-2.268c0,0,0.223,3.654,3.992,3.631C100.697,159.196,103.377,160.69,104.945,161.442z"/>
			</g>
			<g>
				<path fill="#1A6954" d="M64.313,146.478c-0.514-3.666-4.244-1.111-4.895-0.494c0.674-4.212-5.539-2.714-5.873-2.461
					c-0.076-1.23-1.271-1.733-2.281-1.938c-0.105-0.022-0.211-0.04-0.311-0.056c-0.084-0.012-0.262-0.027-0.436-0.035
					c-0.135-0.008-0.611,0.007-0.752,0.015c-0.363,0.021-0.711,0.044-0.711,0.044s3.016-0.572,2.52-2.828
					c0.418,0.162,4.443-0.021,2.512-4.162c0.85,0.444,3.357,2.55,4.262,0.604c0.383,0.205,4.002,1.274,2.986-2.59
					c2.084,1.497,4.512,3.651,5.262,1.76c0.543,0.596,3.057,1.527,2.824-1.766c0.52,1.807,2.584,5.492,4.879,5.598
					c0,0-0.266,0.09-0.535,0.197c-0.193,0.074-0.848,0.473-1.018,0.615c-1.406,1.196-2.496,3.37-2.939,5.529
					C67.693,141.619,64.979,144.632,64.313,146.478z"/>
				<path fill="#49BEA6" d="M73.469,142.138c5.33,0.635,1.738,6.118,0.865,7.078c6.082-1.101,4.1,7.945,3.742,8.438
					c1.787,0.07,2.551,1.789,2.879,3.247c0.033,0.153,0.064,0.305,0.09,0.45c0.02,0.118,0.047,0.377,0.064,0.629
					c0.014,0.192,0.008,0.883,0.002,1.09c-0.02,0.525-0.043,1.031-0.043,1.031s0.736-4.39,4.021-3.735
					c-0.248-0.603-0.104-6.441,5.955-3.767c-0.668-1.219-3.795-4.787-1.002-6.157c-0.311-0.55-1.969-5.762,3.662-4.405
					c-2.234-2.975-5.426-6.43-2.709-7.571c-0.879-0.769-2.305-4.385,2.473-4.145c-2.635-0.7-8.037-3.579-8.258-6.901
					c0,0-0.119,0.385-0.268,0.782c-0.104,0.279-0.66,1.24-0.863,1.489c-1.691,2.074-4.807,3.719-7.922,4.428
					C80.408,137.093,76.125,141.119,73.469,142.138z"/>
				<g>
					<path fill="#2A9377" d="M49.326,128.313c-0.094-0.014-0.146-0.018-0.146-0.018S49.229,128.302,49.326,128.313z"/>
					<path fill="#2A9377" d="M70.604,119.422c0.879,1.362,1.594,5.605-5.086,1.61c-0.154,0.568-1.324,4.356-7.793,4.23
						c-0.066-0.001-0.135-0.003-0.201-0.004c0.01,0.013-1.488,3.459-7.646,3.119c-0.254-0.027-0.438-0.05-0.551-0.064
						c0.773,0.121,4.346,0.951,4.215,6.036c1.059-0.407,7.707-0.935,7.588,3.64c-0.037,1.433,0.014,1.975,0.133,2.046
						c0.191,0.112,0.211-0.425,0.688-1.056c0.055-0.07,0.215-0.248,0.248-0.277c0.086-0.072,0.223-0.176,0.33-0.241
						c0.029-0.017,0.191-0.085,0.273-0.105c0.084-0.022,0.172-0.041,0.213-0.043c0.084-0.003,0.174-0.001,0.227,0.007
						c0.086,0.013,0.168,0.029,0.209,0.043c0.021,0.01,0.053,0.024,0.084,0.043c0.072,0.037,0.178,0.111,0.189,0.121
						c0.023,0.021,0.045,0.043,0.068,0.065c0.074,0.073,0.141,0.157,0.205,0.248c0.309,0.44,0.504,1.077,0.58,1.833
						c3.357-2.152,5.535-5.618,13.383-2.443c0.326-1.039,0.645-2.175,1.645-3.521c0.602-0.811,1.084-1.103,1.346-1.218
						c0.713-0.311,1.656-0.309,2.547,1.571c0.322-0.798,0.621-4.444,3.723-5.601c-0.045,0-3.705-0.002-5.324-4.852
						c-0.881,0.687-4.268,1.941-3.395-3.759C77.771,121.669,75.637,123.464,70.604,119.422z"/>
				</g>
				<path fill="#1A6954" d="M70.77,128.304c2.516,3.592-1.498,4.355-2.488,4.636c1.904,3.338-3.275,5.643-4.689,6.636
					c3.455-0.279,3.201,1.284,2.699,1.994c2.605,2.164-1.029,5.768-2.563,7.104l-0.82,0.681c1.926-0.971,6.006-2.009,11.049,2.542
					c-0.16-2.591,0.367-7.633,6.361-3.813c-0.076-2.24-0.029-5.209,2.459-5.494c-0.389-1.351-1.359-6.305,3.57-5.788
					c-1.285-0.964-1.627-4.625-0.563-6.533c0,0-4.523,2.772-7.631-1.723C76.969,131.48,72.969,129.54,70.77,128.304z"/>
				<g>
					<path fill="#2A9377" d="M73.156,165.008c-0.012,0.063-0.023,0.099-0.023,0.099S73.143,165.073,73.156,165.008z"/>
					<path fill="#2A9377" d="M84.123,153.479c-0.66-0.902-3.221-2.405-2.289,2.881c-0.404-0.039-3.133-0.217-4.643,3.983
						c-0.016,0.044-0.031,0.087-0.049,0.131c-0.004-0.009-2.594,0.107-3.891,4.161c-0.045,0.172-0.076,0.295-0.096,0.372
						c0.113-0.528,0.457-3.035-2.852-4.202c0.521-0.581,2.498-4.739-0.48-5.787c-0.934-0.33-1.27-0.496-1.285-0.59
						c-0.025-0.149,0.324-0.03,0.848-0.184c0.061-0.016,0.215-0.077,0.24-0.091c0.068-0.037,0.168-0.101,0.236-0.153
						c0.02-0.015,0.104-0.104,0.137-0.15c0.035-0.048,0.068-0.1,0.08-0.127c0.021-0.054,0.043-0.111,0.051-0.147
						c0.014-0.058,0.023-0.116,0.023-0.145c0-0.017-0.002-0.04-0.006-0.064c-0.008-0.056-0.027-0.143-0.031-0.152
						c-0.008-0.021-0.018-0.04-0.027-0.062c-0.029-0.064-0.066-0.129-0.109-0.193c-0.207-0.307-0.57-0.589-1.039-0.824
						c2.215-1.635,4.984-2.186,4.869-8.025c0.75,0.046,1.561,0.119,2.674-0.194c0.67-0.188,0.977-0.427,1.115-0.567
						c0.375-0.383,0.607-0.991-0.387-2.027c0.596-0.013,3.02,0.693,4.525-1.022c-0.01,0.028-0.908,2.389,1.82,4.626
						c-0.66,0.397-2.303,2.273,1.586,3.112C84.438,148.307,82.758,149.239,84.123,153.479z"/>
				</g>
				<path fill="#49BEA6" d="M75.07,150.36c-2.514-1.685-2.982,1.096-3.162,1.783c-2.328-1.266-3.844,2.34-4.51,3.33
					c0.145-2.389-0.932-2.19-1.414-1.833c-1.531-1.766-3.963,0.792-4.863,1.869l-0.457,0.575c0.641-1.343,1.299-4.172-1.912-7.585
					c1.789,0.073,5.26-0.362,2.539-4.444c1.547,0.022,3.594-0.053,3.754-1.773c0.938,0.25,4.369,0.848,3.941-2.546
					c0.684,0.873,3.215,1.056,4.516,0.294c0,0-1.848,3.16,1.297,5.24C72.791,146.13,74.186,148.861,75.07,150.36z"/>
				<g>
					
						<ellipse transform="matrix(0.0071 -1 1 0.0071 -45.0173 223.1598)" fill="#BA2626" cx="89.869" cy="134.25" rx="2.193" ry="2.184"/>
					<circle fill="#6B1414" cx="88.982" cy="133.182" r="0.325"/>
				</g>
				<g>
					
						<ellipse transform="matrix(-0.9404 0.3401 -0.3401 -0.9404 206.3278 226.0067)" fill="#BA2626" cx="83.354" cy="131.088" rx="3.684" ry="3.646"/>
					<circle fill="#6B1414" cx="81.966" cy="132.069" r="0.74"/>
				</g>
				<g>
					<circle fill="#9B2020" cx="80.198" cy="124.605" r="2.321"/>
					<circle fill="#6B1414" cx="78.922" cy="123.494" r="0.344"/>
				</g>
			</g>
			<g>
				<path fill="#1A6954" d="M49.637,115.317c1.613-3.332-2.91-3.287-3.793-3.136c2.904-3.124-3.09-5.337-3.51-5.313
					c0.623-1.065-0.092-2.148-0.818-2.882c-0.074-0.076-0.15-0.149-0.227-0.217c-0.061-0.058-0.201-0.168-0.342-0.271
					c-0.107-0.081-0.51-0.335-0.633-0.407c-0.313-0.184-0.615-0.36-0.615-0.36s2.826,1.205,3.666-0.947
					c0.258,0.367,3.705,2.457,4.404-2.06c0.459,0.843,1.371,3.986,3.205,2.873c0.205,0.384,2.617,3.286,3.924-0.491
					c0.896,2.404,1.717,5.545,3.391,4.391c0.121,0.797,1.691,2.971,3.328,0.105c-0.572,1.789-0.908,6.001,0.939,7.365
					c0,0-0.268-0.074-0.553-0.137c-0.201-0.043-0.967-0.076-1.188-0.052c-1.834,0.211-3.947,1.411-5.52,2.958
					C55.15,113.161,51.217,114.151,49.637,115.317z"/>
				<path fill="#49BEA6" d="M59.66,116.806c4.076,3.492-1.961,6.051-3.221,6.363c5.666,2.468-1.014,8.881-1.586,9.092
					c1.445,1.053,1.125,2.906,0.584,4.3c-0.055,0.146-0.113,0.288-0.174,0.423c-0.049,0.11-0.172,0.341-0.297,0.56
					c-0.094,0.167-0.484,0.738-0.607,0.906c-0.307,0.425-0.607,0.833-0.607,0.833s3.057-3.237,5.422-0.865
					c0.129-0.64,3.496-5.41,7.043,0.184c0.121-1.386-0.49-6.09,2.594-5.674c0.049-0.63,1.57-5.883,5.494-1.623
					c-0.201-3.715-0.932-8.361,1.963-7.799c-0.303-1.127,0.523-4.925,4.359-2.066c-1.799-2.047-4.686-7.446-3.02-10.33
					c0,0-0.314,0.254-0.658,0.502c-0.242,0.174-1.238,0.663-1.547,0.756c-2.559,0.783-6.063,0.417-9.047-0.729
					C68.232,116.474,62.434,117.437,59.66,116.806z"/>
				<g>
					<path fill="#2A9377" d="M47.291,91.885c-0.07-0.063-0.111-0.097-0.111-0.097S47.217,91.821,47.291,91.885z"/>
					<path fill="#2A9377" d="M69.918,96.336c-0.027,1.621-1.795,5.543-5.121-1.492c-0.443,0.387-3.523,2.884-8.83-0.819
						c-0.055-0.039-0.109-0.078-0.164-0.117c0,0.015-3.16,2.047-8.09-1.662c-0.195-0.166-0.334-0.285-0.422-0.36
						c0.574,0.53,3.082,3.209,0.145,7.361c1.105,0.249,6.924,3.512,4.279,7.245c-0.828,1.171-1.088,1.649-1.027,1.774
						c0.094,0.199,0.41-0.235,1.158-0.493c0.082-0.029,0.316-0.088,0.361-0.094c0.109-0.013,0.281-0.021,0.406-0.017
						c0.035,0.001,0.207,0.036,0.285,0.063c0.084,0.028,0.166,0.062,0.203,0.084c0.07,0.043,0.145,0.095,0.184,0.13
						c0.063,0.06,0.125,0.118,0.148,0.154c0.014,0.019,0.031,0.048,0.047,0.082c0.039,0.07,0.086,0.19,0.09,0.205
						c0.008,0.03,0.016,0.062,0.021,0.093c0.02,0.102,0.029,0.209,0.031,0.318c0.012,0.54-0.18,1.178-0.537,1.848
						c3.988,0.08,7.725-1.587,12.48,5.416c0.848-0.682,1.744-1.447,3.324-2.01c0.949-0.338,1.514-0.314,1.795-0.263
						c0.766,0.138,1.549,0.665,1.242,2.723c0.713-0.483,2.988-3.348,6.209-2.582c-0.037-0.024-3.076-2.063-1.725-6.995
						c-1.111,0.082-4.625-0.762-0.729-5.012C74.621,102.19,71.852,102.495,69.918,96.336z"/>
				</g>
				<path fill="#1A6954" d="M65.113,103.808c0.094,4.384-3.666,2.787-4.646,2.469c-0.273,3.833-5.861,2.865-7.588,2.904
					c3.025,1.69,1.945,2.848,1.133,3.157c0.959,3.248-4.064,4.22-6.082,4.478l-1.061,0.109c2.141,0.265,6.107,1.673,7.766,8.258
					c1.309-2.24,4.553-6.137,7.41,0.372c1.182-1.903,2.873-4.345,5.098-3.196c0.428-1.34,2.379-5.994,6.189-2.822
					c-0.535-1.516,1.221-4.748,3.168-5.741c0,0-5.303-0.214-5.383-5.679C68.498,109.897,66.252,106.06,65.113,103.808z"/>
				<g>
					<path fill="#2A9377" d="M46.674,135.634c-0.045,0.046-0.072,0.07-0.072,0.07S46.625,135.68,46.674,135.634z"/>
					<path fill="#2A9377" d="M62.201,132.157c-0.047-1.117-1.338-3.791-3.504,1.121c-0.314-0.259-2.484-1.926-6.076,0.725
						c-0.037,0.027-0.074,0.055-0.113,0.083c0.002-0.011-2.215-1.354-5.549,1.292c-0.133,0.117-0.225,0.203-0.285,0.256
						c0.389-0.375,2.07-2.268-0.031-5.078c0.758-0.192,4.713-2.548,2.82-5.076c-0.592-0.793-0.777-1.117-0.74-1.204
						c0.063-0.141,0.287,0.155,0.809,0.318c0.059,0.019,0.219,0.055,0.25,0.058c0.076,0.007,0.195,0.011,0.281,0.006
						c0.023-0.002,0.143-0.031,0.197-0.051c0.057-0.02,0.111-0.045,0.139-0.061c0.047-0.031,0.096-0.068,0.123-0.094
						c0.043-0.041,0.084-0.083,0.1-0.107c0.01-0.014,0.02-0.035,0.031-0.058c0.025-0.05,0.055-0.133,0.059-0.144
						c0.004-0.021,0.008-0.043,0.012-0.064c0.012-0.07,0.016-0.145,0.016-0.221c-0.002-0.372-0.145-0.809-0.404-1.265
						c2.75-0.127,5.357,0.956,8.512-3.96c0.598,0.455,1.23,0.967,2.328,1.327c0.662,0.216,1.051,0.188,1.244,0.149
						c0.525-0.11,1.057-0.487,0.807-1.9c0.502,0.32,2.123,2.256,4.33,1.669c-0.025,0.017-2.084,1.478-1.064,4.854
						c-0.77-0.035-3.176,0.609-0.412,3.471C65.34,128.034,63.426,127.874,62.201,132.157z"/>
				</g>
				<path fill="#49BEA6" d="M56.414,124.528c-1.15-2.797-3.088-0.749-3.619-0.277c-1.23-2.349-4.496-0.195-5.6,0.258
					c1.447-1.905,0.445-2.34-0.156-2.311c-0.289-2.318-3.732-1.548-5.08-1.153l-0.701,0.223c1.281-0.759,3.402-2.743,2.633-7.364
					c1.445,1.055,4.572,2.625,4.582-2.279c1.273,0.877,3.018,1.953,4.105,0.614c0.643,0.729,3.16,3.134,4.695,0.076
					c0.08,1.106,2.082,2.667,3.588,2.758c0,0-3.295,1.599-1.84,5.076C56.875,119.744,56.514,122.79,56.414,124.528z"/>
			</g>
			<g>
				<path fill="#1A6954" d="M54.781,81.258c3.195-1.87-0.588-4.349-1.406-4.715c4.15-0.981,0.4-6.153,0.039-6.367
					c1.109-0.538,1.119-1.836,0.924-2.849c-0.02-0.105-0.043-0.209-0.068-0.308c-0.02-0.082-0.074-0.252-0.131-0.416
					c-0.045-0.126-0.24-0.562-0.301-0.69c-0.156-0.326-0.311-0.641-0.311-0.641s1.678,2.572,3.572,1.253
					c0.012,0.45,1.713,4.103,4.807,0.738c-0.088,0.956-1.08,4.075,1.064,4.171c-0.045,0.434,0.346,4.187,3.531,1.775
					c-0.59,2.496-1.656,5.563,0.377,5.536c-0.344,0.728-0.248,3.407,2.707,1.938c-1.473,1.169-4.094,4.481-3.316,6.644
					c0,0-0.184-0.211-0.387-0.422c-0.143-0.148-0.76-0.602-0.957-0.703c-1.641-0.845-4.064-1.025-6.232-0.614
					C60.563,82.535,56.742,81.17,54.781,81.258z"/>
				<path fill="#49BEA6" d="M62.281,88.072c1.443,5.17-4.996,3.938-6.217,3.495c3.336,5.205-5.785,6.814-6.377,6.672
					c0.615,1.681-0.684,3.042-1.906,3.898c-0.129,0.091-0.256,0.176-0.381,0.254c-0.102,0.064-0.332,0.188-0.559,0.301
					c-0.172,0.086-0.814,0.344-1.006,0.415c-0.494,0.183-0.969,0.354-0.969,0.354s4.338-0.99,4.984,2.297
					c0.465-0.459,5.916-2.55,5.75,4.072c0.873-1.084,2.98-5.333,5.313-3.272c0.389-0.496,4.578-4.013,5.467,1.71
					c1.9-3.198,3.879-7.466,5.971-5.389c0.375-1.104,3.176-3.801,4.773,0.71c-0.355-2.704,0.248-8.796,3.238-10.265
					c0,0-0.402,0.035-0.826,0.051c-0.297,0.01-1.398-0.139-1.705-0.23c-2.563-0.775-5.27-3.029-7.111-5.641
					C69.588,92.566,64.234,90.142,62.281,88.072z"/>
				<g>
					<path fill="#2A9377" d="M65.871,60.483c-0.023-0.092-0.039-0.143-0.039-0.143S65.844,60.39,65.871,60.483z"/>
					<path fill="#2A9377" d="M82.193,76.772c-0.924,1.332-4.576,3.607-3.424-4.088c-0.584,0.073-4.531,0.434-6.879-5.596
						c-0.025-0.063-0.049-0.126-0.074-0.188c-0.006,0.013-3.766-0.059-5.795-5.884c-0.07-0.245-0.121-0.423-0.15-0.534
						c0.182,0.762,0.773,4.381-3.975,6.197c0.777,0.821,3.797,6.77-0.479,8.402c-1.34,0.51-1.82,0.765-1.84,0.9
						c-0.033,0.221,0.471,0.033,1.236,0.235c0.086,0.022,0.313,0.104,0.352,0.123c0.1,0.052,0.248,0.14,0.35,0.212
						c0.025,0.021,0.15,0.146,0.201,0.213c0.051,0.07,0.104,0.144,0.121,0.182c0.033,0.076,0.068,0.159,0.08,0.211
						c0.02,0.084,0.037,0.167,0.039,0.21c0,0.024-0.002,0.058-0.008,0.095c-0.008,0.08-0.035,0.207-0.039,0.22
						c-0.012,0.03-0.021,0.06-0.035,0.089c-0.041,0.096-0.092,0.191-0.15,0.283c-0.291,0.455-0.805,0.878-1.475,1.235
						c3.268,2.286,7.303,2.979,7.355,11.444c1.084-0.094,2.254-0.232,3.879,0.18c0.98,0.249,1.434,0.582,1.641,0.781
						c0.559,0.542,0.916,1.414-0.484,2.953c0.861-0.005,4.346-1.119,6.596,1.311c-0.016-0.041-1.408-3.427,2.459-6.771
						c-0.969-0.553-3.418-3.207,2.184-4.57C82.844,84.256,80.373,82.967,82.193,76.772z"/>
				</g>
				<path fill="#1A6954" d="M74.045,80.308c-2.361,3.695-4.598,0.274-5.234-0.535c-2.361,3.033-6.465-0.88-7.922-1.809
					c1.574,3.089,0.033,3.449-0.814,3.253c-1.012,3.233-5.727,1.247-7.545,0.337l-0.941-0.5c1.631,1.413,4.143,4.791,1.857,11.184
					c2.334-1.133,7.197-2.565,5.947,4.433c2.041-0.925,4.807-2.011,6.016,0.181c1.102-0.875,5.313-3.658,6.713,1.098
					c0.4-1.556,3.656-3.266,5.826-3.007c0,0-4.285-3.128-1.313-7.714C73.469,87.251,73.738,82.812,74.045,80.308z"/>
				<g>
					<path fill="#2A9377" d="M41.016,96.491c-0.064,0.013-0.1,0.017-0.1,0.017S40.947,96.503,41.016,96.491z"/>
					<path fill="#2A9377" d="M55.85,102.243c0.582-0.955,1-3.895-3.535-1.02c-0.117-0.39-0.992-2.982-5.451-2.778
						c-0.045,0.003-0.092,0.005-0.139,0.007c0.006-0.009-1.088-2.359-5.33-2.014c-0.176,0.023-0.301,0.043-0.379,0.053
						c0.531-0.096,2.98-0.733,2.801-4.236c0.734,0.261,5.332,0.504,5.166-2.648c-0.051-0.988-0.023-1.363,0.057-1.412
						c0.127-0.082,0.15,0.287,0.492,0.713c0.037,0.049,0.152,0.169,0.176,0.188c0.061,0.049,0.156,0.117,0.23,0.16
						c0.021,0.014,0.137,0.056,0.191,0.07c0.059,0.014,0.119,0.024,0.15,0.025c0.057,0,0.117-0.002,0.154-0.01
						c0.057-0.01,0.115-0.022,0.143-0.033c0.016-0.007,0.035-0.018,0.059-0.03c0.047-0.028,0.119-0.08,0.127-0.088
						c0.016-0.015,0.031-0.03,0.047-0.046c0.049-0.053,0.094-0.111,0.137-0.175c0.205-0.311,0.33-0.753,0.367-1.275
						c2.355,1.424,3.918,3.775,9.275,1.445c0.242,0.71,0.482,1.488,1.197,2.399c0.428,0.547,0.766,0.74,0.949,0.814
						c0.496,0.201,1.148,0.184,1.729-1.129c0.236,0.544,0.508,3.055,2.668,3.795c-0.031,0.001-2.555,0.068-3.586,3.442
						c-0.619-0.457-2.977-1.261-2.273,2.655C60.754,100.563,59.25,99.364,55.85,102.243z"/>
				</g>
				<path fill="#49BEA6" d="M55.287,92.685c0.602-2.966-2.148-2.342-2.852-2.246c0.283-2.636-3.629-2.663-4.797-2.901
					c2.262-0.778,1.672-1.696,1.156-2.006c1.051-2.088-2.242-3.364-3.58-3.785l-0.705-0.204c1.484,0.082,4.352-0.388,6.285-4.656
					c0.613,1.683,2.338,4.727,5.074,0.657c0.568,1.437,1.42,3.302,3.07,2.795c0.127,0.962,0.881,4.362,3.855,2.675
					c-0.547,0.965,0.248,3.373,1.447,4.287c0,0-3.627-0.505-4.352,3.195C58.332,88.964,56.338,91.296,55.287,92.685z"/>
				<g>
					
						<ellipse transform="matrix(0.9274 -0.374 0.374 0.9274 -31.9846 35.6303)" fill="#BA2626" cx="75.819" cy="100.232" rx="2.193" ry="2.185"/>
					<circle fill="#6B1414" cx="76.469" cy="99.007" r="0.324"/>
				</g>
				<g>
					
						<ellipse transform="matrix(-0.6726 -0.74 0.74 -0.6726 58.7381 211.9956)" fill="#BA2626" cx="76.263" cy="93.005" rx="3.683" ry="3.645"/>
					<circle fill="#6B1414" cx="74.826" cy="92.094" r="0.739"/>
				</g>
				<g>
					<circle fill="#9B2020" cx="81.055" cy="87.617" r="2.321"/>
					<circle fill="#6B1414" cx="81.596" cy="86.016" r="0.344"/>
				</g>
			</g>
			<path fill="#1A6954" d="M78.008,55.822c3.695,0.224,1.93-3.942,1.455-4.7c3.994,1.494,3.756-4.891,3.574-5.27
				c1.223,0.171,1.953-0.903,2.354-1.852c0.043-0.1,0.08-0.198,0.115-0.295c0.029-0.078,0.078-0.25,0.121-0.418
				c0.033-0.131,0.115-0.601,0.135-0.74c0.051-0.359,0.098-0.705,0.098-0.705s-0.037,3.07,2.273,3.028
				c-0.242,0.38-0.861,4.36,3.58,3.288c-0.604,0.746-3.162,2.785-1.436,4.058c-0.277,0.335-2.043,3.671,1.947,3.44
				c-1.881,1.745-4.473,3.699-2.768,4.809c-0.691,0.414-2.102,2.693,1.17,3.116c-1.873,0.152-5.895,1.446-6.451,3.675
				c0,0-0.035-0.277-0.086-0.565c-0.037-0.202-0.297-0.923-0.404-1.116c-0.893-1.615-2.809-3.115-4.838-3.978
				C82.1,60.099,79.686,56.84,78.008,55.822z"/>
			<path fill="#49BEA6" d="M80.447,65.657c-1.678,5.098-6.342,0.492-7.109-0.555c-0.125,6.18-8.6,2.443-9.012,1.995
				c-0.422,1.737-2.26,2.146-3.754,2.179c-0.156,0.004-0.311,0.002-0.457-0.002c-0.121-0.004-0.381-0.028-0.631-0.061
				c-0.191-0.024-0.867-0.166-1.068-0.216c-0.51-0.122-1.002-0.245-1.002-0.245s4.156,1.593,2.865,4.684
				c0.641-0.123,6.334,1.174,2.51,6.582c1.328-0.414,5.445-2.771,6.236,0.238c0.6-0.195,6.035-0.787,3.592,4.463
				c3.357-1.6,7.377-4.045,7.957-1.156c0.928-0.709,4.754-1.39,3.572,3.246c1.207-2.444,5.102-7.17,8.402-6.728
				c0,0-0.354-0.194-0.715-0.417c-0.254-0.157-1.086-0.893-1.289-1.14c-1.697-2.069-2.693-5.45-2.77-8.644
				C84.018,73.458,80.918,68.463,80.447,65.657z"/>
			<g>
				<path fill="#2A9377" d="M98.781,44.73c0.031-0.089,0.047-0.14,0.047-0.14S98.811,44.638,98.781,44.73z"/>
				<path fill="#2A9377" d="M103.279,67.348c-1.508,0.592-5.809,0.451-0.57-5.302c-0.525-0.265-4.006-2.162-2.602-8.478
					c0.014-0.065,0.027-0.131,0.043-0.196c-0.012,0.007-3.096-2.143-1.541-8.113c0.076-0.244,0.135-0.419,0.172-0.528
					c-0.271,0.733-1.795,4.072-6.752,2.938c0.189,1.114-0.611,7.737-5.07,6.714c-1.398-0.32-1.939-0.376-2.031-0.274
					c-0.15,0.165,0.373,0.289,0.896,0.883c0.059,0.066,0.201,0.26,0.225,0.299c0.053,0.098,0.127,0.252,0.17,0.37
					c0.012,0.032,0.045,0.205,0.051,0.288c0.004,0.088,0.006,0.177-0.002,0.219c-0.012,0.083-0.031,0.17-0.051,0.219
					c-0.029,0.082-0.063,0.16-0.084,0.197c-0.014,0.02-0.033,0.046-0.059,0.074c-0.051,0.063-0.145,0.153-0.156,0.162
					c-0.025,0.019-0.051,0.037-0.078,0.054c-0.086,0.058-0.182,0.107-0.281,0.151c-0.496,0.216-1.156,0.281-1.914,0.205
					c1.443,3.719,4.41,6.541-0.256,13.604c0.953,0.524,2.004,1.062,3.123,2.309c0.676,0.75,0.867,1.279,0.928,1.561
					c0.164,0.76-0.025,1.684-2.045,2.184c0.719,0.476,4.234,1.49,4.752,4.76c0.01-0.044,0.736-3.631,5.813-4.258
					c-0.5-0.998-1.057-4.567,4.355-2.582C99.656,73.927,98.32,71.482,103.279,67.348z"/>
			</g>
			<path fill="#1A6954" d="M94.541,65.751c-4.018,1.756-3.973-2.331-4.049-3.356c-3.65,1.206-4.883-4.329-5.576-5.911
				c-0.412,3.441-1.893,2.884-2.488,2.25c-2.639,2.124-5.451-2.15-6.457-3.918l-0.502-0.939c0.568,2.081,0.775,6.284-4.682,10.326
				c2.57,0.356,7.41,1.872,2.477,6.992c2.209,0.367,5.111,1.003,4.896,3.496c1.404-0.113,6.451-0.082,4.969,4.647
				c1.197-1.069,4.855-0.679,6.514,0.743c0,0-1.82-4.983,3.201-7.139C90.199,71.199,92.893,67.661,94.541,65.751z"/>
			<g>
				<path fill="#2A9377" d="M58.094,60.82C58.033,60.794,58,60.777,58,60.777S58.031,60.79,58.094,60.82z"/>
				<path fill="#2A9377" d="M67.219,73.853c1.014-0.47,2.996-2.68-2.369-2.814c0.119-0.389,0.832-3.029-2.984-5.341
					c-0.039-0.024-0.078-0.048-0.119-0.072c0.01-0.004,0.408-2.565-3.309-4.64c-0.158-0.078-0.273-0.132-0.344-0.165
					c0.492,0.214,2.883,1.048,4.684-1.964c0.467,0.627,4.148,3.387,5.766,0.676c0.51-0.851,0.738-1.146,0.834-1.144
					c0.15,0.004-0.035,0.324,0.012,0.868c0.004,0.061,0.033,0.225,0.041,0.254c0.023,0.073,0.066,0.184,0.104,0.262
					c0.01,0.021,0.082,0.121,0.121,0.164s0.084,0.085,0.107,0.104c0.049,0.031,0.102,0.063,0.135,0.078
					c0.055,0.025,0.109,0.045,0.139,0.052c0.016,0.003,0.039,0.006,0.064,0.007c0.055,0.004,0.145,0,0.154-0.001
					c0.021-0.004,0.043-0.009,0.064-0.013c0.07-0.017,0.141-0.04,0.211-0.069c0.342-0.144,0.691-0.441,1.014-0.854
					c1.166,2.492,1.156,5.317,6.902,6.361c-0.193,0.725-0.426,1.506-0.34,2.658c0.053,0.695,0.227,1.044,0.336,1.208
					c0.303,0.442,0.854,0.789,2.064,0.022c-0.107,0.583-1.277,2.82,0.105,4.639c-0.025-0.017-2.16-1.365-4.893,0.864
					c-0.262-0.725-1.775-2.705-3.367,0.94C72.227,75.187,71.645,73.354,67.219,73.853z"/>
			</g>
			<path fill="#49BEA6" d="M72.07,65.597c2.148-2.129-0.482-3.141-1.121-3.452c1.701-2.032-1.533-4.233-2.371-5.08
				c2.313,0.612,2.332-0.479,2.078-1.022c2.033-1.151,0.008-4.042-0.869-5.137l-0.475-0.563c1.191,0.895,3.834,2.099,7.814-0.37
				c-0.426,1.738-0.688,5.227,3.852,3.368c-0.326,1.511-0.658,3.533,0.996,4.031c-0.43,0.87-1.695,4.114,1.715,4.368
				c-0.992,0.496-1.672,2.941-1.184,4.367c0,0-2.73-2.437-5.393,0.234C76.67,64.201,73.715,65.026,72.07,65.597z"/>
			<g>
				<path fill="#1A6954" d="M111.459,47.611c2.947,2.241,3.795-2.2,3.824-3.097c2.486,3.465,5.844-1.973,5.902-2.389
					c0.92,0.822,2.123,0.336,2.984-0.229c0.092-0.06,0.18-0.12,0.26-0.181c0.068-0.049,0.205-0.164,0.334-0.279
					c0.1-0.09,0.43-0.436,0.525-0.541c0.242-0.27,0.475-0.531,0.475-0.531s-1.742,2.529,0.201,3.781
					c-0.412,0.18-3.141,3.145,1.146,4.726c-0.916,0.282-4.178,0.554-3.451,2.571c-0.416,0.124-3.738,1.914-0.297,3.943
					c-2.533,0.401-5.773,0.585-4.975,2.454c-0.805-0.041-3.246,1.069-0.762,3.241c-1.641-0.916-5.703-2.078-7.406-0.537
					c0,0,0.125-0.25,0.242-0.517c0.084-0.189,0.268-0.932,0.287-1.153c0.158-1.84-0.602-4.15-1.805-5.996
					C112.479,53.442,112.289,49.39,111.459,47.611z"/>
				<path fill="#49BEA6" d="M108.014,57.14c-4.23,3.304-5.543-3.119-5.6-4.416c-3.543,5.064-8.504-2.754-8.596-3.356
					c-1.32,1.208-3.074,0.526-4.332-0.279c-0.133-0.083-0.26-0.169-0.379-0.255c-0.1-0.069-0.301-0.234-0.49-0.4
					c-0.145-0.127-0.629-0.622-0.768-0.775c-0.357-0.385-0.697-0.76-0.697-0.76s2.566,3.636-0.225,5.484
					c0.6,0.254,4.609,4.5-1.576,6.867c1.334,0.395,6.064,0.727,5.047,3.666c0.607,0.172,5.455,2.705,0.502,5.707
					c3.682,0.538,8.381,0.744,7.256,3.469c1.164-0.074,4.725,1.49,1.16,4.684c2.365-1.358,8.229-3.119,10.725-0.914
					c0,0-0.186-0.359-0.361-0.744c-0.123-0.272-0.404-1.347-0.436-1.665c-0.26-2.663,0.795-6.026,2.508-8.724
					C106.641,65.608,106.844,59.734,108.014,57.14z"/>
				<g>
					<path fill="#2A9377" d="M134.891,49.954c0.078-0.056,0.117-0.09,0.117-0.09S134.969,49.895,134.891,49.954z"/>
					<path fill="#2A9377" d="M126.045,71.251c-1.584-0.348-5.078-2.857,2.477-4.724c-0.291-0.513-2.127-4.026,2.553-8.493
						c0.049-0.045,0.098-0.091,0.148-0.138c-0.016-0.001-1.381-3.503,3.232-7.601c0.199-0.158,0.344-0.271,0.436-0.342
						c-0.633,0.459-3.756,2.386-7.244-1.315c-0.463,1.032-4.813,6.089-7.949,2.758c-0.984-1.044-1.4-1.393-1.535-1.358
						c-0.215,0.054,0.15,0.448,0.254,1.232c0.012,0.087,0.023,0.328,0.02,0.371c-0.01,0.113-0.033,0.283-0.064,0.404
						c-0.008,0.032-0.076,0.195-0.117,0.268c-0.047,0.075-0.094,0.149-0.123,0.181c-0.059,0.062-0.123,0.123-0.164,0.153
						c-0.07,0.051-0.141,0.099-0.18,0.117c-0.023,0.01-0.053,0.02-0.09,0.029c-0.078,0.023-0.205,0.047-0.219,0.047
						c-0.033,0.002-0.064,0.002-0.096,0.002c-0.104,0-0.211-0.012-0.318-0.031c-0.531-0.096-1.117-0.41-1.705-0.894
						c-0.869,3.894,0.025,7.888-7.781,11.159c0.5,0.967,1.074,1.998,1.311,3.656c0.145,1,0.008,1.547-0.098,1.813
						c-0.289,0.724-0.959,1.387-2.914,0.678c0.332,0.795,2.688,3.594,1.299,6.598c0.031-0.031,2.633-2.606,7.199-0.304
						c0.141-1.106,1.662-4.383,5.055,0.279C119.373,74.702,119.625,71.926,126.045,71.251z"/>
				</g>
				<path fill="#1A6954" d="M119.674,65.062c-4.316-0.777-2.006-4.148-1.5-5.043c-3.703-1.029-1.646-6.313-1.344-8.014
					c-2.256,2.631-3.176,1.342-3.318,0.484c-3.375,0.296-3.332-4.82-3.184-6.848l0.104-1.061c-0.686,2.045-2.852,5.654-9.635,5.975
					c1.938,1.727,5.115,5.679-1.832,7.188c1.631,1.536,3.688,3.679,2.123,5.631c1.229,0.686,5.404,3.521,1.541,6.626
					c1.59-0.223,4.412,2.138,5,4.242c0,0,1.26-5.155,6.631-4.151C113.033,67.172,117.24,65.73,119.674,65.062z"/>
				<g>
					<path fill="#2A9377" d="M92.133,40.682c-0.037-0.055-0.055-0.086-0.055-0.086S92.096,40.624,92.133,40.682z"/>
					<path fill="#2A9377" d="M92.463,56.589c1.104,0.176,3.98-0.56-0.404-3.656c0.316-0.257,2.379-2.053,0.494-6.1
						c-0.02-0.041-0.039-0.082-0.061-0.125c0.012,0.002,1.768-1.904-0.168-5.696c-0.088-0.152-0.152-0.261-0.191-0.33
						c0.289,0.454,1.811,2.478,4.982,0.977c0.039,0.78,1.564,5.122,4.416,3.771c0.895-0.425,1.25-0.543,1.328-0.488
						c0.125,0.089-0.209,0.251-0.475,0.729c-0.027,0.053-0.096,0.205-0.105,0.233c-0.021,0.075-0.049,0.19-0.059,0.276
						c-0.004,0.023,0,0.145,0.008,0.202c0.01,0.059,0.023,0.118,0.033,0.147c0.021,0.053,0.047,0.108,0.066,0.139
						c0.033,0.051,0.066,0.1,0.086,0.12c0.012,0.012,0.031,0.026,0.051,0.042c0.043,0.035,0.121,0.08,0.131,0.085
						c0.018,0.01,0.039,0.017,0.059,0.024c0.068,0.027,0.139,0.047,0.215,0.061c0.363,0.072,0.82,0.019,1.318-0.146
						c-0.42,2.721-1.998,5.062,2.195,9.127c-0.564,0.496-1.193,1.014-1.764,2.02c-0.342,0.606-0.391,0.993-0.391,1.189
						c0.004,0.537,0.268,1.132,1.703,1.168c-0.414,0.428-2.633,1.633-2.494,3.913c-0.012-0.027-1.037-2.337-4.549-2.004
						c0.188-0.746,0.033-3.235-3.32-1.093C95.881,60.483,96.418,58.638,92.463,56.589z"/>
				</g>
				<path fill="#49BEA6" d="M101.086,52.43c2.973-0.573,1.348-2.878,0.992-3.493c2.543-0.74,1.08-4.369,0.855-5.54
					c1.58,1.796,2.203,0.899,2.295,0.306c2.33,0.178,2.258-3.353,2.137-4.751l-0.08-0.731c0.49,1.406,2.016,3.877,6.697,4.039
					c-1.32,1.208-3.479,3.962,1.326,4.943c-1.111,1.073-2.512,2.569-1.414,3.903c-0.844,0.483-3.699,2.476-1.008,4.583
					c-1.1-0.138-3.025,1.514-3.412,2.972c0,0-0.912-3.546-4.611-2.808C105.686,53.829,102.77,52.87,101.086,52.43z"/>
				<g>
					
						<ellipse transform="matrix(0.6995 0.7146 -0.7146 0.6995 83.7183 -50.515)" fill="#BA2626" cx="101.925" cy="74.289" rx="2.193" ry="2.185"/>
					<circle fill="#6B1414" cx="103.305" cy="74.423" r="0.324"/>
				</g>
				<g>
					
						<ellipse transform="matrix(0.4283 -0.9036 0.9036 0.4283 -2.8252 139.428)" fill="#BA2626" cx="108.776" cy="71.947" rx="3.682" ry="3.645"/>
					<circle fill="#6B1414" cx="109.072" cy="70.272" r="0.74"/>
				</g>
				<g>
					<circle fill="#9B2020" cx="115.582" cy="74.328" r="2.321"/>
					<circle fill="#6B1414" cx="117.271" cy="74.217" r="0.344"/>
				</g>
			</g>
			<g>
				<path fill="#1A6954" d="M143.822,59.401c1.201,3.503,4.379,0.285,4.9-0.445c0.139,4.264,5.953,1.613,6.234,1.301
					c0.307,1.195,1.576,1.461,2.607,1.471c0.107,0.001,0.215-0.001,0.316-0.006c0.082-0.002,0.262-0.022,0.434-0.047
					c0.133-0.019,0.598-0.123,0.734-0.158c0.352-0.089,0.691-0.178,0.691-0.178s-2.855,1.135-1.938,3.255
					c-0.441-0.078-4.359,0.866-1.676,4.563c-0.92-0.274-3.779-1.864-4.299,0.218c-0.416-0.129-4.172-0.491-2.439,3.11
					c-2.33-1.074-5.123-2.728-5.5-0.729c-0.646-0.481-3.293-0.918-2.438,2.27c-0.854-1.675-3.58-4.901-5.854-4.568
					c0,0,0.242-0.137,0.488-0.294c0.176-0.11,0.742-0.625,0.881-0.798c1.152-1.442,1.811-3.783,1.836-5.986
					C141.426,64.814,143.521,61.341,143.822,59.401z"/>
				<path fill="#49BEA6" d="M135.658,65.402c-5.354,0.392-2.871-5.675-2.195-6.785c-5.762,2.237-5.533-7.021-5.275-7.571
					c-1.768,0.269-2.846-1.273-3.443-2.643c-0.064-0.144-0.121-0.285-0.174-0.423c-0.043-0.114-0.119-0.364-0.184-0.606
					c-0.051-0.186-0.176-0.866-0.207-1.07c-0.082-0.519-0.156-1.02-0.156-1.02s0.111,4.449-3.238,4.431
					c0.357,0.546,1.326,6.306-5.131,4.829c0.889,1.072,4.635,3.979,2.154,5.856c0.408,0.479,3.025,5.282-2.76,5.021
					c2.758,2.496,6.551,5.28,4.1,6.918c1.008,0.587,3.096,3.867-1.641,4.539c2.719,0.187,8.57,1.987,9.418,5.207
					c0,0,0.045-0.4,0.113-0.819c0.049-0.294,0.414-1.343,0.564-1.626c1.268-2.357,4.014-4.564,6.938-5.854
					C129.803,71.675,133.242,66.907,135.658,65.402z"/>
				<g>
					<path fill="#2A9377" d="M161.988,74.387c0.094-0.003,0.146-0.011,0.146-0.011S162.086,74.38,161.988,74.387z"/>
					<path fill="#2A9377" d="M142.787,87.16c-1.121-1.171-2.629-5.2,4.688-2.547c0.043-0.589,0.473-4.529,6.846-5.635
						c0.066-0.011,0.133-0.023,0.199-0.034c-0.012-0.009,0.803-3.678,6.916-4.516c0.254-0.021,0.438-0.034,0.553-0.042
						c-0.781,0.028-4.447-0.108-5.287-5.123c-0.959,0.599-7.387,2.381-8.139-2.132c-0.238-1.416-0.391-1.938-0.52-1.984
						c-0.211-0.074-0.127,0.457-0.477,1.166c-0.039,0.078-0.162,0.285-0.189,0.32c-0.07,0.087-0.186,0.215-0.279,0.301
						c-0.025,0.022-0.172,0.119-0.246,0.155c-0.08,0.037-0.162,0.071-0.203,0.082c-0.082,0.019-0.17,0.034-0.221,0.036
						c-0.088,0.004-0.172,0.004-0.215-0.003c-0.023-0.005-0.057-0.013-0.092-0.025c-0.076-0.023-0.195-0.075-0.209-0.083
						c-0.025-0.017-0.053-0.033-0.078-0.052c-0.088-0.058-0.17-0.128-0.248-0.204c-0.389-0.375-0.699-0.961-0.92-1.69
						c-2.887,2.751-4.367,6.567-12.676,4.942c-0.121,1.082-0.217,2.258-0.943,3.768c-0.438,0.911-0.854,1.289-1.09,1.452
						c-0.643,0.44-1.568,0.618-2.799-1.059c-0.166,0.845,0.234,4.481-2.592,6.205c0.045-0.009,3.639-0.701,6.15,3.753
						c0.732-0.842,3.82-2.717,4.047,3.045C135.324,86.315,137.078,84.149,142.787,87.16z"/>
				</g>
				<path fill="#1A6954" d="M140.938,78.471c-3.152-3.046,0.643-4.561,1.561-5.023c-2.504-2.915,2.145-6.163,3.344-7.405
					c-3.34,0.93-3.387-0.652-3.027-1.444c-2.969-1.632-0.088-5.858,1.164-7.462l0.676-0.823c-1.707,1.318-5.516,3.111-11.33-0.396
					c0.65,2.512,1.092,7.563-5.521,4.951c0.502,2.184,1.018,5.109-1.369,5.861c0.639,1.252,2.531,5.933-2.406,6.361
					c1.445,0.7,2.477,4.231,1.793,6.309c0,0,3.916-3.584,7.82,0.24C134.246,76.53,138.543,77.675,140.938,78.471z"/>
				<g>
					<path fill="#2A9377" d="M131.619,42.89c0-0.064,0.004-0.101,0.004-0.101S131.621,42.822,131.619,42.89z"/>
					<path fill="#2A9377" d="M123.043,56.292c0.82,0.76,3.619,1.75,1.699-3.264c0.406-0.038,3.119-0.383,3.803-4.793
						c0.008-0.045,0.014-0.092,0.021-0.137c0.008,0.007,2.527-0.6,3.029-4.827c0.014-0.177,0.018-0.302,0.023-0.382
						c-0.01,0.539,0.127,3.067,3.598,3.584c-0.402,0.67-1.551,5.127,1.572,5.59c0.979,0.146,1.34,0.246,1.373,0.334
						c0.055,0.144-0.313,0.093-0.797,0.342c-0.055,0.029-0.195,0.117-0.219,0.136c-0.059,0.049-0.146,0.131-0.203,0.195
						c-0.016,0.019-0.08,0.121-0.104,0.174c-0.027,0.053-0.049,0.111-0.057,0.14c-0.012,0.057-0.021,0.118-0.021,0.153
						c-0.002,0.061,0,0.12,0.004,0.148c0.004,0.015,0.01,0.038,0.018,0.063c0.018,0.054,0.057,0.134,0.061,0.143
						c0.012,0.019,0.025,0.036,0.037,0.055c0.041,0.06,0.09,0.114,0.145,0.168c0.262,0.263,0.672,0.472,1.176,0.612
						c-1.861,2.026-4.477,3.094-3.254,8.805c-0.744,0.098-1.555,0.18-2.588,0.699c-0.623,0.313-0.879,0.604-0.986,0.77
						c-0.297,0.447-0.408,1.089,0.764,1.917c-0.582,0.124-3.096-0.107-4.25,1.864c0.006-0.03,0.439-2.52-2.662-4.197
						c0.57-0.516,1.826-2.669-2.152-2.754C123.717,61.43,125.189,60.196,123.043,56.292z"/>
				</g>
				<path fill="#49BEA6" d="M132.523,57.633c2.787,1.179,2.719-1.641,2.766-2.35c2.527,0.801,3.33-3.029,3.795-4.126
					c0.313,2.37,1.33,1.973,1.736,1.529c1.838,1.445,3.74-1.529,4.42-2.758l0.34-0.652c-0.375,1.441-0.482,4.343,3.318,7.083
					c-1.77,0.268-5.096,1.355-1.65,4.847c-1.52,0.271-3.518,0.735-3.348,2.454c-0.969-0.066-4.449-0.001-3.387,3.249
					c-0.834-0.727-3.355-0.427-4.488,0.569c0,0,1.213-3.454-2.27-4.898C135.564,61.355,133.676,58.938,132.523,57.633z"/>
			</g>
			<g>
				<path fill="#1A6954" d="M164.152,87.206c-0.951,3.579,3.48,2.674,4.32,2.359c-2.258,3.619,4.047,4.65,4.455,4.548
					c-0.41,1.163,0.498,2.091,1.35,2.672c0.088,0.062,0.178,0.119,0.264,0.172c0.072,0.043,0.23,0.126,0.389,0.202
					c0.119,0.059,0.564,0.23,0.697,0.277c0.342,0.122,0.674,0.237,0.674,0.237s-3.004-0.646-3.42,1.627
					c-0.324-0.312-4.104-1.707-3.934,2.86c-0.611-0.74-2.102-3.654-3.693-2.213c-0.271-0.338-3.191-2.729-3.756,1.227
					c-1.34-2.189-2.74-5.117-4.166-3.666c-0.268-0.759-2.223-2.594-3.287,0.531c0.223-1.867-0.248-6.066-2.322-7.053
					c0,0,0.277,0.021,0.57,0.026c0.205,0.005,0.963-0.106,1.176-0.174c1.76-0.556,3.609-2.136,4.857-3.952
					C159.148,90.37,162.824,88.651,164.152,87.206z"/>
				<path fill="#49BEA6" d="M154.029,87.649c-4.666-2.654,0.773-6.313,1.953-6.858c-6.033-1.349-0.693-8.913-0.172-9.228
					c-1.619-0.761-1.656-2.641-1.391-4.11c0.027-0.155,0.057-0.306,0.092-0.448c0.027-0.119,0.104-0.369,0.184-0.605
					c0.063-0.184,0.338-0.819,0.424-1.006c0.221-0.477,0.439-0.934,0.439-0.934s-2.385,3.758-5.158,1.879
					c-0.006,0.653-2.406,5.978-6.949,1.158c0.143,1.384,1.637,5.886-1.469,6.064c0.072,0.626-0.426,6.073-5.086,2.637
					c0.902,3.607,2.504,8.031-0.445,8.029c0.514,1.049,0.422,4.936-3.889,2.858c2.156,1.667,6.018,6.419,4.93,9.566
					c0,0,0.26-0.308,0.549-0.616c0.205-0.219,1.092-0.887,1.375-1.037c2.363-1.254,5.873-1.561,9.021-1.004
					C145.676,89.604,151.186,87.556,154.029,87.649z"/>
				<g>
					<path fill="#2A9377" d="M170.908,109.765c0.08,0.051,0.127,0.074,0.127,0.074S170.992,109.814,170.908,109.765z"/>
					<path fill="#2A9377" d="M147.848,109.695c-0.281-1.597,0.709-5.784,5.311,0.491c0.363-0.464,2.912-3.5,8.824-0.872
						c0.061,0.028,0.123,0.054,0.186,0.082c-0.006-0.013,2.713-2.609,8.258,0.097c0.223,0.124,0.383,0.215,0.482,0.271
						c-0.666-0.409-3.637-2.563-1.543-7.197c-1.129-0.035-7.461-2.133-5.576-6.301c0.59-1.309,0.754-1.826,0.672-1.938
						c-0.133-0.179-0.357,0.31-1.045,0.705c-0.074,0.043-0.293,0.145-0.334,0.159c-0.107,0.033-0.273,0.076-0.398,0.095
						c-0.035,0.005-0.209,0.004-0.293-0.008c-0.086-0.013-0.174-0.029-0.213-0.045c-0.078-0.029-0.16-0.065-0.205-0.093
						c-0.074-0.045-0.145-0.093-0.176-0.122c-0.018-0.018-0.041-0.041-0.063-0.072c-0.049-0.063-0.121-0.171-0.127-0.185
						c-0.014-0.027-0.025-0.058-0.039-0.087c-0.037-0.098-0.068-0.199-0.092-0.308c-0.111-0.526-0.045-1.188,0.178-1.915
						c-3.93,0.679-7.283,3.026-13.281-2.946c-0.703,0.831-1.439,1.753-2.883,2.604c-0.869,0.513-1.426,0.596-1.713,0.6
						c-0.777,0.009-1.646-0.359-1.734-2.437c-0.609,0.609-2.299,3.854-5.607,3.714c0.041,0.018,3.414,1.441,3.021,6.54
						c1.078-0.291,4.688-0.131,1.668,4.781C142.115,104.841,144.779,104.016,147.848,109.695z"/>
				</g>
				<path fill="#1A6954" d="M151.145,101.446c-0.926-4.287,3.07-3.432,4.092-3.306c-0.459-3.815,5.211-3.927,6.898-4.293
					c-3.291-1.085-2.449-2.427-1.711-2.885c-1.559-3.007,3.188-4.916,5.119-5.552l1.02-0.307c-2.152,0.145-6.313-0.484-9.193-6.635
					c-0.857,2.449-3.303,6.891-7.344,1.043c-0.799,2.092-1.996,4.812-4.398,4.106c-0.166,1.396-1.197,6.338-5.539,3.946
					c0.811,1.388-0.297,4.895-2.02,6.239c0,0,5.246-0.797,6.365,4.552C146.664,96.111,149.598,99.452,151.145,101.446z"/>
				<g>
					<path fill="#2A9377" d="M163.201,66.698c0.035-0.056,0.059-0.083,0.059-0.083S163.24,66.643,163.201,66.698z"/>
					<path fill="#2A9377" d="M148.617,73.06c0.26,1.088,2.033,3.468,3.229-1.764c0.355,0.193,2.803,1.416,5.826-1.867
						c0.031-0.035,0.061-0.068,0.094-0.103c0.002,0.01,2.434,0.908,5.203-2.324c0.107-0.14,0.184-0.242,0.232-0.304
						c-0.309,0.439-1.602,2.617,0.994,4.979c-0.707,0.334-4.141,3.396-1.805,5.52c0.732,0.666,0.977,0.95,0.955,1.041
						c-0.033,0.15-0.311-0.096-0.852-0.16c-0.061-0.006-0.227-0.01-0.258-0.009c-0.076,0.009-0.193,0.027-0.277,0.05
						c-0.023,0.008-0.135,0.056-0.184,0.086c-0.051,0.03-0.1,0.065-0.123,0.086c-0.043,0.041-0.084,0.086-0.104,0.115
						c-0.035,0.049-0.066,0.099-0.078,0.125c-0.008,0.016-0.014,0.038-0.02,0.062c-0.016,0.055-0.029,0.142-0.029,0.153
						c-0.002,0.021-0.002,0.044-0.002,0.065c0.004,0.073,0.012,0.145,0.027,0.221c0.072,0.364,0.295,0.765,0.637,1.163
						c-2.674,0.648-5.441,0.079-7.604,5.506c-0.674-0.334-1.391-0.718-2.539-0.86c-0.689-0.087-1.066,0.014-1.248,0.089
						c-0.496,0.208-0.943,0.68-0.432,2.02c-0.553-0.219-2.512-1.812-4.568-0.815c0.021-0.022,1.766-1.849,0.123-4.968
						c0.762-0.112,3.002-1.203-0.256-3.487C146.318,77.704,148.229,77.498,148.617,73.06z"/>
				</g>
				<path fill="#49BEA6" d="M155.748,79.45c1.66,2.529,3.174,0.15,3.605-0.414c1.654,2.072,4.451-0.664,5.449-1.317
					c-1.059,2.146,0.008,2.38,0.592,2.239c0.725,2.221,3.959,0.81,5.207,0.166l0.645-0.352c-1.111,0.988-2.816,3.339-1.184,7.73
					c-1.621-0.762-4.988-1.709-4.066,3.109c-1.416-0.62-3.332-1.346-4.148,0.176c-0.768-0.594-3.697-2.477-4.621,0.815
					c-0.291-1.069-2.551-2.222-4.047-2.024c0,0,2.932-2.194,0.84-5.333C156.205,84.235,155.98,81.175,155.748,79.45z"/>
				<g>
					
						<ellipse transform="matrix(-0.3946 0.9188 -0.9188 -0.3946 270.8264 -1.3366)" fill="#BA2626" cx="135.854" cy="88.549" rx="2.193" ry="2.184"/>
					<circle fill="#6B1414" cx="136.255" cy="89.876" r="0.325"/>
				</g>
				<g>
					
						<ellipse transform="matrix(0.9987 0.0518 -0.0518 0.9987 5.0605 -7.1622)" fill="#BA2626" cx="140.628" cy="93.993" rx="3.684" ry="3.645"/>
					<path fill="#6B1414" d="M142.521,94.331c-0.391,0.128-0.809-0.084-0.936-0.473c-0.127-0.391,0.084-0.807,0.473-0.933
						c0.389-0.128,0.807,0.084,0.934,0.473C143.119,93.786,142.906,94.203,142.521,94.331z"/>
				</g>
				<g>
					<circle fill="#9B2020" cx="141.019" cy="101.193" r="2.32"/>
					<circle fill="#6B1414" cx="141.764" cy="102.711" r="0.344"/>
				</g>
			</g>
			<g>
				<path fill="#1A6954" d="M165.572,121.622c-2.781,2.444,1.404,4.156,2.277,4.362c-3.889,1.751,0.775,6.118,1.17,6.259
					c-0.986,0.74-0.748,2.016-0.365,2.971c0.041,0.102,0.084,0.199,0.125,0.29c0.035,0.077,0.123,0.233,0.209,0.384
					c0.068,0.115,0.342,0.506,0.428,0.62c0.215,0.292,0.426,0.571,0.426,0.571s-2.135-2.208-3.746-0.553
					c-0.096-0.438-2.461-3.701-4.859,0.189c-0.096-0.955,0.287-4.206-1.838-3.893c-0.039-0.435-1.135-4.045-3.805-1.072
					c0.107-2.564,0.57-5.776-1.42-5.364c0.199-0.778-0.404-3.392-3.027-1.388c1.225-1.428,3.17-5.178,1.994-7.152
					c0,0,0.221,0.172,0.459,0.34c0.168,0.119,0.861,0.447,1.074,0.51c1.771,0.518,4.188,0.233,6.234-0.581
					C159.656,121.468,163.664,122.083,165.572,121.622z"/>
				<path fill="#49BEA6" d="M156.916,116.357c-2.4-4.802,4.154-4.814,5.438-4.612c-4.262-4.477,4.385-7.791,4.992-7.764
					c-0.922-1.53,0.094-3.114,1.133-4.188c0.107-0.113,0.217-0.22,0.324-0.322c0.09-0.083,0.291-0.247,0.49-0.399
					c0.154-0.118,0.734-0.494,0.912-0.6c0.449-0.272,0.883-0.531,0.883-0.531s-4.072,1.795-5.33-1.31
					c-0.369,0.54-5.324,3.628-6.42-2.904c-0.65,1.229-1.914,5.801-4.594,4.222c-0.289,0.561-3.732,4.81-5.693-0.641
					c-1.256,3.501-2.389,8.068-4.836,6.425c-0.158,1.156-2.396,4.335-4.822,0.21c0.863,2.587,1.428,8.683-1.229,10.693
					c0,0,0.389-0.111,0.801-0.206c0.291-0.067,1.4-0.13,1.719-0.098c2.662,0.272,5.75,1.973,8.055,4.186
					C148.887,113.333,154.604,114.697,156.916,116.357z"/>
				<g>
					<path fill="#2A9377" d="M158.635,144.125c0.037,0.087,0.063,0.134,0.063,0.134S158.676,144.213,158.635,144.125z"/>
					<path fill="#2A9377" d="M139.512,131.235c0.654-1.483,3.807-4.411,4.139,3.362c0.561-0.183,4.367-1.286,7.818,4.187
						c0.035,0.057,0.072,0.114,0.107,0.172c0.004-0.016,3.705-0.66,6.807,4.674c0.117,0.227,0.199,0.393,0.252,0.495
						c-0.326-0.71-1.594-4.154,2.723-6.839c-0.92-0.658-5.014-5.925-1.129-8.338c1.219-0.758,1.643-1.098,1.637-1.236
						c-0.01-0.222-0.469,0.059-1.26,0.005c-0.086-0.006-0.324-0.043-0.365-0.055c-0.109-0.032-0.271-0.089-0.385-0.144
						c-0.029-0.014-0.176-0.113-0.238-0.168c-0.064-0.059-0.129-0.121-0.152-0.156c-0.049-0.068-0.098-0.145-0.119-0.191
						c-0.035-0.079-0.068-0.158-0.078-0.199c-0.006-0.023-0.01-0.057-0.012-0.094c-0.006-0.08-0.006-0.209-0.002-0.225
						c0.004-0.031,0.01-0.063,0.018-0.094c0.02-0.102,0.053-0.204,0.094-0.307c0.199-0.501,0.623-1.014,1.213-1.493
						c-3.645-1.622-7.736-1.538-9.396-9.839c-1.047,0.3-2.17,0.658-3.844,0.562c-1.01-0.058-1.518-0.299-1.758-0.455
						c-0.65-0.426-1.168-1.214-0.086-2.991c-0.844,0.17-4.055,1.924-6.725-0.033c0.023,0.037,2.033,3.097-1.129,7.116
						c1.057,0.356,3.967,2.499-1.273,4.901C137.449,124.013,140.121,124.809,139.512,131.235z"/>
				</g>
				<path fill="#1A6954" d="M146.842,126.215c1.615-4.075,4.461-1.142,5.238-0.469c1.742-3.425,6.516-0.363,8.121,0.271
					c-2.131-2.733-0.686-3.38,0.182-3.351c0.379-3.365,5.385-2.31,7.344-1.764l1.02,0.313c-1.869-1.076-4.977-3.916-3.947-10.628
					c-2.076,1.557-6.58,3.888-6.682-3.22c-1.828,1.295-4.336,2.888-5.941,0.965c-0.914,1.068-4.521,4.601-6.797,0.197
					c-0.1,1.605-2.971,3.901-5.15,4.061c0,0,4.803,2.256,2.754,7.322C146.088,119.29,146.666,123.699,146.842,126.215z"/>
				<g>
					<path fill="#2A9377" d="M176.193,104.052c0.061-0.025,0.096-0.036,0.096-0.036S176.258,104.026,176.193,104.052z"/>
					<path fill="#2A9377" d="M160.535,101.224c-0.389,1.048-0.238,4.013,3.666,0.329c0.189,0.36,1.541,2.737,5.879,1.691
						c0.045-0.011,0.09-0.022,0.135-0.033c-0.004,0.01,1.518,2.108,5.617,0.965c0.168-0.056,0.287-0.099,0.361-0.124
						c-0.5,0.194-2.787,1.285-1.943,4.691c-0.771-0.117-5.332,0.518-4.57,3.58c0.238,0.962,0.283,1.334,0.213,1.398
						c-0.109,0.105-0.205-0.254-0.619-0.607c-0.045-0.039-0.182-0.136-0.207-0.15c-0.068-0.036-0.178-0.086-0.26-0.113
						c-0.023-0.008-0.141-0.028-0.199-0.031c-0.061-0.004-0.121-0.001-0.15,0.003c-0.057,0.011-0.117,0.025-0.15,0.038
						c-0.057,0.021-0.109,0.045-0.135,0.061c-0.014,0.009-0.031,0.023-0.051,0.041c-0.043,0.035-0.102,0.102-0.109,0.109
						c-0.014,0.019-0.025,0.037-0.037,0.055c-0.037,0.061-0.07,0.127-0.1,0.198c-0.145,0.342-0.182,0.8-0.119,1.321
						c-2.582-0.951-4.564-2.962-9.381,0.343c-0.373-0.651-0.758-1.369-1.631-2.127c-0.525-0.456-0.895-0.583-1.088-0.62
						c-0.527-0.104-1.162,0.038-1.48,1.438c-0.336-0.49-1.08-2.903-3.342-3.221c0.029-0.005,2.494-0.552,2.865-4.06
						c0.695,0.331,3.164,0.673,1.729-3.039C156.041,103.802,157.744,104.694,160.535,101.224z"/>
				</g>
				<path fill="#49BEA6" d="M162.906,110.501c-0.029,3.025,2.553,1.89,3.225,1.662c0.223,2.643,4.068,1.926,5.26,1.938
					c-2.07,1.193-1.316,1.981-0.752,2.188c-0.635,2.251,2.84,2.878,4.232,3.037l0.732,0.066c-1.473,0.203-4.199,1.207-5.285,5.765
					c-0.922-1.533-3.193-4.194-5.109,0.32c-0.832-1.303-2.02-2.972-3.545-2.161c-0.307-0.92-1.693-4.115-4.293-1.894
					c0.354-1.05-0.883-3.266-2.236-3.935c0,0,3.656-0.192,3.666-3.963C160.623,114.731,162.139,112.063,162.906,110.501z"/>
			</g>
			<g>
				<path fill="#1A6954" d="M147.604,151.009c-3.672,0.483-1.146,4.234-0.535,4.892c-4.205-0.71-2.76,5.514-2.51,5.852
					c-1.232,0.064-1.744,1.257-1.957,2.265c-0.023,0.106-0.043,0.211-0.059,0.311c-0.014,0.083-0.029,0.262-0.039,0.436
					c-0.008,0.133,0.002,0.609,0.008,0.752c0.018,0.361,0.037,0.711,0.037,0.711s-0.545-3.022-2.805-2.543
					c0.164-0.417,0.016-4.443-4.143-2.547c0.453-0.847,2.578-3.336,0.639-4.256c0.211-0.383,1.309-3.992-2.564-3.009
					c1.516-2.07,3.689-4.481,1.805-5.246c0.598-0.538,1.551-3.044-1.744-2.837c1.813-0.507,5.516-2.541,5.639-4.834
					c0,0,0.086,0.265,0.191,0.538c0.074,0.192,0.467,0.849,0.609,1.021c1.184,1.416,3.348,2.522,5.504,2.985
					C142.773,147.587,145.762,150.329,147.604,151.009z"/>
				<path fill="#49BEA6" d="M143.34,141.816c0.678-5.324,6.131-1.688,7.084-0.808c-1.051-6.09,7.979-4.032,8.469-3.671
					c0.086-1.786,1.811-2.536,3.271-2.851c0.152-0.035,0.303-0.063,0.447-0.087c0.121-0.019,0.381-0.044,0.633-0.06
					c0.191-0.012,0.883-0.002,1.088,0.009c0.527,0.023,1.031,0.05,1.031,0.05s-4.383-0.773-3.701-4.055
					c-0.605,0.245-6.441,0.053-3.717-5.984c-1.225,0.66-4.818,3.755-6.166,0.952c-0.553,0.306-5.777,1.919-4.375-3.699
					c-2.992,2.208-6.473,5.373-7.594,2.646c-0.773,0.872-4.402,2.268-4.123-2.509c-0.721,2.63-3.646,8.008-6.971,8.201
					c0,0,0.385,0.124,0.781,0.273c0.277,0.107,1.234,0.671,1.48,0.876c2.061,1.708,3.68,4.839,4.365,7.959
					C138.352,134.836,142.342,139.151,143.34,141.816z"/>
				<g>
					<path fill="#2A9377" d="M129.316,165.844c-0.016,0.095-0.021,0.147-0.021,0.147S129.303,165.94,129.316,165.844z"/>
					<path fill="#2A9377" d="M120.6,144.493c1.371-0.867,5.619-1.547,1.568,5.098c0.568,0.16,4.344,1.362,4.166,7.829
						c-0.002,0.066-0.004,0.134-0.006,0.201c0.012-0.009,3.445,1.517,3.055,7.673c-0.029,0.255-0.053,0.437-0.066,0.55
						c0.125-0.771,0.986-4.337,6.068-4.165c-0.396-1.061-0.869-7.714,3.701-7.557c1.436,0.049,1.977,0.002,2.049-0.116
						c0.115-0.19-0.424-0.214-1.049-0.697c-0.068-0.053-0.246-0.217-0.275-0.249c-0.072-0.088-0.174-0.226-0.24-0.332
						c-0.016-0.029-0.082-0.193-0.102-0.273c-0.021-0.086-0.039-0.174-0.041-0.215c-0.004-0.084-0.002-0.173,0.008-0.225
						c0.014-0.087,0.029-0.17,0.045-0.21c0.01-0.022,0.023-0.052,0.045-0.083c0.037-0.072,0.111-0.178,0.121-0.189
						c0.02-0.023,0.043-0.045,0.066-0.068c0.074-0.072,0.158-0.139,0.248-0.201c0.445-0.306,1.082-0.496,1.84-0.566
						c-2.125-3.376-5.572-5.583-2.334-13.403c-1.035-0.333-2.17-0.661-3.506-1.673c-0.805-0.608-1.094-1.092-1.205-1.355
						c-0.307-0.716-0.297-1.66,1.59-2.533c-0.793-0.33-4.438-0.656-5.566-3.77c-0.002,0.045-0.033,3.705-4.896,5.285
						c0.678,0.885,1.902,4.283-3.787,3.363C122.906,137.347,124.684,139.493,120.6,144.493z"/>
				</g>
				<path fill="#1A6954" d="M129.482,144.401c3.611-2.486,4.344,1.533,4.615,2.525c3.354-1.875,5.617,3.324,6.596,4.744
					c-0.248-3.457,1.313-3.189,2.016-2.682c2.189-2.586,5.762,1.077,7.084,2.621l0.672,0.826c-0.953-1.936-1.957-6.022,2.635-11.027
					c-2.592,0.139-7.629-0.431-3.762-6.395c-2.238,0.06-5.207-0.013-5.471-2.502c-1.355,0.378-6.316,1.307-5.76-3.619
					c-0.973,1.278-4.639,1.589-6.537,0.508c0,0,2.734,4.548-1.785,7.617C132.711,138.228,130.738,142.213,129.482,144.401z"/>
				<g>
					<path fill="#2A9377" d="M166.205,142.317c0.064,0.014,0.098,0.023,0.098,0.023S166.271,142.335,166.205,142.317z"/>
					<path fill="#2A9377" d="M154.77,131.257c-0.908,0.653-2.434,3.2,2.859,2.313c-0.041,0.404-0.242,3.132,3.945,4.677
						c0.045,0.016,0.086,0.031,0.131,0.048c-0.008,0.006,0.088,2.596,4.129,3.926c0.172,0.047,0.295,0.078,0.371,0.098
						c-0.525-0.117-3.031-0.482-4.227,2.818c-0.576-0.527-4.717-2.538-5.789,0.432c-0.338,0.932-0.506,1.266-0.602,1.28
						c-0.15,0.025-0.027-0.324-0.174-0.849c-0.018-0.06-0.076-0.215-0.092-0.242c-0.035-0.067-0.098-0.17-0.15-0.236
						c-0.016-0.02-0.102-0.104-0.148-0.139c-0.049-0.036-0.102-0.067-0.129-0.081c-0.053-0.022-0.109-0.044-0.145-0.052
						c-0.059-0.014-0.117-0.024-0.146-0.025c-0.016,0-0.039,0.003-0.063,0.006c-0.059,0.008-0.145,0.027-0.152,0.031
						c-0.021,0.008-0.043,0.016-0.063,0.024c-0.064,0.03-0.129,0.065-0.193,0.108c-0.311,0.205-0.596,0.564-0.832,1.032
						c-1.619-2.227-2.146-5.001-7.986-4.935c0.051-0.749,0.131-1.56-0.172-2.675c-0.184-0.673-0.42-0.981-0.559-1.121
						c-0.381-0.38-0.986-0.614-2.031,0.37c-0.008-0.594,0.719-3.014-0.984-4.534c0.027,0.011,2.381,0.929,4.641-1.779
						c0.393,0.663,2.256,2.319,3.125-1.562C149.6,130.898,150.518,132.586,154.77,131.257z"/>
				</g>
				<path fill="#49BEA6" d="M151.576,140.283c-1.707,2.499,1.068,2.991,1.754,3.177c-1.285,2.318,2.311,3.864,3.293,4.537
					c-2.385-0.162-2.197,0.912-1.844,1.398c-1.779,1.517,0.758,3.971,1.828,4.879l0.57,0.463c-1.336-0.652-4.16-1.334-7.6,1.848
					c0.088-1.787-0.318-5.263-4.422-2.576c0.035-1.545-0.025-3.593-1.742-3.768c0.258-0.936,0.883-4.363-2.514-3.963
					c0.879-0.675,1.084-3.205,0.33-4.512c0,0,3.146,1.873,5.252-1.256C147.326,142.528,150.068,141.155,151.576,140.283z"/>
				<g>
					
						<ellipse transform="matrix(-0.9999 -0.0154 0.0154 -0.9999 269.2317 252.7727)" fill="#BA2626" cx="135.587" cy="125.352" rx="2.193" ry="2.185"/>
					<circle fill="#6B1414" cx="134.513" cy="126.229" r="0.325"/>
				</g>
				<g>
					<path fill="#BA2626" d="M133.596,135.313c-1.898,0.669-3.982-0.341-4.662-2.261c-0.674-1.917,0.314-4.016,2.213-4.687
						c1.898-0.669,3.982,0.343,4.662,2.261C136.486,132.545,135.494,134.644,133.596,135.313z"/>
					<circle fill="#6B1414" cx="133.34" cy="133.237" r="0.74"/>
				</g>
				<g>
					<circle fill="#9B2020" cx="125.862" cy="134.941" r="2.322"/>
					<circle fill="#6B1414" cx="124.742" cy="136.208" r="0.344"/>
				</g>
			</g>
			<g>
				<path fill="#1A6954" d="M116.32,165.427c-3.318-1.643-3.309,2.88-3.166,3.766c-3.1-2.929-5.361,3.047-5.342,3.466
					c-1.061-0.632-2.148,0.075-2.887,0.793c-0.078,0.076-0.15,0.151-0.219,0.227c-0.059,0.062-0.172,0.2-0.275,0.339
					c-0.082,0.105-0.338,0.508-0.412,0.63c-0.188,0.31-0.365,0.612-0.365,0.612s1.229-2.815-0.916-3.674
					c0.369-0.257,2.486-3.685-2.023-4.422c0.846-0.453,3.996-1.337,2.898-3.182c0.387-0.199,3.309-2.589-0.457-3.927
					c2.412-0.876,5.559-1.671,4.418-3.355c0.797-0.112,2.984-1.665,0.131-3.327c1.787,0.588,5.996,0.959,7.373-0.879
					c0,0-0.074,0.27-0.139,0.555c-0.045,0.199-0.086,0.965-0.063,1.186c0.195,1.836,1.379,3.961,2.912,5.543
					C114.213,159.896,115.168,163.837,116.32,165.427z"/>
				<path fill="#49BEA6" d="M117.893,155.416c3.525-4.047,6.035,2.009,6.336,3.272c2.516-5.646,8.873,1.088,9.078,1.66
					c1.066-1.436,2.916-1.1,4.305-0.549c0.146,0.058,0.287,0.117,0.422,0.179c0.111,0.05,0.34,0.175,0.557,0.301
					c0.168,0.097,0.736,0.491,0.9,0.614c0.424,0.312,0.828,0.614,0.828,0.614s-3.211-3.081-0.818-5.427
					c-0.639-0.137-5.381-3.543,0.242-7.041c-1.385-0.135-6.094,0.438-5.654-2.643c-0.627-0.052-5.869-1.619-1.576-5.506
					c-3.715,0.17-8.369,0.861-7.781-2.027c-1.129,0.295-4.92-0.565-2.029-4.378c-2.064,1.783-7.486,4.626-10.355,2.936
					c0,0,0.25,0.316,0.496,0.661c0.172,0.245,0.652,1.246,0.744,1.553c0.76,2.564,0.365,6.066-0.805,9.042
					C117.633,146.84,118.549,152.646,117.893,155.416z"/>
				<g>
					<path fill="#2A9377" d="M92.871,167.578c-0.066,0.069-0.098,0.11-0.098,0.11S92.807,167.649,92.871,167.578z"/>
					<path fill="#2A9377" d="M97.508,144.987c1.621,0.042,5.529,1.842-1.533,5.108c0.383,0.448,2.854,3.549-0.893,8.823
						c-0.039,0.054-0.078,0.109-0.119,0.164c0.016-0.002,2.02,3.177-1.73,8.076c-0.164,0.193-0.285,0.332-0.361,0.419
						c0.533-0.571,3.234-3.057,7.361-0.085c0.26-1.102,3.568-6.893,7.281-4.219c1.164,0.839,1.639,1.102,1.766,1.042
						c0.201-0.095-0.234-0.412-0.484-1.163c-0.029-0.082-0.084-0.315-0.09-0.359c-0.012-0.111-0.02-0.283-0.014-0.41
						c0.002-0.033,0.037-0.205,0.066-0.283c0.029-0.083,0.063-0.166,0.084-0.201c0.045-0.071,0.098-0.145,0.133-0.182
						c0.059-0.064,0.119-0.125,0.154-0.15c0.021-0.014,0.049-0.029,0.082-0.045c0.072-0.037,0.191-0.085,0.207-0.089
						c0.029-0.007,0.061-0.015,0.094-0.02c0.102-0.02,0.207-0.026,0.318-0.028c0.539-0.008,1.176,0.189,1.842,0.553
						c0.115-3.988-1.523-7.739,5.52-12.436c-0.676-0.854-1.434-1.756-1.98-3.34c-0.33-0.955-0.303-1.518-0.248-1.799
						c0.145-0.764,0.678-1.543,2.73-1.219c-0.477-0.717-3.322-3.016-2.527-6.23c-0.027,0.037-2.09,3.06-7.01,1.666
						c0.072,1.113-0.801,4.619-5.018,0.688C103.402,140.331,103.684,143.104,97.508,144.987z"/>
				</g>
				<path fill="#1A6954" d="M104.941,149.854c4.385-0.058,2.756,3.689,2.43,4.665c3.83,0.308,2.816,5.887,2.84,7.613
					c1.717-3.011,2.865-1.921,3.168-1.106c3.254-0.932,4.186,4.099,4.426,6.119l0.1,1.06c0.285-2.139,1.727-6.093,8.324-7.696
					c-2.23-1.327-6.1-4.604,0.434-7.406c-1.893-1.196-4.32-2.908-3.154-5.123c-1.336-0.44-5.975-2.43-2.771-6.213
					c-1.52,0.521-4.738-1.26-5.715-3.215c0,0-0.258,5.299-5.721,5.336C111.059,146.521,107.203,148.733,104.941,149.854z"/>
				<g>
					<path fill="#2A9377" d="M136.613,168.556c0.045,0.047,0.068,0.074,0.068,0.074S136.658,168.606,136.613,168.556z"/>
					<path fill="#2A9377" d="M133.266,153.001c-1.117,0.038-3.803,1.307,1.09,3.515c-0.26,0.313-1.943,2.467,0.676,6.081
						c0.027,0.037,0.055,0.073,0.08,0.111c-0.008,0-1.371,2.206,1.248,5.56c0.115,0.134,0.201,0.229,0.254,0.288
						c-0.371-0.39-2.25-2.087-5.08-0.01c-0.184-0.759-2.508-4.733-5.051-2.863c-0.797,0.587-1.125,0.77-1.211,0.73
						c-0.139-0.063,0.156-0.287,0.326-0.805c0.02-0.057,0.057-0.219,0.061-0.25c0.006-0.077,0.01-0.196,0.006-0.281
						c-0.002-0.023-0.029-0.144-0.047-0.197c-0.021-0.057-0.045-0.112-0.061-0.138c-0.033-0.05-0.068-0.099-0.094-0.125
						c-0.039-0.044-0.082-0.085-0.105-0.101c-0.014-0.01-0.037-0.021-0.059-0.032c-0.049-0.026-0.133-0.056-0.143-0.06
						c-0.021-0.004-0.043-0.009-0.064-0.012c-0.07-0.013-0.145-0.02-0.221-0.02c-0.371-0.002-0.811,0.139-1.268,0.395
						c-0.104-2.75,1-5.348-3.889-8.543c0.459-0.595,0.977-1.222,1.346-2.318c0.223-0.66,0.197-1.05,0.16-1.241
						c-0.105-0.528-0.479-1.06-1.895-0.823c0.324-0.498,2.275-2.104,1.705-4.315c0.018,0.024,1.461,2.098,4.846,1.104
						c-0.041,0.768,0.584,3.181,3.467,0.441C129.168,149.828,128.992,151.741,133.266,153.001z"/>
				</g>
				<path fill="#49BEA6" d="M125.588,158.726c-2.807,1.126-0.773,3.08-0.309,3.615c-2.357,1.211-0.23,4.496,0.211,5.603
					c-1.893-1.464-2.334-0.464-2.311,0.136c-2.32,0.27-1.578,3.721-1.195,5.07l0.219,0.703c-0.748-1.286-2.715-3.424-7.344-2.693
					c1.068-1.437,2.662-4.551-2.24-4.601c0.887-1.267,1.979-3,0.646-4.101c0.734-0.635,3.162-3.135,0.117-4.691
					c1.105-0.073,2.684-2.061,2.787-3.564c0,0,1.57,3.307,5.061,1.879C120.809,158.225,123.852,158.61,125.588,158.726z"/>
			</g>
		</g>
		<g>
			<path fill="#D64542" d="M114.654,152.608c0.537-0.608,1.346-1.494,2.588-2.795c2.625-2.756,6.973-4.812,10.199-6.088
				c-0.006-0.387-0.158-0.894-0.666-1.51c-4.824-5.64-6.279-8.337-8.434-6.284c-0.809,0.891-7.523,7.225-9.32,13.155
				c-0.041,0.137-0.076,0.257-0.115,0.386c2.432,0.257,4.547,1.54,5.938,3.397C114.779,152.786,114.723,152.692,114.654,152.608z"/>
			<path fill="#D64542" d="M106.979,149.087c-1.797-5.931-8.512-12.265-9.32-13.155c-2.154-2.053-3.611,0.645-8.436,6.284
				c-0.508,0.619-0.66,1.127-0.666,1.516c3.227,1.276,7.566,3.33,10.188,6.084c1.246,1.306,2.059,2.192,2.594,2.801
				c-0.063,0.08-0.117,0.166-0.178,0.246c1.391-1.854,3.506-3.133,5.934-3.39C107.055,149.344,107.02,149.224,106.979,149.087z"/>
			<circle fill="#BA2626" cx="107.999" cy="157.981" r="8.556"/>
			<g>
				<path fill="#E25252" d="M114.697,163.298c0.012-0.016,0.023-0.033,0.035-0.049c-1.566,2-3.996,3.288-6.732,3.288
					c-0.404,0-0.795-0.036-1.184-0.091c1.014,2.426,2.152,4.968,3.412,7.501c0.996,2.362,4.516,9.806,8.115,15.157
					c2.262-5.604,3.092-7.253,3.092-7.253s4.709,1.132,7.15,1.421c-2.145-3.219-6.604-10.359-10.303-19.203
					C117.027,163.828,115.809,163.57,114.697,163.298z"/>
			</g>
			<path fill="#C13534" d="M116.092,155.215c1.959-0.454,4.424-0.976,7.209-1.447v-0.001c4.01-0.708,6.844-1.09,8.805-1.291
				c2.914-0.354,3.588-0.246,3.588-0.246v0.002c0.111,0.007,0.217,0.02,0.313,0.041c0.012,0,0.02,0.002,0.02,0.002v0.001
				c0.092,0.021,0.176,0.05,0.256,0.081c-0.008-0.205-0.035-0.431-0.094-0.687c-1.768-7.207-1.855-10.271-4.703-9.407
				c-1.123,0.432-9.971,3.063-14.242,7.551c-1.242,1.301-2.051,2.187-2.588,2.795C115.438,153.577,116.176,155.462,116.092,155.215z
				"/>
			<g>
				<path fill="#C13534" d="M108,166.537c-2.736,0-5.166-1.287-6.73-3.286c0.01,0.016,0.021,0.031,0.033,0.047
					c-1.113,0.272-2.332,0.53-3.588,0.771c-3.699,8.844-8.158,15.984-10.301,19.203c2.441-0.289,7.15-1.421,7.15-1.421
					s0.828,1.649,3.094,7.253c3.598-5.352,7.117-12.795,8.111-15.157c1.262-2.534,2.4-5.075,3.412-7.501
					C108.795,166.501,108.402,166.537,108,166.537z"/>
			</g>
			<path fill="#C13534" d="M79.975,152.276v-0.002c0,0,0.006-0.002,0.018-0.002c0.098-0.021,0.203-0.033,0.314-0.041v-0.002
				c0,0,0.674-0.108,3.586,0.246c1.961,0.201,4.797,0.583,8.805,1.292l0,0c2.787,0.472,5.25,0.993,7.211,1.447
				c-0.086,0.249,0.65-1.63,1.43-2.599c-0.535-0.608-1.348-1.495-2.594-2.801c-4.271-4.488-13.121-7.121-14.242-7.553
				c-2.848-0.863-2.936,2.2-4.703,9.407c-0.059,0.259-0.086,0.485-0.094,0.69C79.789,152.327,79.877,152.297,79.975,152.276z"/>
			<path fill="#D64542" d="M138.262,163.21l-0.453-4.498c-0.148-1.528-0.318-3.24-0.469-4.757c-0.018-0.159-0.041-0.306-0.068-0.44
				c-0.063-0.307-0.338-1.043-1.246-1.239v-0.001c0,0-0.008-0.002-0.02-0.002c-0.096-0.021-0.201-0.034-0.313-0.041v-0.002
				c0,0-0.674-0.108-3.588,0.246c-1.961,0.201-4.795,0.583-8.805,1.291v0.001c-2.785,0.472-5.25,0.993-7.209,1.447
				c0.295,0.869,0.463,1.798,0.463,2.767c0,2.011-0.695,3.855-1.857,5.316c3.783,0.93,8.76,1.698,12.494,2.158l0,0
				c3.002,0.434,5.34,0.349,6.947,0.146l0,0c0,0,3.018-0.264,3.768-1.146c0.328-0.349,0.387-0.751,0.377-1.028
				C138.281,163.341,138.271,163.269,138.262,163.21z"/>
			<path fill="#D64542" d="M99.443,157.981c0-0.969,0.168-1.897,0.465-2.767c-1.961-0.454-4.424-0.976-7.211-1.447l0,0
				c-4.008-0.709-6.844-1.091-8.805-1.292c-2.912-0.354-3.586-0.246-3.586-0.246v0.002c-0.111,0.008-0.217,0.021-0.314,0.041
				c-0.012,0-0.018,0.002-0.018,0.002v0.002c-0.908,0.195-1.184,0.932-1.246,1.238c-0.029,0.135-0.051,0.281-0.07,0.441
				c-0.15,1.516-0.318,3.228-0.469,4.756l-0.453,4.498c-0.008,0.059-0.018,0.131-0.021,0.219c-0.008,0.277,0.051,0.68,0.379,1.028
				c0.75,0.882,3.766,1.146,3.766,1.146h0.002c1.607,0.202,3.943,0.287,6.947-0.146l0,0c3.734-0.46,8.711-1.229,12.494-2.158
				C100.141,161.837,99.443,159.992,99.443,157.981z"/>
		</g>
	</g>
</g>
</svg>
