<?xml version="1.0" encoding="utf-8"?>
<!-- Generator: Adobe Illustrator 16.0.0, SVG Export Plug-In . SVG Version: 6.00 Build 0)  -->
<!DOCTYPE svg PUBLIC "-//W3C//DTD SVG 1.1//EN" "http://www.w3.org/Graphics/SVG/1.1/DTD/svg11.dtd">
<svg version="1.1" id="Layer_1" xmlns="http://www.w3.org/2000/svg" xmlns:xlink="http://www.w3.org/1999/xlink" x="0px" y="0px"
	 width="216px" height="216px" viewBox="0 0 216 216" enable-background="new 0 0 216 216" xml:space="preserve">
<g>
	<circle fill="#FAB794" cx="108" cy="108" r="108"/>
	<g>
		<g>
			<path fill="#BA2626" d="M119.376,102.194c0,1.961-1.59,3.552-3.551,3.552h-15.628c-1.962,0-3.552-1.591-3.552-3.552v-14.17
				c0-1.961,1.59-3.551,3.552-3.551h15.628c1.961,0,3.551,1.589,3.551,3.551V102.194z"/>
			<path fill="#E74646" d="M96.646,90.09c-2.851-0.048-10.34-0.065-19.754,0.738h-0.001c-6.958,0.546-11.826,1.13-15.167,1.638l0,0
				c-4.986,0.664-6.056,1.135-6.056,1.135v0.002c-0.184,0.061-0.352,0.127-0.505,0.203c-0.019,0.008-0.028,0.01-0.028,0.01
				l0.001,0.004c-1.422,0.717-1.563,2.057-1.537,2.594c0.011,0.233,0.035,0.486,0.074,0.76c0.401,2.58,0.857,5.492,1.267,8.094
				l1.182,7.662c0.009,0.1,0.024,0.225,0.057,0.369l0,0c0.104,0.467,0.375,1.109,1.071,1.545h-0.001
				c1.62,1.143,6.743,0.285,6.743,0.285l0.001-0.002c2.754-0.355,6.669-1.218,11.466-3.229l0,0
				c6.481-2.559,15.22-6.338,21.188-9.707V90.09z"/>
			<path fill="#D64542" d="M100.197,105.746c-1.962,0-3.552-1.591-3.552-3.552v-0.004c-3.837,2.166-8.817,4.501-13.609,6.572
				c-0.632,0.668-1.302,1.388-2.014,2.166c-12.726,13.018-26.142,22.398-32.159,26.344c4.045,1.186,12.232,2.564,12.232,2.564
				s0.197,3.157,0,13.516c9.272-6.018,19.828-15.389,22.985-18.447c13.812-11.78,25.078-24.898,28.625-29.159H100.197z"/>
			<path fill="#C13534" d="M92.146,79.49c-7.325-7.695-22.492-12.209-24.416-12.948c-4.883-1.48-5.031,3.773-8.064,16.129
				c-0.739,3.256,1.258,3.922,1.258,3.922l12.948,4.486c0.962-0.084,1.964-0.168,3.02-0.251h0.001
				c9.414-0.804,16.903-0.786,19.754-0.738v-2.065c0-0.967,0.387-1.842,1.012-2.48C96.908,84.622,95.357,82.857,92.146,79.49z"/>
			<path fill="#D64542" d="M119.355,90.09c2.851-0.048,10.339-0.065,19.753,0.738h0.001c6.958,0.546,11.826,1.132,15.167,1.638l0,0
				c4.986,0.664,6.057,1.135,6.057,1.135v0.002c0.183,0.061,0.351,0.127,0.504,0.203c0.02,0.008,0.029,0.011,0.029,0.011
				l-0.001,0.003c1.422,0.717,1.563,2.057,1.536,2.594c-0.01,0.233-0.035,0.486-0.073,0.76c-0.402,2.58-0.858,5.492-1.267,8.094
				l-1.183,7.662c-0.009,0.099-0.024,0.225-0.057,0.369l0,0c-0.104,0.467-0.375,1.109-1.07,1.545l0,0
				c-1.62,1.143-6.742,0.285-6.742,0.285l-0.002-0.002c-2.754-0.355-6.669-1.219-11.466-3.229l0,0
				c-6.481-2.559-15.22-6.338-21.187-9.707V90.09z"/>
			<path fill="#C13534" d="M115.803,105.746c1.962,0,3.553-1.591,3.553-3.552v-0.004c3.836,2.166,8.817,4.501,13.607,6.572
				c0.633,0.668,1.303,1.388,2.015,2.166c12.727,13.018,26.142,22.398,32.159,26.344c-4.045,1.185-12.232,2.566-12.232,2.566
				s-0.197,3.155,0,13.514c-9.272-6.018-19.828-15.389-22.984-18.447c-13.813-11.78-25.079-24.898-28.626-29.159H115.803z"/>
			<path fill="#C13534" d="M123.854,79.489c7.325-7.694,22.492-12.207,24.417-12.947c4.883-1.48,5.03,3.773,8.063,16.129
				c0.74,3.256-1.257,3.922-1.257,3.922l-12.948,4.486c-0.962-0.084-1.964-0.168-3.021-0.251h-0.001
				c-9.414-0.804-16.902-0.786-19.753-0.738v-2.065c0-0.967-0.388-1.842-1.014-2.48C119.092,84.622,120.643,82.856,123.854,79.489z"
				/>
			<g>
				<path fill="#49BEA6" d="M103.729,87.37l-0.001,0.013c0,0-1.071,2.11-2.942,1.535c-0.217-0.085-0.672-0.316-1.229-0.946
					c-0.198-0.249-0.301-0.328-0.301-0.328s0.398,3.158-0.883,4.219l-0.043-0.037l-0.002-0.006c-1.526-1.34-1.703-2.83-1.703-2.83
					c-0.521,0.775-0.838,1.121-1.01,1.274c-0.119,0.107-0.168,0.121-0.168,0.121s-0.1,0.065-0.151,0.092
					c-0.053,0.026-0.106,0.05-0.161,0.067c-0.364,0.125-0.812,0.068-1.372-0.287c-0.073-0.047-0.353-0.251-0.413-0.305
					c-0.082-0.069-0.162-0.141-0.236-0.215c-0.856-0.824-0.754-0.969-1.002-1.336c-1.238,4.148-4.242,3.996-6.315,4.27l-0.089-0.012
					c0.014,0.006,0.025,0.012,0.039,0.018c-0.012,0.001-0.022,0.002-0.033,0.004l0.062,0.009c1.933,0.792,4.342,2.646,4.547,6.979
					c0.329-0.296,0.981-1.096,2.011-1.691c0.09-0.053,0.182-0.102,0.279-0.15c0.071-0.037,0.391-0.168,0.476-0.195
					c1.663-0.561,2.507-0.209,2.896,0.109c0.047,0.039,0.088,0.078,0.123,0.113c0.061,0.063,0.176,0.262,0.205,0.332
					c0.039,0.092,0.075,0.188,0.084,0.214c0.08,0.265,0.107,0.522,0.113,0.713c0,0.025,0,0.051,0,0.076
					c0.002,0.14-0.008,0.228-0.008,0.228l-0.002,0.002c-0.117,1.32-1.195,2.911-1.196,2.914c0.007,0,0.019-0.006,0.025-0.01
					c0.706-0.658,1.406-1.166,1.976-1.526c0.367-0.245,0.739-0.461,1.092-0.616c0.007-0.004,0.02-0.01,0.025-0.013
					c0.01-0.005,0.018-0.005,0.025-0.008c0.305-0.13,0.592-0.21,0.848-0.22c2.074-0.236,2.629,2.19,2.629,2.19l-0.004,0.013
					c0.066,0.193,0.112,0.393,0.12,0.605c1.323-2.493,3.767-6.483,6.504-7.182l0.036-0.223c-2.49-1.336-3.903-5.795-4.589-8.532
					C103.932,87.017,103.84,87.198,103.729,87.37z"/>
				<path fill="#49BEA6" d="M112.418,88.226l0.001,0.012c0,0,1.159,2.064,3.003,1.41c0.213-0.092,0.658-0.344,1.189-0.996
					c0.188-0.258,0.285-0.34,0.285-0.34s-0.266,3.172,1.059,4.178l0.041-0.04l0.002-0.005c1.469-1.401,1.584-2.898,1.584-2.898
					c0.555,0.753,0.884,1.086,1.063,1.232c0.123,0.103,0.172,0.113,0.172,0.113s0.104,0.061,0.155,0.086
					c0.054,0.023,0.108,0.043,0.163,0.06c0.371,0.11,0.814,0.036,1.359-0.343c0.071-0.051,0.342-0.267,0.4-0.322
					c0.079-0.072,0.156-0.148,0.227-0.224c0.821-0.859,0.713-1.001,0.945-1.377c1.411,4.095,4.406,3.815,6.488,4.003l0.088-0.015
					c-0.012,0.006-0.025,0.013-0.037,0.019c0.012,0.001,0.021,0.002,0.033,0.002l-0.061,0.012c-1.898,0.872-4.229,2.825-4.254,7.162
					c-0.342-0.281-1.027-1.054-2.079-1.605c-0.093-0.049-0.187-0.095-0.285-0.139c-0.073-0.035-0.397-0.151-0.483-0.176
					c-1.686-0.491-2.514-0.104-2.889,0.229c-0.045,0.041-0.085,0.081-0.119,0.118c-0.057,0.066-0.164,0.27-0.191,0.341
					c-0.034,0.093-0.066,0.19-0.074,0.218c-0.07,0.268-0.086,0.525-0.082,0.717c-0.001,0.025,0,0.051,0.002,0.074
					c0.004,0.142,0.018,0.229,0.018,0.229l0.002,0.002c0.172,1.313,1.314,2.857,1.315,2.86c-0.005,0.001-0.019-0.006-0.026-0.008
					c-0.73-0.63-1.452-1.107-2.036-1.443c-0.376-0.229-0.757-0.431-1.117-0.572c-0.007-0.002-0.02-0.008-0.026-0.01
					c-0.007-0.004-0.016-0.004-0.025-0.008c-0.309-0.115-0.6-0.184-0.855-0.184c-2.082-0.148-2.535,2.298-2.535,2.298l0.005,0.013
					c-0.06,0.196-0.096,0.396-0.094,0.609c-1.427-2.436-4.035-6.32-6.8-6.904l-0.043-0.22c2.432-1.438,3.658-5.952,4.229-8.717
					C112.2,87.878,112.299,88.058,112.418,88.226z"/>
				<path fill="#278972" d="M103.254,91.874l0.008-0.002c0,0,1.363-0.649,1.023-1.853c-0.049-0.138-0.191-0.433-0.585-0.799
					c-0.155-0.128-0.204-0.196-0.204-0.196s2.01,0.303,2.705-0.5l-0.023-0.027l-0.004-0.002c-0.832-0.992-1.779-1.127-1.779-1.127
					c0.503-0.321,0.729-0.52,0.828-0.625c0.07-0.076,0.08-0.106,0.08-0.106s0.043-0.063,0.061-0.096s0.033-0.067,0.046-0.102
					c0.084-0.231,0.056-0.517-0.163-0.88c-0.028-0.048-0.154-0.229-0.188-0.268c-0.043-0.054-0.089-0.105-0.134-0.152
					c-0.513-0.559-0.606-0.495-0.838-0.66c2.666-0.729,2.614-2.647,2.819-3.966l-0.005-0.057c0.003,0.009,0.007,0.017,0.011,0.024
					c0-0.007,0.002-0.014,0.003-0.02l0.003,0.038c0.479,1.247,1.624,2.808,4.387,3.003c-0.195,0.207-0.715,0.61-1.109,1.258
					c-0.035,0.057-0.068,0.115-0.102,0.178c-0.023,0.043-0.112,0.244-0.131,0.299c-0.383,1.054-0.172,1.596,0.025,1.849
					c0.023,0.031,0.049,0.058,0.072,0.08c0.039,0.039,0.163,0.115,0.206,0.137c0.06,0.024,0.119,0.05,0.137,0.056
					c0.167,0.055,0.331,0.077,0.453,0.082c0.016,0.001,0.032,0.002,0.048,0.002c0.09,0.002,0.146-0.002,0.146-0.002l0.003-0.001
					c0.842-0.056,1.875-0.719,1.875-0.719c0.001,0.003-0.003,0.011-0.006,0.015c-0.432,0.439-0.766,0.879-1.004,1.238
					c-0.16,0.229-0.305,0.465-0.41,0.687c-0.002,0.005-0.006,0.013-0.008,0.017c-0.002,0.005-0.004,0.01-0.006,0.018
					c-0.088,0.19-0.143,0.373-0.152,0.535c-0.183,1.32,1.357,1.71,1.357,1.71l0.009-0.003c0.122,0.046,0.249,0.078,0.384,0.086
					c-1.611,0.809-4.194,2.308-4.681,4.043l-0.144,0.021c-0.813-1.609-3.637-2.576-5.375-3.055
					C103.024,91.998,103.143,91.942,103.254,91.874z"/>
				<g>
					<circle fill="#C13534" cx="111.202" cy="94.757" r="3.04"/>
					<circle fill="#6B1414" cx="111.454" cy="92.847" r="0.45"/>
					
						<ellipse transform="matrix(-0.3613 -0.9324 0.9324 -0.3613 54.1236 227.3212)" fill="#C13534" cx="104.912" cy="95.125" rx="3.459" ry="3.422"/>
					<circle fill="#6B1414" cx="103.961" cy="93.842" r="0.695"/>
					<circle fill="#D64542" cx="108.148" cy="97.783" r="2.122"/>
					<circle fill="#6B1414" cx="106.605" cy="97.892" r="0.314"/>
				</g>
			</g>
		</g>
	</g>
</g>
</svg>
