<?xml version="1.0" encoding="utf-8"?>
<!-- Generator: Adobe Illustrator 16.0.0, SVG Export Plug-In . SVG Version: 6.00 Build 0)  -->
<!DOCTYPE svg PUBLIC "-//W3C//DTD SVG 1.1//EN" "http://www.w3.org/Graphics/SVG/1.1/DTD/svg11.dtd">
<svg version="1.1" id="Layer_1" xmlns="http://www.w3.org/2000/svg" xmlns:xlink="http://www.w3.org/1999/xlink" x="0px" y="0px"
	 width="216px" height="216px" viewBox="0 0 216 216" enable-background="new 0 0 216 216" xml:space="preserve">
<g>
	<circle fill="#3EB39D" cx="108" cy="108" r="108"/>
	<g>
		<path fill="#F4D4BE" d="M141.857,94.235c-8.01-4.97-22.706-8.469-35.203-8.469c-12.833,0-24.381,3.264-32.424,8.469
			c0,0-0.121,3.658,1.203,6.346c1.391,0.994,2.637,2.391,2.637,2.391s-2.463,8.841,0.906,16.398c1.598,2.312,3.998,3.121,6.9,2.34
			c1.595-0.431,3.05-1.084,4.3-2.288c2.326-2.239,5.2-2.876,8.273-2.741c0.081,0.516,0.204,1.016,0.364,1.5
			c0.002,0.008,0.004,0.017,0.007,0.025c0.071,0.214,0.152,0.423,0.237,0.63c0.024,0.058,0.049,0.116,0.074,0.174
			c0.072,0.165,0.148,0.327,0.229,0.487c0.021,0.043,0.042,0.088,0.064,0.131c0.099,0.189,0.204,0.375,0.315,0.557
			c0.036,0.061,0.075,0.119,0.114,0.179c0.082,0.128,0.165,0.253,0.252,0.374c0.047,0.066,0.093,0.133,0.141,0.196
			c0.118,0.159,0.241,0.314,0.368,0.466c0.06,0.069,0.121,0.136,0.183,0.205c0.079,0.088,0.159,0.175,0.241,0.261
			c0.077,0.079,0.155,0.159,0.235,0.237c0.068,0.066,0.14,0.13,0.212,0.195c0.164,0.15,0.334,0.296,0.51,0.435
			c0.05,0.04,0.098,0.079,0.148,0.118c0.112,0.086,0.228,0.168,0.345,0.25c0.044,0.03,0.087,0.059,0.131,0.089
			c0.398,0.267,0.816,0.505,1.252,0.711c0.021,0.011,0.043,0.021,0.064,0.031c0.15,0.069,0.301,0.135,0.456,0.196v0.002
			c1.114,0.449,2.329,0.702,3.606,0.702c1.097,0,2.148-0.186,3.131-0.521v-0.007c1.035-0.354,1.991-0.881,2.836-1.543
			c0.046-0.035,0.092-0.072,0.137-0.109c0.109-0.089,0.218-0.181,0.324-0.275c0.057-0.05,0.111-0.103,0.167-0.154
			c0.151-0.142,0.299-0.288,0.44-0.439c0.08-0.084,0.16-0.168,0.236-0.254c0.068-0.08,0.135-0.16,0.201-0.242
			c0.077-0.094,0.154-0.189,0.227-0.287c0.059-0.075,0.115-0.151,0.172-0.229c0.097-0.137,0.189-0.274,0.279-0.416
			c0.029-0.047,0.061-0.092,0.09-0.139c0.11-0.18,0.214-0.365,0.313-0.553c0.033-0.063,0.064-0.127,0.096-0.191
			c0.073-0.145,0.142-0.291,0.206-0.441c0.029-0.063,0.057-0.125,0.084-0.189c0.085-0.209,0.166-0.42,0.238-0.635
			c0.002-0.009,0.005-0.018,0.008-0.025c0.159-0.484,0.282-0.984,0.363-1.5c3.074-0.135,5.947,0.502,8.274,2.741
			c1.249,1.204,2.705,1.857,4.299,2.288c0.181,0.048,0.358,0.09,0.533,0.127c0.062,0.012,0.12,0.02,0.18,0.03
			c0.114,0.021,0.229,0.044,0.343,0.06c0.07,0.01,0.141,0.015,0.212,0.023c0.1,0.011,0.198,0.023,0.298,0.031
			c0.073,0.005,0.146,0.005,0.219,0.008c0.093,0.004,0.185,0.01,0.276,0.009c0.076,0,0.148-0.005,0.224-0.007
			c0.087-0.003,0.174-0.005,0.26-0.011c0.074-0.006,0.147-0.017,0.221-0.024c0.084-0.01,0.167-0.018,0.248-0.029
			c0.074-0.013,0.145-0.029,0.217-0.043c0.08-0.016,0.16-0.029,0.238-0.048c0.072-0.018,0.141-0.039,0.211-0.06
			c0.076-0.021,0.154-0.041,0.229-0.066c0.069-0.023,0.136-0.051,0.204-0.076c0.074-0.028,0.149-0.055,0.223-0.086
			c0.065-0.029,0.131-0.062,0.195-0.093c0.071-0.033,0.145-0.067,0.215-0.104c0.063-0.035,0.125-0.072,0.188-0.109
			c0.069-0.041,0.138-0.08,0.206-0.123c0.061-0.04,0.12-0.083,0.18-0.125c0.065-0.047,0.133-0.093,0.199-0.144
			c0.057-0.044,0.113-0.093,0.171-0.141c0.063-0.054,0.128-0.106,0.189-0.162c0.057-0.05,0.109-0.104,0.164-0.158
			c0.06-0.06,0.121-0.118,0.18-0.181c0.054-0.056,0.104-0.115,0.156-0.174c0.058-0.065,0.114-0.13,0.171-0.198
			c0.051-0.063,0.099-0.126,0.147-0.191c0.056-0.072,0.11-0.144,0.163-0.22c0.041-0.063,0.092-0.143,0.104-0.168
			c3.294-7.532,0.856-16.285,0.856-16.285s1.245-1.396,2.637-2.391c0.032,0.043,0.062,0.086,0.094,0.129
			c-0.005-0.043-0.013-0.086-0.019-0.129C141.979,97.895,141.857,94.235,141.857,94.235z"/>
		<circle fill="#EAEAEA" cx="139.336" cy="60.887" r="4.857"/>
		<g>
			<path fill="#D64542" d="M88.561,73.75c0.952-0.263,10.121-2.019,16.168-1.979c0.215,0.001,2.66,0.049,2.947,0.076
				c0.307,0.015,0.619,0.031,0.936,0.049c4.681,0.272,10.231,0.796,16.598,2.485c1.826,0.446,3.357,0.896,4.637,1.333
				c1.563,0.669,3.39,1.385,5.119,2.284c0.166,0.103,0.354,0.202,0.56,0.3c0.069,0.039,0.139,0.079,0.208,0.119
				c-0.076-0.123-0.16-0.244-0.254-0.361c-1-1.238-11.024-18.217-14.088-24.203c-0.502-0.98-0.928-1.824-1.24-2.459
				c-0.149-0.305-1.008-1.72-1.336-1.98c-0.098-0.077,0.07-0.168,0.34-0.231c0.17-0.039,0.689,0.021,1.157,0.183
				c0.665,0.229,1.341,0.63,1.766,0.932c0.757,0.535,1.628,1.18,2.251,1.704c3.032,2.551,8.59,6.104,10.431,7.274
				c0.513-1.454,1.694-2.592,3.178-3.038c-0.896-1.642-2.847-4.392-6.651-11.667c-0.328-0.625-1.326-2.365-2.145-3.639
				c-0.408-0.638-1.506-1.863-1.731-2.066c-0.3-0.268-0.544-0.471-0.663-0.567c-7.09-5.718-14.105-4.373-19.449-1.612
				c-0.186,0.096-0.37,0.193-0.551,0.293c-0.123,0.068-0.621,0.368-0.818,0.514c-0.589,0.436-1.518,1.201-2.095,1.804
				c-1.403,1.466-3.392,3.595-3.937,4.264c-1.506,1.854-3.098,3.835-3.368,4.185c-6.654,8.616-14.071,23.299-17.366,29.768
				C81.611,76.157,84.713,74.808,88.561,73.75z"/>
		</g>
		<path fill="#EAEAEA" d="M72.74,91.47c0.385,1.079,0.911,1.994,1.49,2.766c8.043-5.205,19.591-8.469,32.424-8.469
			c12.497,0,27.193,3.499,35.203,8.469c2.807-2.843,2.709-5.396,2.621-7.729c-1.39-5.693-6.063-6.608-8.954-8.209
			c-0.206-0.098-0.394-0.197-0.56-0.3c-1.729-0.899-3.556-1.615-5.119-2.284c-1.279-0.437-2.811-0.887-4.637-1.333
			c-6.366-1.689-11.917-2.213-16.598-2.485c-0.316-0.018-0.629-0.034-0.936-0.049c-0.287-0.027-2.732-0.075-2.947-0.076
			c-6.047-0.039-15.216,1.717-16.168,1.979c-3.859,1.061-6.972,2.416-9.424,3.774c-0.279,0.154-0.688,0.424-1.143,0.749
			c-0.001,0-0.001,0-0.001,0C69.236,83.532,72.74,91.47,72.74,91.47L72.74,91.47z"/>
		<g>
			<circle fill="#564A3D" cx="95.899" cy="101.288" r="2.475"/>
			<circle fill="#564A3D" cx="120.188" cy="101.287" r="2.476"/>
		</g>
		<path fill-rule="evenodd" clip-rule="evenodd" fill="#F2F2F2" d="M137.044,119.427c-0.018-0.031-0.002-0.024-0.021-0.057
			c-1.598,2.313-3.998,3.121-6.901,2.34c-1.594-0.431-3.05-1.084-4.299-2.288c-2.327-2.239-5.2-2.876-8.274-2.741
			c-0.081,0.516-0.204,1.016-0.363,1.5c-0.003,0.008-0.006,0.017-0.008,0.025c-1.276,3.849-4.901,6.626-9.178,6.626
			c-4.277,0-7.902-2.777-9.179-6.626c-0.003-0.009-0.005-0.018-0.007-0.025c-0.16-0.484-0.283-0.984-0.364-1.5
			c-3.073-0.135-5.947,0.502-8.273,2.741c-1.25,1.204-2.705,1.857-4.3,2.288c-2.902,0.781-5.303-0.028-6.9-2.34l-0.014,0.035
			c-1.715,4.449-1.359,5.739,2.794,10.58c-0.772,0.047-1.485,0.09-2.405,0.145c1.633,1.918,3.416,3.197,5.517,4.054
			c3.502,1.428,7.118,1.533,10.774,0.843c0.911-0.172,1.814-0.388,2.716-0.607c0.228-0.075,0.456-0.15,0.685-0.229
			c0.279-0.099,0.494-0.124,0.678-0.077c1.551-2.729,4.478-4.572,7.841-4.572c3.252,0,6.093,1.728,7.679,4.31
			c1.709,0.382,3.398,0.853,5.117,1.177c3.656,0.69,7.271,0.585,10.774-0.843c2.101-0.856,3.883-2.136,5.517-4.054
			c-0.92-0.055-1.633-0.098-2.406-0.145C138.389,125.153,138.75,123.859,137.044,119.427z"/>
		<circle fill="#E9C2A7" cx="108" cy="115.163" r="9.669"/>
		<path fill-rule="evenodd" clip-rule="evenodd" fill="#F2F2F2" d="M137.035,119.37c3.37-7.558,0.907-16.398,0.907-16.398
			s1.245-1.396,2.637-2.391c8.943,11.652,6.854,23.655,6.864,27.941C144.949,124.706,141.336,121.815,137.035,119.37z"/>
		<path fill-rule="evenodd" clip-rule="evenodd" fill="#F2F2F2" d="M78.977,119.37c-3.369-7.558-0.906-16.398-0.906-16.398
			s-1.246-1.396-2.637-2.391c-8.944,11.652-6.855,23.655-6.865,27.941C71.062,124.706,74.677,121.815,78.977,119.37z"/>
		<g>
			<path fill-rule="evenodd" clip-rule="evenodd" fill="#564A3D" d="M99.283,92.724l-0.002-0.012l-0.117,0.02
				c0,0-5.699,0.303-11.512,4.206l0.291,1.656c1.276-0.368,2.678-0.696,4.166-0.958c3.144-0.553,6.045-0.709,8.184-0.517
				c1.043-0.356,1.711-1.413,1.513-2.534C101.595,93.383,100.479,92.577,99.283,92.724z"/>
			<path fill-rule="evenodd" clip-rule="evenodd" fill="#564A3D" d="M116.805,92.724l0.001-0.012l0.118,0.02
				c0,0,5.698,0.303,11.511,4.206l-0.291,1.656c-1.275-0.368-2.677-0.696-4.165-0.958c-3.145-0.553-6.046-0.709-8.184-0.517
				c-1.045-0.356-1.711-1.413-1.514-2.534C114.492,93.383,115.607,92.577,116.805,92.724z"/>
		</g>
		<path fill-rule="evenodd" clip-rule="evenodd" fill="#EAEAEA" d="M137.023,119.37c1.73,4.479,1.385,5.762-2.781,10.615
			c0.773,0.047,1.486,0.09,2.406,0.145c-1.634,1.918-3.416,3.197-5.517,4.054c-3.503,1.428-7.118,1.533-10.774,0.843
			c-1.719-0.324-3.408-0.795-5.117-1.177c0.776,1.263,1.25,2.727,1.322,4.299c-2.217,1.409-5.319,2.286-8.755,2.286
			c-3.691,0-6.993-1.013-9.229-2.611c0.109-1.342,0.512-2.599,1.145-3.711c-0.186-0.048-0.4-0.021-0.68,0.077
			c-0.229,0.079-0.457,0.154-0.685,0.229c-0.901,0.22-1.805,0.436-2.716,0.607c-3.656,0.69-7.272,0.585-10.774-0.843
			c-2.101-0.856-3.884-2.136-5.517-4.054c0.92-0.055,1.633-0.098,2.405-0.145c-4.165-4.854-4.512-6.136-2.78-10.615
			c-6.703,3.811-11.756,8.695-13.464,16.504c0.732,0,1.337,0.034,1.936-0.008c0.785-0.057,1.027,0.199,0.848,1.006
			c-0.642,2.877-0.845,5.8-0.623,8.736c0.146,1.938,0.501,3.808,1.13,5.586v0.001c4.316,17.333,26.659,24.52,26.659,24.52
			c1.385,0.618,2.85,1.153,4.401,1.579c2.373-2.531,2.975-3.178,2.975-3.178l8.698,7.573c0,0,2.374-12.505,14.539-17.501
			c0.001-0.001,0.001-0.003,0.002-0.004c0.008-0.014,0.015-0.027,0.024-0.039c0.453-0.196,0.967-0.399,1.512-0.59
			c0.074,1.781,0.193,4.799,0.202,5.117c0.012,0.459,0.003,0.918,0.003,1.631v1.803c0,0,15.062-3.578,19.379-20.911
			c0,0-0.001,0-0.001-0.001c0.63-1.778,0.985-3.648,1.131-5.585c0.222-2.938,0.019-5.859-0.624-8.737
			c-0.179-0.807,0.063-1.063,0.848-1.006c0.6,0.042,1.204,0.008,1.937,0.008C148.779,128.066,143.727,123.181,137.023,119.37z"/>
		<circle fill="#F9BDC7" cx="86.627" cy="108.282" r="4.209"/>
		<circle fill="#F9BDC7" cx="129.459" cy="108.282" r="4.209"/>
	</g>
</g>
</svg>
