<?xml version="1.0" encoding="utf-8"?>
<!-- Generator: Adobe Illustrator 16.0.0, SVG Export Plug-In . SVG Version: 6.00 Build 0)  -->
<!DOCTYPE svg PUBLIC "-//W3C//DTD SVG 1.1//EN" "http://www.w3.org/Graphics/SVG/1.1/DTD/svg11.dtd">
<svg version="1.1" id="Layer_1" xmlns="http://www.w3.org/2000/svg" xmlns:xlink="http://www.w3.org/1999/xlink" x="0px" y="0px"
	 width="216px" height="216px" viewBox="0 0 216 216" enable-background="new 0 0 216 216" xml:space="preserve">
<g>
	<g>
		<circle fill="#76C9B3" cx="108" cy="108" r="108"/>
	</g>
	<path fill="#9DD5CE" d="M13.098,159.59C31.404,193.195,67.039,216,108,216s76.596-22.805,94.902-56.41H13.098z"/>
	<g>
		<path fill="#EAEAEA" d="M67.324,55.462c0.668-1.167,1.76-2.239,3.418-2.321c0.26-0.014,1.578,0.186,2.059,0.283
			c7.264,1.452,52.404,8.942,52.404,8.942s4.717,0.648,4.279,5.058c-0.043,0.437-1.738,8.69-2.818,14.082
			c-1.541,7.69-3.172,15.811-3.209,15.992c-0.111,0.551-0.266,0.889-0.895,0.889c-0.18,0-0.408-0.048-0.688-0.088
			c-3.723-0.511-16.021-2.613-26.361-4.392c-6.936-1.193-21.729-3.655-25.973-4.361c-0.594-0.097-1.504-0.268-1.668-2.108
			c-0.033-0.38-1.23-20.33-1.35-27.597C66.5,58.491,66.959,56.1,67.324,55.462z"/>
		<path fill="#D64542" d="M93.445,164.799"/>
		<path fill="#D64542" d="M93.445,164.799"/>
		<path fill="#D64542" d="M154.471,144.543c-0.605-0.432-2.516-1.516-2.893-1.674c-4.178-1.76-17.85-7.13-23.529-10.648
			c-0.521-0.323-2.207-1.708-2.699-2.199c-1.078-1.073-2.301-2.468-3.281-4.296c-0.83-2.198-1.742-7.23-0.963-18.566
			c0.066-0.958,0.602-5.421,0.602-5.421l0.471-3.111c0.021-0.094,0.041-0.183,0.061-0.271c-0.109-0.018-0.23-0.039-0.363-0.057
			c-3.723-0.511-16.021-2.613-26.361-4.392c-6.936-1.193-21.729-3.655-25.973-4.361c-0.256-0.042-0.57-0.106-0.859-0.305
			l-0.064,1.057c0,0-1.102,22.825-3.385,36.519c-1.182,8.185-4.092,19.204-1.732,23.296c0.787,1.339,3.543,6.533,15.82,11.02
			c0.914,0.365,3.074,0.954,5.451,1.558c0,0,26.918,6.653,56.279,5.983c4.172-0.472,14.639-1.496,17.787-10.625
			C159.57,155.927,162.406,150.206,154.471,144.543z"/>
		<path fill="#D64542" d="M66.891,56.841c-2.369-1.272-5.887-3.193-7.508-4.229c-0.203-0.13-0.686-0.672-0.826-0.889
			c-0.252-0.633-0.117-0.934-0.07-1.036c0.17-0.38,0.66-0.735,1.348-0.973c0.119-0.04,0.23-0.073,0.283-0.089
			c0.066-0.008,0.311-0.006,0.559,0.027c0.129,0.032,0.502,0.19,0.607,0.259c0.139,0.092,0.293,0.203,0.465,0.325
			c0.979,0.699,2.428,1.818,3.205,2.42l2.797,2.169c0.48-0.637,1.111-1.186,1.922-1.474l-3.283-2.546
			c-0.965-0.75-2.316-1.789-3.275-2.474c-0.188-0.135-0.361-0.258-0.514-0.361c-0.35-0.237-1.123-0.572-1.559-0.632
			c-0.277-0.04-0.971-0.117-1.447,0.003c-0.166,0.042-0.344,0.095-0.527,0.159c-1.313,0.453-2.279,1.243-2.719,2.228
			c-0.275,0.613-0.486,1.622,0.066,2.945c0.219,0.522,1.127,1.54,1.705,1.911c1.893,1.209,6.092,3.482,8.418,4.724
			C66.578,58.544,66.719,57.615,66.891,56.841z"/>
	</g>
</g>
</svg>
