<?xml version="1.0" encoding="utf-8"?>
<!-- Generator: Adobe Illustrator 16.0.0, SVG Export Plug-In . SVG Version: 6.00 Build 0)  -->
<!DOCTYPE svg PUBLIC "-//W3C//DTD SVG 1.1//EN" "http://www.w3.org/Graphics/SVG/1.1/DTD/svg11.dtd">
<svg version="1.1" id="Layer_1" xmlns="http://www.w3.org/2000/svg" xmlns:xlink="http://www.w3.org/1999/xlink" x="0px" y="0px"
	 width="216px" height="216px" viewBox="0 0 216 216" enable-background="new 0 0 216 216" xml:space="preserve">
<g>
	<g>
		<circle fill="#A6DCE2" cx="108" cy="108" r="108"/>
	</g>
	<g>
		<path fill="#EAEAEA" d="M163.285,118.282c0.12,0.232,0.24,0.466,0.349,0.676c0.955,1.917,1.366,3.903,1.427,5.636
			c0.021,0.637-0.004,1.238-0.066,1.791c-0.025,0.215-0.127,0.706-0.221,1.076c-0.049,0.192-0.277,0.805-0.365,1.013
			c-0.098,0.232-0.521,0.991-0.615,1.132c-0.213,0.32-0.432,0.618-0.625,0.87c-0.221,0.287-0.41,0.514-0.515,0.644
			c-0.243,0.302-0.501,0.598-0.771,0.885c-0.158,0.167-0.32,0.332-0.484,0.494c-0.443,0.436-0.917,0.852-1.42,1.252
			c-10.684,8.53-34.273,9.846-46.383,10.351c-37.738-0.7-52.033-10.662-55.451-17.718c-1.139-2.354-2.145-6.59,0.324-9.647
			c0.054-0.068,0.125-0.165,0.209-0.283c-2.186,1.166-7.259,4.465-9.564,10.933l-0.002,0.001c0,0-6.441,14.589,9.656,24.254
			c0.002,0,0.002,0,0.002,0c0.836,0.597,1.586,1.093,2.1,1.377c4.508,2.497,10.229,4.988,17.322,6.938
			c1.75,0.481,18.604,3.71,29.717,3.639c0.396-0.002,4.891-0.091,5.418-0.141c0.564-0.026,1.139-0.055,1.721-0.088
			c8.604-0.5,18.807-1.463,30.508-4.568c3.355-0.821,6.172-1.648,8.523-2.449c2.873-1.23,6.23-2.545,9.408-4.2l0,0
			c0.307-0.188,0.65-0.372,1.028-0.551c5.317-2.942,9.905-6.949,10.509-13.29C175.234,132.655,174.926,124.46,163.285,118.282z"/>
		<path fill="#D64542" d="M163.634,118.958c-4.821-9.303-20.054-40.434-33.572-57.938c-0.497-0.644-3.425-4.286-6.192-7.692
			c-1-1.23-4.654-5.145-7.234-7.837c-1.061-1.107-2.768-2.514-3.85-3.315c-0.364-0.269-1.279-0.82-1.504-0.944
			c-0.334-0.183-0.672-0.363-1.012-0.539c-9.824-5.076-22.719-7.546-35.752,2.964c-0.219,0.175-0.666,0.551-1.217,1.043
			c-0.416,0.373-2.434,2.625-3.185,3.795c-1.503,2.343-3.339,5.54-3.94,6.69C59.183,68.56,55.598,73.613,53.949,76.631
			c2.729,0.82,4.898,2.911,5.842,5.583c3.383-2.15,13.6-8.683,19.172-13.37c1.146-0.965,2.746-2.15,4.139-3.134
			c0.779-0.553,2.021-1.289,3.244-1.712c0.859-0.297,1.816-0.406,2.127-0.334c0.497,0.115,0.805,0.284,0.627,0.425
			c-0.605,0.479-2.182,3.081-2.457,3.64c-0.575,1.168-1.358,2.719-2.281,4.521c-5.63,11.003-24.057,42.211-25.893,44.486
			c-2.469,3.057-1.463,7.293-0.324,9.647c3.418,7.056,17.713,17.018,55.451,17.718c12.109-0.505,35.699-1.821,46.383-10.351
			c0.503-0.4,0.977-0.816,1.42-1.252c0.164-0.162,0.326-0.327,0.484-0.494c0.27-0.287,0.527-0.583,0.771-0.885
			c0.104-0.13,0.294-0.356,0.515-0.644c0.193-0.251,0.412-0.55,0.625-0.87c0.094-0.142,0.518-0.9,0.615-1.132
			c0.088-0.208,0.316-0.82,0.365-1.013c0.094-0.371,0.195-0.861,0.221-1.076c0.063-0.553,0.088-1.154,0.066-1.791
			C165,122.861,164.589,120.875,163.634,118.958z"/>
		<circle fill="#EAEAEA" cx="51.377" cy="85.179" r="8.928"/>
	</g>
	<g>
		<path fill="#49BEA6" d="M165.918,119.013l-0.02,0.02c0,0-4.715,1.976-6.988-1.59c-0.238-0.44-0.663-1.46-0.699-3.277
			c0.023-0.686-0.035-0.958-0.035-0.958s-3.763,5.754-7.354,5.708l-0.02-0.123l0.004-0.014c-0.637-4.337,1.157-7.036,1.157-7.036
			c-1.944,0.543-2.948,0.673-3.444,0.685c-0.348,0.009-0.446-0.036-0.446-0.036s-0.255-0.033-0.378-0.062
			c-0.123-0.029-0.243-0.067-0.357-0.113c-0.777-0.307-1.434-1.023-1.857-2.394c-0.055-0.179-0.229-0.907-0.254-1.079
			c-0.038-0.229-0.068-0.458-0.089-0.683c-0.255-2.554,0.117-2.649,0.222-3.6c-7.844,5.095-12.574,0.641-16.367-1.81l-0.131-0.142
			c0.014,0.027,0.027,0.055,0.041,0.083c-0.021-0.014-0.04-0.027-0.062-0.041l0.089,0.1c2.074,4.01,3.443,10.43-2.281,17.85
			c0.957-0.028,3.15-0.43,5.675,0.028c0.222,0.04,0.445,0.088,0.671,0.143c0.17,0.04,0.879,0.272,1.056,0.345
			c3.522,1.404,4.42,3.162,4.613,4.229c0.024,0.131,0.037,0.251,0.044,0.359c0.01,0.188-0.076,0.677-0.126,0.834
			c-0.065,0.206-0.14,0.414-0.163,0.472c-0.236,0.546-0.553,1.009-0.811,1.328c-0.035,0.044-0.068,0.086-0.104,0.126
			c-0.194,0.234-0.335,0.366-0.335,0.366l-0.006,0c-2.038,2.006-6.038,3.119-6.042,3.121c0.007,0.009,0.039,0.017,0.053,0.021
			c2.083-0.1,3.947,0.047,5.387,0.251c0.947,0.111,1.861,0.273,2.662,0.513c0.014,0.003,0.043,0.011,0.057,0.016
			c0.021,0.005,0.034,0.016,0.055,0.022c0.681,0.213,1.266,0.483,1.701,0.823c3.742,2.514,1.261,7.282,1.261,7.282l-0.024,0.017
			c-0.16,0.412-0.363,0.803-0.648,1.163c5.666-2.251,15.27-5.398,20.751-2.717l0.37-0.314c-2.23-5.684,1.682-15,4.385-20.464
			C166.748,118.714,166.342,118.886,165.918,119.013z"/>
		<path fill="#278972" d="M159.288,118.606l0.017,0.01c0,0,3.205,0.606,4.148-1.923c0.091-0.305,0.219-0.999,0.001-2.138
			c-0.107-0.423-0.106-0.602-0.106-0.602s3.117,3.09,5.353,2.581l-0.005-0.08l-0.004-0.006c-0.183-2.791-1.662-4.236-1.662-4.236
			c1.285,0.081,1.93,0.026,2.242-0.032c0.217-0.041,0.273-0.083,0.273-0.083s0.154-0.055,0.226-0.09
			c0.073-0.034,0.144-0.073,0.212-0.117c0.441-0.297,0.756-0.829,0.838-1.741c0.012-0.121,0.022-0.597,0.016-0.708
			c-0.008-0.147-0.021-0.294-0.038-0.436c-0.181-1.627-0.427-1.637-0.618-2.219c5.575,2.133,7.935-1.274,9.975-3.31l0.063-0.106
			c-0.006,0.019-0.009,0.04-0.013,0.058c0.01-0.012,0.02-0.022,0.031-0.033l-0.044,0.073c-0.759,2.781-0.756,6.964,3.808,10.83
			c-0.602,0.111-2.024,0.15-3.535,0.776c-0.136,0.054-0.268,0.114-0.403,0.179c-0.1,0.047-0.51,0.284-0.612,0.354
			c-2.011,1.348-2.337,2.561-2.314,3.254c0.002,0.083,0.011,0.162,0.021,0.23c0.019,0.117,0.139,0.411,0.187,0.502
			c0.07,0.12,0.144,0.239,0.167,0.272c0.221,0.309,0.48,0.557,0.685,0.721c0.026,0.022,0.054,0.045,0.081,0.066
			c0.151,0.116,0.256,0.182,0.256,0.182h0.004c1.54,0.979,4.188,1.142,4.19,1.142c-0.004,0.006-0.022,0.014-0.032,0.019
			c-1.313,0.214-2.457,0.555-3.328,0.876c-0.576,0.194-1.125,0.419-1.594,0.673c-0.008,0.005-0.025,0.014-0.035,0.017
			c-0.01,0.006-0.02,0.015-0.031,0.023c-0.396,0.221-0.723,0.468-0.951,0.739c-2,2.069,0.188,4.711,0.188,4.711l0.016,0.006
			c0.155,0.236,0.336,0.454,0.561,0.641c-3.838-0.649-10.254-1.334-13.317,1.07l-0.272-0.148c0.635-3.84-3.051-9.131-5.469-12.18
			C158.73,118.53,159.008,118.584,159.288,118.606z"/>
		<g>
			<circle fill="#BA2626" cx="167.628" cy="131.679" r="6.567"/>
			<circle fill="#6B1414" cx="167.323" cy="127.53" r="0.972"/>
			<path fill="#BA2626" d="M150.43,128.936c3.43-2.216,8.021-1.205,10.264,2.261c2.236,3.465,1.273,8.072-2.155,10.29
				c-3.429,2.215-8.021,1.204-10.263-2.262C146.037,135.761,147.001,131.153,150.43,128.936z"/>
			<circle fill="#6B1414" cx="151.913" cy="132.912" r="1.501"/>
			<circle fill="#9B2020" cx="162.493" cy="139.415" r="4.584"/>
			<path fill="#6B1414" d="M158.91,139.749c0.316-0.202,0.735-0.109,0.937,0.205c0.203,0.314,0.11,0.734-0.204,0.938
				c-0.315,0.2-0.735,0.11-0.938-0.207C158.504,140.37,158.596,139.95,158.91,139.749z"/>
		</g>
	</g>
</g>
</svg>
