<?xml version="1.0" encoding="utf-8"?>
<!-- Generator: Adobe Illustrator 16.0.0, SVG Export Plug-In . SVG Version: 6.00 Build 0)  -->
<!DOCTYPE svg PUBLIC "-//W3C//DTD SVG 1.1//EN" "http://www.w3.org/Graphics/SVG/1.1/DTD/svg11.dtd">
<svg version="1.1" id="Layer_1" xmlns="http://www.w3.org/2000/svg" xmlns:xlink="http://www.w3.org/1999/xlink" x="0px" y="0px"
	 width="216px" height="216px" viewBox="0 0 216 216" enable-background="new 0 0 216 216" xml:space="preserve">
<g>
	<g>
		<circle fill="#323F45" cx="108" cy="108" r="108"/>
	</g>
	<g>
		<path fill="#D64542" d="M138.661,86.046l-1.243-4.87c-0.776,0.29-1.549,0.442-2.229,0.503c-1.321,0.121-2.831-0.084-2.831-0.084
			L98.68,80.401c0,0-4.785-0.045-6.132-0.151c-0.317-0.026-1.16-0.125-1.16-0.125c-0.269-0.036-0.542-0.078-0.818-0.127
			c-1.602-0.287-3.3-0.814-4.709-1.752c-0.003-0.001-0.016-0.004-0.016-0.004S77.672,91.78,73.158,97.513
			c-3.293,4.635-12.075,17.443-12.685,19.029c-1.586,3.292-3.66,9.148-1.586,13.539c1.341,1.585,3.171,2.928,6.83,1.342
			c2.196-0.854,11.345-7.685,11.345-7.685l3.659-2.561c0,0-2.317,16.956-1.708,21.834c0.123,2.927,0.732,19.028,16.955,23.297
			c3.294,0.367,23.298,4.026,34.885-4.146c1.465-1.342,7.076-4.513,9.637-13.784c0.609-2.196,1.953-6.221,2.318-18.297
			c-0.244-9.271-0.976-23.297-1.83-29.153C140.49,96.293,138.661,86.046,138.661,86.046z"/>
		<circle fill="#EAEAEA" cx="134.712" cy="127.87" r="8.096"/>
		<circle fill="#EAEAEA" cx="149.888" cy="109.356" r="8.097"/>
		<path fill="#EAEAEA" d="M142.475,58.512c-0.275-1.091-0.668-2.061-1.164-2.921c-0.007-0.013-0.012-0.026-0.019-0.039
			c-0.001,0-0.003,0.001-0.005,0.001c-3.91-6.713-13.982-6.755-21.41-6.985c-20.676-0.091-28.086,0.732-28.086,0.732
			s-4.666,0.458-6.313,0.549c-4.482,0.642-4.574,4.85-4.574,4.85s-0.457,6.769,0,12.349c0.406,3.496,1.096,5.705,1.736,7.082
			c0.252,0.542,0.989,1.812,1.15,2.061c1.49,2.315,4.256,3.355,6.778,3.807c0.276,0.049,0.55,0.091,0.818,0.127
			c0,0,0.843,0.099,1.16,0.125c1.347,0.106,6.132,0.151,6.132,0.151l33.678,1.194c0,0,1.51,0.205,2.831,0.084
			c1.551-0.14,3.575-0.7,5.052-2.47c0.164-0.197,0.375-0.526,0.563-0.841c0.258-0.432,0.475-0.836,0.475-0.836
			c0.191-0.338,0.372-0.718,0.543-1.135c0.32-0.785,0.604-1.699,0.854-2.684c0.162-0.646,0.557-2.858,0.626-3.732
			c0.163-2.064,0.32-5.431,0.042-7.447C143.168,61.275,142.896,59.892,142.475,58.512z"/>
		<path fill="#FFFFFF" d="M132.1,81.586l-2.711-0.095c-0.857,7.858-2.015,25.236,2.404,38.834c0.828-0.321,1.721-0.508,2.653-0.539
			C130.088,106.68,131.277,89.213,132.1,81.586z"/>
		<path fill="#FFFFFF" d="M140.199,79.253c-0.643,0.756-1.386,1.28-2.146,1.65c2.375,2.965,6.916,9.927,8.285,21.185
			c0.807-0.396,1.688-0.664,2.618-0.771C147.446,89.667,142.802,82.48,140.199,79.253z"/>
	</g>
</g>
</svg>
