<?xml version="1.0" encoding="utf-8"?>
<!-- Generator: Adobe Illustrator 16.0.0, SVG Export Plug-In . SVG Version: 6.00 Build 0)  -->
<!DOCTYPE svg PUBLIC "-//W3C//DTD SVG 1.1//EN" "http://www.w3.org/Graphics/SVG/1.1/DTD/svg11.dtd">
<svg version="1.1" id="Layer_1" xmlns="http://www.w3.org/2000/svg" xmlns:xlink="http://www.w3.org/1999/xlink" x="0px" y="0px"
	 width="216px" height="216px" viewBox="0 0 216 216" enable-background="new 0 0 216 216" xml:space="preserve">
<g>
	<circle fill="#B8E1DE" cx="108" cy="108" r="108"/>
	<g>
		<path fill="#70492E" d="M126.844,88.647c-4.468-2.764-12.644-4.709-19.599-4.709c-7.151,0-13.587,1.818-18.069,4.72
			c-0.005-0.006-0.009-0.013-0.013-0.019c-4.457,4.914-7.199,11.561-7.199,18.887c0,6.918,2.445,13.23,6.47,18.051
			c4.61-4.007,11.661-6.571,19.567-6.571c7.905,0,14.955,2.564,19.566,6.571c4.024-4.82,6.47-11.133,6.47-18.051
			C134.037,100.204,131.298,93.56,126.844,88.647z"/>
		<path fill="#F2F2F2" d="M120.189,121.22c1.805-1.684,3.407-4.253,4.393-7.338c2.007-6.288,0.693-12.316-2.933-13.475
			c-3.626-1.157-8.188,2.996-10.196,9.284c-1.113,3.49-1.202,6.901-0.438,9.446C114.311,119.413,117.411,120.136,120.189,121.22z"/>
		<path fill="#F2F2F2" d="M95.813,121.22c2.777-1.084,5.878-1.807,9.175-2.082c0.762-2.545,0.674-5.956-0.439-9.446
			c-2.007-6.288-6.57-10.441-10.196-9.284c-3.626,1.158-4.938,7.187-2.933,13.475C92.403,116.967,94.007,119.536,95.813,121.22z"/>
		<ellipse fill="#9E7153" cx="108" cy="136.666" rx="25.148" ry="17.661"/>
		<path fill="#9E7153" d="M135.092,100.97c-0.614,0-1.2,0.122-1.737,0.34c0.442,1.998,0.683,4.078,0.683,6.217
			c0,0.858-0.042,1.707-0.115,2.545c0.374,0.098,0.765,0.155,1.17,0.155c2.557,0,4.628-2.072,4.628-4.629
			C139.72,103.042,137.648,100.97,135.092,100.97z"/>
		<path fill="#9E7153" d="M81.964,107.526c0-2.139,0.24-4.219,0.684-6.217c-0.537-0.218-1.123-0.34-1.737-0.34
			c-2.557,0-4.629,2.072-4.629,4.629c0,2.556,2.072,4.629,4.629,4.629c0.405,0,0.795-0.058,1.17-0.156
			C82.007,109.233,81.964,108.385,81.964,107.526z"/>
		<g>
			<circle fill="#EAEAEA" cx="125.458" cy="70.074" r="2.708"/>
			<g>
				<path fill="#E74646" d="M97.161,77.242c0.531-0.146,5.641-1.124,9.011-1.103c0.12,0,1.483,0.027,1.642,0.043
					c0.172,0.008,0.346,0.017,0.521,0.026c2.609,0.151,5.702,0.444,9.25,1.385c1.019,0.25,1.871,0.5,2.584,0.743
					c0.871,0.373,1.889,0.771,2.853,1.273c0.093,0.057,0.197,0.113,0.312,0.167c0.039,0.021,0.078,0.044,0.115,0.065
					c-0.041-0.068-0.088-0.136-0.141-0.201c-0.558-0.689-6.143-10.15-7.851-13.487c-0.28-0.546-0.517-1.017-0.69-1.37
					c-0.084-0.169-0.563-0.959-0.744-1.104c-0.055-0.044,0.037-0.094,0.188-0.129c0.095-0.022,0.384,0.011,0.646,0.102
					c0.369,0.127,0.746,0.352,0.982,0.52c0.423,0.297,0.908,0.657,1.255,0.949c1.69,1.422,4.787,3.401,5.813,4.055
					c0.285-0.811,0.943-1.445,1.771-1.694c-0.5-0.914-1.587-2.447-3.706-6.501c-0.184-0.35-0.74-1.319-1.195-2.028
					c-0.228-0.354-0.84-1.038-0.965-1.151c-0.168-0.148-0.303-0.262-0.371-0.316c-3.949-3.186-7.86-2.437-10.838-0.898
					c-0.104,0.054-0.206,0.107-0.307,0.164c-0.068,0.038-0.346,0.205-0.455,0.285c-0.329,0.244-0.847,0.671-1.168,1.006
					c-0.783,0.816-1.89,2.003-2.193,2.376c-0.84,1.032-1.727,2.136-1.877,2.332c-3.709,4.802-7.842,12.983-9.678,16.589
					C93.29,78.584,95.018,77.831,97.161,77.242z"/>
			</g>
			<path fill="#EAEAEA" d="M88.346,87.116c0.215,0.603,0.508,1.111,0.83,1.542c4.482-2.901,10.918-4.72,18.069-4.72
				c6.964,0,15.153,1.95,19.617,4.72c1.564-1.584,1.51-3.008,1.461-4.308c-0.774-3.172-3.379-3.682-4.99-4.573
				c-0.114-0.054-0.219-0.11-0.312-0.167c-0.964-0.502-1.981-0.9-2.853-1.273c-0.713-0.243-1.565-0.493-2.584-0.743
				c-3.548-0.94-6.641-1.233-9.25-1.385c-0.176-0.01-0.35-0.019-0.521-0.026c-0.158-0.016-1.521-0.043-1.642-0.043
				c-3.37-0.021-8.479,0.956-9.011,1.103c-2.149,0.591-3.884,1.347-5.25,2.104c-0.156,0.086-0.385,0.235-0.639,0.417l0,0
				C86.394,82.693,88.346,87.116,88.346,87.116L88.346,87.116z"/>
		</g>
		<ellipse fill="#564A3D" cx="108" cy="130.629" rx="10.345" ry="7.266"/>
		<path fill="#9E7153" d="M180.009,80.648c-1.221-7.538-2.596-16.423-2.596-16.423c-0.004-0.021-0.016-0.035-0.02-0.053
			c-0.035-0.303-0.059-0.471-0.059-0.471c-0.021-0.151-0.162-0.257-0.313-0.235c-0.038,0.006-0.073,0.019-0.104,0.036l-0.367,0.222
			c0,0-0.034,0.02-0.1,0.06c-0.063,0.039-0.167,0.098-0.281,0.176c-0.118,0.075-0.262,0.17-0.415,0.279
			c-0.163,0.109-0.332,0.236-0.517,0.378c-0.375,0.282-0.783,0.625-1.206,1.015c-0.414,0.393-0.854,0.832-1.252,1.311
			c-0.807,0.955-1.503,2.063-1.96,3.242c-0.228,0.59-0.406,1.198-0.508,1.813c-0.021,0.127-0.039,0.254-0.054,0.381
			c-0.001,0.002-0.001,0.002-0.002,0.002c-1.03,6.34,1.526,9.329,1.526,9.329l0.006,0.002c0.041,0.079,0.078,0.161,0.119,0.239
			v0.003c0,0.001,0.148,0.284,0.305,0.726c0.417,1.179,0.889,3.479-1.263,4.511c-0.107,0.038-0.214,0.079-0.327,0.116
			c-0.16,0.06-0.324,0.117-0.497,0.169c-0.097,0.03-0.198,0.057-0.298,0.085c-0.323,0.075-1.503,0.32-3.773,0.459
			c-0.016,0-0.029,0.002-0.045,0.002c-0.146,0.008-0.292,0.021-0.438,0.032c-0.016-0.155-0.031-0.308-0.048-0.468
			c-0.056-0.531-0.105-1.094-0.187-1.67c-0.152-1.156-0.502-3.677-0.663-4.91c-0.197-1.227-0.394-2.455-0.578-3.606
			c-0.085-0.576-0.195-1.13-0.295-1.655c-0.101-0.525-0.194-1.021-0.282-1.48c-0.169-0.918-0.356-1.676-0.467-2.209
			c-0.119-0.532-0.198-0.835-0.198-0.835c-0.039-0.148-0.19-0.237-0.339-0.198c-0.036,0.01-0.07,0.027-0.099,0.049l-0.337,0.262
			c0,0-0.033,0.025-0.093,0.072c-0.059,0.045-0.155,0.116-0.259,0.205c-0.108,0.09-0.241,0.199-0.38,0.326
			c-0.149,0.129-0.304,0.273-0.47,0.436c-0.34,0.324-0.705,0.711-1.08,1.148c-0.365,0.436-0.752,0.925-1.092,1.445
			c-0.69,1.043-1.256,2.225-1.571,3.449c-0.063,0.242-0.114,0.487-0.159,0.733c-0.001,0.001-0.001,0.001-0.002,0.002
			c-0.995,3.927,0.896,6.804,0.896,6.804s1.23,2.561-0.63,3.017c-0.007,0.001-0.013,0.004-0.021,0.006
			c-1.479,0.21-4.238,0.63-5.689,0.892c-0.532,0.097-1.062,0.196-1.589,0.298c-0.009-0.079-0.016-0.157-0.024-0.239
			c-0.051-0.416-0.092-0.851-0.154-1.289c-0.059-0.438-0.307-2.17-0.367-2.614c-0.068-0.444-0.139-0.889-0.206-1.325
			c-0.063-0.438-0.149-0.865-0.22-1.279c-0.145-0.83-0.324-1.599-0.455-2.26c-0.131-0.662-0.289-1.207-0.377-1.59
			c-0.098-0.384-0.164-0.602-0.164-0.602c-0.04-0.126-0.174-0.197-0.301-0.158c-0.018,0.006-0.035,0.014-0.05,0.021l-0.425,0.25
			c0,0-0.032,0.02-0.094,0.057c-0.06,0.035-0.161,0.09-0.262,0.158c-0.104,0.068-0.235,0.154-0.388,0.252
			c-0.075,0.05-0.157,0.104-0.243,0.16c-0.078,0.057-0.16,0.115-0.248,0.178c-0.352,0.25-0.729,0.545-1.119,0.879
			c-0.205,0.168-0.375,0.34-0.58,0.524c-0.197,0.185-0.363,0.371-0.56,0.57c-0.734,0.788-1.337,1.669-1.702,2.573
			c-0.053,0.133-0.1,0.265-0.143,0.397h-0.001c0,0.001,0,0.002-0.001,0.004c-0.082,0.251-0.146,0.501-0.188,0.753
			c-0.377,1.9,0.137,3.392,0.456,4.076l0,0c0,0,0.001,0.004,0.002,0.004c0.013,0.026,0.023,0.047,0.034,0.071
			c0.088,0.187,0.307,0.698,0.32,1.187c0,0.437-0.141,0.879-0.628,1.099c-0.001,0.001-0.003,0.002-0.005,0.003
			c-0.928,0.246-6.779,1.205-11.221,1.974c1.064,1.963,1.904,4.077,2.482,6.306c4.879-0.691,10.809-1.539,12.256-1.744
			c2.359-0.334,4.799-0.681,7.277-1.031c1.238-0.176,2.487-0.353,3.742-0.531c1.252-0.186,2.51-0.372,3.768-0.559
			c2.52-0.381,5.04-0.759,7.52-1.133c2.532-0.436,5.026-1.253,7.114-2.678c1.04-0.71,1.964-1.566,2.717-2.525
			c0.757-0.956,1.334-2.015,1.746-3.091c0.409-1.079,0.656-2.178,0.772-3.246C180.14,82.692,180.139,81.659,180.009,80.648z"/>
		<path fill="#9E7153" d="M85.369,93.998c-4.441-0.769-10.294-1.728-11.221-1.974c-0.002-0.001-0.003-0.002-0.005-0.002
			c-0.487-0.221-0.627-0.663-0.628-1.1c0.013-0.487,0.232-1,0.32-1.187c0.011-0.023,0.022-0.044,0.034-0.069
			c0-0.002,0.002-0.006,0.002-0.006l0,0c0.319-0.684,0.833-2.174,0.456-4.075c-0.042-0.251-0.105-0.503-0.188-0.754
			c0-0.001-0.001-0.003-0.001-0.004l0,0c-0.044-0.133-0.092-0.265-0.144-0.396c-0.365-0.903-0.968-1.786-1.702-2.573
			c-0.195-0.199-0.361-0.387-0.56-0.57c-0.206-0.186-0.374-0.357-0.579-0.525c-0.392-0.332-0.77-0.629-1.121-0.879
			c-0.087-0.063-0.169-0.121-0.248-0.177c-0.085-0.057-0.167-0.11-0.242-0.159c-0.152-0.1-0.283-0.186-0.389-0.253
			c-0.1-0.067-0.201-0.123-0.262-0.159c-0.062-0.037-0.093-0.057-0.093-0.057l-0.425-0.249c-0.016-0.009-0.031-0.017-0.049-0.022
			c-0.129-0.039-0.262,0.033-0.301,0.159c0,0-0.066,0.218-0.164,0.601c-0.089,0.384-0.246,0.928-0.378,1.591
			c-0.132,0.661-0.311,1.429-0.455,2.259c-0.07,0.415-0.155,0.843-0.22,1.28c-0.067,0.437-0.138,0.88-0.206,1.324
			c-0.061,0.445-0.309,2.178-0.367,2.615c-0.063,0.438-0.104,0.872-0.154,1.289c-0.009,0.081-0.017,0.159-0.024,0.239
			c-0.527-0.102-1.056-0.201-1.587-0.299c-1.452-0.262-4.212-0.682-5.691-0.891c-0.009-0.002-0.014-0.004-0.021-0.006
			c-1.86-0.456-0.63-3.016-0.63-3.016s1.893-2.879,0.896-6.806c0-0.001-0.001-0.001-0.001-0.002
			c-0.045-0.245-0.098-0.491-0.159-0.733c-0.316-1.225-0.881-2.406-1.571-3.449c-0.34-0.52-0.728-1.009-1.092-1.445
			c-0.375-0.438-0.74-0.823-1.081-1.148c-0.165-0.161-0.32-0.307-0.468-0.436c-0.14-0.127-0.272-0.236-0.381-0.326
			c-0.104-0.089-0.201-0.16-0.259-0.205c-0.061-0.048-0.092-0.072-0.092-0.072l-0.338-0.262c-0.029-0.022-0.062-0.039-0.1-0.049
			c-0.147-0.039-0.299,0.051-0.338,0.199c0,0-0.078,0.302-0.198,0.834c-0.109,0.534-0.298,1.291-0.468,2.209
			c-0.087,0.459-0.182,0.956-0.281,1.481s-0.21,1.078-0.295,1.655c-0.185,1.151-0.381,2.379-0.577,3.607
			c-0.162,1.232-0.512,3.752-0.663,4.908c-0.082,0.577-0.133,1.14-0.188,1.671c-0.016,0.16-0.032,0.312-0.047,0.467
			c-0.146-0.011-0.292-0.023-0.438-0.03c-0.015-0.002-0.03-0.002-0.045-0.004c-2.271-0.139-3.45-0.384-3.773-0.459
			c-0.1-0.027-0.202-0.055-0.298-0.084c-0.174-0.052-0.337-0.109-0.497-0.17c-0.113-0.037-0.22-0.076-0.327-0.115
			c-2.151-1.032-1.68-3.333-1.264-4.512c0.156-0.441,0.306-0.725,0.306-0.725l-0.001-0.004c0.043-0.078,0.079-0.159,0.12-0.238
			l0.006-0.003c0,0,2.558-2.989,1.526-9.328c-0.001-0.001-0.001-0.001-0.002-0.001c-0.016-0.129-0.033-0.255-0.055-0.382
			c-0.101-0.615-0.279-1.224-0.507-1.813c-0.455-1.178-1.153-2.287-1.96-3.242c-0.399-0.479-0.839-0.918-1.252-1.31
			c-0.424-0.391-0.831-0.732-1.206-1.015c-0.185-0.142-0.354-0.269-0.517-0.379c-0.153-0.109-0.297-0.204-0.415-0.279
			c-0.113-0.076-0.218-0.137-0.281-0.174c-0.065-0.04-0.1-0.062-0.1-0.062l-0.367-0.222c-0.03-0.018-0.065-0.029-0.103-0.035
			c-0.152-0.021-0.292,0.084-0.313,0.235c0,0-0.023,0.167-0.059,0.47c-0.006,0.019-0.016,0.034-0.021,0.053
			c0,0-1.375,8.887-2.595,16.424c-0.131,1.01-0.132,2.045-0.018,3.117c0.115,1.068,0.363,2.166,0.771,3.246
			c0.412,1.076,0.988,2.135,1.746,3.091c0.753,0.958,1.677,1.814,2.717,2.524c2.088,1.426,4.582,2.242,7.113,2.679
			c2.48,0.373,5.001,0.752,7.521,1.132c1.257,0.187,2.514,0.374,3.768,0.559c1.254,0.18,2.503,0.356,3.741,0.531
			c2.479,0.352,4.919,0.697,7.278,1.031c1.445,0.205,7.377,1.053,12.254,1.744C83.465,98.075,84.306,95.961,85.369,93.998z"/>
		<path fill="#C13534" d="M121.249,162.837v18.244h8.881V157.53C127.74,159.707,124.718,161.522,121.249,162.837z"/>
		<path fill="#C13534" d="M108.68,165.168v9.684h8.882v-10.851C114.78,164.712,111.793,165.115,108.68,165.168z"/>
		<path fill="#E74646" d="M133.138,136.989c-0.246,9.604-11.402,17.338-25.137,17.338c-13.735,0-24.891-7.734-25.137-17.338
			c-1.794,2.59-2.803,5.497-2.803,8.571c0,10.836,12.508,19.62,27.939,19.62c15.43,0,27.939-8.785,27.939-19.621
			C135.94,142.486,134.932,139.578,133.138,136.989z"/>
		<path fill="#70492E" d="M117.878,141.382c-1.964,1.975-5.649,3.306-9.877,3.306s-7.914-1.331-9.877-3.306h-2.091l0.032,0.049
			c2.02,2.962,6.704,4.875,11.936,4.875s9.916-1.913,11.935-4.875l0.033-0.049H117.878z"/>
		<path fill="#70492E" d="M133.79,103.298c-0.02,0-0.041,0.003-0.063,0.003c0.203,1.378,0.31,2.789,0.31,4.226
			c0,0.12-0.007,0.239-0.008,0.359c1.157-0.119,2.062-1.098,2.062-2.288C136.091,104.328,135.062,103.298,133.79,103.298z"/>
		<path fill="#70492E" d="M81.964,107.526c0-1.437,0.106-2.848,0.31-4.226c-0.021,0-0.042-0.003-0.063-0.003
			c-1.271,0.001-2.301,1.031-2.301,2.301c0,1.189,0.904,2.168,2.063,2.287C81.971,107.766,81.964,107.647,81.964,107.526z"/>
		<path fill="#564A3D" d="M118.127,120.501c0.579-0.715,1.079-1.64,1.417-2.698c0.902-2.831,0.31-5.547-1.322-6.068
			c-1.632-0.52-3.688,1.351-4.592,4.181c-0.396,1.24-0.504,2.459-0.362,3.482C114.956,119.65,116.582,120.022,118.127,120.501z"/>
		<path fill="#564A3D" d="M97.874,120.501c1.545-0.479,3.17-0.851,4.859-1.104c0.142-1.023,0.034-2.242-0.362-3.482
			c-0.903-2.83-2.96-4.7-4.592-4.181c-1.631,0.521-2.225,3.237-1.321,6.068C96.795,118.861,97.296,119.786,97.874,120.501z"/>
	</g>
</g>
</svg>
