<?xml version="1.0" encoding="utf-8"?>
<!-- Generator: Adobe Illustrator 16.0.0, SVG Export Plug-In . SVG Version: 6.00 Build 0)  -->
<!DOCTYPE svg PUBLIC "-//W3C//DTD SVG 1.1//EN" "http://www.w3.org/Graphics/SVG/1.1/DTD/svg11.dtd">
<svg version="1.1" id="Layer_1" xmlns="http://www.w3.org/2000/svg" xmlns:xlink="http://www.w3.org/1999/xlink" x="0px" y="0px"
	 width="216px" height="216px" viewBox="0 0 216 216" enable-background="new 0 0 216 216" xml:space="preserve">
<g>
	<circle fill="#CFE182" cx="108" cy="108" r="108"/>
	<g>
		<path fill="#B39370" d="M46.981,117.274c0,0,0.013-0.001,0.035-0.002c0.025-0.002,0.062-0.004,0.111-0.01
			c0.099-0.011,0.248-0.03,0.441-0.074c0.381-0.09,0.956-0.27,1.55-0.713c0.295-0.224,0.587-0.516,0.836-0.887
			c0.248-0.373,0.455-0.82,0.592-1.337l0.025-0.097l0.007-0.024c-0.005,0.019,0.003-0.01,0.003-0.013l0.012-0.055l0.01-0.068
			c0.003-0.029,0.006-0.057,0.009-0.087c0.009-0.121,0.011-0.253,0.003-0.392c-0.012-0.276-0.052-0.573-0.109-0.875
			c-0.058-0.299-0.136-0.614-0.24-0.893c-0.026-0.068-0.055-0.134-0.081-0.184c-0.007-0.014-0.013-0.024-0.019-0.034l-0.024-0.039
			c-0.022-0.036-0.049-0.083-0.067-0.108c-0.078-0.117-0.178-0.254-0.279-0.376c-0.414-0.495-0.964-0.925-1.611-1.231
			c-0.646-0.308-1.389-0.49-2.186-0.539c-1.578-0.09-3.4,0.305-4.935,1.26c-0.767,0.48-1.463,1.102-2.042,1.853
			c-0.577,0.753-1.039,1.634-1.367,2.609c-0.332,0.974-0.539,2.038-0.643,3.155c-0.051,0.558-0.074,1.129-0.074,1.711
			c-0.002,0.146,0,0.291,0.004,0.438c0.002,0.146,0.005,0.294,0.013,0.442l0.009,0.221l0.003,0.057
			c0.003,0.076-0.001-0.041,0.001-0.008l0.01,0.131c0.012,0.169,0.021,0.338,0.032,0.508c0.038,0.597,0.106,1.141,0.217,1.695
			c0.11,0.552,0.265,1.099,0.463,1.639c0.396,1.081,0.97,2.133,1.681,3.137c1.434,2.006,3.387,3.821,5.641,5.41
			c2.254,1.59,4.775,3.009,7.469,4.258c1.348,0.625,2.734,1.215,4.152,1.781c-0.079-0.032,0.018,0.005,0.018,0.004l0.069,0.025
			l0.139,0.051c0.091,0.032,0.19,0.069,0.274,0.098l0.503,0.167c0.177,0.059,0.354,0.116,0.531,0.175
			c0.185,0.059,0.368,0.119,0.554,0.178c0.74,0.235,1.488,0.471,2.24,0.694c0.376,0.115,0.752,0.228,1.13,0.334
			c0.376,0.106,0.756,0.222,1.132,0.322c0.377,0.102,0.753,0.204,1.131,0.306c0.37,0.094,0.74,0.187,1.112,0.279
			c0.39,0.09,0.78,0.18,1.171,0.27c0.385,0.084,0.771,0.168,1.157,0.252c0.78,0.164,1.567,0.321,2.358,0.473
			c1.582,0.301,3.182,0.566,4.795,0.806c1.613,0.244,3.238,0.469,4.877,0.655c3.273,0.393,6.594,0.641,9.933,0.846l0.269,0.016
			l0.319,0.012l0.638,0.021c0.431,0.02,0.836,0.022,1.246,0.029l1.23,0.021l1.268,0.011c0.846,0.009,1.694,0.014,2.543,0.014
			l2.548,0.003c1.699,0.007,3.399,0.005,5.091-0.006l1.266-0.011l0.633-0.006l0.621-0.013l1.234-0.026l1.275-0.045
			c0.85-0.029,1.699-0.06,2.547-0.089c0.847-0.026,1.693-0.052,2.539-0.077c1.691-0.053,3.377-0.104,5.057-0.156
			c1.674-0.061,3.343-0.12,5.004-0.18c1.66-0.053,3.313-0.105,4.955-0.157c0.404-0.017,0.809-0.034,1.213-0.051
			c0.409-0.019,0.822-0.033,1.222-0.056c0.806-0.044,1.599-0.081,2.405-0.131c1.614-0.097,3.217-0.191,4.805-0.286
			c0.795-0.053,1.586-0.104,2.374-0.157c0.786-0.056,1.57-0.111,2.35-0.167c0.775-0.06,1.546-0.12,2.314-0.179
			c0.756-0.064,1.497-0.125,2.271-0.205c1.506-0.15,3.007-0.315,4.472-0.504c0.733-0.094,1.462-0.192,2.182-0.299
			c0.722-0.104,1.436-0.212,2.143-0.329c2.827-0.463,5.535-1.057,8.078-1.812c1.271-0.375,2.497-0.802,3.673-1.275
			c0.585-0.24,1.16-0.487,1.719-0.753c0.28-0.13,0.554-0.27,0.829-0.404c0.135-0.069,0.27-0.14,0.404-0.21l0.102-0.052
			c-0.014,0.009,0.101-0.058-0.017,0.014l0.052-0.03l0.221-0.131c0.544-0.314,1.041-0.616,1.525-0.941
			c0.482-0.324,0.944-0.661,1.379-1.014c0.867-0.705,1.627-1.473,2.234-2.286c0.607-0.814,1.049-1.682,1.287-2.568
			c0.117-0.442,0.188-0.891,0.207-1.338s-0.004-0.895-0.074-1.336c-0.137-0.883-0.443-1.737-0.838-2.533
			c-0.109-0.224-0.08-0.181-0.139-0.285c-0.041-0.077-0.09-0.157-0.141-0.236c-0.104-0.157-0.225-0.312-0.35-0.46
			c-0.252-0.295-0.541-0.558-0.846-0.777c-0.611-0.442-1.299-0.715-1.996-0.811c-0.697-0.1-1.399-0.033-2.055,0.137
			c-0.336,0.08-0.62,0.18-0.89,0.316c-0.271,0.135-0.519,0.303-0.745,0.489c-0.11,0.094-0.223,0.193-0.322,0.291l-0.042,0.043
			l-0.032,0.034c-0.022,0.023-0.043,0.044-0.065,0.071c-0.046,0.051-0.089,0.104-0.131,0.156c-0.166,0.214-0.305,0.442-0.415,0.676
			c-0.224,0.468-0.338,0.953-0.39,1.407c-0.05,0.456-0.035,0.883,0.003,1.264c0.04,0.382,0.108,0.719,0.176,1.008
			c0.065,0.29,0.139,0.531,0.199,0.726c0.063,0.192,0.114,0.339,0.15,0.437c0.035,0.098,0.054,0.146,0.054,0.146l0.005,0.014
			c0.03,0.082-0.012,0.172-0.094,0.201c-0.078,0.029-0.164-0.009-0.197-0.083c0,0-0.021-0.05-0.064-0.147
			c-0.046-0.097-0.107-0.242-0.186-0.438c-0.076-0.195-0.168-0.439-0.258-0.736c-0.093-0.297-0.186-0.646-0.253-1.05
			c-0.067-0.402-0.112-0.861-0.09-1.368c0.024-0.505,0.116-1.061,0.34-1.622c0.11-0.28,0.255-0.561,0.437-0.83
			c0.182-0.271,0.408-0.524,0.658-0.759c0.252-0.233,0.537-0.452,0.855-0.636c0.318-0.187,0.672-0.333,1.038-0.442
			c0.728-0.23,1.544-0.363,2.397-0.292c0.852,0.065,1.729,0.351,2.516,0.85c0.393,0.249,0.766,0.55,1.104,0.898
			c0.168,0.174,0.328,0.359,0.475,0.56c0.074,0.1,0.146,0.202,0.213,0.311c0.064,0.101,0.137,0.238,0.18,0.324
			c0.482,0.862,0.887,1.819,1.107,2.865c0.223,1.042,0.242,2.173-0.002,3.285c-0.238,1.112-0.73,2.193-1.396,3.181
			c-0.666,0.989-1.5,1.888-2.432,2.707c-0.932,0.82-1.971,1.558-3.062,2.237c-2.22,1.346-4.697,2.402-7.33,3.281
			c-2.634,0.874-5.422,1.554-8.311,2.109c-2.89,0.556-5.88,0.987-8.941,1.361c-0.765,0.096-1.537,0.178-2.313,0.26
			c-0.775,0.074-1.555,0.148-2.338,0.224c-0.783,0.069-1.57,0.139-2.361,0.208c-0.791,0.066-1.586,0.133-2.383,0.199
			c-0.798,0.063-1.6,0.126-2.404,0.188c-0.805,0.06-1.613,0.118-2.424,0.179c-0.812,0.06-1.627,0.108-2.445,0.164
			c-0.819,0.053-1.635,0.092-2.461,0.139c-3.291,0.146-6.622,0.294-9.981,0.443c-3.356,0.129-6.742,0.26-10.14,0.391l-1.275,0.049
			l-1.28,0.032c-0.854,0.024-1.706,0.024-2.562,0.038c-1.705,0.016-3.413,0.023-5.121,0.023l-2.562-0.011
			c-0.854-0.003-1.708-0.011-2.56-0.022l-1.28-0.016l-1.282-0.025c-0.428-0.01-0.856-0.015-1.28-0.035l-0.638-0.023l-0.318-0.014
			c-0.115-0.004-0.216-0.013-0.324-0.019c-0.849-0.058-1.699-0.104-2.546-0.175c-0.423-0.033-0.847-0.066-1.271-0.099
			c-0.422-0.038-0.844-0.075-1.267-0.114c-0.845-0.07-1.687-0.166-2.526-0.249c-0.839-0.098-1.679-0.185-2.514-0.294
			c-1.67-0.206-3.33-0.447-4.978-0.713c-1.647-0.267-3.282-0.559-4.9-0.89c-1.615-0.328-3.223-0.688-4.8-1.083
			c-0.396-0.104-0.791-0.209-1.184-0.313c-0.391-0.113-0.78-0.227-1.169-0.339c-0.389-0.111-0.772-0.235-1.158-0.352
			c-0.386-0.117-0.769-0.239-1.149-0.362c-0.765-0.242-1.521-0.495-2.274-0.749c-0.378-0.131-0.751-0.254-1.128-0.389
			c-0.188-0.067-0.376-0.135-0.563-0.201c-0.186-0.07-0.372-0.142-0.558-0.213c-1.455-0.607-2.879-1.252-4.268-1.936
			c-2.771-1.367-5.398-2.903-7.762-4.677c-1.182-0.888-2.295-1.836-3.309-2.858c-1.014-1.021-1.933-2.114-2.703-3.282
			c-0.77-1.168-1.395-2.411-1.815-3.702c-0.212-0.645-0.37-1.299-0.479-1.956s-0.16-1.317-0.177-1.963
			c-0.054-1.286-0.01-2.559,0.148-3.789c0.16-1.229,0.437-2.423,0.874-3.53c0.431-1.107,1.023-2.127,1.754-2.991
			c0.732-0.864,1.603-1.566,2.534-2.082c0.932-0.518,1.918-0.853,2.891-1.04c0.975-0.184,1.94-0.231,2.857-0.116
			c0.916,0.11,1.78,0.377,2.526,0.789c0.747,0.41,1.37,0.96,1.83,1.584c0.114,0.157,0.218,0.314,0.313,0.482
			c0.025,0.042,0.045,0.081,0.067,0.121l0.016,0.03l0.017,0.035c0.014,0.023,0.023,0.046,0.032,0.068
			c0.04,0.091,0.071,0.18,0.101,0.268c0.109,0.353,0.176,0.697,0.225,1.034c0.047,0.337,0.072,0.667,0.067,0.989
			c-0.001,0.162-0.012,0.322-0.035,0.481c-0.011,0.079-0.027,0.158-0.048,0.242l-0.016,0.053l-0.008,0.031l-0.011,0.026
			l-0.036,0.106c-0.19,0.566-0.459,1.062-0.772,1.466c-0.313,0.405-0.668,0.716-1.017,0.944s-0.686,0.378-0.986,0.479
			c-0.3,0.103-0.562,0.155-0.772,0.189c-0.212,0.032-0.374,0.042-0.484,0.046c-0.056,0.002-0.098,0.002-0.126,0.002
			c-0.029-0.001-0.045-0.002-0.045-0.002c-0.086-0.002-0.155-0.074-0.153-0.16c0.003-0.083,0.067-0.149,0.149-0.154H46.981z"/>
		<path fill="#B39370" d="M84.14,137.865c0,0,0.633,0.215,1.743,0.59c0.549,0.183,1.208,0.403,1.957,0.639s1.587,0.489,2.492,0.731
			c0.903,0.244,1.875,0.478,2.883,0.666c0.508,0.085,1.017,0.183,1.536,0.242c0.52,0.057,1.039,0.113,1.56,0.135
			c0.261,0.014,0.521,0.014,0.78,0.012c0.258,0.003,0.514-0.004,0.77-0.017c0.509-0.029,1.009-0.098,1.495-0.184
			c0.242-0.046,0.481-0.1,0.718-0.159c0.234-0.063,0.465-0.133,0.692-0.211c0.228-0.074,0.447-0.166,0.667-0.26l0.126-0.052
			l0.046-0.021l0.134-0.064c0.093-0.046,0.189-0.097,0.283-0.15c0.189-0.109,0.38-0.224,0.557-0.349
			c0.175-0.125,0.342-0.254,0.495-0.386c0.305-0.268,0.556-0.542,0.748-0.824c0.101-0.141,0.183-0.284,0.256-0.433
			c0.073-0.146,0.141-0.298,0.192-0.458c0.106-0.321,0.149-0.68,0.172-1.078c0.024-0.356-0.066-0.941-0.109-1.32
			c-0.054-0.396-0.129-0.652-0.209-0.873c-0.043-0.109-0.095-0.213-0.166-0.315s-0.166-0.2-0.279-0.303
			c-0.113-0.104-0.248-0.202-0.4-0.294l-0.117-0.066l-0.008-0.004c0.012,0.002-0.032-0.011,0.021,0.004l-0.021-0.01l-0.043-0.02
			l-0.082-0.037c-0.024-0.015-0.039-0.03-0.076-0.047l-0.102-0.051c-0.275-0.138-0.555-0.217-0.85-0.251
			c-0.146-0.02-0.298-0.025-0.45-0.019s-0.305,0.031-0.459,0.055c-0.617,0.116-1.202,0.39-1.677,0.653
			c-0.24,0.131-0.449,0.268-0.638,0.385c-0.183,0.122-0.343,0.229-0.471,0.318c-0.259,0.183-0.397,0.279-0.397,0.279l-0.046,0.032
			c-0.069,0.049-0.165,0.032-0.214-0.037c-0.037-0.054-0.035-0.123,0-0.175c0,0,0.024-0.033,0.069-0.099
			c0.046-0.066,0.11-0.165,0.204-0.289c0.182-0.251,0.457-0.615,0.856-1.037c0.401-0.42,0.934-0.908,1.668-1.3
			c0.367-0.192,0.784-0.356,1.248-0.446c0.463-0.092,0.968-0.103,1.479-0.021c0.127,0.019,0.254,0.046,0.386,0.077
			c0.063,0.017,0.117,0.029,0.188,0.05c0.063,0.02,0.126,0.039,0.188,0.058c0.254,0.082,0.508,0.182,0.756,0.308
			c0.25,0.124,0.495,0.274,0.725,0.453c0.229,0.181,0.442,0.391,0.632,0.625c0.379,0.471,0.645,1.035,0.827,1.617
			c0.092,0.293,0.164,0.59,0.229,0.891c0.063,0.295,0.12,0.61,0.15,0.926c0.066,0.632,0.053,1.291-0.077,1.939
			c-0.126,0.65-0.368,1.288-0.709,1.869c-0.341,0.584-0.778,1.109-1.274,1.568c-0.497,0.46-1.049,0.856-1.639,1.186
			c-0.294,0.161-0.605,0.313-0.914,0.434c-0.311,0.127-0.625,0.244-0.945,0.34c-0.638,0.197-1.289,0.339-1.942,0.42
			c-0.652,0.084-1.306,0.114-1.947,0.102c-0.643-0.014-1.274-0.072-1.89-0.16c-1.232-0.175-2.394-0.492-3.466-0.856
			c-1.073-0.367-2.058-0.788-2.945-1.217c-0.889-0.426-1.678-0.867-2.363-1.277c-0.687-0.411-1.27-0.792-1.743-1.118
			c-0.473-0.324-0.835-0.591-1.08-0.777c-0.246-0.186-0.375-0.292-0.375-0.292c-0.065-0.054-0.074-0.149-0.021-0.215
			c0.041-0.051,0.109-0.067,0.168-0.049L84.14,137.865z"/>
		<path fill="#B39370" d="M119.141,141.024c-0.178,0.421-0.395,0.813-0.642,1.196c-0.122,0.192-0.253,0.38-0.395,0.562
			c-0.14,0.184-0.285,0.366-0.444,0.539c-0.318,0.345-0.665,0.686-1.072,0.979c-0.404,0.293-0.857,0.57-1.386,0.758
			c-0.521,0.188-1.116,0.313-1.737,0.297c-0.617-0.018-1.251-0.158-1.816-0.402c-0.285-0.118-0.552-0.266-0.803-0.424
			c-0.252-0.157-0.484-0.33-0.705-0.51c-0.108-0.092-0.219-0.183-0.318-0.276c-0.104-0.094-0.203-0.189-0.299-0.287
			c-0.192-0.194-0.367-0.396-0.537-0.599l-0.031-0.037l-0.008-0.011c0.012,0.021-0.138-0.219-0.078-0.12l-0.011-0.017l-0.024-0.032
			c-0.008-0.011-0.015-0.02-0.028-0.039l-0.127-0.197c-0.076-0.121-0.15-0.242-0.22-0.364c-0.139-0.244-0.264-0.491-0.379-0.745
			c-0.226-0.508-0.402-1.042-0.529-1.603c-0.124-0.56-0.203-1.147-0.199-1.751c0.004-0.603,0.078-1.219,0.227-1.822
			s0.368-1.195,0.662-1.736c0.288-0.543,0.634-1.044,1.01-1.496c0.752-0.912,1.64-1.601,2.527-2.166
			c0.447-0.281,0.896-0.538,1.353-0.757c0.115-0.054,0.229-0.11,0.344-0.16l0.171-0.076l0.086-0.038l0.15-0.062l0.24-0.09
			l0.217-0.074c0.142-0.045,0.282-0.09,0.42-0.127c0.551-0.155,1.082-0.261,1.613-0.334c0.529-0.067,1.055-0.096,1.575-0.104
			c1.038-0.007,2.06,0.077,3.042,0.278c0.244,0.054,0.49,0.104,0.732,0.161c0.24,0.063,0.48,0.121,0.719,0.188
			c0.234,0.071,0.473,0.139,0.704,0.217l0.688,0.251c0.905,0.355,1.777,0.756,2.598,1.229c0.829,0.461,1.607,0.979,2.349,1.534
			c0.743,0.552,1.441,1.144,2.101,1.769c0.67,0.612,1.277,1.281,1.875,1.945l0.098,0.094l0.562,0.8
			c0.188,0.265,0.374,0.532,0.555,0.804s0.366,0.539,0.544,0.813l0.52,0.826c0.176,0.274,0.343,0.557,0.511,0.835
			c0.085,0.141,0.171,0.278,0.253,0.421l0.242,0.428c0.08,0.143,0.163,0.283,0.24,0.428l0.236,0.433
			c0.079,0.144,0.154,0.292,0.23,0.438c0.074,0.146,0.146,0.298,0.221,0.445l0.017,0.035c0.038,0.075,0.007,0.166-0.068,0.203
			c-0.062,0.03-0.133,0.016-0.179-0.032l-1.303-1.398c-0.433-0.466-0.874-0.926-1.313-1.388l-0.658-0.693
			c-0.219-0.23-0.443-0.456-0.664-0.686l-1.328-1.372l0.014,0.014c-0.323-0.27-0.643-0.545-0.971-0.81l-0.496-0.391l-0.248-0.194
			l-0.255-0.188l-0.509-0.373c-0.17-0.125-0.346-0.239-0.519-0.358c-0.345-0.242-0.701-0.463-1.058-0.688
			c-0.718-0.432-1.445-0.853-2.203-1.211c-0.754-0.362-1.527-0.685-2.318-0.95c-0.793-0.263-1.604-0.47-2.422-0.608
			c-0.821-0.138-1.651-0.201-2.479-0.188c-0.826,0.023-1.653,0.115-2.441,0.329c-0.197,0.053-0.395,0.114-0.577,0.184l-0.037,0.015
			l-0.028,0.012l-0.072,0.031l-0.143,0.061c-0.096,0.041-0.189,0.087-0.283,0.129c-0.377,0.176-0.744,0.368-1.1,0.58
			c-0.708,0.422-1.367,0.925-1.91,1.528c-0.544,0.603-0.968,1.308-1.196,2.078c-0.234,0.77-0.272,1.593-0.153,2.396
			c0.059,0.402,0.159,0.799,0.292,1.185c0.068,0.192,0.144,0.383,0.228,0.567c0.084,0.182,0.18,0.376,0.275,0.525
			c0.459,0.679,1.02,1.299,1.715,1.688c0.346,0.196,0.725,0.324,1.115,0.38c0.391,0.055,0.793,0.035,1.187-0.048
			c0.79-0.167,1.534-0.567,2.204-1.053c0.668-0.49,1.287-1.073,1.816-1.709c0.054-0.064,0.15-0.073,0.214-0.02
			c0.053,0.044,0.068,0.115,0.044,0.176L119.141,141.024z"/>
		<path fill="#D64542" d="M159.642,87.353c-0.481-0.363-1.379-0.861-2.88-1.099h-0.002c-1.971-0.353-4.083,0.12-6.664,1.538
			c-3.174,1.746-4.541,5.197-4.935,6.396c-0.087,0.268-0.258,1.115-0.258,1.115l-0.642,3.388l-0.53,2.06
			c-2.232,6.581-6.758,7.261-8.173,7.622c-9.174,1.479-15.998-0.875-17.371-1.16c-11.266-3.614-14.249-7.619-18.122-10.898
			c-1.855-1.78-10.163-11.329-13.832-15.052c-8.148-7.973-12.751-9.92-13.761-10.487c-13.805-7.255-24.117-1.171-25.41-0.405
			c-5.697,3.893-6.95,8.22-6.989,11.205l-0.001,0.001c0,0-0.026,1.712,0.181,2.401l0,0c0.187,0.89,0.786,2.311,2.688,3.017
			c0.044,0.017,0.089,0.033,0.132,0.049c0.004,0.001,0.007,0.003,0.01,0.003l0,0c0.652,0.227,1.193,0.228,1.648,0.248
			c5.01,0.049,4.453-5.123,4.294-6.255c-0.528-2.876,0.687-3.036,1.563-3.004c0.122,0.004,0.537,0.093,0.633,0.134
			c3.195,1.354,4.129,4.903,4.986,7.689c1.645,6.709,1.425,18.063,1.011,24c-0.378,9.05,2.243,11.356,3.251,12.894
			c5.359,7.847,18.332,6.657,20.027,6.659c4.041-0.316,13.658-1.189,21.617-1.338c3.271,0.086,18.785,1.041,28.643,1.462
			c14.542,1.236,16.895-3.688,18.107-5.182c4.658-6.658,1.801-13.45,1.078-16.077c-1.448-3.963-0.793-8.93-0.51-9.778
			c1.662-3.311,4.895-3.103,5.783-3.062c0.747,0.102,1.391,0.146,1.967,0.146l0,0c0,0,1.402,0.075,2.201-0.274
			c0-0.001,0-0.001,0-0.001c0.717-0.271,1.625-0.876,2.301-2.209c0.08-0.146,0.148-0.293,0.203-0.439
			c0.001-0.002,0.001-0.003,0.002-0.004l0,0c0.641-1.692-0.33-3.271-1.19-4.254C160.483,88.155,159.967,87.598,159.642,87.353z"/>
		<path fill="#B39370" d="M150.635,133.834c-0.077-1.117-0.406-2.214-0.979-3.132c-0.287-0.457-0.623-0.874-1.003-1.226
			c-0.382-0.354-0.767-0.661-1.237-0.896c-0.908-0.453-1.896-0.542-2.752-0.4c-0.428,0.073-0.827,0.203-1.186,0.369
			c-0.356,0.168-0.672,0.371-0.945,0.586c-0.551,0.43-0.93,0.906-1.208,1.311c-0.276,0.408-0.444,0.755-0.56,0.989
			c-0.105,0.238-0.161,0.366-0.161,0.366c-0.025,0.057-0.019,0.126,0.024,0.177c0.06,0.072,0.166,0.083,0.239,0.022l0.067-0.055
			c0,0,0.113-0.094,0.324-0.268c0.053-0.04,0.111-0.086,0.177-0.137c0.063-0.05,0.13-0.104,0.206-0.158
			c0.152-0.109,0.323-0.229,0.516-0.349c0.387-0.233,0.85-0.473,1.357-0.595c0.252-0.061,0.507-0.104,0.764-0.102
			c0.254-0.004,0.502,0.018,0.736,0.086c0.207,0.055,0.404,0.129,0.579,0.234h0.002c0.011,0.006,0.02,0.013,0.028,0.02
			c0.011,0.006,0.023,0.012,0.033,0.02c0.166,0.098,0.309,0.217,0.417,0.348c0.315,0.316,0.538,0.686,0.694,1.049
			c0.051,0.1,0.095,0.201,0.135,0.304c0.043,0.125,0.079,0.252,0.112,0.382c0.035,0.129,0.065,0.262,0.087,0.4
			c0.031,0.174,0.041,0.359,0.046,0.55c0.001,0.038,0.001,0.058,0.001,0.058v0.002c0.002,0.092,0.002,0.185,0.002,0.278
			c-0.004,0.155-0.019,0.313-0.035,0.468c-0.009,0.076-0.019,0.154-0.03,0.225l-0.007,0.035l-0.008,0.051l-0.004,0.025
			c0-0.007-0.004,0.03,0-0.011v0.005c-0.009,0.026-0.017,0.052-0.022,0.077c-0.051,0.205-0.13,0.382-0.229,0.572
			c-0.107,0.187-0.236,0.391-0.424,0.6c-0.09,0.106-0.193,0.214-0.307,0.32c-0.111,0.108-0.233,0.218-0.365,0.323
			c-0.133,0.104-0.267,0.211-0.422,0.317l-0.127,0.085l-0.101,0.063c-0.023,0.014-0.038,0.024-0.051,0.032l-0.021,0.015
			c-0.028,0.016,0.208-0.11,0.104-0.055l-0.007,0.005c-0.075,0.047-0.148,0.099-0.225,0.145c-0.151,0.096-0.311,0.18-0.47,0.264
			c-0.082,0.038-0.162,0.08-0.246,0.115c-0.082,0.04-0.166,0.08-0.247,0.119c-0.333,0.157-0.686,0.278-1.047,0.395
			c-0.359,0.122-0.732,0.217-1.108,0.296c-0.377,0.091-0.758,0.155-1.137,0.207c-0.381,0.063-0.76,0.102-1.129,0.133
			c-0.373,0.042-0.735,0.061-1.087,0.077c-0.354,0.025-0.692,0.029-1.017,0.038c-0.65,0.019-1.232,0.013-1.723,0.01
			c-1.005-0.016-1.579-0.024-1.579-0.024l-0.084-0.002c-0.061-0.001-0.12,0.031-0.151,0.088c-0.047,0.082-0.018,0.186,0.064,0.232
			c0,0,0.123,0.07,0.354,0.186c0.232,0.117,0.573,0.281,1.017,0.469c0.443,0.188,0.989,0.401,1.629,0.609
			c0.638,0.209,1.372,0.41,2.189,0.559c0.817,0.15,1.717,0.257,2.675,0.26c0.479,0.002,0.973-0.023,1.476-0.08
			c0.503-0.06,1.012-0.158,1.521-0.295c0.51-0.137,1.02-0.314,1.515-0.539c0.125-0.053,0.247-0.115,0.37-0.175
			c0.121-0.065,0.242-0.132,0.364-0.198c0.238-0.135,0.476-0.279,0.706-0.438c0.916-0.627,1.762-1.455,2.296-2.493
			c0.264-0.518,0.451-1.077,0.542-1.649C150.658,134.958,150.672,134.396,150.635,133.834z"/>
		<path fill="#B39370" d="M88.501,145.295l-0.013-0.041c-0.096-0.303-0.198-0.601-0.308-0.896l-0.165-0.442
			c-0.057-0.147-0.118-0.29-0.178-0.435c-0.239-0.578-0.49-1.152-0.768-1.711c-0.264-0.568-0.568-1.111-0.861-1.666l-0.471-0.811
			c-0.079-0.135-0.157-0.271-0.238-0.405l-0.252-0.396c-0.336-0.53-0.682-1.057-1.054-1.567c-0.188-0.255-0.372-0.513-0.563-0.767
			c-0.193-0.254-0.393-0.5-0.596-0.749c-0.41-0.493-0.824-0.989-1.289-1.458l-0.345-0.354l-0.362-0.352
			c-0.117-0.117-0.247-0.232-0.375-0.349c-0.131-0.116-0.251-0.225-0.412-0.351l-0.229-0.183l-0.115-0.091l-0.094-0.072
			l-0.182-0.137l-0.089-0.068l-0.175-0.118c-0.274-0.188-0.552-0.374-0.837-0.554c-0.577-0.35-1.176-0.682-1.804-0.987
			c-0.628-0.31-1.298-0.569-2.001-0.796c-0.708-0.216-1.455-0.391-2.247-0.476c-0.793-0.089-1.632-0.085-2.488,0.046
			c-0.852,0.136-1.722,0.405-2.516,0.83c-0.799,0.416-1.507,0.984-2.095,1.624c-0.293,0.32-0.558,0.659-0.796,1.014
			c-0.232,0.356-0.438,0.733-0.612,1.124l-0.111,0.246v0.003l-0.142,0.498c-0.045,0.168-0.081,0.343-0.121,0.514
			c-0.037,0.172-0.066,0.354-0.094,0.529c-0.027,0.179-0.041,0.366-0.06,0.547c-0.014,0.185-0.019,0.374-0.025,0.56
			c0.004,0.191,0.004,0.381,0.017,0.573c0.017,0.194,0.027,0.384,0.061,0.581c0.016,0.097,0.027,0.193,0.046,0.29l0.068,0.29
			c0.021,0.097,0.048,0.193,0.078,0.289s0.058,0.191,0.09,0.285c0.07,0.188,0.138,0.376,0.226,0.558
			c0.166,0.364,0.363,0.714,0.602,1.029c0.234,0.316,0.495,0.607,0.778,0.862c0.282,0.255,0.577,0.484,0.895,0.673
			c0.315,0.19,0.644,0.352,0.987,0.485c0.168,0.064,0.343,0.123,0.527,0.172c0.832,0.213,1.609,0.079,1.898,0.013
			c0.344-0.085,0.684-0.212,0.995-0.385c0.332-0.182,0.625-0.426,0.865-0.691c0.239-0.267,0.421-0.563,0.558-0.862
			c0.141-0.297,0.223-0.605,0.279-0.906c0.052-0.306,0.068-0.603,0.043-0.907l-0.002-0.038c-0.006-0.063-0.052-0.117-0.117-0.133
			c-0.079-0.018-0.16,0.031-0.178,0.111c-0.057,0.246-0.15,0.498-0.26,0.732c-0.113,0.235-0.246,0.46-0.403,0.664
			c-0.157,0.203-0.339,0.387-0.541,0.539s-0.427,0.272-0.663,0.355c-0.237,0.083-0.487,0.13-0.74,0.146
			c-0.128,0.003-0.255,0.007-0.384-0.004c-0.063-0.001-0.127-0.008-0.19-0.017l-0.096-0.012l-0.049-0.006h-0.002l-0.006-0.001
			l-0.025-0.005c-0.227-0.055-0.467-0.164-0.691-0.286c-0.225-0.125-0.439-0.27-0.64-0.432c-0.201-0.163-0.387-0.342-0.556-0.535
			c-0.17-0.192-0.317-0.403-0.445-0.624c-0.13-0.22-0.238-0.453-0.318-0.694c-0.047-0.119-0.075-0.244-0.11-0.366l-0.039-0.188
			c-0.015-0.063-0.026-0.125-0.032-0.189l-0.027-0.19l-0.012-0.191c-0.014-0.128-0.007-0.257-0.01-0.386
			c0.002-0.129,0.014-0.258,0.021-0.386c0.017-0.129,0.029-0.258,0.051-0.386c0.043-0.256,0.102-0.51,0.169-0.763
			c0.04-0.125,0.073-0.252,0.116-0.376l0.126-0.355c0.265-0.503,0.607-0.968,1.009-1.369c0.405-0.406,0.874-0.743,1.387-0.994
			c0.512-0.252,1.066-0.415,1.636-0.492c0.568-0.079,1.15-0.073,1.729-0.008c1.155,0.138,2.29,0.5,3.371,0.982
			c0.541,0.241,1.07,0.511,1.59,0.803c0.26,0.146,0.517,0.297,0.771,0.452l0.047,0.029l0.024,0.015l0.003,0.002l0,0l0.012,0.008
			l0.094,0.063l0.188,0.125c0.127,0.084,0.238,0.172,0.358,0.257c0.47,0.353,0.936,0.729,1.377,1.129
			c0.447,0.396,0.881,0.808,1.31,1.226c0.213,0.21,0.422,0.425,0.634,0.638c0.209,0.215,0.412,0.435,0.619,0.651
			c0.408,0.439,0.814,0.883,1.206,1.337c0.399,0.448,0.782,0.913,1.169,1.373c0.381,0.465,0.768,0.926,1.138,1.399
			c0.377,0.468,0.742,0.947,1.108,1.424c0.367,0.478,0.721,0.965,1.081,1.447c0.037,0.049,0.103,0.072,0.163,0.053
			C88.482,145.457,88.526,145.373,88.501,145.295z"/>
	</g>
</g>
</svg>
