<?xml version="1.0" encoding="utf-8"?>
<!-- Generator: Adobe Illustrator 16.0.0, SVG Export Plug-In . SVG Version: 6.00 Build 0)  -->
<!DOCTYPE svg PUBLIC "-//W3C//DTD SVG 1.1//EN" "http://www.w3.org/Graphics/SVG/1.1/DTD/svg11.dtd">
<svg version="1.1" id="Layer_1" xmlns="http://www.w3.org/2000/svg" xmlns:xlink="http://www.w3.org/1999/xlink" x="0px" y="0px"
	 width="216px" height="216px" viewBox="0 0 216 216" enable-background="new 0 0 216 216" xml:space="preserve">
<g>
	<circle fill="#8F9FB6" cx="108" cy="108" r="108"/>
	<path fill="#EAEAEA" d="M171.794,104.576h-8.218l1.233-2.195c0.592-1.055,0.217-2.393-0.836-2.984
		c-1.02-0.572-2.414-0.178-2.984,0.838l-2.44,4.344h-1.867l3.859-6.875c0.288-0.51,0.359-1.102,0.201-1.664
		c-0.158-0.564-0.527-1.033-1.035-1.318c-1.02-0.576-2.416-0.18-2.986,0.838l-5.065,9.02h-1.927l1.234-2.197
		c0.592-1.053,0.215-2.393-0.837-2.984c-1.021-0.572-2.414-0.178-2.984,0.838l-2.44,4.344h-4.391l-4.38-3.91l1.974-7.068
		c0.323-1.164-0.359-2.375-1.522-2.699l-3.929-1.096l4.826-3.975l4.646,1.799c1.093,0.428,2.414-0.158,2.837-1.25
		c0.211-0.545,0.198-1.141-0.039-1.678c-0.235-0.533-0.667-0.945-1.212-1.156l-2.352-0.912l2.166-1.783
		c0.933-0.768,1.067-2.152,0.298-3.084c-0.738-0.898-2.184-1.039-3.084-0.301l-2.165,1.785l-0.443-2.48
		c-0.212-1.176-1.356-1.988-2.544-1.771c-0.576,0.104-1.078,0.426-1.412,0.906c-0.335,0.48-0.463,1.063-0.358,1.637l0.878,4.906
		l-5.053,4.162l-0.882-4.73c-0.104-0.568-0.438-1.08-0.916-1.406c-0.477-0.328-1.058-0.457-1.642-0.348l-6.428,1.201l-2.838-4.918
		c-0.555-0.957-1.83-1.359-2.833-0.885l-3.712,1.752v-5.979l4.344-2.439c0.51-0.287,0.878-0.756,1.035-1.318
		c0.158-0.564,0.088-1.156-0.199-1.666c-0.388-0.689-1.12-1.119-1.91-1.119c-0.375,0-0.747,0.098-1.072,0.283l-2.197,1.234v-1.93
		l9.02-5.064c0.51-0.287,0.879-0.754,1.037-1.318s0.088-1.156-0.2-1.666c-0.387-0.689-1.119-1.119-1.91-1.119
		c-0.376,0-0.747,0.098-1.073,0.281l-6.873,3.861v-1.865l4.344-2.441c0.51-0.287,0.878-0.754,1.035-1.318
		c0.158-0.564,0.088-1.156-0.199-1.666c-0.388-0.689-1.12-1.119-1.91-1.119c-0.375,0-0.747,0.1-1.072,0.283l-2.197,1.234v-8.219
		c0-1.209-0.983-2.191-2.191-2.191s-2.191,0.982-2.191,2.191v8.219l-2.196-1.234c-1.02-0.574-2.412-0.18-2.984,0.838
		c-0.592,1.055-0.216,2.391,0.837,2.982l4.344,2.441v1.865l-6.873-3.859c-1.021-0.578-2.415-0.18-2.983,0.836
		c-0.288,0.512-0.358,1.102-0.2,1.666s0.526,1.031,1.037,1.318l9.02,5.064v1.93l-2.196-1.234c-1.02-0.574-2.412-0.18-2.984,0.838
		c-0.592,1.053-0.216,2.391,0.837,2.982l4.344,2.439v5.979l-3.712-1.752c-1.006-0.475-2.28-0.072-2.833,0.887l-2.838,4.916
		l-5.701-1.064l-2.983-3.873l1.952-4.582c0.23-0.539,0.236-1.135,0.018-1.68c-0.219-0.541-0.636-0.967-1.173-1.195
		c-1.086-0.467-2.415,0.072-2.876,1.156l-0.987,2.318l-1.529-1.984c-0.716-0.93-2.139-1.117-3.073-0.398
		c-0.463,0.357-0.76,0.873-0.836,1.453c-0.074,0.58,0.081,1.156,0.438,1.619l1.527,1.984l-2.493,0.361
		c-1.194,0.176-2.026,1.289-1.853,2.484c0.17,1.174,1.294,2.027,2.484,1.854l4.93-0.717l2.975,3.863l-1.148,6.168L79.617,90.9
		c-0.555,0.156-1.037,0.533-1.318,1.035c-0.284,0.502-0.357,1.109-0.202,1.664l1.973,7.068l-4.38,3.908h-4.391l-2.44-4.342
		c-0.388-0.689-1.119-1.117-1.911-1.117c-0.374,0-0.746,0.096-1.072,0.281c-1.053,0.592-1.43,1.928-0.837,2.982l1.233,2.195h-1.927
		l-5.067-9.018c-0.387-0.691-1.119-1.121-1.91-1.121c-0.376,0-0.748,0.098-1.073,0.283c-1.052,0.592-1.428,1.93-0.838,2.982
		l3.862,6.873h-1.867l-2.439-4.342c-0.571-1.016-1.963-1.412-2.984-0.836c-0.51,0.287-0.877,0.754-1.036,1.318
		c-0.159,0.563-0.088,1.154,0.199,1.664l1.235,2.195h-8.22c-1.209,0.002-2.19,0.984-2.19,2.191c0,1.209,0.981,2.193,2.19,2.193h8.22
		l-1.235,2.195c-0.287,0.51-0.358,1.102-0.199,1.666c0.159,0.563,0.526,1.033,1.035,1.318c1.019,0.572,2.413,0.18,2.985-0.836
		l2.439-4.344h1.867l-3.862,6.873c-0.286,0.512-0.356,1.102-0.198,1.664c0.158,0.564,0.526,1.033,1.035,1.32
		c0.328,0.182,0.699,0.279,1.074,0.279c0.792,0,1.524-0.428,1.91-1.117l5.067-9.02h1.927l-1.234,2.197
		c-0.591,1.053-0.215,2.391,0.837,2.982c1.021,0.574,2.415,0.178,2.983-0.836l2.441-4.344h4.219l4.244,4.756l-2.529,6.229
		c-0.219,0.535-0.214,1.148,0.01,1.678c0.229,0.541,0.652,0.959,1.195,1.18l4.733,1.922l-5.333,4.391l-4.643-1.799
		c-1.094-0.428-2.413,0.158-2.837,1.25c-0.212,0.545-0.198,1.141,0.038,1.676c0.236,0.537,0.667,0.947,1.213,1.158l2.35,0.912
		l-1.934,1.594c-0.933,0.768-1.065,2.15-0.298,3.084c0.739,0.896,2.185,1.039,3.084,0.297l1.934-1.592l0.443,2.48
		c0.187,1.047,1.093,1.805,2.155,1.805c0.128,0,0.258-0.01,0.388-0.033c0.577-0.104,1.079-0.426,1.413-0.906
		s0.462-1.063,0.358-1.637l-0.878-4.906l4.822-3.971l0.265,3.746c0.085,1.193,1.126,2.119,2.341,2.029l7.32-0.518l3.384,5.811
		c0.585,1.004,1.986,1.379,2.995,0.791l4.057-2.359v6.674l-4.345,2.441c-0.51,0.285-0.878,0.754-1.036,1.318
		c-0.158,0.563-0.088,1.154,0.199,1.662c0.569,1.018,1.967,1.41,2.984,0.838l2.197-1.234v1.928l-9.02,5.066
		c-0.511,0.287-0.879,0.754-1.037,1.318s-0.088,1.156,0.199,1.664c0.387,0.691,1.119,1.119,1.912,1.119
		c0.374,0,0.744-0.096,1.072-0.281l6.873-3.859v1.865l-4.344,2.441c-1.053,0.592-1.429,1.93-0.838,2.984
		c0.57,1.016,1.962,1.41,2.984,0.836l2.197-1.234v8.219c0,1.207,0.983,2.191,2.191,2.191s2.191-0.984,2.191-2.191v-8.219
		l2.196,1.234c1.021,0.572,2.415,0.178,2.983-0.836c0.287-0.512,0.357-1.102,0.199-1.666s-0.527-1.031-1.037-1.318l-4.342-2.439
		v-1.867l6.873,3.859c1.02,0.574,2.415,0.178,2.983-0.836c0.288-0.51,0.358-1.102,0.2-1.666s-0.527-1.031-1.037-1.318l-9.02-5.066
		v-1.926l2.196,1.232c1.019,0.572,2.412,0.18,2.983-0.836c0.287-0.51,0.357-1.102,0.199-1.666c-0.157-0.563-0.525-1.031-1.035-1.318
		l-4.344-2.439v-6.674l4.056,2.359c0.336,0.195,0.716,0.299,1.102,0.299c0.776,0,1.503-0.418,1.895-1.09l3.385-5.811l6.118,0.432
		l2.311,3.002l-1.952,4.582c-0.229,0.539-0.235,1.135-0.018,1.678c0.219,0.543,0.636,0.967,1.173,1.195
		c0.272,0.119,0.563,0.178,0.859,0.178c0.88,0,1.671-0.523,2.017-1.332l0.988-2.32l1.712,2.223c0.716,0.93,2.145,1.115,3.072,0.4
		c0.464-0.357,0.762-0.873,0.836-1.455c0.076-0.58-0.079-1.154-0.437-1.619l-1.712-2.223l2.493-0.361
		c0.579-0.084,1.091-0.389,1.441-0.857c0.351-0.471,0.496-1.047,0.412-1.627c-0.171-1.174-1.296-2.025-2.483-1.854l-4.93,0.717
		l-2.199-2.855l0.434-6.125l6.799-2.76c0.535-0.219,0.97-0.646,1.194-1.178c0.229-0.539,0.231-1.137,0.011-1.678l-2.529-6.232
		l4.244-4.756h4.219l2.439,4.344c0.387,0.691,1.12,1.119,1.912,1.119c0.374,0,0.746-0.098,1.072-0.281
		c1.053-0.592,1.428-1.93,0.836-2.984l-1.234-2.197h1.929l5.065,9.021c0.389,0.689,1.121,1.119,1.912,1.119
		c0.376,0,0.748-0.1,1.071-0.281c0.511-0.287,0.88-0.756,1.038-1.32c0.158-0.563,0.087-1.154-0.199-1.664l-3.862-6.875h1.868
		l2.439,4.344c0.387,0.691,1.12,1.119,1.912,1.119c0.375,0,0.746-0.098,1.072-0.281c1.053-0.592,1.429-1.93,0.837-2.984
		l-1.234-2.197h8.219c1.208,0,2.19-0.982,2.19-2.191C173.984,105.561,173.002,104.576,171.794,104.576z M131.664,114.102
		l2.219,5.465l-6.033,2.449c-0.769,0.311-1.303,1.047-1.361,1.875l-0.183,2.572l-4.194-5.445l0.146-2.057l3.481-1.414
		c0.543-0.221,0.968-0.639,1.194-1.178c0.227-0.531,0.229-1.143,0.013-1.676l-1.278-3.148l2.308-2.586h6.635l-2.55,2.857
		C131.499,112.445,131.348,113.32,131.664,114.102z M83.94,111.816l-2.55-2.855h6.635l2.308,2.584l-1.278,3.148
		c-0.221,0.541-0.217,1.137,0.012,1.678c0.229,0.539,0.652,0.957,1.195,1.176l1.086,0.441l-4.33,3.568l-4.9-1.992l2.219-5.463
		C84.652,113.32,84.502,112.445,83.94,111.816z M84.658,100.805l-1.752-6.271l5.684-1.586c0.811-0.227,1.409-0.881,1.564-1.709
		l0.68-3.65l4.096,5.318l-0.605,3.248l-3.271,0.912c-0.563,0.158-1.032,0.525-1.32,1.035c-0.287,0.51-0.359,1.1-0.202,1.666
		l1.011,3.619l-1.334,1.191l-6.936-0.002l1.733-1.545C84.625,102.479,84.881,101.604,84.658,100.805z M131.994,103.029l1.734,1.549
		h-6.936l-1.334-1.191l1.011-3.621c0.157-0.564,0.085-1.154-0.202-1.664c-0.288-0.51-0.757-0.877-1.32-1.035l-0.979-0.273
		l4.358-3.59l4.766,1.33l-1.75,6.271C131.119,101.604,131.375,102.479,131.994,103.029z M121.094,111.93l0.967,2.381l-2.717,1.104
		c-0.391,0.158-0.721,0.43-0.958,0.766l-3.263-4.238c0.645-0.885,1.125-1.893,1.406-2.982h5.572l-0.613,0.688
		C120.928,110.273,120.776,111.148,121.094,111.93z M94.512,109.646l-0.612-0.686h5.571c0.16,0.623,0.385,1.221,0.671,1.783
		l-4.948,4.076l-1.254-0.51l0.968-2.381C95.224,111.148,95.072,110.273,94.512,109.646z M95.129,103.523l-0.788-2.824l2.476-0.691
		c0.8-0.223,1.414-0.895,1.565-1.709l0.137-0.732l2.73,3.545c-0.834,0.992-1.444,2.174-1.778,3.467h-4.329
		C95.218,104.232,95.227,103.873,95.129,103.523z M120.871,103.521c-0.098,0.35-0.09,0.711-0.013,1.057h-4.329
		c-0.115-0.447-0.256-0.881-0.436-1.297l3.748-3.09l1.816,0.508L120.871,103.521z M112.434,106.768c0,2.445-1.989,4.434-4.433,4.434
		c-2.444,0-4.435-1.988-4.435-4.434c0-2.443,1.99-4.432,4.435-4.432C110.444,102.336,112.434,104.324,112.434,106.768z
		 M113.404,99.818c-0.938-0.73-2.028-1.273-3.213-1.578v-4.902l0.943-0.445l1.118,1.938c0.457,0.791,1.376,1.232,2.3,1.059
		l2.527-0.471l0.222,1.189L113.404,99.818z M105.809,98.24c-0.34,0.086-0.671,0.191-0.994,0.316l-2.152-2.795
		c0.448-0.182,0.836-0.502,1.084-0.932l1.118-1.938l0.944,0.445V98.24z M103.029,114.043c0.835,0.572,1.773,0.996,2.779,1.254v6.873
		l-1.344,0.781l-1.293-2.223c-0.391-0.67-1.122-1.086-1.908-1.086l-3.065,0.211l-0.122-1.73L103.029,114.043z M110.191,115.297
		c0.539-0.139,1.059-0.324,1.553-0.559l3.818,4.957l-0.697-0.051l-0.129-0.002c-0.785,0-1.518,0.416-1.908,1.086l-1.294,2.223
		l-1.343-0.781V115.297z M121.168,93.424l-0.181-0.963c-0.104-0.568-0.438-1.08-0.915-1.406c-0.475-0.326-1.049-0.457-1.641-0.348
		l-3.158,0.59l-1.351-2.342c-0.555-0.957-1.832-1.359-2.833-0.887l-0.898,0.426v-6.375l3.758-1.771l2.605,4.512
		c0.457,0.793,1.379,1.23,2.299,1.059l5.799-1.082l0.924,4.957L121.168,93.424z M105.809,88.494l-0.897-0.424
		c-1.005-0.475-2.281-0.074-2.833,0.885l-1.354,2.342l-1.754-0.328l-4.236-5.5l2.41,0.449c0.919,0.174,1.844-0.266,2.302-1.059
		l2.604-4.512l3.758,1.773V88.494z M93.926,121.543l0.057,0.805c0.039,0.584,0.307,1.119,0.749,1.502
		c0.437,0.379,1.009,0.57,1.591,0.531l3.749-0.266l1.709,2.936c0.586,1.006,1.989,1.377,2.995,0.791l1.033-0.602v5.715l-4.367,2.543
		l-2.968-5.098c-0.415-0.715-1.194-1.141-2.05-1.084l-6.495,0.459l-0.331-4.668L93.926,121.543z M110.191,127.24l1.031,0.602
		c0.335,0.193,0.716,0.297,1.102,0.297c0.779,0,1.504-0.416,1.895-1.088l1.71-2.936l3.212,0.227l4.027,5.229l-3.594-0.254
		c-0.827-0.061-1.632,0.369-2.047,1.084l-2.969,5.098l-4.367-2.543V127.24z"/>
</g>
</svg>
