<?xml version="1.0" encoding="utf-8"?>
<!-- Generator: Adobe Illustrator 16.0.0, SVG Export Plug-In . SVG Version: 6.00 Build 0)  -->
<!DOCTYPE svg PUBLIC "-//W3C//DTD SVG 1.1//EN" "http://www.w3.org/Graphics/SVG/1.1/DTD/svg11.dtd">
<svg version="1.1" id="Layer_1" xmlns="http://www.w3.org/2000/svg" xmlns:xlink="http://www.w3.org/1999/xlink" x="0px" y="0px"
	 width="216px" height="216px" viewBox="0 0 216 216" enable-background="new 0 0 216 216" xml:space="preserve">
<g>
	<circle fill="#B8E1DE" cx="108" cy="108" r="108"/>
	<g>
		<circle fill="#F2F2F2" cx="68.059" cy="92.305" r="2.373"/>
		<circle fill="#F2F2F2" cx="61.718" cy="76.185" r="1.983"/>
		<circle fill="#F2F2F2" cx="51.097" cy="93.648" r="1.469"/>
		<circle fill="#F2F2F2" cx="21.396" cy="70.27" r="1.469"/>
		<circle fill="#F2F2F2" cx="63.187" cy="23.295" r="1.469"/>
		<circle fill="#F2F2F2" cx="41.588" cy="31.428" r="2.406"/>
		<circle fill="#F2F2F2" cx="37.739" cy="57.273" r="2.373"/>
		<circle fill="#F2F2F2" cx="63.702" cy="44.484" r="1.984"/>
		<circle fill="#F2F2F2" cx="203.453" cy="90.709" r="1.984"/>
		<circle fill="#F2F2F2" cx="30.77" cy="83.76" r="1.984"/>
		<circle fill="#F2F2F2" cx="98.553" cy="66.122" r="3.115"/>
		<circle fill="#F2F2F2" cx="88.176" cy="116.059" r="1.469"/>
		<circle fill="#F2F2F2" cx="93.311" cy="90.836" r="1.469"/>
		<circle fill="#F2F2F2" cx="93.311" cy="10.305" r="2.406"/>
		<circle fill="#F2F2F2" cx="127.945" cy="98.684" r="2.373"/>
		<circle fill="#F2F2F2" cx="178.591" cy="97.611" r="1.983"/>
		<circle fill="#F2F2F2" cx="88.176" cy="44.484" r="2.167"/>
		<circle fill="#F2F2F2" cx="10.105" cy="112.75" r="3.116"/>
		<circle fill="#F2F2F2" cx="149.976" cy="114.59" r="1.469"/>
		<circle fill="#F2F2F2" cx="176.607" cy="75.605" r="1.469"/>
		<circle fill="#F2F2F2" cx="148.507" cy="77.074" r="1.47"/>
		<circle fill="#F2F2F2" cx="146.423" cy="37.877" r="1.469"/>
		<circle fill="#F2F2F2" cx="196.883" cy="146.902" r="1.469"/>
		<circle fill="#F2F2F2" cx="22.866" cy="136.113" r="1.469"/>
		<circle fill="#F2F2F2" cx="47.031" cy="128.426" r="1.469"/>
		<circle fill="#F2F2F2" cx="178.59" cy="131.459" r="1.469"/>
		<circle fill="#F2F2F2" cx="129.695" cy="44.484" r="2.829"/>
		<circle fill="#F2F2F2" cx="168.699" cy="29.021" r="3.458"/>
		<circle fill="#F2F2F2" cx="194.898" cy="66.766" r="2.373"/>
		<circle fill="#F2F2F2" cx="157.497" cy="55.396" r="1.983"/>
		<circle fill="#F2F2F2" cx="43.571" cy="110.674" r="1.983"/>
		<circle fill="#F2F2F2" cx="194.899" cy="116.457" r="1.983"/>
		<circle fill="#F2F2F2" cx="181.319" cy="44.861" r="1.856"/>
		<circle fill="#F2F2F2" cx="116.277" cy="120.361" r="1.469"/>
		<path fill="#F2F2F2" d="M132.166,77.631c0,0.813,0.658,1.471,1.469,1.471c0.813,0,1.469-0.658,1.469-1.471
			c0-0.809-0.656-1.469-1.469-1.469C132.824,76.162,132.166,76.822,132.166,77.631z"/>
		<circle fill="#F2F2F2" cx="113.161" cy="86.868" r="4.067"/>
		<circle fill="#F2F2F2" cx="127.29" cy="16.832" r="2.406"/>
	</g>
	<path fill="#F2F2F2" d="M200.365,152.988L200.365,152.988c-0.001,0-0.594-0.156-1.729-0.314c0,0-0.463-0.096-1.347-0.156
		c-0.162-0.016-0.328-0.031-0.503-0.045c-0.163-0.014-0.484-0.014-0.903-0.004c-1.106-0.004-2.53,0.063-4.253,0.293
		c-0.668,0.076-1.277,0.166-1.733,0.268c-0.032,0.01-0.066,0.016-0.098,0.023c-1.638,0.297-3.483,0.736-5.527,1.369
		c-0.001,0.002-0.003,0.002-0.005,0.002c-0.888,0.234-1.716,0.457-2.424,0.648c-0.138,0.033-0.282,0.066-0.43,0.102
		c0,0-2.113,0.58-5.867,1.256c-1.858,0.291-6.444,0.764-13.12-0.172c-3.174-0.6-4.942-1.084-4.942-1.084
		c-0.147-0.035-0.291-0.068-0.429-0.102c-0.709-0.191-1.537-0.414-2.425-0.648c0,0-0.003,0-0.005-0.002
		c-2.043-0.633-3.89-1.072-5.526-1.369c-0.033-0.008-0.065-0.014-0.098-0.023c-0.225-0.049-0.487-0.098-0.774-0.141
		c-0.009-0.002-0.018-0.004-0.026-0.006H148.2c0,0-0.475-0.125-1.384-0.252c0,0-0.37-0.076-1.077-0.125
		c-0.129-0.012-0.263-0.025-0.402-0.035c-0.131-0.012-0.388-0.012-0.724-0.004c-0.238,0-0.499,0.004-0.773,0.012
		c-0.291-0.006-0.568-0.012-0.824-0.01c-0.42-0.01-0.741-0.01-0.904,0.004c-0.175,0.014-0.342,0.029-0.503,0.045
		c-0.884,0.061-1.347,0.156-1.347,0.156c-1.135,0.158-1.729,0.314-1.729,0.314h-0.001c-1.69,0.303-3.211,0.787-4.576,1.406
		c-0.196,0.053-0.399,0.107-0.578,0.156c-0.11,0.025-0.226,0.055-0.344,0.08c0,0-1.415,0.391-3.955,0.869
		c-5.342,0.748-9.012,0.369-10.499,0.139c-3.004-0.543-4.695-1.008-4.695-1.008c-0.118-0.025-0.233-0.055-0.344-0.08
		c-0.566-0.154-1.229-0.332-1.939-0.52c-0.002,0-0.003,0-0.004-0.002c-1.636-0.506-3.113-0.855-4.423-1.094
		c-0.025-0.006-0.053-0.012-0.078-0.02c-0.365-0.082-0.854-0.152-1.388-0.215c-1.138-0.15-2.103-0.211-2.905-0.229
		c-0.014,0-0.026-0.002-0.04-0.002c-0.111-0.01-0.327-0.01-0.591-0.006c-0.264-0.004-0.479-0.004-0.591,0.006
		c-0.014,0-0.026,0.002-0.04,0.002c-0.803,0.018-1.768,0.078-2.905,0.229c-0.535,0.063-1.022,0.133-1.388,0.215
		c-0.025,0.008-0.052,0.014-0.078,0.02c-1.31,0.238-2.787,0.588-4.423,1.094c-0.001,0.002-0.003,0.002-0.003,0.002
		c-0.711,0.188-1.374,0.365-1.941,0.52c-0.11,0.025-0.225,0.055-0.343,0.08c0,0-1.415,0.391-3.955,0.869
		c-5.343,0.748-9.013,0.369-10.499,0.139c-3.005-0.543-4.695-1.008-4.695-1.008c-0.118-0.025-0.233-0.055-0.344-0.08
		c-0.567-0.154-1.229-0.332-1.94-0.52c0,0-0.003,0-0.004-0.002c-1.636-0.506-3.112-0.855-4.423-1.094
		c-0.025-0.006-0.053-0.012-0.078-0.02c-0.365-0.082-0.853-0.152-1.387-0.215c-1.379-0.184-2.519-0.238-3.403-0.234
		c-0.184-0.004-0.337-0.006-0.466-0.004c-0.129-0.002-0.282,0-0.466,0.004c-0.885-0.004-2.023,0.051-3.403,0.234
		c-0.534,0.063-1.021,0.133-1.388,0.215c-0.025,0.008-0.052,0.014-0.077,0.02c-1.311,0.238-2.788,0.588-4.423,1.094
		c-0.002,0.002-0.003,0.002-0.004,0.002c-0.711,0.188-1.373,0.365-1.94,0.52c-0.11,0.025-0.226,0.055-0.344,0.08
		c0,0-1.415,0.391-3.955,0.869c-5.342,0.748-9.012,0.369-10.499,0.139c-3.004-0.543-4.695-1.008-4.695-1.008
		c-0.118-0.025-0.233-0.055-0.344-0.08c-0.566-0.154-1.229-0.332-1.939-0.52c-0.002,0-0.003,0-0.004-0.002
		c-1.636-0.506-3.113-0.855-4.423-1.094c-0.025-0.006-0.053-0.012-0.078-0.02c-0.365-0.082-0.854-0.152-1.388-0.215
		c-1.379-0.184-2.519-0.238-3.403-0.234c-0.335-0.008-0.593-0.008-0.724,0.004c-0.14,0.01-0.272,0.023-0.402,0.035
		c-0.707,0.049-1.077,0.125-1.077,0.125c-0.908,0.127-1.383,0.252-1.383,0.252h-0.001c-1.008,0.18-1.938,0.445-2.801,0.771
		C27.309,190.48,64.672,216,108,216c42.943,0,80.032-25.066,97.438-61.365C203.946,153.902,202.266,153.328,200.365,152.988z"/>
	<g>
		<ellipse fill="#EAEAEA" cx="108" cy="140.02" rx="46.141" ry="38.193"/>
		<ellipse fill="#F2F2F2" cx="108" cy="104.32" rx="34.368" ry="31.604"/>
		<ellipse fill="#EAEAEA" cx="108" cy="70.705" rx="22.85" ry="20.004"/>
		<circle fill="#564A3D" cx="114.792" cy="68.141" r="2.472"/>
		<circle fill="#F2F2F2" cx="115.392" cy="66.926" r="0.874"/>
		<circle fill="#564A3D" cx="101.208" cy="68.141" r="2.472"/>
		<circle fill="#F2F2F2" cx="101.809" cy="66.926" r="0.874"/>
		<g>
			<path fill="#564A3D" d="M108.001,101.188c1.295-0.002,2.351,1.053,2.351,2.352c0,1.295-1.056,2.35-2.351,2.352
				c-1.298,0-2.353-1.055-2.353-2.352S106.703,101.188,108.001,101.188 M108.001,100.479c-1.691,0-3.061,1.371-3.061,3.061
				s1.369,3.061,3.061,3.061c1.689-0.002,3.059-1.371,3.059-3.061C111.06,101.848,109.69,100.477,108.001,100.479L108.001,100.479z"
				/>
			<circle fill="#564A3D" cx="108" cy="103.539" r="1.541"/>
		</g>
		<g>
			<path fill="#564A3D" d="M108.001,112.324c1.295-0.002,2.351,1.055,2.351,2.35c0,1.299-1.056,2.354-2.351,2.354
				c-1.298,0-2.353-1.055-2.353-2.352S106.703,112.324,108.001,112.324 M108.001,111.615c-1.691,0-3.061,1.371-3.061,3.061
				c0,1.691,1.369,3.061,3.061,3.061c1.689-0.002,3.059-1.371,3.059-3.063C111.06,112.984,109.69,111.615,108.001,111.615
				L108.001,111.615z"/>
			<circle fill="#564A3D" cx="108" cy="114.675" r="1.541"/>
		</g>
		<g>
			<path fill="#564A3D" d="M108.001,123.461c1.295,0,2.351,1.055,2.351,2.352s-1.056,2.352-2.351,2.352
				c-1.298,0-2.353-1.055-2.353-2.352S106.703,123.461,108.001,123.461 M108.001,122.754c-1.691,0-3.061,1.369-3.061,3.059
				c0,1.691,1.369,3.061,3.061,3.061c1.689,0,3.059-1.371,3.059-3.061S109.69,122.752,108.001,122.754L108.001,122.754z"/>
			<circle fill="#564A3D" cx="108" cy="125.813" r="1.541"/>
		</g>
		<path fill="#278972" d="M122.351,53.213c0.029,0.18,0.048,0.352,0.048,0.498c0,3.092-6.447,4.811-14.398,4.811
			c-7.953,0-14.399-1.717-14.399-4.809c0-0.148,0.02-0.318,0.048-0.5c-1.575,0.824-2.5,1.791-2.5,2.828
			c0,2.992,7.545,5.418,16.852,5.418c9.308,0,16.852-2.426,16.852-5.418C124.852,55.004,123.927,54.037,122.351,53.213z"/>
		<path fill="#49BEA6" d="M122.398,53.711c0,3.092-6.447,4.811-14.398,4.811c-7.953,0-14.399-1.717-14.399-4.809
			c0-3.094,6.448-14.24,14.401-14.24C115.952,39.473,122.398,50.619,122.398,53.711z"/>
		<g>
			<path fill="#564A3D" d="M107.773,84.922c-4.239,0-8.301-1.518-11.142-4.164c-0.242-0.227-0.256-0.605-0.029-0.85
				c0.227-0.24,0.605-0.254,0.848-0.029c2.621,2.441,6.384,3.842,10.323,3.842c4.197,0,8.117-1.555,10.755-4.264
				c0.23-0.238,0.61-0.242,0.849-0.012c0.237,0.232,0.242,0.611,0.012,0.85C116.526,83.234,112.293,84.922,107.773,84.922z"/>
		</g>
		<circle fill="#278972" cx="108" cy="39.721" r="1.935"/>
		<path fill="#278972" d="M108,47.559c-4.27,0-8.093-0.498-10.727-1.436c-1.204,1.574-2.161,3.199-2.795,4.596
			c2.01,1.939,7.297,2.994,13.521,2.994c6.224,0,11.51-1.057,13.521-2.996c-0.634-1.395-1.591-3.021-2.795-4.596
			C116.093,47.059,112.27,47.559,108,47.559z"/>
		<path fill="#E74646" d="M108.772,72.838c-2.567,1.064-1.409,3.551-1.409,3.551l5.388,0.82L108.772,72.838z"/>
		<polygon fill="#564A3D" points="64.866,91.15 64.669,84.703 66.26,78.971 64.503,78.971 63.748,82.023 62.652,78.971 
			60.879,78.971 62.867,84.748 63.197,92.07 77.961,102.178 78.85,100.74 		"/>
		<polygon fill="#564A3D" points="153.346,83.107 152.252,86.16 151.497,83.107 149.74,83.107 151.33,88.84 151.133,95.287 
			137.15,104.879 138.039,106.316 152.803,96.209 153.133,88.885 155.12,83.107 		"/>
		<path fill="#E74646" d="M127.215,90.609l11.966,18.072l6.065-4.016l-13.495-20.381c0.918-1.941,1.542-4.014,1.806-6.186
			c-1.079-0.889-2.217-1.719-3.4-2.494c-2.497,8.68-11.469,15.104-22.156,15.104c-10.688,0-19.659-6.424-22.156-15.104
			c-1.185,0.775-2.322,1.605-3.401,2.494C83.82,89.393,94.734,98.189,108,98.189c3.905,0,7.597-0.779,10.911-2.145l6.889,10.404
			l6.065-4.014l-6.647-10.043C125.924,91.834,126.582,91.232,127.215,90.609z"/>
	</g>
</g>
</svg>
