<?xml version="1.0" encoding="utf-8"?>
<!-- Generator: Adobe Illustrator 16.0.0, SVG Export Plug-In . SVG Version: 6.00 Build 0)  -->
<!DOCTYPE svg PUBLIC "-//W3C//DTD SVG 1.1//EN" "http://www.w3.org/Graphics/SVG/1.1/DTD/svg11.dtd">
<svg version="1.1" id="Layer_1" xmlns="http://www.w3.org/2000/svg" xmlns:xlink="http://www.w3.org/1999/xlink" x="0px" y="0px"
	 width="216px" height="216px" viewBox="0 0 216 216" enable-background="new 0 0 216 216" xml:space="preserve">
<g>
	<g>
		<circle fill="#E9CEBD" cx="108" cy="108" r="108"/>
	</g>
	<g>
		<g>
			<path fill="#49BEA6" d="M151.625,139.707c-4.032,2.223-9.468,4.086-15.313,4.35c-2.043,0.092-4.05-0.18-5.997-0.524
				c-5.776,5.285-13.375,8.612-21.744,8.93c-0.19-0.007-0.382-0.018-0.571-0.026c-0.191,0.008-0.381,0.019-0.572,0.026
				c-8.369-0.318-15.969-3.645-21.744-8.931c-1.947,0.345-3.953,0.617-5.998,0.525c-5.844-0.264-11.279-2.128-15.312-4.348
				c-4.022,5.117-8.846,9.989-14.617,14.327c3.386,4.209,13.495,9.924,24.925,10.441c2.406,0.108,4.766-0.213,7.057-0.618
				c6.799,6.22,15.74,10.133,25.588,10.509c0.226-0.008,0.449-0.021,0.674-0.033c0.223,0.013,0.447,0.025,0.672,0.033
				c9.848-0.375,18.79-4.289,25.588-10.508c2.291,0.405,4.651,0.726,7.057,0.618c11.43-0.517,21.541-6.23,24.926-10.44
				C160.471,149.697,155.646,144.827,151.625,139.707z"/>
		</g>
		<g>
			<path fill="#278972" d="M142.674,119.765c-3.176,1.604-7.254,2.892-11.609,3.089c-1.665,0.076-3.299-0.146-4.885-0.427
				c-4.707,4.305-10.896,7.016-17.714,7.274c-0.157-0.005-0.312-0.015-0.466-0.022c-0.156,0.008-0.311,0.017-0.467,0.022
				c-6.817-0.259-13.008-2.969-17.713-7.276c-1.587,0.281-3.221,0.503-4.886,0.429c-4.355-0.198-8.433-1.484-11.61-3.088
				c-3.846,5.531-8.71,10.826-14.819,15.418c2.876,3.577,11.468,8.434,21.181,8.873c2.045,0.092,4.051-0.18,5.998-0.525
				c5.775,5.286,13.375,8.612,21.744,8.931c0.191-0.007,0.381-0.018,0.572-0.026c0.189,0.008,0.381,0.019,0.571,0.026
				c8.369-0.318,15.968-3.645,21.744-8.93c1.947,0.344,3.954,0.617,5.997,0.524c9.714-0.439,18.306-5.294,21.182-8.872
				C151.385,130.591,146.52,125.298,142.674,119.765z"/>
		</g>
		<path fill="#49BEA6" d="M138.191,105.69c-2.731,1.674-6.682,3.165-10.967,3.359c-1.357,0.061-2.688-0.12-3.979-0.348
			c-3.834,3.507-8.876,5.715-14.431,5.925c-0.127-0.004-0.253-0.011-0.379-0.018c-0.127,0.006-0.254,0.014-0.38,0.018
			c-0.02,0-0.038-0.003-0.057-0.005c-0.019,0.002-0.038,0.005-0.055,0.005c-0.128-0.004-0.254-0.011-0.381-0.018
			c-0.126,0.006-0.252,0.014-0.378,0.018c-5.556-0.21-10.598-2.418-14.432-5.925c-1.293,0.229-2.623,0.409-3.979,0.348
			c-4.286-0.195-8.235-1.685-10.968-3.359c-2.787,3.549-6.127,6.929-10.129,9.937c2.345,2.914,9.344,6.87,17.257,7.228
			c1.665,0.074,3.299-0.147,4.886-0.429c4.705,4.307,10.896,7.017,17.713,7.276c0.156-0.005,0.311-0.015,0.467-0.022
			c0.154,0.008,0.309,0.017,0.466,0.022c6.817-0.259,13.007-2.969,17.714-7.274c1.586,0.281,3.22,0.503,4.885,0.427
			c7.913-0.357,14.912-4.313,17.256-7.228C144.318,112.619,140.979,109.241,138.191,105.69z"/>
		<path fill="#278972" d="M108,49.024V49.02c0,0,0,0.001-0.001,0.002c0-0.001,0-0.002,0-0.002L108,49.024
			c-9.722,25.336-19.129,40.012-33.283,54.136c1.909,2.375,7.611,5.598,14.058,5.889c1.356,0.061,2.687-0.12,3.979-0.348
			c3.834,3.507,8.876,5.715,14.432,5.925c0.126-0.004,0.252-0.011,0.378-0.018c0.127,0.006,0.253,0.014,0.381,0.018
			c0.017,0,0.036-0.003,0.055-0.005c0.019,0.002,0.037,0.005,0.057,0.005c0.126-0.004,0.253-0.011,0.38-0.018
			c0.126,0.006,0.252,0.014,0.379,0.018c5.555-0.21,10.597-2.418,14.431-5.925c1.292,0.228,2.622,0.409,3.979,0.348
			c6.446-0.291,12.148-3.514,14.059-5.888C127.126,89.037,117.721,74.361,108,49.024z"/>
		<g>
			<path fill="#E74646" d="M131.139,104.814c1.157-0.709,2.686-0.367,3.415,0.766c0.729,1.133,0.384,2.628-0.772,3.339
				c-1.156,0.709-2.685,0.367-3.415-0.766C129.637,107.02,129.982,105.525,131.139,104.814z"/>
		</g>
		<g>
			<path fill="#E74646" d="M70.92,140.077c1.157-0.709,2.686-0.368,3.415,0.766c0.729,1.133,0.384,2.627-0.772,3.338
				c-1.156,0.708-2.685,0.367-3.415-0.765C69.418,142.282,69.764,140.788,70.92,140.077z"/>
		</g>
		<g>
			
				<ellipse transform="matrix(-0.5427 -0.8399 0.8399 -0.5427 39.9725 233.145)" fill="#E74646" cx="83.456" cy="105.691" rx="3.608" ry="3.57"/>
		</g>
		<g>
			
				<ellipse transform="matrix(-0.5427 -0.84 0.84 -0.5427 90.2942 295.4612)" fill="#E74646" cx="125.585" cy="123.148" rx="3.608" ry="3.57"/>
		</g>
		<g>
			
				<ellipse transform="matrix(-0.5428 -0.8399 0.8399 -0.5428 80.1777 330.258)" fill="#E74646" cx="129.984" cy="143.305" rx="3.608" ry="3.571"/>
		</g>
		<g>
			<path fill="#E74646" d="M96.505,145.276c2.156-1.381,5.047-0.732,6.461,1.451c1.411,2.184,0.811,5.074-1.344,6.457
				c-2.155,1.382-5.046,0.733-6.461-1.45C93.748,149.552,94.35,146.66,96.505,145.276z"/>
		</g>
		<g>
			<path fill="#E74646" d="M105.441,109.062c2.156-1.381,5.048-0.734,6.461,1.452c1.411,2.183,0.811,5.074-1.344,6.458
				c-2.155,1.381-5.046,0.731-6.461-1.451C102.686,113.337,103.287,110.446,105.441,109.062z"/>
		</g>
		<g>
			<path fill="#E74646" d="M96.077,71.648c1.712-1.115,4.001-0.621,5.116,1.106c1.112,1.727,0.629,4.029-1.082,5.145
				c-1.712,1.113-4.001,0.619-5.116-1.107C93.882,75.067,94.366,72.762,96.077,71.648z"/>
		</g>
		<g>
			<path fill="#E74646" d="M122.463,82.419c1.712-1.115,4.002-0.62,5.116,1.107c1.112,1.726,0.629,4.029-1.083,5.144
				c-1.711,1.113-4,0.619-5.116-1.107C120.268,85.837,120.751,83.534,122.463,82.419z"/>
		</g>
		<g>
			<path fill="#E74646" d="M92.963,123.552c1.28-0.775,2.959-0.401,3.752,0.832c0.791,1.235,0.396,2.864-0.883,3.638
				c-1.281,0.774-2.959,0.403-3.753-0.832C91.287,125.956,91.683,124.326,92.963,123.552z"/>
		</g>
		<polygon fill="#E74646" points="108,28.046 111.527,35.194 119.415,36.341 113.707,41.904 115.055,49.761 108,46.051 
			100.943,49.761 102.291,41.904 96.584,36.341 104.472,35.194 		"/>
		<path fill="#9E7153" d="M108.672,174.367c-0.225-0.008-0.449-0.021-0.672-0.033c-0.225,0.013-0.448,0.025-0.674,0.033
			c-2.381-0.091-4.707-0.393-6.965-0.88v14.466h15.277v-14.465C113.38,173.974,111.054,174.276,108.672,174.367z"/>
		<g>
			<circle fill="#FFFFFF" cx="105.168" cy="78.196" r="2.012"/>
			<circle fill="#FFFFFF" cx="110.003" cy="81.126" r="1.69"/>
			<circle fill="#FFFFFF" cx="114.343" cy="82.661" r="1.186"/>
			<circle fill="#FFFFFF" cx="118.333" cy="83.76" r="1.063"/>
		</g>
		<g>
			<circle fill="#FFFFFF" cx="77.331" cy="116.162" r="2.011"/>
			<circle fill="#FFFFFF" cx="82.81" cy="114.768" r="1.69"/>
			<circle fill="#FFFFFF" cx="86.946" cy="112.75" r="1.187"/>
			<circle fill="#FFFFFF" cx="90.529" cy="110.675" r="1.063"/>
		</g>
		<g>
			<path fill="#FFFFFF" d="M106.639,157.38c-0.806,0.765-2.079,0.73-2.843-0.074c-0.765-0.804-0.731-2.077,0.074-2.843
				c0.807-0.765,2.079-0.731,2.843,0.075C107.477,155.341,107.445,156.617,106.639,157.38z"/>
			<circle fill="#FFFFFF" cx="110.036" cy="158.938" r="1.69"/>
			<circle fill="#FFFFFF" cx="114.348" cy="160.55" r="1.186"/>
			<circle fill="#FFFFFF" cx="118.318" cy="161.72" r="1.063"/>
		</g>
		<g>
			<path fill="#FFFFFF" d="M116.453,141.726c-0.117,1.846,1.288,3.435,3.131,3.547c1.846,0.113,3.438-1.289,3.555-3.136
				c0.117-1.85-1.285-3.437-3.131-3.55C118.164,138.474,116.572,139.876,116.453,141.726z"/>
			<path fill="#FFFFFF" d="M108.025,138.88c-0.098,1.555,1.082,2.887,2.631,2.983c1.551,0.095,2.891-1.083,2.987-2.638
				c0.1-1.553-1.08-2.887-2.632-2.984C109.465,136.147,108.125,137.326,108.025,138.88z"/>
			<path fill="#FFFFFF" d="M102.201,135.155c-0.07,1.089,0.76,2.026,1.846,2.093c1.088,0.066,2.026-0.76,2.097-1.851
				c0.068-1.091-0.761-2.027-1.847-2.093C103.209,133.237,102.27,134.064,102.201,135.155z"/>
			<path fill="#FFFFFF" d="M96.671,131.352c-0.063,0.976,0.679,1.816,1.655,1.874c0.975,0.062,1.817-0.68,1.879-1.657
				c0.063-0.978-0.68-1.817-1.656-1.876C97.576,129.633,96.732,130.375,96.671,131.352z"/>
		</g>
	</g>
</g>
</svg>
